G04 #@! TF.GenerationSoftware,KiCad,Pcbnew,5.1.10*
G04 #@! TF.CreationDate,2021-09-21T16:03:23-04:00*
G04 #@! TF.ProjectId,tinycalibrator,74696e79-6361-46c6-9962-7261746f722e,rev?*
G04 #@! TF.SameCoordinates,Original*
G04 #@! TF.FileFunction,Legend,Bot*
G04 #@! TF.FilePolarity,Positive*
%FSLAX46Y46*%
G04 Gerber Fmt 4.6, Leading zero omitted, Abs format (unit mm)*
G04 Created by KiCad (PCBNEW 5.1.10) date 2021-09-21 16:03:23*
%MOMM*%
%LPD*%
G01*
G04 APERTURE LIST*
%ADD10C,0.150000*%
G04 #@! TA.AperFunction,Profile*
%ADD11C,0.050000*%
G04 #@! TD*
%ADD12C,0.010000*%
%ADD13C,0.120000*%
G04 APERTURE END LIST*
D10*
X164590857Y-109513714D02*
X164590857Y-110323238D01*
X164638476Y-110418476D01*
X164686095Y-110466095D01*
X164781333Y-110513714D01*
X164924190Y-110513714D01*
X165019428Y-110466095D01*
X164590857Y-110132761D02*
X164686095Y-110180380D01*
X164876571Y-110180380D01*
X164971809Y-110132761D01*
X165019428Y-110085142D01*
X165067047Y-109989904D01*
X165067047Y-109704190D01*
X165019428Y-109608952D01*
X164971809Y-109561333D01*
X164876571Y-109513714D01*
X164686095Y-109513714D01*
X164590857Y-109561333D01*
X164114666Y-110180380D02*
X164114666Y-109513714D01*
X164114666Y-109180380D02*
X164162285Y-109228000D01*
X164114666Y-109275619D01*
X164067047Y-109228000D01*
X164114666Y-109180380D01*
X164114666Y-109275619D01*
X163781333Y-109513714D02*
X163400380Y-109513714D01*
X163638476Y-109180380D02*
X163638476Y-110037523D01*
X163590857Y-110132761D01*
X163495619Y-110180380D01*
X163400380Y-110180380D01*
X163067047Y-110180380D02*
X163067047Y-109180380D01*
X162638476Y-110180380D02*
X162638476Y-109656571D01*
X162686095Y-109561333D01*
X162781333Y-109513714D01*
X162924190Y-109513714D01*
X163019428Y-109561333D01*
X163067047Y-109608952D01*
X161733714Y-109513714D02*
X161733714Y-110180380D01*
X162162285Y-109513714D02*
X162162285Y-110037523D01*
X162114666Y-110132761D01*
X162019428Y-110180380D01*
X161876571Y-110180380D01*
X161781333Y-110132761D01*
X161733714Y-110085142D01*
X161257523Y-110180380D02*
X161257523Y-109180380D01*
X161257523Y-109561333D02*
X161162285Y-109513714D01*
X160971809Y-109513714D01*
X160876571Y-109561333D01*
X160828952Y-109608952D01*
X160781333Y-109704190D01*
X160781333Y-109989904D01*
X160828952Y-110085142D01*
X160876571Y-110132761D01*
X160971809Y-110180380D01*
X161162285Y-110180380D01*
X161257523Y-110132761D01*
X160352761Y-110085142D02*
X160305142Y-110132761D01*
X160352761Y-110180380D01*
X160400380Y-110132761D01*
X160352761Y-110085142D01*
X160352761Y-110180380D01*
X159448000Y-110132761D02*
X159543238Y-110180380D01*
X159733714Y-110180380D01*
X159828952Y-110132761D01*
X159876571Y-110085142D01*
X159924190Y-109989904D01*
X159924190Y-109704190D01*
X159876571Y-109608952D01*
X159828952Y-109561333D01*
X159733714Y-109513714D01*
X159543238Y-109513714D01*
X159448000Y-109561333D01*
X158876571Y-110180380D02*
X158971809Y-110132761D01*
X159019428Y-110085142D01*
X159067047Y-109989904D01*
X159067047Y-109704190D01*
X159019428Y-109608952D01*
X158971809Y-109561333D01*
X158876571Y-109513714D01*
X158733714Y-109513714D01*
X158638476Y-109561333D01*
X158590857Y-109608952D01*
X158543238Y-109704190D01*
X158543238Y-109989904D01*
X158590857Y-110085142D01*
X158638476Y-110132761D01*
X158733714Y-110180380D01*
X158876571Y-110180380D01*
X158114666Y-110180380D02*
X158114666Y-109513714D01*
X158114666Y-109608952D02*
X158067047Y-109561333D01*
X157971809Y-109513714D01*
X157828952Y-109513714D01*
X157733714Y-109561333D01*
X157686095Y-109656571D01*
X157686095Y-110180380D01*
X157686095Y-109656571D02*
X157638476Y-109561333D01*
X157543238Y-109513714D01*
X157400380Y-109513714D01*
X157305142Y-109561333D01*
X157257523Y-109656571D01*
X157257523Y-110180380D01*
X156067047Y-109132761D02*
X156924190Y-110418476D01*
X155781333Y-110132761D02*
X155638476Y-110180380D01*
X155400380Y-110180380D01*
X155305142Y-110132761D01*
X155257523Y-110085142D01*
X155209904Y-109989904D01*
X155209904Y-109894666D01*
X155257523Y-109799428D01*
X155305142Y-109751809D01*
X155400380Y-109704190D01*
X155590857Y-109656571D01*
X155686095Y-109608952D01*
X155733714Y-109561333D01*
X155781333Y-109466095D01*
X155781333Y-109370857D01*
X155733714Y-109275619D01*
X155686095Y-109228000D01*
X155590857Y-109180380D01*
X155352761Y-109180380D01*
X155209904Y-109228000D01*
X154352761Y-109513714D02*
X154352761Y-110180380D01*
X154781333Y-109513714D02*
X154781333Y-110037523D01*
X154733714Y-110132761D01*
X154638476Y-110180380D01*
X154495619Y-110180380D01*
X154400380Y-110132761D01*
X154352761Y-110085142D01*
X153876571Y-109513714D02*
X153876571Y-110513714D01*
X153876571Y-109561333D02*
X153781333Y-109513714D01*
X153590857Y-109513714D01*
X153495619Y-109561333D01*
X153448000Y-109608952D01*
X153400380Y-109704190D01*
X153400380Y-109989904D01*
X153448000Y-110085142D01*
X153495619Y-110132761D01*
X153590857Y-110180380D01*
X153781333Y-110180380D01*
X153876571Y-110132761D01*
X152971809Y-110180380D02*
X152971809Y-109513714D01*
X152971809Y-109704190D02*
X152924190Y-109608952D01*
X152876571Y-109561333D01*
X152781333Y-109513714D01*
X152686095Y-109513714D01*
X152352761Y-110180380D02*
X152352761Y-109180380D01*
X151971809Y-109180380D01*
X151876571Y-109228000D01*
X151828952Y-109275619D01*
X151781333Y-109370857D01*
X151781333Y-109513714D01*
X151828952Y-109608952D01*
X151876571Y-109656571D01*
X151971809Y-109704190D01*
X152352761Y-109704190D01*
X151352761Y-110180380D02*
X151352761Y-109180380D01*
X150924190Y-110180380D02*
X150924190Y-109656571D01*
X150971809Y-109561333D01*
X151067047Y-109513714D01*
X151209904Y-109513714D01*
X151305142Y-109561333D01*
X151352761Y-109608952D01*
X150019428Y-110180380D02*
X150019428Y-109656571D01*
X150067047Y-109561333D01*
X150162285Y-109513714D01*
X150352761Y-109513714D01*
X150448000Y-109561333D01*
X150019428Y-110132761D02*
X150114666Y-110180380D01*
X150352761Y-110180380D01*
X150448000Y-110132761D01*
X150495619Y-110037523D01*
X150495619Y-109942285D01*
X150448000Y-109847047D01*
X150352761Y-109799428D01*
X150114666Y-109799428D01*
X150019428Y-109751809D01*
X149686095Y-109513714D02*
X149305142Y-109513714D01*
X149543238Y-109180380D02*
X149543238Y-110037523D01*
X149495619Y-110132761D01*
X149400380Y-110180380D01*
X149305142Y-110180380D01*
X149019428Y-109894666D02*
X148543238Y-109894666D01*
X149114666Y-110180380D02*
X148781333Y-109180380D01*
X148448000Y-110180380D01*
X148114666Y-109513714D02*
X148114666Y-110180380D01*
X148114666Y-109608952D02*
X148067047Y-109561333D01*
X147971809Y-109513714D01*
X147828952Y-109513714D01*
X147733714Y-109561333D01*
X147686095Y-109656571D01*
X147686095Y-110180380D01*
X147067047Y-110180380D02*
X147162285Y-110132761D01*
X147209904Y-110085142D01*
X147257523Y-109989904D01*
X147257523Y-109704190D01*
X147209904Y-109608952D01*
X147162285Y-109561333D01*
X147067047Y-109513714D01*
X146924190Y-109513714D01*
X146828952Y-109561333D01*
X146781333Y-109608952D01*
X146733714Y-109704190D01*
X146733714Y-109989904D01*
X146781333Y-110085142D01*
X146828952Y-110132761D01*
X146924190Y-110180380D01*
X147067047Y-110180380D01*
X146305142Y-109513714D02*
X146305142Y-110180380D01*
X146305142Y-109608952D02*
X146257523Y-109561333D01*
X146162285Y-109513714D01*
X146019428Y-109513714D01*
X145924190Y-109561333D01*
X145876571Y-109656571D01*
X145876571Y-110180380D01*
X111466380Y-89456761D02*
X112466380Y-89790095D01*
X111466380Y-90123428D01*
X111466380Y-90885333D02*
X111466380Y-90694857D01*
X111514000Y-90599619D01*
X111561619Y-90552000D01*
X111704476Y-90456761D01*
X111894952Y-90409142D01*
X112275904Y-90409142D01*
X112371142Y-90456761D01*
X112418761Y-90504380D01*
X112466380Y-90599619D01*
X112466380Y-90790095D01*
X112418761Y-90885333D01*
X112371142Y-90932952D01*
X112275904Y-90980571D01*
X112037809Y-90980571D01*
X111942571Y-90932952D01*
X111894952Y-90885333D01*
X111847333Y-90790095D01*
X111847333Y-90599619D01*
X111894952Y-90504380D01*
X111942571Y-90456761D01*
X112037809Y-90409142D01*
X112466380Y-91456761D02*
X112466380Y-91647238D01*
X112418761Y-91742476D01*
X112371142Y-91790095D01*
X112228285Y-91885333D01*
X112037809Y-91932952D01*
X111656857Y-91932952D01*
X111561619Y-91885333D01*
X111514000Y-91837714D01*
X111466380Y-91742476D01*
X111466380Y-91552000D01*
X111514000Y-91456761D01*
X111561619Y-91409142D01*
X111656857Y-91361523D01*
X111894952Y-91361523D01*
X111990190Y-91409142D01*
X112037809Y-91456761D01*
X112085428Y-91552000D01*
X112085428Y-91742476D01*
X112037809Y-91837714D01*
X111990190Y-91885333D01*
X111894952Y-91932952D01*
X112371142Y-92361523D02*
X112418761Y-92409142D01*
X112466380Y-92361523D01*
X112418761Y-92313904D01*
X112371142Y-92361523D01*
X112466380Y-92361523D01*
X111799714Y-93266285D02*
X112466380Y-93266285D01*
X111418761Y-93028190D02*
X112133047Y-92790095D01*
X112133047Y-93409142D01*
X111561619Y-93742476D02*
X111514000Y-93790095D01*
X111466380Y-93885333D01*
X111466380Y-94123428D01*
X111514000Y-94218666D01*
X111561619Y-94266285D01*
X111656857Y-94313904D01*
X111752095Y-94313904D01*
X111894952Y-94266285D01*
X112466380Y-93694857D01*
X112466380Y-94313904D01*
X111466380Y-94932952D02*
X111466380Y-95028190D01*
X111514000Y-95123428D01*
X111561619Y-95171047D01*
X111656857Y-95218666D01*
X111847333Y-95266285D01*
X112085428Y-95266285D01*
X112275904Y-95218666D01*
X112371142Y-95171047D01*
X112418761Y-95123428D01*
X112466380Y-95028190D01*
X112466380Y-94932952D01*
X112418761Y-94837714D01*
X112371142Y-94790095D01*
X112275904Y-94742476D01*
X112085428Y-94694857D01*
X111847333Y-94694857D01*
X111656857Y-94742476D01*
X111561619Y-94790095D01*
X111514000Y-94837714D01*
X111466380Y-94932952D01*
X112371142Y-95694857D02*
X112418761Y-95742476D01*
X112466380Y-95694857D01*
X112418761Y-95647238D01*
X112371142Y-95694857D01*
X112466380Y-95694857D01*
X111942571Y-96504380D02*
X111942571Y-96171047D01*
X112466380Y-96171047D02*
X111466380Y-96171047D01*
X111466380Y-96647238D01*
X112466380Y-97028190D02*
X111799714Y-97028190D01*
X111466380Y-97028190D02*
X111514000Y-96980571D01*
X111561619Y-97028190D01*
X111514000Y-97075809D01*
X111466380Y-97028190D01*
X111561619Y-97028190D01*
X111799714Y-97504380D02*
X112466380Y-97504380D01*
X111894952Y-97504380D02*
X111847333Y-97552000D01*
X111799714Y-97647238D01*
X111799714Y-97790095D01*
X111847333Y-97885333D01*
X111942571Y-97932952D01*
X112466380Y-97932952D01*
X112466380Y-98837714D02*
X111942571Y-98837714D01*
X111847333Y-98790095D01*
X111799714Y-98694857D01*
X111799714Y-98504380D01*
X111847333Y-98409142D01*
X112418761Y-98837714D02*
X112466380Y-98742476D01*
X112466380Y-98504380D01*
X112418761Y-98409142D01*
X112323523Y-98361523D01*
X112228285Y-98361523D01*
X112133047Y-98409142D01*
X112085428Y-98504380D01*
X112085428Y-98742476D01*
X112037809Y-98837714D01*
X112466380Y-99456761D02*
X112418761Y-99361523D01*
X112323523Y-99313904D01*
X111466380Y-99313904D01*
X112371142Y-99837714D02*
X112418761Y-99885333D01*
X112466380Y-99837714D01*
X112418761Y-99790095D01*
X112371142Y-99837714D01*
X112466380Y-99837714D01*
X111799714Y-100313904D02*
X112799714Y-100313904D01*
X111847333Y-100313904D02*
X111799714Y-100409142D01*
X111799714Y-100599619D01*
X111847333Y-100694857D01*
X111894952Y-100742476D01*
X111990190Y-100790095D01*
X112275904Y-100790095D01*
X112371142Y-100742476D01*
X112418761Y-100694857D01*
X112466380Y-100599619D01*
X112466380Y-100409142D01*
X112418761Y-100313904D01*
X112466380Y-101647238D02*
X111466380Y-101647238D01*
X112418761Y-101647238D02*
X112466380Y-101552000D01*
X112466380Y-101361523D01*
X112418761Y-101266285D01*
X112371142Y-101218666D01*
X112275904Y-101171047D01*
X111990190Y-101171047D01*
X111894952Y-101218666D01*
X111847333Y-101266285D01*
X111799714Y-101361523D01*
X111799714Y-101552000D01*
X111847333Y-101647238D01*
X111799714Y-101980571D02*
X111799714Y-102361523D01*
X112466380Y-102123428D02*
X111609238Y-102123428D01*
X111514000Y-102171047D01*
X111466380Y-102266285D01*
X111466380Y-102361523D01*
X112371142Y-102694857D02*
X112418761Y-102742476D01*
X112466380Y-102694857D01*
X112418761Y-102647238D01*
X112371142Y-102694857D01*
X112466380Y-102694857D01*
X112466380Y-103171047D02*
X111466380Y-103171047D01*
X111847333Y-103171047D02*
X111799714Y-103266285D01*
X111799714Y-103456761D01*
X111847333Y-103552000D01*
X111894952Y-103599619D01*
X111990190Y-103647238D01*
X112275904Y-103647238D01*
X112371142Y-103599619D01*
X112418761Y-103552000D01*
X112466380Y-103456761D01*
X112466380Y-103266285D01*
X112418761Y-103171047D01*
X112466380Y-104504380D02*
X111942571Y-104504380D01*
X111847333Y-104456761D01*
X111799714Y-104361523D01*
X111799714Y-104171047D01*
X111847333Y-104075809D01*
X112418761Y-104504380D02*
X112466380Y-104409142D01*
X112466380Y-104171047D01*
X112418761Y-104075809D01*
X112323523Y-104028190D01*
X112228285Y-104028190D01*
X112133047Y-104075809D01*
X112085428Y-104171047D01*
X112085428Y-104409142D01*
X112037809Y-104504380D01*
X112466380Y-104980571D02*
X111466380Y-104980571D01*
X112085428Y-105075809D02*
X112466380Y-105361523D01*
X111799714Y-105361523D02*
X112180666Y-104980571D01*
X112371142Y-105790095D02*
X112418761Y-105837714D01*
X112466380Y-105790095D01*
X112418761Y-105742476D01*
X112371142Y-105790095D01*
X112466380Y-105790095D01*
X111799714Y-106171047D02*
X112466380Y-106409142D01*
X111799714Y-106647238D01*
X111561619Y-106980571D02*
X111514000Y-107028190D01*
X111466380Y-107123428D01*
X111466380Y-107361523D01*
X111514000Y-107456761D01*
X111561619Y-107504380D01*
X111656857Y-107552000D01*
X111752095Y-107552000D01*
X111894952Y-107504380D01*
X112466380Y-106932952D01*
X112466380Y-107552000D01*
X119855190Y-109307380D02*
X119855190Y-110021666D01*
X119902809Y-110164523D01*
X119998047Y-110259761D01*
X120140904Y-110307380D01*
X120236142Y-110307380D01*
X118902809Y-110307380D02*
X119379000Y-110307380D01*
X119379000Y-109307380D01*
X117998047Y-110212142D02*
X118045666Y-110259761D01*
X118188523Y-110307380D01*
X118283761Y-110307380D01*
X118426619Y-110259761D01*
X118521857Y-110164523D01*
X118569476Y-110069285D01*
X118617095Y-109878809D01*
X118617095Y-109735952D01*
X118569476Y-109545476D01*
X118521857Y-109450238D01*
X118426619Y-109355000D01*
X118283761Y-109307380D01*
X118188523Y-109307380D01*
X118045666Y-109355000D01*
X117998047Y-109402619D01*
X117283761Y-109307380D02*
X117283761Y-110021666D01*
X117331380Y-110164523D01*
X117426619Y-110259761D01*
X117569476Y-110307380D01*
X117664714Y-110307380D01*
X116331380Y-110307380D02*
X116807571Y-110307380D01*
X116807571Y-109307380D01*
X115426619Y-110212142D02*
X115474238Y-110259761D01*
X115617095Y-110307380D01*
X115712333Y-110307380D01*
X115855190Y-110259761D01*
X115950428Y-110164523D01*
X115998047Y-110069285D01*
X116045666Y-109878809D01*
X116045666Y-109735952D01*
X115998047Y-109545476D01*
X115950428Y-109450238D01*
X115855190Y-109355000D01*
X115712333Y-109307380D01*
X115617095Y-109307380D01*
X115474238Y-109355000D01*
X115426619Y-109402619D01*
X114712333Y-109307380D02*
X114712333Y-110021666D01*
X114759952Y-110164523D01*
X114855190Y-110259761D01*
X114998047Y-110307380D01*
X115093285Y-110307380D01*
X113759952Y-110307380D02*
X114236142Y-110307380D01*
X114236142Y-109307380D01*
X112855190Y-110212142D02*
X112902809Y-110259761D01*
X113045666Y-110307380D01*
X113140904Y-110307380D01*
X113283761Y-110259761D01*
X113379000Y-110164523D01*
X113426619Y-110069285D01*
X113474238Y-109878809D01*
X113474238Y-109735952D01*
X113426619Y-109545476D01*
X113379000Y-109450238D01*
X113283761Y-109355000D01*
X113140904Y-109307380D01*
X113045666Y-109307380D01*
X112902809Y-109355000D01*
X112855190Y-109402619D01*
X112140904Y-109307380D02*
X112140904Y-110021666D01*
X112188523Y-110164523D01*
X112283761Y-110259761D01*
X112426619Y-110307380D01*
X112521857Y-110307380D01*
X111188523Y-110307380D02*
X111664714Y-110307380D01*
X111664714Y-109307380D01*
X110283761Y-110212142D02*
X110331380Y-110259761D01*
X110474238Y-110307380D01*
X110569476Y-110307380D01*
X110712333Y-110259761D01*
X110807571Y-110164523D01*
X110855190Y-110069285D01*
X110902809Y-109878809D01*
X110902809Y-109735952D01*
X110855190Y-109545476D01*
X110807571Y-109450238D01*
X110712333Y-109355000D01*
X110569476Y-109307380D01*
X110474238Y-109307380D01*
X110331380Y-109355000D01*
X110283761Y-109402619D01*
X109569476Y-109307380D02*
X109569476Y-110021666D01*
X109617095Y-110164523D01*
X109712333Y-110259761D01*
X109855190Y-110307380D01*
X109950428Y-110307380D01*
X108617095Y-110307380D02*
X109093285Y-110307380D01*
X109093285Y-109307380D01*
X107712333Y-110212142D02*
X107759952Y-110259761D01*
X107902809Y-110307380D01*
X107998047Y-110307380D01*
X108140904Y-110259761D01*
X108236142Y-110164523D01*
X108283761Y-110069285D01*
X108331380Y-109878809D01*
X108331380Y-109735952D01*
X108283761Y-109545476D01*
X108236142Y-109450238D01*
X108140904Y-109355000D01*
X107998047Y-109307380D01*
X107902809Y-109307380D01*
X107759952Y-109355000D01*
X107712333Y-109402619D01*
X106998047Y-109307380D02*
X106998047Y-110021666D01*
X107045666Y-110164523D01*
X107140904Y-110259761D01*
X107283761Y-110307380D01*
X107379000Y-110307380D01*
X106045666Y-110307380D02*
X106521857Y-110307380D01*
X106521857Y-109307380D01*
X105140904Y-110212142D02*
X105188523Y-110259761D01*
X105331380Y-110307380D01*
X105426619Y-110307380D01*
X105569476Y-110259761D01*
X105664714Y-110164523D01*
X105712333Y-110069285D01*
X105759952Y-109878809D01*
X105759952Y-109735952D01*
X105712333Y-109545476D01*
X105664714Y-109450238D01*
X105569476Y-109355000D01*
X105426619Y-109307380D01*
X105331380Y-109307380D01*
X105188523Y-109355000D01*
X105140904Y-109402619D01*
X104426619Y-109307380D02*
X104426619Y-110021666D01*
X104474238Y-110164523D01*
X104569476Y-110259761D01*
X104712333Y-110307380D01*
X104807571Y-110307380D01*
X103474238Y-110307380D02*
X103950428Y-110307380D01*
X103950428Y-109307380D01*
X102569476Y-110212142D02*
X102617095Y-110259761D01*
X102759952Y-110307380D01*
X102855190Y-110307380D01*
X102998047Y-110259761D01*
X103093285Y-110164523D01*
X103140904Y-110069285D01*
X103188523Y-109878809D01*
X103188523Y-109735952D01*
X103140904Y-109545476D01*
X103093285Y-109450238D01*
X102998047Y-109355000D01*
X102855190Y-109307380D01*
X102759952Y-109307380D01*
X102617095Y-109355000D01*
X102569476Y-109402619D01*
X107720380Y-87480166D02*
X107720380Y-88051595D01*
X108720380Y-87765880D02*
X107720380Y-87765880D01*
X108720380Y-88384928D02*
X108053714Y-88384928D01*
X107720380Y-88384928D02*
X107768000Y-88337309D01*
X107815619Y-88384928D01*
X107768000Y-88432547D01*
X107720380Y-88384928D01*
X107815619Y-88384928D01*
X108053714Y-88861119D02*
X108720380Y-88861119D01*
X108148952Y-88861119D02*
X108101333Y-88908738D01*
X108053714Y-89003976D01*
X108053714Y-89146833D01*
X108101333Y-89242071D01*
X108196571Y-89289690D01*
X108720380Y-89289690D01*
X108053714Y-89670642D02*
X108720380Y-89908738D01*
X108053714Y-90146833D02*
X108720380Y-89908738D01*
X108958476Y-89813500D01*
X109006095Y-89765880D01*
X109053714Y-89670642D01*
X108625142Y-91861119D02*
X108672761Y-91813500D01*
X108720380Y-91670642D01*
X108720380Y-91575404D01*
X108672761Y-91432547D01*
X108577523Y-91337309D01*
X108482285Y-91289690D01*
X108291809Y-91242071D01*
X108148952Y-91242071D01*
X107958476Y-91289690D01*
X107863238Y-91337309D01*
X107768000Y-91432547D01*
X107720380Y-91575404D01*
X107720380Y-91670642D01*
X107768000Y-91813500D01*
X107815619Y-91861119D01*
X108720380Y-92718261D02*
X108196571Y-92718261D01*
X108101333Y-92670642D01*
X108053714Y-92575404D01*
X108053714Y-92384928D01*
X108101333Y-92289690D01*
X108672761Y-92718261D02*
X108720380Y-92623023D01*
X108720380Y-92384928D01*
X108672761Y-92289690D01*
X108577523Y-92242071D01*
X108482285Y-92242071D01*
X108387047Y-92289690D01*
X108339428Y-92384928D01*
X108339428Y-92623023D01*
X108291809Y-92718261D01*
X108720380Y-93337309D02*
X108672761Y-93242071D01*
X108577523Y-93194452D01*
X107720380Y-93194452D01*
X108720380Y-93718261D02*
X108053714Y-93718261D01*
X107720380Y-93718261D02*
X107768000Y-93670642D01*
X107815619Y-93718261D01*
X107768000Y-93765880D01*
X107720380Y-93718261D01*
X107815619Y-93718261D01*
X108720380Y-94194452D02*
X107720380Y-94194452D01*
X108101333Y-94194452D02*
X108053714Y-94289690D01*
X108053714Y-94480166D01*
X108101333Y-94575404D01*
X108148952Y-94623023D01*
X108244190Y-94670642D01*
X108529904Y-94670642D01*
X108625142Y-94623023D01*
X108672761Y-94575404D01*
X108720380Y-94480166D01*
X108720380Y-94289690D01*
X108672761Y-94194452D01*
X108720380Y-95099214D02*
X108053714Y-95099214D01*
X108244190Y-95099214D02*
X108148952Y-95146833D01*
X108101333Y-95194452D01*
X108053714Y-95289690D01*
X108053714Y-95384928D01*
X108720380Y-96146833D02*
X108196571Y-96146833D01*
X108101333Y-96099214D01*
X108053714Y-96003976D01*
X108053714Y-95813500D01*
X108101333Y-95718261D01*
X108672761Y-96146833D02*
X108720380Y-96051595D01*
X108720380Y-95813500D01*
X108672761Y-95718261D01*
X108577523Y-95670642D01*
X108482285Y-95670642D01*
X108387047Y-95718261D01*
X108339428Y-95813500D01*
X108339428Y-96051595D01*
X108291809Y-96146833D01*
X108053714Y-96480166D02*
X108053714Y-96861119D01*
X107720380Y-96623023D02*
X108577523Y-96623023D01*
X108672761Y-96670642D01*
X108720380Y-96765880D01*
X108720380Y-96861119D01*
X108720380Y-97194452D02*
X108053714Y-97194452D01*
X107720380Y-97194452D02*
X107768000Y-97146833D01*
X107815619Y-97194452D01*
X107768000Y-97242071D01*
X107720380Y-97194452D01*
X107815619Y-97194452D01*
X108720380Y-97813500D02*
X108672761Y-97718261D01*
X108625142Y-97670642D01*
X108529904Y-97623023D01*
X108244190Y-97623023D01*
X108148952Y-97670642D01*
X108101333Y-97718261D01*
X108053714Y-97813500D01*
X108053714Y-97956357D01*
X108101333Y-98051595D01*
X108148952Y-98099214D01*
X108244190Y-98146833D01*
X108529904Y-98146833D01*
X108625142Y-98099214D01*
X108672761Y-98051595D01*
X108720380Y-97956357D01*
X108720380Y-97813500D01*
X108053714Y-98575404D02*
X108720380Y-98575404D01*
X108148952Y-98575404D02*
X108101333Y-98623023D01*
X108053714Y-98718261D01*
X108053714Y-98861119D01*
X108101333Y-98956357D01*
X108196571Y-99003976D01*
X108720380Y-99003976D01*
X107720380Y-100099214D02*
X108720380Y-100432547D01*
X107720380Y-100765880D01*
X107720380Y-101289690D02*
X107720380Y-101384928D01*
X107768000Y-101480166D01*
X107815619Y-101527785D01*
X107910857Y-101575404D01*
X108101333Y-101623023D01*
X108339428Y-101623023D01*
X108529904Y-101575404D01*
X108625142Y-101527785D01*
X108672761Y-101480166D01*
X108720380Y-101384928D01*
X108720380Y-101289690D01*
X108672761Y-101194452D01*
X108625142Y-101146833D01*
X108529904Y-101099214D01*
X108339428Y-101051595D01*
X108101333Y-101051595D01*
X107910857Y-101099214D01*
X107815619Y-101146833D01*
X107768000Y-101194452D01*
X107720380Y-101289690D01*
X108625142Y-102051595D02*
X108672761Y-102099214D01*
X108720380Y-102051595D01*
X108672761Y-102003976D01*
X108625142Y-102051595D01*
X108720380Y-102051595D01*
X107720380Y-102432547D02*
X107720380Y-103051595D01*
X108101333Y-102718261D01*
X108101333Y-102861119D01*
X108148952Y-102956357D01*
X108196571Y-103003976D01*
X108291809Y-103051595D01*
X108529904Y-103051595D01*
X108625142Y-103003976D01*
X108672761Y-102956357D01*
X108720380Y-102861119D01*
X108720380Y-102575404D01*
X108672761Y-102480166D01*
X108625142Y-102432547D01*
X110370380Y-89813500D02*
X109370380Y-89813500D01*
X109751333Y-89813500D02*
X109703714Y-89908738D01*
X109703714Y-90099214D01*
X109751333Y-90194452D01*
X109798952Y-90242071D01*
X109894190Y-90289690D01*
X110179904Y-90289690D01*
X110275142Y-90242071D01*
X110322761Y-90194452D01*
X110370380Y-90099214D01*
X110370380Y-89908738D01*
X110322761Y-89813500D01*
X109703714Y-90623023D02*
X110370380Y-90861119D01*
X109703714Y-91099214D02*
X110370380Y-90861119D01*
X110608476Y-90765880D01*
X110656095Y-90718261D01*
X110703714Y-90623023D01*
X109703714Y-92146833D02*
X110370380Y-92337309D01*
X109894190Y-92527785D01*
X110370380Y-92718261D01*
X109703714Y-92908738D01*
X110370380Y-93718261D02*
X109846571Y-93718261D01*
X109751333Y-93670642D01*
X109703714Y-93575404D01*
X109703714Y-93384928D01*
X109751333Y-93289690D01*
X110322761Y-93718261D02*
X110370380Y-93623023D01*
X110370380Y-93384928D01*
X110322761Y-93289690D01*
X110227523Y-93242071D01*
X110132285Y-93242071D01*
X110037047Y-93289690D01*
X109989428Y-93384928D01*
X109989428Y-93623023D01*
X109941809Y-93718261D01*
X109703714Y-94623023D02*
X110513238Y-94623023D01*
X110608476Y-94575404D01*
X110656095Y-94527785D01*
X110703714Y-94432547D01*
X110703714Y-94289690D01*
X110656095Y-94194452D01*
X110322761Y-94623023D02*
X110370380Y-94527785D01*
X110370380Y-94337309D01*
X110322761Y-94242071D01*
X110275142Y-94194452D01*
X110179904Y-94146833D01*
X109894190Y-94146833D01*
X109798952Y-94194452D01*
X109751333Y-94242071D01*
X109703714Y-94337309D01*
X109703714Y-94527785D01*
X109751333Y-94623023D01*
X110370380Y-95099214D02*
X109703714Y-95099214D01*
X109370380Y-95099214D02*
X109418000Y-95051595D01*
X109465619Y-95099214D01*
X109418000Y-95146833D01*
X109370380Y-95099214D01*
X109465619Y-95099214D01*
X110370380Y-95575404D02*
X109703714Y-95575404D01*
X109798952Y-95575404D02*
X109751333Y-95623023D01*
X109703714Y-95718261D01*
X109703714Y-95861119D01*
X109751333Y-95956357D01*
X109846571Y-96003976D01*
X110370380Y-96003976D01*
X109846571Y-96003976D02*
X109751333Y-96051595D01*
X109703714Y-96146833D01*
X109703714Y-96289690D01*
X109751333Y-96384928D01*
X109846571Y-96432547D01*
X110370380Y-96432547D01*
X110370380Y-96908738D02*
X109703714Y-96908738D01*
X109370380Y-96908738D02*
X109418000Y-96861119D01*
X109465619Y-96908738D01*
X109418000Y-96956357D01*
X109370380Y-96908738D01*
X109465619Y-96908738D01*
X109703714Y-97384928D02*
X110370380Y-97384928D01*
X109798952Y-97384928D02*
X109751333Y-97432547D01*
X109703714Y-97527785D01*
X109703714Y-97670642D01*
X109751333Y-97765880D01*
X109846571Y-97813500D01*
X110370380Y-97813500D01*
X110370380Y-98718261D02*
X109846571Y-98718261D01*
X109751333Y-98670642D01*
X109703714Y-98575404D01*
X109703714Y-98384928D01*
X109751333Y-98289690D01*
X110322761Y-98718261D02*
X110370380Y-98623023D01*
X110370380Y-98384928D01*
X110322761Y-98289690D01*
X110227523Y-98242071D01*
X110132285Y-98242071D01*
X110037047Y-98289690D01*
X109989428Y-98384928D01*
X109989428Y-98623023D01*
X109941809Y-98718261D01*
X109703714Y-99051595D02*
X109703714Y-99432547D01*
X109370380Y-99194452D02*
X110227523Y-99194452D01*
X110322761Y-99242071D01*
X110370380Y-99337309D01*
X110370380Y-99432547D01*
X110370380Y-99908738D02*
X110322761Y-99813500D01*
X110275142Y-99765880D01*
X110179904Y-99718261D01*
X109894190Y-99718261D01*
X109798952Y-99765880D01*
X109751333Y-99813500D01*
X109703714Y-99908738D01*
X109703714Y-100051595D01*
X109751333Y-100146833D01*
X109798952Y-100194452D01*
X109894190Y-100242071D01*
X110179904Y-100242071D01*
X110275142Y-100194452D01*
X110322761Y-100146833D01*
X110370380Y-100051595D01*
X110370380Y-99908738D01*
X110370380Y-100670642D02*
X109703714Y-100670642D01*
X109894190Y-100670642D02*
X109798952Y-100718261D01*
X109751333Y-100765880D01*
X109703714Y-100861119D01*
X109703714Y-100956357D01*
D11*
X97000000Y-111000000D02*
X170000000Y-111000000D01*
X97000000Y-79000000D02*
X97000000Y-111000000D01*
X170000000Y-79000000D02*
X97000000Y-79000000D01*
X170000000Y-111000000D02*
X170000000Y-79000000D01*
D12*
G04 #@! TO.C,G\u002A\u002A\u002A*
G36*
X105812167Y-87058500D02*
G01*
X105812167Y-85746167D01*
X106235500Y-85746167D01*
X106235500Y-87058500D01*
X106701167Y-87058500D01*
X106701167Y-85238167D01*
X105346500Y-85238167D01*
X105346500Y-87058500D01*
X105812167Y-87058500D01*
G37*
X105812167Y-87058500D02*
X105812167Y-85746167D01*
X106235500Y-85746167D01*
X106235500Y-87058500D01*
X106701167Y-87058500D01*
X106701167Y-85238167D01*
X105346500Y-85238167D01*
X105346500Y-87058500D01*
X105812167Y-87058500D01*
G36*
X106701167Y-87693500D02*
G01*
X106701167Y-87227833D01*
X105346500Y-87227833D01*
X105346500Y-87693500D01*
X106701167Y-87693500D01*
G37*
X106701167Y-87693500D02*
X106701167Y-87227833D01*
X105346500Y-87227833D01*
X105346500Y-87693500D01*
X106701167Y-87693500D01*
G36*
X104458101Y-88276662D02*
G01*
X104465639Y-88509959D01*
X104488716Y-88690718D01*
X104535931Y-88825641D01*
X104615886Y-88921429D01*
X104737182Y-88984785D01*
X104908421Y-89022411D01*
X105138203Y-89041009D01*
X105435129Y-89047280D01*
X105807800Y-89047927D01*
X105822750Y-89047930D01*
X106701167Y-89048167D01*
X106701167Y-88540167D01*
X105878690Y-88540167D01*
X105586796Y-88539206D01*
X105368110Y-88535754D01*
X105211187Y-88528955D01*
X105104584Y-88517951D01*
X105036857Y-88501887D01*
X104996563Y-88479906D01*
X104989690Y-88473643D01*
X104962143Y-88431022D01*
X104943096Y-88358610D01*
X104931170Y-88242809D01*
X104924987Y-88070024D01*
X104923168Y-87826659D01*
X104923167Y-87817476D01*
X104923167Y-87227833D01*
X104457500Y-87227833D01*
X104457500Y-87984124D01*
X104458101Y-88276662D01*
G37*
X104458101Y-88276662D02*
X104465639Y-88509959D01*
X104488716Y-88690718D01*
X104535931Y-88825641D01*
X104615886Y-88921429D01*
X104737182Y-88984785D01*
X104908421Y-89022411D01*
X105138203Y-89041009D01*
X105435129Y-89047280D01*
X105807800Y-89047927D01*
X105822750Y-89047930D01*
X106701167Y-89048167D01*
X106701167Y-88540167D01*
X105878690Y-88540167D01*
X105586796Y-88539206D01*
X105368110Y-88535754D01*
X105211187Y-88528955D01*
X105104584Y-88517951D01*
X105036857Y-88501887D01*
X104996563Y-88479906D01*
X104989690Y-88473643D01*
X104962143Y-88431022D01*
X104943096Y-88358610D01*
X104931170Y-88242809D01*
X104924987Y-88070024D01*
X104923168Y-87826659D01*
X104923167Y-87817476D01*
X104923167Y-87227833D01*
X104457500Y-87227833D01*
X104457500Y-87984124D01*
X104458101Y-88276662D01*
G36*
X105716917Y-89683815D02*
G01*
X105892010Y-89688507D01*
X106038853Y-89700461D01*
X106133663Y-89717442D01*
X106150833Y-89724577D01*
X106185073Y-89772412D01*
X106208689Y-89873394D01*
X106224023Y-90040179D01*
X106229129Y-90147263D01*
X106243924Y-90529833D01*
X105812167Y-90529833D01*
X105812167Y-90064167D01*
X105346500Y-90064167D01*
X105346500Y-90995500D01*
X106701167Y-90995500D01*
X106698483Y-90265250D01*
X106695441Y-90018582D01*
X106688709Y-89796063D01*
X106679086Y-89613805D01*
X106667368Y-89487923D01*
X106657613Y-89440017D01*
X106594027Y-89335156D01*
X106492909Y-89259966D01*
X106342855Y-89210738D01*
X106132463Y-89183762D01*
X105850330Y-89175330D01*
X105843917Y-89175325D01*
X105346500Y-89175167D01*
X105346500Y-89683167D01*
X105716917Y-89683815D01*
G37*
X105716917Y-89683815D02*
X105892010Y-89688507D01*
X106038853Y-89700461D01*
X106133663Y-89717442D01*
X106150833Y-89724577D01*
X106185073Y-89772412D01*
X106208689Y-89873394D01*
X106224023Y-90040179D01*
X106229129Y-90147263D01*
X106243924Y-90529833D01*
X105812167Y-90529833D01*
X105812167Y-90064167D01*
X105346500Y-90064167D01*
X105346500Y-90995500D01*
X106701167Y-90995500D01*
X106698483Y-90265250D01*
X106695441Y-90018582D01*
X106688709Y-89796063D01*
X106679086Y-89613805D01*
X106667368Y-89487923D01*
X106657613Y-89440017D01*
X106594027Y-89335156D01*
X106492909Y-89259966D01*
X106342855Y-89210738D01*
X106132463Y-89183762D01*
X105850330Y-89175330D01*
X105843917Y-89175325D01*
X105346500Y-89175167D01*
X105346500Y-89683167D01*
X105716917Y-89683815D01*
G36*
X106701167Y-91630500D02*
G01*
X106701167Y-91164833D01*
X105346500Y-91164833D01*
X105346500Y-91630500D01*
X106701167Y-91630500D01*
G37*
X106701167Y-91630500D02*
X106701167Y-91164833D01*
X105346500Y-91164833D01*
X105346500Y-91630500D01*
X106701167Y-91630500D01*
G36*
X106701167Y-92265500D02*
G01*
X106701167Y-91799833D01*
X105346500Y-91799833D01*
X105346500Y-92265500D01*
X106701167Y-92265500D01*
G37*
X106701167Y-92265500D02*
X106701167Y-91799833D01*
X105346500Y-91799833D01*
X105346500Y-92265500D01*
X106701167Y-92265500D01*
G36*
X104577297Y-93450144D02*
G01*
X104643172Y-93505248D01*
X104724166Y-93547670D01*
X104830958Y-93578699D01*
X104974228Y-93599623D01*
X105164655Y-93611730D01*
X105412918Y-93616308D01*
X105729695Y-93614645D01*
X105918000Y-93611861D01*
X106680000Y-93599000D01*
X106692696Y-93355583D01*
X106705392Y-93112167D01*
X105880803Y-93112167D01*
X105588515Y-93111210D01*
X105369449Y-93107773D01*
X105212179Y-93101001D01*
X105105275Y-93090041D01*
X105037309Y-93074041D01*
X104996854Y-93052146D01*
X104989690Y-93045643D01*
X104962143Y-93003022D01*
X104943096Y-92930610D01*
X104931170Y-92814809D01*
X104924987Y-92642024D01*
X104923168Y-92398659D01*
X104923167Y-92389476D01*
X104923167Y-91799833D01*
X104457500Y-91799833D01*
X104457500Y-93330346D01*
X104577297Y-93450144D01*
G37*
X104577297Y-93450144D02*
X104643172Y-93505248D01*
X104724166Y-93547670D01*
X104830958Y-93578699D01*
X104974228Y-93599623D01*
X105164655Y-93611730D01*
X105412918Y-93616308D01*
X105729695Y-93614645D01*
X105918000Y-93611861D01*
X106680000Y-93599000D01*
X106692696Y-93355583D01*
X106705392Y-93112167D01*
X105880803Y-93112167D01*
X105588515Y-93111210D01*
X105369449Y-93107773D01*
X105212179Y-93101001D01*
X105105275Y-93090041D01*
X105037309Y-93074041D01*
X104996854Y-93052146D01*
X104989690Y-93045643D01*
X104962143Y-93003022D01*
X104943096Y-92930610D01*
X104931170Y-92814809D01*
X104924987Y-92642024D01*
X104923168Y-92398659D01*
X104923167Y-92389476D01*
X104923167Y-91799833D01*
X104457500Y-91799833D01*
X104457500Y-93330346D01*
X104577297Y-93450144D01*
G36*
X105812167Y-95567500D02*
G01*
X105812167Y-94255167D01*
X106235500Y-94255167D01*
X106235500Y-95567500D01*
X106701167Y-95567500D01*
X106701167Y-93747167D01*
X105346500Y-93747167D01*
X105346500Y-95567500D01*
X105812167Y-95567500D01*
G37*
X105812167Y-95567500D02*
X105812167Y-94255167D01*
X106235500Y-94255167D01*
X106235500Y-95567500D01*
X106701167Y-95567500D01*
X106701167Y-93747167D01*
X105346500Y-93747167D01*
X105346500Y-95567500D01*
X105812167Y-95567500D01*
G36*
X105812167Y-97514833D02*
G01*
X105812167Y-96202500D01*
X106235500Y-96202500D01*
X106235500Y-97514833D01*
X106701167Y-97514833D01*
X106701167Y-95736833D01*
X105346500Y-95736833D01*
X105346500Y-97514833D01*
X105812167Y-97514833D01*
G37*
X105812167Y-97514833D02*
X105812167Y-96202500D01*
X106235500Y-96202500D01*
X106235500Y-97514833D01*
X106701167Y-97514833D01*
X106701167Y-95736833D01*
X105346500Y-95736833D01*
X105346500Y-97514833D01*
X105812167Y-97514833D01*
G36*
X104580588Y-99344590D02*
G01*
X104647380Y-99413482D01*
X104712152Y-99455771D01*
X104798860Y-99479336D01*
X104931454Y-99492056D01*
X105046806Y-99497932D01*
X105243743Y-99501699D01*
X105377342Y-99490070D01*
X105467916Y-99460722D01*
X105491336Y-99447075D01*
X105569782Y-99404941D01*
X105618335Y-99415685D01*
X105644134Y-99442568D01*
X105687452Y-99470587D01*
X105771120Y-99489219D01*
X105908389Y-99499943D01*
X106112508Y-99504240D01*
X106198350Y-99504500D01*
X106701167Y-99504500D01*
X106701167Y-98996500D01*
X106307466Y-98996500D01*
X106091256Y-98990672D01*
X105940573Y-98973882D01*
X105864543Y-98947174D01*
X105862966Y-98945700D01*
X105835661Y-98873674D01*
X105818272Y-98728811D01*
X105812167Y-98522506D01*
X105812167Y-98149833D01*
X106701167Y-98149833D01*
X106701167Y-97684167D01*
X105346500Y-97684167D01*
X105346500Y-98258450D01*
X105343370Y-98476892D01*
X105334800Y-98669925D01*
X105322024Y-98819100D01*
X105306272Y-98905970D01*
X105302677Y-98914616D01*
X105220843Y-98982481D01*
X105134833Y-98996500D01*
X105015962Y-98966450D01*
X104966989Y-98914616D01*
X104950767Y-98843283D01*
X104937258Y-98705743D01*
X104927697Y-98520446D01*
X104923314Y-98305838D01*
X104923167Y-98258450D01*
X104923167Y-97684167D01*
X104457500Y-97684167D01*
X104457500Y-99206831D01*
X104580588Y-99344590D01*
G37*
X104580588Y-99344590D02*
X104647380Y-99413482D01*
X104712152Y-99455771D01*
X104798860Y-99479336D01*
X104931454Y-99492056D01*
X105046806Y-99497932D01*
X105243743Y-99501699D01*
X105377342Y-99490070D01*
X105467916Y-99460722D01*
X105491336Y-99447075D01*
X105569782Y-99404941D01*
X105618335Y-99415685D01*
X105644134Y-99442568D01*
X105687452Y-99470587D01*
X105771120Y-99489219D01*
X105908389Y-99499943D01*
X106112508Y-99504240D01*
X106198350Y-99504500D01*
X106701167Y-99504500D01*
X106701167Y-98996500D01*
X106307466Y-98996500D01*
X106091256Y-98990672D01*
X105940573Y-98973882D01*
X105864543Y-98947174D01*
X105862966Y-98945700D01*
X105835661Y-98873674D01*
X105818272Y-98728811D01*
X105812167Y-98522506D01*
X105812167Y-98149833D01*
X106701167Y-98149833D01*
X106701167Y-97684167D01*
X105346500Y-97684167D01*
X105346500Y-98258450D01*
X105343370Y-98476892D01*
X105334800Y-98669925D01*
X105322024Y-98819100D01*
X105306272Y-98905970D01*
X105302677Y-98914616D01*
X105220843Y-98982481D01*
X105134833Y-98996500D01*
X105015962Y-98966450D01*
X104966989Y-98914616D01*
X104950767Y-98843283D01*
X104937258Y-98705743D01*
X104927697Y-98520446D01*
X104923314Y-98305838D01*
X104923167Y-98258450D01*
X104923167Y-97684167D01*
X104457500Y-97684167D01*
X104457500Y-99206831D01*
X104580588Y-99344590D01*
G36*
X106701167Y-100139500D02*
G01*
X106701167Y-99631500D01*
X105346500Y-99631500D01*
X105346500Y-100139500D01*
X106701167Y-100139500D01*
G37*
X106701167Y-100139500D02*
X106701167Y-99631500D01*
X105346500Y-99631500D01*
X105346500Y-100139500D01*
X106701167Y-100139500D01*
G36*
X106701167Y-100774500D02*
G01*
X106701167Y-100266500D01*
X105346500Y-100266500D01*
X105346500Y-100774500D01*
X106701167Y-100774500D01*
G37*
X106701167Y-100774500D02*
X106701167Y-100266500D01*
X105346500Y-100266500D01*
X105346500Y-100774500D01*
X106701167Y-100774500D01*
G36*
X104581243Y-101963090D02*
G01*
X104704987Y-102086833D01*
X106701167Y-102086833D01*
X106701167Y-101621167D01*
X105882228Y-101621167D01*
X105596519Y-101620507D01*
X105383465Y-101617830D01*
X105231062Y-101612090D01*
X105127303Y-101602243D01*
X105060184Y-101587242D01*
X105017699Y-101566043D01*
X104993228Y-101543750D01*
X104964629Y-101498946D01*
X104944790Y-101429086D01*
X104932250Y-101320060D01*
X104925551Y-101157761D01*
X104923233Y-100928082D01*
X104923167Y-100866416D01*
X104923167Y-100266500D01*
X104457500Y-100266500D01*
X104457500Y-101839346D01*
X104581243Y-101963090D01*
G37*
X104581243Y-101963090D02*
X104704987Y-102086833D01*
X106701167Y-102086833D01*
X106701167Y-101621167D01*
X105882228Y-101621167D01*
X105596519Y-101620507D01*
X105383465Y-101617830D01*
X105231062Y-101612090D01*
X105127303Y-101602243D01*
X105060184Y-101587242D01*
X105017699Y-101566043D01*
X104993228Y-101543750D01*
X104964629Y-101498946D01*
X104944790Y-101429086D01*
X104932250Y-101320060D01*
X104925551Y-101157761D01*
X104923233Y-100928082D01*
X104923167Y-100866416D01*
X104923167Y-100266500D01*
X104457500Y-100266500D01*
X104457500Y-101839346D01*
X104581243Y-101963090D01*
G36*
X105698242Y-102721833D02*
G01*
X105913630Y-102726255D01*
X106059034Y-102748362D01*
X106149021Y-102801415D01*
X106198157Y-102898675D01*
X106221010Y-103053403D01*
X106229261Y-103205253D01*
X106244188Y-103568500D01*
X105812167Y-103568500D01*
X105812167Y-103145167D01*
X105346500Y-103145167D01*
X105346500Y-104076500D01*
X106701167Y-104076500D01*
X106698483Y-103346250D01*
X106695562Y-103100103D01*
X106689162Y-102878605D01*
X106680040Y-102697718D01*
X106668951Y-102573406D01*
X106659677Y-102526597D01*
X106601271Y-102437949D01*
X106510586Y-102348343D01*
X106508485Y-102346680D01*
X106451826Y-102308301D01*
X106386008Y-102282525D01*
X106293739Y-102266903D01*
X106157731Y-102258983D01*
X105960692Y-102256314D01*
X105869957Y-102256167D01*
X105346500Y-102256167D01*
X105346500Y-102721833D01*
X105698242Y-102721833D01*
G37*
X105698242Y-102721833D02*
X105913630Y-102726255D01*
X106059034Y-102748362D01*
X106149021Y-102801415D01*
X106198157Y-102898675D01*
X106221010Y-103053403D01*
X106229261Y-103205253D01*
X106244188Y-103568500D01*
X105812167Y-103568500D01*
X105812167Y-103145167D01*
X105346500Y-103145167D01*
X105346500Y-104076500D01*
X106701167Y-104076500D01*
X106698483Y-103346250D01*
X106695562Y-103100103D01*
X106689162Y-102878605D01*
X106680040Y-102697718D01*
X106668951Y-102573406D01*
X106659677Y-102526597D01*
X106601271Y-102437949D01*
X106510586Y-102348343D01*
X106508485Y-102346680D01*
X106451826Y-102308301D01*
X106386008Y-102282525D01*
X106293739Y-102266903D01*
X106157731Y-102258983D01*
X105960692Y-102256314D01*
X105869957Y-102256167D01*
X105346500Y-102256167D01*
X105346500Y-102721833D01*
X105698242Y-102721833D01*
G36*
X104923167Y-87058500D02*
G01*
X104923167Y-85238167D01*
X104457500Y-85238167D01*
X104457500Y-87058500D01*
X104923167Y-87058500D01*
G37*
X104923167Y-87058500D02*
X104923167Y-85238167D01*
X104457500Y-85238167D01*
X104457500Y-87058500D01*
X104923167Y-87058500D01*
G36*
X104923167Y-90995500D02*
G01*
X104923167Y-89165988D01*
X104806750Y-89193255D01*
X104701314Y-89242489D01*
X104591455Y-89328656D01*
X104573917Y-89346679D01*
X104457500Y-89472836D01*
X104457500Y-90995500D01*
X104923167Y-90995500D01*
G37*
X104923167Y-90995500D02*
X104923167Y-89165988D01*
X104806750Y-89193255D01*
X104701314Y-89242489D01*
X104591455Y-89328656D01*
X104573917Y-89346679D01*
X104457500Y-89472836D01*
X104457500Y-90995500D01*
X104923167Y-90995500D01*
G36*
X104923167Y-91630500D02*
G01*
X104923167Y-91164833D01*
X104457500Y-91164833D01*
X104457500Y-91630500D01*
X104923167Y-91630500D01*
G37*
X104923167Y-91630500D02*
X104923167Y-91164833D01*
X104457500Y-91164833D01*
X104457500Y-91630500D01*
X104923167Y-91630500D01*
G36*
X104923167Y-95567500D02*
G01*
X104923167Y-93747167D01*
X104457500Y-93747167D01*
X104457500Y-95567500D01*
X104923167Y-95567500D01*
G37*
X104923167Y-95567500D02*
X104923167Y-93747167D01*
X104457500Y-93747167D01*
X104457500Y-95567500D01*
X104923167Y-95567500D01*
G36*
X104923167Y-97514833D02*
G01*
X104923167Y-95736833D01*
X104457500Y-95736833D01*
X104457500Y-97514833D01*
X104923167Y-97514833D01*
G37*
X104923167Y-97514833D02*
X104923167Y-95736833D01*
X104457500Y-95736833D01*
X104457500Y-97514833D01*
X104923167Y-97514833D01*
G36*
X104923167Y-100139500D02*
G01*
X104923167Y-99631500D01*
X104457500Y-99631500D01*
X104457500Y-100139500D01*
X104923167Y-100139500D01*
G37*
X104923167Y-100139500D02*
X104923167Y-99631500D01*
X104457500Y-99631500D01*
X104457500Y-100139500D01*
X104923167Y-100139500D01*
G36*
X104923167Y-104076500D02*
G01*
X104923167Y-103166333D01*
X104922725Y-102865893D01*
X104920825Y-102639684D01*
X104916604Y-102477274D01*
X104909200Y-102368228D01*
X104897749Y-102302114D01*
X104881390Y-102268498D01*
X104859260Y-102256948D01*
X104847919Y-102256167D01*
X104747681Y-102285063D01*
X104628135Y-102357240D01*
X104524169Y-102450931D01*
X104511763Y-102465890D01*
X104490787Y-102526886D01*
X104475371Y-102652953D01*
X104465168Y-102849593D01*
X104459830Y-103122306D01*
X104458846Y-103303917D01*
X104457500Y-104076500D01*
X104923167Y-104076500D01*
G37*
X104923167Y-104076500D02*
X104923167Y-103166333D01*
X104922725Y-102865893D01*
X104920825Y-102639684D01*
X104916604Y-102477274D01*
X104909200Y-102368228D01*
X104897749Y-102302114D01*
X104881390Y-102268498D01*
X104859260Y-102256948D01*
X104847919Y-102256167D01*
X104747681Y-102285063D01*
X104628135Y-102357240D01*
X104524169Y-102450931D01*
X104511763Y-102465890D01*
X104490787Y-102526886D01*
X104475371Y-102652953D01*
X104465168Y-102849593D01*
X104459830Y-103122306D01*
X104458846Y-103303917D01*
X104457500Y-104076500D01*
X104923167Y-104076500D01*
G36*
X102896721Y-99253116D02*
G01*
X102952565Y-99429877D01*
X102997990Y-99497956D01*
X103134795Y-99604125D01*
X103317281Y-99669706D01*
X103523007Y-99694960D01*
X103729533Y-99680147D01*
X103914420Y-99625529D01*
X104055225Y-99531365D01*
X104092523Y-99485241D01*
X104165274Y-99305786D01*
X104179551Y-99100637D01*
X104149557Y-98954167D01*
X104059173Y-98814430D01*
X103911630Y-98711703D01*
X103726555Y-98647323D01*
X103660969Y-98639344D01*
X103660969Y-98878961D01*
X103834719Y-98939298D01*
X103908243Y-98997577D01*
X103978085Y-99094047D01*
X103977793Y-99188611D01*
X103906227Y-99302585D01*
X103890966Y-99320711D01*
X103818489Y-99390856D01*
X103736894Y-99425974D01*
X103613948Y-99437443D01*
X103558713Y-99437976D01*
X103344995Y-99415883D01*
X103195595Y-99351559D01*
X103115528Y-99247936D01*
X103102833Y-99171418D01*
X103140848Y-99035370D01*
X103250554Y-98937439D01*
X103425446Y-98883288D01*
X103435657Y-98881848D01*
X103660969Y-98878961D01*
X103660969Y-98639344D01*
X103523573Y-98622626D01*
X103322313Y-98638950D01*
X103142399Y-98697633D01*
X103003459Y-98800010D01*
X102953040Y-98872645D01*
X102896113Y-99056699D01*
X102896721Y-99253116D01*
G37*
X102896721Y-99253116D02*
X102952565Y-99429877D01*
X102997990Y-99497956D01*
X103134795Y-99604125D01*
X103317281Y-99669706D01*
X103523007Y-99694960D01*
X103729533Y-99680147D01*
X103914420Y-99625529D01*
X104055225Y-99531365D01*
X104092523Y-99485241D01*
X104165274Y-99305786D01*
X104179551Y-99100637D01*
X104149557Y-98954167D01*
X104059173Y-98814430D01*
X103911630Y-98711703D01*
X103726555Y-98647323D01*
X103660969Y-98639344D01*
X103660969Y-98878961D01*
X103834719Y-98939298D01*
X103908243Y-98997577D01*
X103978085Y-99094047D01*
X103977793Y-99188611D01*
X103906227Y-99302585D01*
X103890966Y-99320711D01*
X103818489Y-99390856D01*
X103736894Y-99425974D01*
X103613948Y-99437443D01*
X103558713Y-99437976D01*
X103344995Y-99415883D01*
X103195595Y-99351559D01*
X103115528Y-99247936D01*
X103102833Y-99171418D01*
X103140848Y-99035370D01*
X103250554Y-98937439D01*
X103425446Y-98883288D01*
X103435657Y-98881848D01*
X103660969Y-98878961D01*
X103660969Y-98639344D01*
X103523573Y-98622626D01*
X103322313Y-98638950D01*
X103142399Y-98697633D01*
X103003459Y-98800010D01*
X102953040Y-98872645D01*
X102896113Y-99056699D01*
X102896721Y-99253116D01*
G36*
X101917500Y-98530833D02*
G01*
X101917500Y-97980500D01*
X103822500Y-97980500D01*
X103822500Y-98530833D01*
X104161167Y-98530833D01*
X104161167Y-97091500D01*
X103822500Y-97091500D01*
X103822500Y-97599500D01*
X101917500Y-97599500D01*
X101917500Y-97091500D01*
X101621167Y-97091500D01*
X101621167Y-98530833D01*
X101917500Y-98530833D01*
G37*
X101917500Y-98530833D02*
X101917500Y-97980500D01*
X103822500Y-97980500D01*
X103822500Y-98530833D01*
X104161167Y-98530833D01*
X104161167Y-97091500D01*
X103822500Y-97091500D01*
X103822500Y-97599500D01*
X101917500Y-97599500D01*
X101917500Y-97091500D01*
X101621167Y-97091500D01*
X101621167Y-98530833D01*
X101917500Y-98530833D01*
G36*
X101622697Y-88884166D02*
G01*
X101629083Y-89131604D01*
X101643013Y-89317093D01*
X101667178Y-89451979D01*
X101704266Y-89547607D01*
X101756967Y-89615322D01*
X101827971Y-89666471D01*
X101890283Y-89698625D01*
X102033836Y-89740292D01*
X102228636Y-89763085D01*
X102443323Y-89766692D01*
X102646535Y-89750806D01*
X102806914Y-89715115D01*
X102825733Y-89707869D01*
X102933962Y-89652615D01*
X103013084Y-89581757D01*
X103068070Y-89481669D01*
X103103888Y-89338727D01*
X103125511Y-89139304D01*
X103137907Y-88869776D01*
X103138483Y-88850477D01*
X103154973Y-88286167D01*
X104118833Y-88286167D01*
X104118833Y-87735833D01*
X102594833Y-87735833D01*
X102594833Y-88406605D01*
X102593888Y-88662919D01*
X102590113Y-88848057D01*
X102582100Y-88975496D01*
X102568440Y-89058716D01*
X102547725Y-89111194D01*
X102518547Y-89146409D01*
X102517416Y-89147439D01*
X102398319Y-89210384D01*
X102280367Y-89196942D01*
X102195067Y-89123414D01*
X102168476Y-89068590D01*
X102149772Y-88983592D01*
X102137774Y-88855171D01*
X102131304Y-88670077D01*
X102129185Y-88415060D01*
X102129167Y-88382580D01*
X102129167Y-87735833D01*
X101621167Y-87735833D01*
X101621167Y-88563435D01*
X101622697Y-88884166D01*
G37*
X101622697Y-88884166D02*
X101629083Y-89131604D01*
X101643013Y-89317093D01*
X101667178Y-89451979D01*
X101704266Y-89547607D01*
X101756967Y-89615322D01*
X101827971Y-89666471D01*
X101890283Y-89698625D01*
X102033836Y-89740292D01*
X102228636Y-89763085D01*
X102443323Y-89766692D01*
X102646535Y-89750806D01*
X102806914Y-89715115D01*
X102825733Y-89707869D01*
X102933962Y-89652615D01*
X103013084Y-89581757D01*
X103068070Y-89481669D01*
X103103888Y-89338727D01*
X103125511Y-89139304D01*
X103137907Y-88869776D01*
X103138483Y-88850477D01*
X103154973Y-88286167D01*
X104118833Y-88286167D01*
X104118833Y-87735833D01*
X102594833Y-87735833D01*
X102594833Y-88406605D01*
X102593888Y-88662919D01*
X102590113Y-88848057D01*
X102582100Y-88975496D01*
X102568440Y-89058716D01*
X102547725Y-89111194D01*
X102518547Y-89146409D01*
X102517416Y-89147439D01*
X102398319Y-89210384D01*
X102280367Y-89196942D01*
X102195067Y-89123414D01*
X102168476Y-89068590D01*
X102149772Y-88983592D01*
X102137774Y-88855171D01*
X102131304Y-88670077D01*
X102129185Y-88415060D01*
X102129167Y-88382580D01*
X102129167Y-87735833D01*
X101621167Y-87735833D01*
X101621167Y-88563435D01*
X101622697Y-88884166D01*
G36*
X102774750Y-91929068D02*
G01*
X103928333Y-91931302D01*
X102594833Y-92604686D01*
X102594833Y-93155207D01*
X103059795Y-92922020D01*
X103239715Y-92832630D01*
X103390941Y-92759085D01*
X103498149Y-92708726D01*
X103546015Y-92688892D01*
X103546628Y-92688833D01*
X103555607Y-92728249D01*
X103562799Y-92834838D01*
X103567345Y-92991109D01*
X103568500Y-93133333D01*
X103568500Y-93577833D01*
X102129167Y-93577833D01*
X102129167Y-92602948D01*
X101875167Y-92731167D01*
X101621167Y-92859385D01*
X101621167Y-94128167D01*
X104118833Y-94128167D01*
X104118833Y-91418833D01*
X103145167Y-91418833D01*
X103145167Y-90445167D01*
X104118833Y-90445167D01*
X104118833Y-89937167D01*
X102594833Y-89937167D01*
X102594833Y-91418833D01*
X101621167Y-91418833D01*
X101621167Y-91926833D01*
X102774750Y-91929068D01*
G37*
X102774750Y-91929068D02*
X103928333Y-91931302D01*
X102594833Y-92604686D01*
X102594833Y-93155207D01*
X103059795Y-92922020D01*
X103239715Y-92832630D01*
X103390941Y-92759085D01*
X103498149Y-92708726D01*
X103546015Y-92688892D01*
X103546628Y-92688833D01*
X103555607Y-92728249D01*
X103562799Y-92834838D01*
X103567345Y-92991109D01*
X103568500Y-93133333D01*
X103568500Y-93577833D01*
X102129167Y-93577833D01*
X102129167Y-92602948D01*
X101875167Y-92731167D01*
X101621167Y-92859385D01*
X101621167Y-94128167D01*
X104118833Y-94128167D01*
X104118833Y-91418833D01*
X103145167Y-91418833D01*
X103145167Y-90445167D01*
X104118833Y-90445167D01*
X104118833Y-89937167D01*
X102594833Y-89937167D01*
X102594833Y-91418833D01*
X101621167Y-91418833D01*
X101621167Y-91926833D01*
X102774750Y-91929068D01*
G36*
X104118833Y-95567500D02*
G01*
X104118833Y-95059500D01*
X102594833Y-95059500D01*
X102594833Y-95567500D01*
X104118833Y-95567500D01*
G37*
X104118833Y-95567500D02*
X104118833Y-95059500D01*
X102594833Y-95059500D01*
X102594833Y-95567500D01*
X104118833Y-95567500D01*
G36*
X101917500Y-101240167D02*
G01*
X101917500Y-100478167D01*
X104118833Y-100478167D01*
X104118833Y-100097167D01*
X101917500Y-100097167D01*
X101917500Y-99779667D01*
X101919500Y-99617333D01*
X101928618Y-99522085D01*
X101949534Y-99476377D01*
X101986926Y-99462664D01*
X102002167Y-99462167D01*
X102072919Y-99432232D01*
X102086833Y-99377500D01*
X102077565Y-99330212D01*
X102036853Y-99304660D01*
X101945334Y-99294390D01*
X101832833Y-99292833D01*
X101578833Y-99292833D01*
X101578833Y-101240167D01*
X101917500Y-101240167D01*
G37*
X101917500Y-101240167D02*
X101917500Y-100478167D01*
X104118833Y-100478167D01*
X104118833Y-100097167D01*
X101917500Y-100097167D01*
X101917500Y-99779667D01*
X101919500Y-99617333D01*
X101928618Y-99522085D01*
X101949534Y-99476377D01*
X101986926Y-99462664D01*
X102002167Y-99462167D01*
X102072919Y-99432232D01*
X102086833Y-99377500D01*
X102077565Y-99330212D01*
X102036853Y-99304660D01*
X101945334Y-99294390D01*
X101832833Y-99292833D01*
X101578833Y-99292833D01*
X101578833Y-101240167D01*
X101917500Y-101240167D01*
G36*
X101931203Y-98919795D02*
G01*
X101981462Y-98938691D01*
X102081999Y-98949336D01*
X102246539Y-98953711D01*
X102357368Y-98954167D01*
X102797237Y-98954167D01*
X102813994Y-98810627D01*
X102820835Y-98695259D01*
X102814480Y-98612183D01*
X102813756Y-98609544D01*
X102742808Y-98510969D01*
X102607765Y-98455825D01*
X102499292Y-98446167D01*
X102497717Y-98446317D01*
X102497717Y-98573671D01*
X102603779Y-98602216D01*
X102656771Y-98641152D01*
X102698067Y-98718764D01*
X102666458Y-98780877D01*
X102573596Y-98816305D01*
X102471809Y-98818724D01*
X102356798Y-98793154D01*
X102307616Y-98736351D01*
X102305270Y-98726406D01*
X102322804Y-98641990D01*
X102395506Y-98589004D01*
X102497717Y-98573671D01*
X102497717Y-98446317D01*
X102326603Y-98462665D01*
X102222398Y-98517164D01*
X102176179Y-98617169D01*
X102171500Y-98680489D01*
X102164234Y-98779382D01*
X102127559Y-98819680D01*
X102044500Y-98827167D01*
X101943674Y-98846099D01*
X101917500Y-98890667D01*
X101931203Y-98919795D01*
G37*
X101931203Y-98919795D02*
X101981462Y-98938691D01*
X102081999Y-98949336D01*
X102246539Y-98953711D01*
X102357368Y-98954167D01*
X102797237Y-98954167D01*
X102813994Y-98810627D01*
X102820835Y-98695259D01*
X102814480Y-98612183D01*
X102813756Y-98609544D01*
X102742808Y-98510969D01*
X102607765Y-98455825D01*
X102499292Y-98446167D01*
X102497717Y-98446317D01*
X102497717Y-98573671D01*
X102603779Y-98602216D01*
X102656771Y-98641152D01*
X102698067Y-98718764D01*
X102666458Y-98780877D01*
X102573596Y-98816305D01*
X102471809Y-98818724D01*
X102356798Y-98793154D01*
X102307616Y-98736351D01*
X102305270Y-98726406D01*
X102322804Y-98641990D01*
X102395506Y-98589004D01*
X102497717Y-98573671D01*
X102497717Y-98446317D01*
X102326603Y-98462665D01*
X102222398Y-98517164D01*
X102176179Y-98617169D01*
X102171500Y-98680489D01*
X102164234Y-98779382D01*
X102127559Y-98819680D01*
X102044500Y-98827167D01*
X101943674Y-98846099D01*
X101917500Y-98890667D01*
X101931203Y-98919795D01*
G36*
X102425500Y-99462167D02*
G01*
X102566270Y-99464407D01*
X102642272Y-99476652D01*
X102673386Y-99507186D01*
X102679494Y-99564290D01*
X102679500Y-99568000D01*
X102701580Y-99653119D01*
X102743000Y-99673833D01*
X102789812Y-99641944D01*
X102806354Y-99539933D01*
X102806500Y-99524619D01*
X102793630Y-99414710D01*
X102742803Y-99355008D01*
X102697911Y-99334119D01*
X102576359Y-99304614D01*
X102443911Y-99292833D01*
X102335420Y-99278518D01*
X102298613Y-99233119D01*
X102298500Y-99229333D01*
X102264613Y-99173209D01*
X102235000Y-99165833D01*
X102188034Y-99197963D01*
X102171615Y-99300505D01*
X102171500Y-99314000D01*
X102171500Y-99462167D01*
X102425500Y-99462167D01*
G37*
X102425500Y-99462167D02*
X102566270Y-99464407D01*
X102642272Y-99476652D01*
X102673386Y-99507186D01*
X102679494Y-99564290D01*
X102679500Y-99568000D01*
X102701580Y-99653119D01*
X102743000Y-99673833D01*
X102789812Y-99641944D01*
X102806354Y-99539933D01*
X102806500Y-99524619D01*
X102793630Y-99414710D01*
X102742803Y-99355008D01*
X102697911Y-99334119D01*
X102576359Y-99304614D01*
X102443911Y-99292833D01*
X102335420Y-99278518D01*
X102298613Y-99233119D01*
X102298500Y-99229333D01*
X102264613Y-99173209D01*
X102235000Y-99165833D01*
X102188034Y-99197963D01*
X102171615Y-99300505D01*
X102171500Y-99314000D01*
X102171500Y-99462167D01*
X102425500Y-99462167D01*
G36*
X102129167Y-90445167D02*
G01*
X102129167Y-89937167D01*
X101621167Y-89937167D01*
X101621167Y-90445167D01*
X102129167Y-90445167D01*
G37*
X102129167Y-90445167D02*
X102129167Y-89937167D01*
X101621167Y-89937167D01*
X101621167Y-90445167D01*
X102129167Y-90445167D01*
G36*
X102129167Y-96329500D02*
G01*
X102129167Y-94297500D01*
X101621167Y-94297500D01*
X101621167Y-96329500D01*
X102129167Y-96329500D01*
G37*
X102129167Y-96329500D02*
X102129167Y-94297500D01*
X101621167Y-94297500D01*
X101621167Y-96329500D01*
X102129167Y-96329500D01*
D13*
G04 #@! TO.C,Y1*
X119706000Y-99967000D02*
X119706000Y-105267000D01*
X116006000Y-99967000D02*
X119706000Y-99967000D01*
G04 #@! TO.C,U5*
X125730000Y-96149000D02*
X127680000Y-96149000D01*
X125730000Y-96149000D02*
X123780000Y-96149000D01*
X125730000Y-105019000D02*
X127680000Y-105019000D01*
X125730000Y-105019000D02*
X122280000Y-105019000D01*
G04 #@! TO.C,U3*
X125603000Y-86594000D02*
X127553000Y-86594000D01*
X125603000Y-86594000D02*
X123653000Y-86594000D01*
X125603000Y-91714000D02*
X127553000Y-91714000D01*
X125603000Y-91714000D02*
X122153000Y-91714000D01*
G04 #@! TO.C,R15*
X145784500Y-94417248D02*
X145784500Y-94939752D01*
X147204500Y-94417248D02*
X147204500Y-94939752D01*
G04 #@! TO.C,R14*
X141612252Y-92889000D02*
X141089748Y-92889000D01*
X141612252Y-94309000D02*
X141089748Y-94309000D01*
G04 #@! TO.C,R13*
X99516000Y-101988252D02*
X99516000Y-101465748D01*
X98096000Y-101988252D02*
X98096000Y-101465748D01*
G04 #@! TO.C,R12*
X133215748Y-95071000D02*
X133738252Y-95071000D01*
X133215748Y-93651000D02*
X133738252Y-93651000D01*
G04 #@! TO.C,R11*
X99516000Y-94613252D02*
X99516000Y-94090748D01*
X98096000Y-94613252D02*
X98096000Y-94090748D01*
G04 #@! TO.C,R10*
X99516000Y-88018252D02*
X99516000Y-87495748D01*
X98096000Y-88018252D02*
X98096000Y-87495748D01*
G04 #@! TO.C,R9*
X127500748Y-107009000D02*
X128023252Y-107009000D01*
X127500748Y-105589000D02*
X128023252Y-105589000D01*
G04 #@! TO.C,R7*
X114292748Y-86562000D02*
X114815252Y-86562000D01*
X114292748Y-85142000D02*
X114815252Y-85142000D01*
G04 #@! TO.C,R6*
X114292748Y-88594000D02*
X114815252Y-88594000D01*
X114292748Y-87174000D02*
X114815252Y-87174000D01*
G04 #@! TO.C,R5*
X133215748Y-99135000D02*
X133738252Y-99135000D01*
X133215748Y-97715000D02*
X133738252Y-97715000D01*
G04 #@! TO.C,R4*
X133215748Y-105231000D02*
X133738252Y-105231000D01*
X133215748Y-103811000D02*
X133738252Y-103811000D01*
G04 #@! TO.C,R3*
X133215748Y-103199000D02*
X133738252Y-103199000D01*
X133215748Y-101779000D02*
X133738252Y-101779000D01*
G04 #@! TO.C,R2*
X133215748Y-97103000D02*
X133738252Y-97103000D01*
X133215748Y-95683000D02*
X133738252Y-95683000D01*
G04 #@! TO.C,R1*
X133215748Y-101167000D02*
X133738252Y-101167000D01*
X133215748Y-99747000D02*
X133738252Y-99747000D01*
G04 #@! TO.C,C10*
X124086252Y-107621000D02*
X123563748Y-107621000D01*
X124086252Y-109041000D02*
X123563748Y-109041000D01*
G04 #@! TO.C,C9*
X124086252Y-105589000D02*
X123563748Y-105589000D01*
X124086252Y-107009000D02*
X123563748Y-107009000D01*
G04 #@! TO.C,C8*
X118117252Y-105843000D02*
X117594748Y-105843000D01*
X118117252Y-107263000D02*
X117594748Y-107263000D01*
G04 #@! TO.C,C7*
X117594748Y-99389000D02*
X118117252Y-99389000D01*
X117594748Y-97969000D02*
X118117252Y-97969000D01*
G04 #@! TO.C,C6*
X120149252Y-87301000D02*
X119626748Y-87301000D01*
X120149252Y-88721000D02*
X119626748Y-88721000D01*
G04 #@! TO.C,C5*
X131266000Y-89796252D02*
X131266000Y-89273748D01*
X129846000Y-89796252D02*
X129846000Y-89273748D01*
G04 #@! TO.C,C4*
X131266000Y-85351252D02*
X131266000Y-84828748D01*
X129846000Y-85351252D02*
X129846000Y-84828748D01*
G04 #@! TO.C,C2*
X120149252Y-89460000D02*
X119626748Y-89460000D01*
X120149252Y-90880000D02*
X119626748Y-90880000D01*
G04 #@! TD*
G04 #@! TO.C,Y1*
D10*
X120626190Y-102012809D02*
X121102380Y-102012809D01*
X120102380Y-101679476D02*
X120626190Y-102012809D01*
X120102380Y-102346142D01*
X121102380Y-103203285D02*
X121102380Y-102631857D01*
X121102380Y-102917571D02*
X120102380Y-102917571D01*
X120245238Y-102822333D01*
X120340476Y-102727095D01*
X120388095Y-102631857D01*
G04 #@! TO.C,U5*
X125182380Y-100584095D02*
X125991904Y-100584095D01*
X126087142Y-100631714D01*
X126134761Y-100679333D01*
X126182380Y-100774571D01*
X126182380Y-100965047D01*
X126134761Y-101060285D01*
X126087142Y-101107904D01*
X125991904Y-101155523D01*
X125182380Y-101155523D01*
X125182380Y-102107904D02*
X125182380Y-101631714D01*
X125658571Y-101584095D01*
X125610952Y-101631714D01*
X125563333Y-101726952D01*
X125563333Y-101965047D01*
X125610952Y-102060285D01*
X125658571Y-102107904D01*
X125753809Y-102155523D01*
X125991904Y-102155523D01*
X126087142Y-102107904D01*
X126134761Y-102060285D01*
X126182380Y-101965047D01*
X126182380Y-101726952D01*
X126134761Y-101631714D01*
X126087142Y-101584095D01*
G04 #@! TO.C,U3*
X126364904Y-92006380D02*
X126364904Y-92815904D01*
X126317285Y-92911142D01*
X126269666Y-92958761D01*
X126174428Y-93006380D01*
X125983952Y-93006380D01*
X125888714Y-92958761D01*
X125841095Y-92911142D01*
X125793476Y-92815904D01*
X125793476Y-92006380D01*
X125412523Y-92006380D02*
X124793476Y-92006380D01*
X125126809Y-92387333D01*
X124983952Y-92387333D01*
X124888714Y-92434952D01*
X124841095Y-92482571D01*
X124793476Y-92577809D01*
X124793476Y-92815904D01*
X124841095Y-92911142D01*
X124888714Y-92958761D01*
X124983952Y-93006380D01*
X125269666Y-93006380D01*
X125364904Y-92958761D01*
X125412523Y-92911142D01*
G04 #@! TO.C,R15*
X147200857Y-92781380D02*
X147534190Y-92305190D01*
X147772285Y-92781380D02*
X147772285Y-91781380D01*
X147391333Y-91781380D01*
X147296095Y-91829000D01*
X147248476Y-91876619D01*
X147200857Y-91971857D01*
X147200857Y-92114714D01*
X147248476Y-92209952D01*
X147296095Y-92257571D01*
X147391333Y-92305190D01*
X147772285Y-92305190D01*
X146248476Y-92781380D02*
X146819904Y-92781380D01*
X146534190Y-92781380D02*
X146534190Y-91781380D01*
X146629428Y-91924238D01*
X146724666Y-92019476D01*
X146819904Y-92067095D01*
X145343714Y-91781380D02*
X145819904Y-91781380D01*
X145867523Y-92257571D01*
X145819904Y-92209952D01*
X145724666Y-92162333D01*
X145486571Y-92162333D01*
X145391333Y-92209952D01*
X145343714Y-92257571D01*
X145296095Y-92352809D01*
X145296095Y-92590904D01*
X145343714Y-92686142D01*
X145391333Y-92733761D01*
X145486571Y-92781380D01*
X145724666Y-92781380D01*
X145819904Y-92733761D01*
X145867523Y-92686142D01*
G04 #@! TO.C,R14*
X141739857Y-92273380D02*
X142073190Y-91797190D01*
X142311285Y-92273380D02*
X142311285Y-91273380D01*
X141930333Y-91273380D01*
X141835095Y-91321000D01*
X141787476Y-91368619D01*
X141739857Y-91463857D01*
X141739857Y-91606714D01*
X141787476Y-91701952D01*
X141835095Y-91749571D01*
X141930333Y-91797190D01*
X142311285Y-91797190D01*
X140787476Y-92273380D02*
X141358904Y-92273380D01*
X141073190Y-92273380D02*
X141073190Y-91273380D01*
X141168428Y-91416238D01*
X141263666Y-91511476D01*
X141358904Y-91559095D01*
X139930333Y-91606714D02*
X139930333Y-92273380D01*
X140168428Y-91225761D02*
X140406523Y-91940047D01*
X139787476Y-91940047D01*
G04 #@! TO.C,R13*
X100908380Y-101084142D02*
X100432190Y-100750809D01*
X100908380Y-100512714D02*
X99908380Y-100512714D01*
X99908380Y-100893666D01*
X99956000Y-100988904D01*
X100003619Y-101036523D01*
X100098857Y-101084142D01*
X100241714Y-101084142D01*
X100336952Y-101036523D01*
X100384571Y-100988904D01*
X100432190Y-100893666D01*
X100432190Y-100512714D01*
X100908380Y-102036523D02*
X100908380Y-101465095D01*
X100908380Y-101750809D02*
X99908380Y-101750809D01*
X100051238Y-101655571D01*
X100146476Y-101560333D01*
X100194095Y-101465095D01*
X99908380Y-102369857D02*
X99908380Y-102988904D01*
X100289333Y-102655571D01*
X100289333Y-102798428D01*
X100336952Y-102893666D01*
X100384571Y-102941285D01*
X100479809Y-102988904D01*
X100717904Y-102988904D01*
X100813142Y-102941285D01*
X100860761Y-102893666D01*
X100908380Y-102798428D01*
X100908380Y-102512714D01*
X100860761Y-102417476D01*
X100813142Y-102369857D01*
G04 #@! TO.C,R12*
X130817857Y-94813380D02*
X131151190Y-94337190D01*
X131389285Y-94813380D02*
X131389285Y-93813380D01*
X131008333Y-93813380D01*
X130913095Y-93861000D01*
X130865476Y-93908619D01*
X130817857Y-94003857D01*
X130817857Y-94146714D01*
X130865476Y-94241952D01*
X130913095Y-94289571D01*
X131008333Y-94337190D01*
X131389285Y-94337190D01*
X129865476Y-94813380D02*
X130436904Y-94813380D01*
X130151190Y-94813380D02*
X130151190Y-93813380D01*
X130246428Y-93956238D01*
X130341666Y-94051476D01*
X130436904Y-94099095D01*
X129484523Y-93908619D02*
X129436904Y-93861000D01*
X129341666Y-93813380D01*
X129103571Y-93813380D01*
X129008333Y-93861000D01*
X128960714Y-93908619D01*
X128913095Y-94003857D01*
X128913095Y-94099095D01*
X128960714Y-94241952D01*
X129532142Y-94813380D01*
X128913095Y-94813380D01*
G04 #@! TO.C,R11*
X100908380Y-93709142D02*
X100432190Y-93375809D01*
X100908380Y-93137714D02*
X99908380Y-93137714D01*
X99908380Y-93518666D01*
X99956000Y-93613904D01*
X100003619Y-93661523D01*
X100098857Y-93709142D01*
X100241714Y-93709142D01*
X100336952Y-93661523D01*
X100384571Y-93613904D01*
X100432190Y-93518666D01*
X100432190Y-93137714D01*
X100908380Y-94661523D02*
X100908380Y-94090095D01*
X100908380Y-94375809D02*
X99908380Y-94375809D01*
X100051238Y-94280571D01*
X100146476Y-94185333D01*
X100194095Y-94090095D01*
X100908380Y-95613904D02*
X100908380Y-95042476D01*
X100908380Y-95328190D02*
X99908380Y-95328190D01*
X100051238Y-95232952D01*
X100146476Y-95137714D01*
X100194095Y-95042476D01*
G04 #@! TO.C,R10*
X100908380Y-87114142D02*
X100432190Y-86780809D01*
X100908380Y-86542714D02*
X99908380Y-86542714D01*
X99908380Y-86923666D01*
X99956000Y-87018904D01*
X100003619Y-87066523D01*
X100098857Y-87114142D01*
X100241714Y-87114142D01*
X100336952Y-87066523D01*
X100384571Y-87018904D01*
X100432190Y-86923666D01*
X100432190Y-86542714D01*
X100908380Y-88066523D02*
X100908380Y-87495095D01*
X100908380Y-87780809D02*
X99908380Y-87780809D01*
X100051238Y-87685571D01*
X100146476Y-87590333D01*
X100194095Y-87495095D01*
X99908380Y-88685571D02*
X99908380Y-88780809D01*
X99956000Y-88876047D01*
X100003619Y-88923666D01*
X100098857Y-88971285D01*
X100289333Y-89018904D01*
X100527428Y-89018904D01*
X100717904Y-88971285D01*
X100813142Y-88923666D01*
X100860761Y-88876047D01*
X100908380Y-88780809D01*
X100908380Y-88685571D01*
X100860761Y-88590333D01*
X100813142Y-88542714D01*
X100717904Y-88495095D01*
X100527428Y-88447476D01*
X100289333Y-88447476D01*
X100098857Y-88495095D01*
X100003619Y-88542714D01*
X99956000Y-88590333D01*
X99908380Y-88685571D01*
G04 #@! TO.C,R9*
X127928666Y-108401380D02*
X128262000Y-107925190D01*
X128500095Y-108401380D02*
X128500095Y-107401380D01*
X128119142Y-107401380D01*
X128023904Y-107449000D01*
X127976285Y-107496619D01*
X127928666Y-107591857D01*
X127928666Y-107734714D01*
X127976285Y-107829952D01*
X128023904Y-107877571D01*
X128119142Y-107925190D01*
X128500095Y-107925190D01*
X127452476Y-108401380D02*
X127262000Y-108401380D01*
X127166761Y-108353761D01*
X127119142Y-108306142D01*
X127023904Y-108163285D01*
X126976285Y-107972809D01*
X126976285Y-107591857D01*
X127023904Y-107496619D01*
X127071523Y-107449000D01*
X127166761Y-107401380D01*
X127357238Y-107401380D01*
X127452476Y-107449000D01*
X127500095Y-107496619D01*
X127547714Y-107591857D01*
X127547714Y-107829952D01*
X127500095Y-107925190D01*
X127452476Y-107972809D01*
X127357238Y-108020428D01*
X127166761Y-108020428D01*
X127071523Y-107972809D01*
X127023904Y-107925190D01*
X126976285Y-107829952D01*
G04 #@! TO.C,R7*
X112466380Y-85685333D02*
X111990190Y-85352000D01*
X112466380Y-85113904D02*
X111466380Y-85113904D01*
X111466380Y-85494857D01*
X111514000Y-85590095D01*
X111561619Y-85637714D01*
X111656857Y-85685333D01*
X111799714Y-85685333D01*
X111894952Y-85637714D01*
X111942571Y-85590095D01*
X111990190Y-85494857D01*
X111990190Y-85113904D01*
X111466380Y-86018666D02*
X111466380Y-86685333D01*
X112466380Y-86256761D01*
G04 #@! TO.C,R6*
X112466380Y-87717333D02*
X111990190Y-87384000D01*
X112466380Y-87145904D02*
X111466380Y-87145904D01*
X111466380Y-87526857D01*
X111514000Y-87622095D01*
X111561619Y-87669714D01*
X111656857Y-87717333D01*
X111799714Y-87717333D01*
X111894952Y-87669714D01*
X111942571Y-87622095D01*
X111990190Y-87526857D01*
X111990190Y-87145904D01*
X111466380Y-88574476D02*
X111466380Y-88384000D01*
X111514000Y-88288761D01*
X111561619Y-88241142D01*
X111704476Y-88145904D01*
X111894952Y-88098285D01*
X112275904Y-88098285D01*
X112371142Y-88145904D01*
X112418761Y-88193523D01*
X112466380Y-88288761D01*
X112466380Y-88479238D01*
X112418761Y-88574476D01*
X112371142Y-88622095D01*
X112275904Y-88669714D01*
X112037809Y-88669714D01*
X111942571Y-88622095D01*
X111894952Y-88574476D01*
X111847333Y-88479238D01*
X111847333Y-88288761D01*
X111894952Y-88193523D01*
X111942571Y-88145904D01*
X112037809Y-88098285D01*
G04 #@! TO.C,R5*
X131389380Y-98258333D02*
X130913190Y-97925000D01*
X131389380Y-97686904D02*
X130389380Y-97686904D01*
X130389380Y-98067857D01*
X130437000Y-98163095D01*
X130484619Y-98210714D01*
X130579857Y-98258333D01*
X130722714Y-98258333D01*
X130817952Y-98210714D01*
X130865571Y-98163095D01*
X130913190Y-98067857D01*
X130913190Y-97686904D01*
X130389380Y-99163095D02*
X130389380Y-98686904D01*
X130865571Y-98639285D01*
X130817952Y-98686904D01*
X130770333Y-98782142D01*
X130770333Y-99020238D01*
X130817952Y-99115476D01*
X130865571Y-99163095D01*
X130960809Y-99210714D01*
X131198904Y-99210714D01*
X131294142Y-99163095D01*
X131341761Y-99115476D01*
X131389380Y-99020238D01*
X131389380Y-98782142D01*
X131341761Y-98686904D01*
X131294142Y-98639285D01*
G04 #@! TO.C,R4*
X131389380Y-104354333D02*
X130913190Y-104021000D01*
X131389380Y-103782904D02*
X130389380Y-103782904D01*
X130389380Y-104163857D01*
X130437000Y-104259095D01*
X130484619Y-104306714D01*
X130579857Y-104354333D01*
X130722714Y-104354333D01*
X130817952Y-104306714D01*
X130865571Y-104259095D01*
X130913190Y-104163857D01*
X130913190Y-103782904D01*
X130722714Y-105211476D02*
X131389380Y-105211476D01*
X130341761Y-104973380D02*
X131056047Y-104735285D01*
X131056047Y-105354333D01*
G04 #@! TO.C,R3*
X131389380Y-102195333D02*
X130913190Y-101862000D01*
X131389380Y-101623904D02*
X130389380Y-101623904D01*
X130389380Y-102004857D01*
X130437000Y-102100095D01*
X130484619Y-102147714D01*
X130579857Y-102195333D01*
X130722714Y-102195333D01*
X130817952Y-102147714D01*
X130865571Y-102100095D01*
X130913190Y-102004857D01*
X130913190Y-101623904D01*
X130389380Y-102528666D02*
X130389380Y-103147714D01*
X130770333Y-102814380D01*
X130770333Y-102957238D01*
X130817952Y-103052476D01*
X130865571Y-103100095D01*
X130960809Y-103147714D01*
X131198904Y-103147714D01*
X131294142Y-103100095D01*
X131341761Y-103052476D01*
X131389380Y-102957238D01*
X131389380Y-102671523D01*
X131341761Y-102576285D01*
X131294142Y-102528666D01*
G04 #@! TO.C,R2*
X131389380Y-96099333D02*
X130913190Y-95766000D01*
X131389380Y-95527904D02*
X130389380Y-95527904D01*
X130389380Y-95908857D01*
X130437000Y-96004095D01*
X130484619Y-96051714D01*
X130579857Y-96099333D01*
X130722714Y-96099333D01*
X130817952Y-96051714D01*
X130865571Y-96004095D01*
X130913190Y-95908857D01*
X130913190Y-95527904D01*
X130484619Y-96480285D02*
X130437000Y-96527904D01*
X130389380Y-96623142D01*
X130389380Y-96861238D01*
X130437000Y-96956476D01*
X130484619Y-97004095D01*
X130579857Y-97051714D01*
X130675095Y-97051714D01*
X130817952Y-97004095D01*
X131389380Y-96432666D01*
X131389380Y-97051714D01*
G04 #@! TO.C,R1*
X131389380Y-100290333D02*
X130913190Y-99957000D01*
X131389380Y-99718904D02*
X130389380Y-99718904D01*
X130389380Y-100099857D01*
X130437000Y-100195095D01*
X130484619Y-100242714D01*
X130579857Y-100290333D01*
X130722714Y-100290333D01*
X130817952Y-100242714D01*
X130865571Y-100195095D01*
X130913190Y-100099857D01*
X130913190Y-99718904D01*
X131389380Y-101242714D02*
X131389380Y-100671285D01*
X131389380Y-100957000D02*
X130389380Y-100957000D01*
X130532238Y-100861761D01*
X130627476Y-100766523D01*
X130675095Y-100671285D01*
G04 #@! TO.C,C10*
X121165857Y-108688142D02*
X121213476Y-108735761D01*
X121356333Y-108783380D01*
X121451571Y-108783380D01*
X121594428Y-108735761D01*
X121689666Y-108640523D01*
X121737285Y-108545285D01*
X121784904Y-108354809D01*
X121784904Y-108211952D01*
X121737285Y-108021476D01*
X121689666Y-107926238D01*
X121594428Y-107831000D01*
X121451571Y-107783380D01*
X121356333Y-107783380D01*
X121213476Y-107831000D01*
X121165857Y-107878619D01*
X120213476Y-108783380D02*
X120784904Y-108783380D01*
X120499190Y-108783380D02*
X120499190Y-107783380D01*
X120594428Y-107926238D01*
X120689666Y-108021476D01*
X120784904Y-108069095D01*
X119594428Y-107783380D02*
X119499190Y-107783380D01*
X119403952Y-107831000D01*
X119356333Y-107878619D01*
X119308714Y-107973857D01*
X119261095Y-108164333D01*
X119261095Y-108402428D01*
X119308714Y-108592904D01*
X119356333Y-108688142D01*
X119403952Y-108735761D01*
X119499190Y-108783380D01*
X119594428Y-108783380D01*
X119689666Y-108735761D01*
X119737285Y-108688142D01*
X119784904Y-108592904D01*
X119832523Y-108402428D01*
X119832523Y-108164333D01*
X119784904Y-107973857D01*
X119737285Y-107878619D01*
X119689666Y-107831000D01*
X119594428Y-107783380D01*
G04 #@! TO.C,C9*
X121197666Y-106656142D02*
X121245285Y-106703761D01*
X121388142Y-106751380D01*
X121483380Y-106751380D01*
X121626238Y-106703761D01*
X121721476Y-106608523D01*
X121769095Y-106513285D01*
X121816714Y-106322809D01*
X121816714Y-106179952D01*
X121769095Y-105989476D01*
X121721476Y-105894238D01*
X121626238Y-105799000D01*
X121483380Y-105751380D01*
X121388142Y-105751380D01*
X121245285Y-105799000D01*
X121197666Y-105846619D01*
X120721476Y-106751380D02*
X120531000Y-106751380D01*
X120435761Y-106703761D01*
X120388142Y-106656142D01*
X120292904Y-106513285D01*
X120245285Y-106322809D01*
X120245285Y-105941857D01*
X120292904Y-105846619D01*
X120340523Y-105799000D01*
X120435761Y-105751380D01*
X120626238Y-105751380D01*
X120721476Y-105799000D01*
X120769095Y-105846619D01*
X120816714Y-105941857D01*
X120816714Y-106179952D01*
X120769095Y-106275190D01*
X120721476Y-106322809D01*
X120626238Y-106370428D01*
X120435761Y-106370428D01*
X120340523Y-106322809D01*
X120292904Y-106275190D01*
X120245285Y-106179952D01*
G04 #@! TO.C,C8*
X114974666Y-106910142D02*
X115022285Y-106957761D01*
X115165142Y-107005380D01*
X115260380Y-107005380D01*
X115403238Y-106957761D01*
X115498476Y-106862523D01*
X115546095Y-106767285D01*
X115593714Y-106576809D01*
X115593714Y-106433952D01*
X115546095Y-106243476D01*
X115498476Y-106148238D01*
X115403238Y-106053000D01*
X115260380Y-106005380D01*
X115165142Y-106005380D01*
X115022285Y-106053000D01*
X114974666Y-106100619D01*
X114403238Y-106433952D02*
X114498476Y-106386333D01*
X114546095Y-106338714D01*
X114593714Y-106243476D01*
X114593714Y-106195857D01*
X114546095Y-106100619D01*
X114498476Y-106053000D01*
X114403238Y-106005380D01*
X114212761Y-106005380D01*
X114117523Y-106053000D01*
X114069904Y-106100619D01*
X114022285Y-106195857D01*
X114022285Y-106243476D01*
X114069904Y-106338714D01*
X114117523Y-106386333D01*
X114212761Y-106433952D01*
X114403238Y-106433952D01*
X114498476Y-106481571D01*
X114546095Y-106529190D01*
X114593714Y-106624428D01*
X114593714Y-106814904D01*
X114546095Y-106910142D01*
X114498476Y-106957761D01*
X114403238Y-107005380D01*
X114212761Y-107005380D01*
X114117523Y-106957761D01*
X114069904Y-106910142D01*
X114022285Y-106814904D01*
X114022285Y-106624428D01*
X114069904Y-106529190D01*
X114117523Y-106481571D01*
X114212761Y-106433952D01*
G04 #@! TO.C,C7*
X115101666Y-99036142D02*
X115149285Y-99083761D01*
X115292142Y-99131380D01*
X115387380Y-99131380D01*
X115530238Y-99083761D01*
X115625476Y-98988523D01*
X115673095Y-98893285D01*
X115720714Y-98702809D01*
X115720714Y-98559952D01*
X115673095Y-98369476D01*
X115625476Y-98274238D01*
X115530238Y-98179000D01*
X115387380Y-98131380D01*
X115292142Y-98131380D01*
X115149285Y-98179000D01*
X115101666Y-98226619D01*
X114768333Y-98131380D02*
X114101666Y-98131380D01*
X114530238Y-99131380D01*
G04 #@! TO.C,C6*
X117705142Y-87844333D02*
X117752761Y-87796714D01*
X117800380Y-87653857D01*
X117800380Y-87558619D01*
X117752761Y-87415761D01*
X117657523Y-87320523D01*
X117562285Y-87272904D01*
X117371809Y-87225285D01*
X117228952Y-87225285D01*
X117038476Y-87272904D01*
X116943238Y-87320523D01*
X116848000Y-87415761D01*
X116800380Y-87558619D01*
X116800380Y-87653857D01*
X116848000Y-87796714D01*
X116895619Y-87844333D01*
X116800380Y-88701476D02*
X116800380Y-88511000D01*
X116848000Y-88415761D01*
X116895619Y-88368142D01*
X117038476Y-88272904D01*
X117228952Y-88225285D01*
X117609904Y-88225285D01*
X117705142Y-88272904D01*
X117752761Y-88320523D01*
X117800380Y-88415761D01*
X117800380Y-88606238D01*
X117752761Y-88701476D01*
X117705142Y-88749095D01*
X117609904Y-88796714D01*
X117371809Y-88796714D01*
X117276571Y-88749095D01*
X117228952Y-88701476D01*
X117181333Y-88606238D01*
X117181333Y-88415761D01*
X117228952Y-88320523D01*
X117276571Y-88272904D01*
X117371809Y-88225285D01*
G04 #@! TO.C,C5*
X132563142Y-89368333D02*
X132610761Y-89320714D01*
X132658380Y-89177857D01*
X132658380Y-89082619D01*
X132610761Y-88939761D01*
X132515523Y-88844523D01*
X132420285Y-88796904D01*
X132229809Y-88749285D01*
X132086952Y-88749285D01*
X131896476Y-88796904D01*
X131801238Y-88844523D01*
X131706000Y-88939761D01*
X131658380Y-89082619D01*
X131658380Y-89177857D01*
X131706000Y-89320714D01*
X131753619Y-89368333D01*
X131658380Y-90273095D02*
X131658380Y-89796904D01*
X132134571Y-89749285D01*
X132086952Y-89796904D01*
X132039333Y-89892142D01*
X132039333Y-90130238D01*
X132086952Y-90225476D01*
X132134571Y-90273095D01*
X132229809Y-90320714D01*
X132467904Y-90320714D01*
X132563142Y-90273095D01*
X132610761Y-90225476D01*
X132658380Y-90130238D01*
X132658380Y-89892142D01*
X132610761Y-89796904D01*
X132563142Y-89749285D01*
G04 #@! TO.C,C4*
X132563142Y-84923333D02*
X132610761Y-84875714D01*
X132658380Y-84732857D01*
X132658380Y-84637619D01*
X132610761Y-84494761D01*
X132515523Y-84399523D01*
X132420285Y-84351904D01*
X132229809Y-84304285D01*
X132086952Y-84304285D01*
X131896476Y-84351904D01*
X131801238Y-84399523D01*
X131706000Y-84494761D01*
X131658380Y-84637619D01*
X131658380Y-84732857D01*
X131706000Y-84875714D01*
X131753619Y-84923333D01*
X131991714Y-85780476D02*
X132658380Y-85780476D01*
X131610761Y-85542380D02*
X132325047Y-85304285D01*
X132325047Y-85923333D01*
G04 #@! TO.C,C2*
X117705142Y-90003333D02*
X117752761Y-89955714D01*
X117800380Y-89812857D01*
X117800380Y-89717619D01*
X117752761Y-89574761D01*
X117657523Y-89479523D01*
X117562285Y-89431904D01*
X117371809Y-89384285D01*
X117228952Y-89384285D01*
X117038476Y-89431904D01*
X116943238Y-89479523D01*
X116848000Y-89574761D01*
X116800380Y-89717619D01*
X116800380Y-89812857D01*
X116848000Y-89955714D01*
X116895619Y-90003333D01*
X116895619Y-90384285D02*
X116848000Y-90431904D01*
X116800380Y-90527142D01*
X116800380Y-90765238D01*
X116848000Y-90860476D01*
X116895619Y-90908095D01*
X116990857Y-90955714D01*
X117086095Y-90955714D01*
X117228952Y-90908095D01*
X117800380Y-90336666D01*
X117800380Y-90955714D01*
G04 #@! TD*
M02*
