G04 #@! TF.GenerationSoftware,KiCad,Pcbnew,5.1.10*
G04 #@! TF.CreationDate,2021-09-21T16:03:23-04:00*
G04 #@! TF.ProjectId,tinycalibrator,74696e79-6361-46c6-9962-7261746f722e,rev?*
G04 #@! TF.SameCoordinates,Original*
G04 #@! TF.FileFunction,Copper,L2,Bot*
G04 #@! TF.FilePolarity,Positive*
%FSLAX46Y46*%
G04 Gerber Fmt 4.6, Leading zero omitted, Abs format (unit mm)*
G04 Created by KiCad (PCBNEW 5.1.10) date 2021-09-21 16:03:23*
%MOMM*%
%LPD*%
G01*
G04 APERTURE LIST*
G04 #@! TA.AperFunction,Profile*
%ADD10C,0.050000*%
G04 #@! TD*
G04 #@! TA.AperFunction,ComponentPad*
%ADD11O,1.600000X1.600000*%
G04 #@! TD*
G04 #@! TA.AperFunction,ComponentPad*
%ADD12R,1.600000X1.600000*%
G04 #@! TD*
G04 #@! TA.AperFunction,ComponentPad*
%ADD13O,1.700000X1.700000*%
G04 #@! TD*
G04 #@! TA.AperFunction,ComponentPad*
%ADD14R,1.700000X1.700000*%
G04 #@! TD*
G04 #@! TA.AperFunction,ComponentPad*
%ADD15O,2.200000X2.200000*%
G04 #@! TD*
G04 #@! TA.AperFunction,ComponentPad*
%ADD16R,2.200000X2.200000*%
G04 #@! TD*
G04 #@! TA.AperFunction,ComponentPad*
%ADD17C,1.524000*%
G04 #@! TD*
G04 #@! TA.AperFunction,SMDPad,CuDef*
%ADD18R,1.300000X1.600000*%
G04 #@! TD*
G04 #@! TA.AperFunction,ComponentPad*
%ADD19C,1.879600*%
G04 #@! TD*
G04 #@! TA.AperFunction,ComponentPad*
%ADD20O,1.700000X0.900000*%
G04 #@! TD*
G04 #@! TA.AperFunction,ComponentPad*
%ADD21O,2.400000X0.900000*%
G04 #@! TD*
G04 #@! TA.AperFunction,ComponentPad*
%ADD22C,0.700000*%
G04 #@! TD*
G04 #@! TA.AperFunction,ViaPad*
%ADD23C,0.800000*%
G04 #@! TD*
G04 #@! TA.AperFunction,Conductor*
%ADD24C,0.250000*%
G04 #@! TD*
G04 #@! TA.AperFunction,Conductor*
%ADD25C,0.254000*%
G04 #@! TD*
G04 #@! TA.AperFunction,Conductor*
%ADD26C,0.350000*%
G04 #@! TD*
G04 APERTURE END LIST*
D10*
X97000000Y-111000000D02*
X170000000Y-111000000D01*
X97000000Y-79000000D02*
X97000000Y-111000000D01*
X170000000Y-79000000D02*
X97000000Y-79000000D01*
X170000000Y-111000000D02*
X170000000Y-79000000D01*
D11*
G04 #@! TO.P,U1,8*
G04 #@! TO.N,/TGTVCC*
X140144500Y-106489500D03*
G04 #@! TO.P,U1,4*
G04 #@! TO.N,GND*
X147764500Y-98869500D03*
G04 #@! TO.P,U1,7*
G04 #@! TO.N,/SDO*
X140144500Y-103949500D03*
G04 #@! TO.P,U1,3*
G04 #@! TO.N,Net-(U1-Pad3)*
X147764500Y-101409500D03*
G04 #@! TO.P,U1,6*
G04 #@! TO.N,/SII*
X140144500Y-101409500D03*
G04 #@! TO.P,U1,2*
G04 #@! TO.N,/SCI*
X147764500Y-103949500D03*
G04 #@! TO.P,U1,5*
G04 #@! TO.N,/SDI*
X140144500Y-98869500D03*
D12*
G04 #@! TO.P,U1,1*
G04 #@! TO.N,/RST*
X147764500Y-106489500D03*
G04 #@! TD*
D13*
G04 #@! TO.P,J4,4*
G04 #@! TO.N,/TGTVCC*
X152717500Y-106509500D03*
G04 #@! TO.P,J4,3*
G04 #@! TO.N,/SDO*
X152717500Y-103969500D03*
G04 #@! TO.P,J4,2*
G04 #@! TO.N,/SII*
X152717500Y-101429500D03*
D14*
G04 #@! TO.P,J4,1*
G04 #@! TO.N,/SDI*
X152717500Y-98889500D03*
G04 #@! TD*
D13*
G04 #@! TO.P,J2,4*
G04 #@! TO.N,GND*
X160337500Y-98869500D03*
G04 #@! TO.P,J2,3*
G04 #@! TO.N,Net-(J2-Pad3)*
X160337500Y-101409500D03*
G04 #@! TO.P,J2,2*
G04 #@! TO.N,/SCI*
X160337500Y-103949500D03*
D14*
G04 #@! TO.P,J2,1*
G04 #@! TO.N,/RST*
X160337500Y-106489500D03*
G04 #@! TD*
D15*
G04 #@! TO.P,D1,2*
G04 #@! TO.N,/PA5*
X161290000Y-91440000D03*
D16*
G04 #@! TO.P,D1,1*
G04 #@! TO.N,VCC*
X161290000Y-81280000D03*
G04 #@! TD*
D17*
G04 #@! TO.P,U4,4*
G04 #@! TO.N,/MOSI*
X125539400Y-83229300D03*
G04 #@! TO.P,U4,3*
G04 #@! TO.N,/SCK*
X122999400Y-83229300D03*
G04 #@! TO.P,U4,2*
G04 #@! TO.N,VCC*
X120459400Y-83229300D03*
G04 #@! TO.P,U4,1*
G04 #@! TO.N,GND*
X117919400Y-83229300D03*
G04 #@! TD*
D18*
G04 #@! TO.P,Y1,4*
G04 #@! TO.N,GND*
X116856000Y-100967000D03*
G04 #@! TO.P,Y1,3*
G04 #@! TO.N,/XTAL2*
X116856000Y-104267000D03*
G04 #@! TO.P,Y1,2*
G04 #@! TO.N,GND*
X118856000Y-104267000D03*
G04 #@! TO.P,Y1,1*
G04 #@! TO.N,/XTAL1*
X118856000Y-100967000D03*
G04 #@! TD*
G04 #@! TO.P,U5,14*
G04 #@! TO.N,GND*
G04 #@! TA.AperFunction,SMDPad,CuDef*
G36*
G01*
X127230000Y-104544000D02*
X127230000Y-104244000D01*
G75*
G02*
X127380000Y-104094000I150000J0D01*
G01*
X129030000Y-104094000D01*
G75*
G02*
X129180000Y-104244000I0J-150000D01*
G01*
X129180000Y-104544000D01*
G75*
G02*
X129030000Y-104694000I-150000J0D01*
G01*
X127380000Y-104694000D01*
G75*
G02*
X127230000Y-104544000I0J150000D01*
G01*
G37*
G04 #@! TD.AperFunction*
G04 #@! TO.P,U5,13*
G04 #@! TO.N,/PA0*
G04 #@! TA.AperFunction,SMDPad,CuDef*
G36*
G01*
X127230000Y-103274000D02*
X127230000Y-102974000D01*
G75*
G02*
X127380000Y-102824000I150000J0D01*
G01*
X129030000Y-102824000D01*
G75*
G02*
X129180000Y-102974000I0J-150000D01*
G01*
X129180000Y-103274000D01*
G75*
G02*
X129030000Y-103424000I-150000J0D01*
G01*
X127380000Y-103424000D01*
G75*
G02*
X127230000Y-103274000I0J150000D01*
G01*
G37*
G04 #@! TD.AperFunction*
G04 #@! TO.P,U5,12*
G04 #@! TO.N,/PA1*
G04 #@! TA.AperFunction,SMDPad,CuDef*
G36*
G01*
X127230000Y-102004000D02*
X127230000Y-101704000D01*
G75*
G02*
X127380000Y-101554000I150000J0D01*
G01*
X129030000Y-101554000D01*
G75*
G02*
X129180000Y-101704000I0J-150000D01*
G01*
X129180000Y-102004000D01*
G75*
G02*
X129030000Y-102154000I-150000J0D01*
G01*
X127380000Y-102154000D01*
G75*
G02*
X127230000Y-102004000I0J150000D01*
G01*
G37*
G04 #@! TD.AperFunction*
G04 #@! TO.P,U5,11*
G04 #@! TO.N,/PA2*
G04 #@! TA.AperFunction,SMDPad,CuDef*
G36*
G01*
X127230000Y-100734000D02*
X127230000Y-100434000D01*
G75*
G02*
X127380000Y-100284000I150000J0D01*
G01*
X129030000Y-100284000D01*
G75*
G02*
X129180000Y-100434000I0J-150000D01*
G01*
X129180000Y-100734000D01*
G75*
G02*
X129030000Y-100884000I-150000J0D01*
G01*
X127380000Y-100884000D01*
G75*
G02*
X127230000Y-100734000I0J150000D01*
G01*
G37*
G04 #@! TD.AperFunction*
G04 #@! TO.P,U5,10*
G04 #@! TO.N,/PA3*
G04 #@! TA.AperFunction,SMDPad,CuDef*
G36*
G01*
X127230000Y-99464000D02*
X127230000Y-99164000D01*
G75*
G02*
X127380000Y-99014000I150000J0D01*
G01*
X129030000Y-99014000D01*
G75*
G02*
X129180000Y-99164000I0J-150000D01*
G01*
X129180000Y-99464000D01*
G75*
G02*
X129030000Y-99614000I-150000J0D01*
G01*
X127380000Y-99614000D01*
G75*
G02*
X127230000Y-99464000I0J150000D01*
G01*
G37*
G04 #@! TD.AperFunction*
G04 #@! TO.P,U5,9*
G04 #@! TO.N,/SCK*
G04 #@! TA.AperFunction,SMDPad,CuDef*
G36*
G01*
X127230000Y-98194000D02*
X127230000Y-97894000D01*
G75*
G02*
X127380000Y-97744000I150000J0D01*
G01*
X129030000Y-97744000D01*
G75*
G02*
X129180000Y-97894000I0J-150000D01*
G01*
X129180000Y-98194000D01*
G75*
G02*
X129030000Y-98344000I-150000J0D01*
G01*
X127380000Y-98344000D01*
G75*
G02*
X127230000Y-98194000I0J150000D01*
G01*
G37*
G04 #@! TD.AperFunction*
G04 #@! TO.P,U5,8*
G04 #@! TO.N,/PA5*
G04 #@! TA.AperFunction,SMDPad,CuDef*
G36*
G01*
X127230000Y-96924000D02*
X127230000Y-96624000D01*
G75*
G02*
X127380000Y-96474000I150000J0D01*
G01*
X129030000Y-96474000D01*
G75*
G02*
X129180000Y-96624000I0J-150000D01*
G01*
X129180000Y-96924000D01*
G75*
G02*
X129030000Y-97074000I-150000J0D01*
G01*
X127380000Y-97074000D01*
G75*
G02*
X127230000Y-96924000I0J150000D01*
G01*
G37*
G04 #@! TD.AperFunction*
G04 #@! TO.P,U5,7*
G04 #@! TO.N,/MOSI*
G04 #@! TA.AperFunction,SMDPad,CuDef*
G36*
G01*
X122280000Y-96924000D02*
X122280000Y-96624000D01*
G75*
G02*
X122430000Y-96474000I150000J0D01*
G01*
X124080000Y-96474000D01*
G75*
G02*
X124230000Y-96624000I0J-150000D01*
G01*
X124230000Y-96924000D01*
G75*
G02*
X124080000Y-97074000I-150000J0D01*
G01*
X122430000Y-97074000D01*
G75*
G02*
X122280000Y-96924000I0J150000D01*
G01*
G37*
G04 #@! TD.AperFunction*
G04 #@! TO.P,U5,6*
G04 #@! TO.N,/PA7*
G04 #@! TA.AperFunction,SMDPad,CuDef*
G36*
G01*
X122280000Y-98194000D02*
X122280000Y-97894000D01*
G75*
G02*
X122430000Y-97744000I150000J0D01*
G01*
X124080000Y-97744000D01*
G75*
G02*
X124230000Y-97894000I0J-150000D01*
G01*
X124230000Y-98194000D01*
G75*
G02*
X124080000Y-98344000I-150000J0D01*
G01*
X122430000Y-98344000D01*
G75*
G02*
X122280000Y-98194000I0J150000D01*
G01*
G37*
G04 #@! TD.AperFunction*
G04 #@! TO.P,U5,5*
G04 #@! TO.N,/TGTVCC*
G04 #@! TA.AperFunction,SMDPad,CuDef*
G36*
G01*
X122280000Y-99464000D02*
X122280000Y-99164000D01*
G75*
G02*
X122430000Y-99014000I150000J0D01*
G01*
X124080000Y-99014000D01*
G75*
G02*
X124230000Y-99164000I0J-150000D01*
G01*
X124230000Y-99464000D01*
G75*
G02*
X124080000Y-99614000I-150000J0D01*
G01*
X122430000Y-99614000D01*
G75*
G02*
X122280000Y-99464000I0J150000D01*
G01*
G37*
G04 #@! TD.AperFunction*
G04 #@! TO.P,U5,4*
G04 #@! TO.N,/RESET*
G04 #@! TA.AperFunction,SMDPad,CuDef*
G36*
G01*
X122280000Y-100734000D02*
X122280000Y-100434000D01*
G75*
G02*
X122430000Y-100284000I150000J0D01*
G01*
X124080000Y-100284000D01*
G75*
G02*
X124230000Y-100434000I0J-150000D01*
G01*
X124230000Y-100734000D01*
G75*
G02*
X124080000Y-100884000I-150000J0D01*
G01*
X122430000Y-100884000D01*
G75*
G02*
X122280000Y-100734000I0J150000D01*
G01*
G37*
G04 #@! TD.AperFunction*
G04 #@! TO.P,U5,3*
G04 #@! TO.N,/XTAL2*
G04 #@! TA.AperFunction,SMDPad,CuDef*
G36*
G01*
X122280000Y-102004000D02*
X122280000Y-101704000D01*
G75*
G02*
X122430000Y-101554000I150000J0D01*
G01*
X124080000Y-101554000D01*
G75*
G02*
X124230000Y-101704000I0J-150000D01*
G01*
X124230000Y-102004000D01*
G75*
G02*
X124080000Y-102154000I-150000J0D01*
G01*
X122430000Y-102154000D01*
G75*
G02*
X122280000Y-102004000I0J150000D01*
G01*
G37*
G04 #@! TD.AperFunction*
G04 #@! TO.P,U5,2*
G04 #@! TO.N,/XTAL1*
G04 #@! TA.AperFunction,SMDPad,CuDef*
G36*
G01*
X122280000Y-103274000D02*
X122280000Y-102974000D01*
G75*
G02*
X122430000Y-102824000I150000J0D01*
G01*
X124080000Y-102824000D01*
G75*
G02*
X124230000Y-102974000I0J-150000D01*
G01*
X124230000Y-103274000D01*
G75*
G02*
X124080000Y-103424000I-150000J0D01*
G01*
X122430000Y-103424000D01*
G75*
G02*
X122280000Y-103274000I0J150000D01*
G01*
G37*
G04 #@! TD.AperFunction*
G04 #@! TO.P,U5,1*
G04 #@! TO.N,VCC*
G04 #@! TA.AperFunction,SMDPad,CuDef*
G36*
G01*
X122280000Y-104544000D02*
X122280000Y-104244000D01*
G75*
G02*
X122430000Y-104094000I150000J0D01*
G01*
X124080000Y-104094000D01*
G75*
G02*
X124230000Y-104244000I0J-150000D01*
G01*
X124230000Y-104544000D01*
G75*
G02*
X124080000Y-104694000I-150000J0D01*
G01*
X122430000Y-104694000D01*
G75*
G02*
X122280000Y-104544000I0J150000D01*
G01*
G37*
G04 #@! TD.AperFunction*
G04 #@! TD*
G04 #@! TO.P,U3,8*
G04 #@! TO.N,GND*
G04 #@! TA.AperFunction,SMDPad,CuDef*
G36*
G01*
X127303000Y-91209000D02*
X127303000Y-90909000D01*
G75*
G02*
X127453000Y-90759000I150000J0D01*
G01*
X128903000Y-90759000D01*
G75*
G02*
X129053000Y-90909000I0J-150000D01*
G01*
X129053000Y-91209000D01*
G75*
G02*
X128903000Y-91359000I-150000J0D01*
G01*
X127453000Y-91359000D01*
G75*
G02*
X127303000Y-91209000I0J150000D01*
G01*
G37*
G04 #@! TD.AperFunction*
G04 #@! TO.P,U3,7*
G04 #@! TA.AperFunction,SMDPad,CuDef*
G36*
G01*
X127303000Y-89939000D02*
X127303000Y-89639000D01*
G75*
G02*
X127453000Y-89489000I150000J0D01*
G01*
X128903000Y-89489000D01*
G75*
G02*
X129053000Y-89639000I0J-150000D01*
G01*
X129053000Y-89939000D01*
G75*
G02*
X128903000Y-90089000I-150000J0D01*
G01*
X127453000Y-90089000D01*
G75*
G02*
X127303000Y-89939000I0J150000D01*
G01*
G37*
G04 #@! TD.AperFunction*
G04 #@! TO.P,U3,6*
G04 #@! TO.N,+12V*
G04 #@! TA.AperFunction,SMDPad,CuDef*
G36*
G01*
X127303000Y-88669000D02*
X127303000Y-88369000D01*
G75*
G02*
X127453000Y-88219000I150000J0D01*
G01*
X128903000Y-88219000D01*
G75*
G02*
X129053000Y-88369000I0J-150000D01*
G01*
X129053000Y-88669000D01*
G75*
G02*
X128903000Y-88819000I-150000J0D01*
G01*
X127453000Y-88819000D01*
G75*
G02*
X127303000Y-88669000I0J150000D01*
G01*
G37*
G04 #@! TD.AperFunction*
G04 #@! TO.P,U3,5*
G04 #@! TO.N,+5V*
G04 #@! TA.AperFunction,SMDPad,CuDef*
G36*
G01*
X127303000Y-87399000D02*
X127303000Y-87099000D01*
G75*
G02*
X127453000Y-86949000I150000J0D01*
G01*
X128903000Y-86949000D01*
G75*
G02*
X129053000Y-87099000I0J-150000D01*
G01*
X129053000Y-87399000D01*
G75*
G02*
X128903000Y-87549000I-150000J0D01*
G01*
X127453000Y-87549000D01*
G75*
G02*
X127303000Y-87399000I0J150000D01*
G01*
G37*
G04 #@! TD.AperFunction*
G04 #@! TO.P,U3,4*
G04 #@! TO.N,Net-(C6-Pad2)*
G04 #@! TA.AperFunction,SMDPad,CuDef*
G36*
G01*
X122153000Y-87399000D02*
X122153000Y-87099000D01*
G75*
G02*
X122303000Y-86949000I150000J0D01*
G01*
X123753000Y-86949000D01*
G75*
G02*
X123903000Y-87099000I0J-150000D01*
G01*
X123903000Y-87399000D01*
G75*
G02*
X123753000Y-87549000I-150000J0D01*
G01*
X122303000Y-87549000D01*
G75*
G02*
X122153000Y-87399000I0J150000D01*
G01*
G37*
G04 #@! TD.AperFunction*
G04 #@! TO.P,U3,3*
G04 #@! TO.N,Net-(C6-Pad1)*
G04 #@! TA.AperFunction,SMDPad,CuDef*
G36*
G01*
X122153000Y-88669000D02*
X122153000Y-88369000D01*
G75*
G02*
X122303000Y-88219000I150000J0D01*
G01*
X123753000Y-88219000D01*
G75*
G02*
X123903000Y-88369000I0J-150000D01*
G01*
X123903000Y-88669000D01*
G75*
G02*
X123753000Y-88819000I-150000J0D01*
G01*
X122303000Y-88819000D01*
G75*
G02*
X122153000Y-88669000I0J150000D01*
G01*
G37*
G04 #@! TD.AperFunction*
G04 #@! TO.P,U3,2*
G04 #@! TO.N,Net-(C2-Pad1)*
G04 #@! TA.AperFunction,SMDPad,CuDef*
G36*
G01*
X122153000Y-89939000D02*
X122153000Y-89639000D01*
G75*
G02*
X122303000Y-89489000I150000J0D01*
G01*
X123753000Y-89489000D01*
G75*
G02*
X123903000Y-89639000I0J-150000D01*
G01*
X123903000Y-89939000D01*
G75*
G02*
X123753000Y-90089000I-150000J0D01*
G01*
X122303000Y-90089000D01*
G75*
G02*
X122153000Y-89939000I0J150000D01*
G01*
G37*
G04 #@! TD.AperFunction*
G04 #@! TO.P,U3,1*
G04 #@! TO.N,Net-(C2-Pad2)*
G04 #@! TA.AperFunction,SMDPad,CuDef*
G36*
G01*
X122153000Y-91209000D02*
X122153000Y-90909000D01*
G75*
G02*
X122303000Y-90759000I150000J0D01*
G01*
X123753000Y-90759000D01*
G75*
G02*
X123903000Y-90909000I0J-150000D01*
G01*
X123903000Y-91209000D01*
G75*
G02*
X123753000Y-91359000I-150000J0D01*
G01*
X122303000Y-91359000D01*
G75*
G02*
X122153000Y-91209000I0J150000D01*
G01*
G37*
G04 #@! TD.AperFunction*
G04 #@! TD*
D19*
G04 #@! TO.P,SW1,3*
G04 #@! TO.N,+5V*
X139700000Y-88392000D03*
G04 #@! TO.P,SW1,2*
G04 #@! TO.N,VCC*
X142240000Y-88392000D03*
G04 #@! TO.P,SW1,1*
G04 #@! TO.N,Net-(C3-Pad2)*
X144780000Y-88392000D03*
G04 #@! TD*
G04 #@! TO.P,R15,2*
G04 #@! TO.N,+12V*
G04 #@! TA.AperFunction,SMDPad,CuDef*
G36*
G01*
X146044499Y-95128500D02*
X146944501Y-95128500D01*
G75*
G02*
X147194500Y-95378499I0J-249999D01*
G01*
X147194500Y-96028501D01*
G75*
G02*
X146944501Y-96278500I-249999J0D01*
G01*
X146044499Y-96278500D01*
G75*
G02*
X145794500Y-96028501I0J249999D01*
G01*
X145794500Y-95378499D01*
G75*
G02*
X146044499Y-95128500I249999J0D01*
G01*
G37*
G04 #@! TD.AperFunction*
G04 #@! TO.P,R15,1*
G04 #@! TO.N,Net-(Q1-Pad1)*
G04 #@! TA.AperFunction,SMDPad,CuDef*
G36*
G01*
X146044499Y-93078500D02*
X146944501Y-93078500D01*
G75*
G02*
X147194500Y-93328499I0J-249999D01*
G01*
X147194500Y-93978501D01*
G75*
G02*
X146944501Y-94228500I-249999J0D01*
G01*
X146044499Y-94228500D01*
G75*
G02*
X145794500Y-93978501I0J249999D01*
G01*
X145794500Y-93328499D01*
G75*
G02*
X146044499Y-93078500I249999J0D01*
G01*
G37*
G04 #@! TD.AperFunction*
G04 #@! TD*
G04 #@! TO.P,R14,2*
G04 #@! TO.N,/PA7*
G04 #@! TA.AperFunction,SMDPad,CuDef*
G36*
G01*
X140901000Y-93148999D02*
X140901000Y-94049001D01*
G75*
G02*
X140651001Y-94299000I-249999J0D01*
G01*
X140000999Y-94299000D01*
G75*
G02*
X139751000Y-94049001I0J249999D01*
G01*
X139751000Y-93148999D01*
G75*
G02*
X140000999Y-92899000I249999J0D01*
G01*
X140651001Y-92899000D01*
G75*
G02*
X140901000Y-93148999I0J-249999D01*
G01*
G37*
G04 #@! TD.AperFunction*
G04 #@! TO.P,R14,1*
G04 #@! TO.N,Net-(Q2-Pad1)*
G04 #@! TA.AperFunction,SMDPad,CuDef*
G36*
G01*
X142951000Y-93148999D02*
X142951000Y-94049001D01*
G75*
G02*
X142701001Y-94299000I-249999J0D01*
G01*
X142050999Y-94299000D01*
G75*
G02*
X141801000Y-94049001I0J249999D01*
G01*
X141801000Y-93148999D01*
G75*
G02*
X142050999Y-92899000I249999J0D01*
G01*
X142701001Y-92899000D01*
G75*
G02*
X142951000Y-93148999I0J-249999D01*
G01*
G37*
G04 #@! TD.AperFunction*
G04 #@! TD*
G04 #@! TO.P,R13,2*
G04 #@! TO.N,Net-(R11-Pad1)*
G04 #@! TA.AperFunction,SMDPad,CuDef*
G36*
G01*
X99256001Y-101277000D02*
X98355999Y-101277000D01*
G75*
G02*
X98106000Y-101027001I0J249999D01*
G01*
X98106000Y-100376999D01*
G75*
G02*
X98355999Y-100127000I249999J0D01*
G01*
X99256001Y-100127000D01*
G75*
G02*
X99506000Y-100376999I0J-249999D01*
G01*
X99506000Y-101027001D01*
G75*
G02*
X99256001Y-101277000I-249999J0D01*
G01*
G37*
G04 #@! TD.AperFunction*
G04 #@! TO.P,R13,1*
G04 #@! TO.N,Net-(R13-Pad1)*
G04 #@! TA.AperFunction,SMDPad,CuDef*
G36*
G01*
X99256001Y-103327000D02*
X98355999Y-103327000D01*
G75*
G02*
X98106000Y-103077001I0J249999D01*
G01*
X98106000Y-102426999D01*
G75*
G02*
X98355999Y-102177000I249999J0D01*
G01*
X99256001Y-102177000D01*
G75*
G02*
X99506000Y-102426999I0J-249999D01*
G01*
X99506000Y-103077001D01*
G75*
G02*
X99256001Y-103327000I-249999J0D01*
G01*
G37*
G04 #@! TD.AperFunction*
G04 #@! TD*
G04 #@! TO.P,R12,2*
G04 #@! TO.N,VCC*
G04 #@! TA.AperFunction,SMDPad,CuDef*
G36*
G01*
X133927000Y-94811001D02*
X133927000Y-93910999D01*
G75*
G02*
X134176999Y-93661000I249999J0D01*
G01*
X134827001Y-93661000D01*
G75*
G02*
X135077000Y-93910999I0J-249999D01*
G01*
X135077000Y-94811001D01*
G75*
G02*
X134827001Y-95061000I-249999J0D01*
G01*
X134176999Y-95061000D01*
G75*
G02*
X133927000Y-94811001I0J249999D01*
G01*
G37*
G04 #@! TD.AperFunction*
G04 #@! TO.P,R12,1*
G04 #@! TO.N,/RESET*
G04 #@! TA.AperFunction,SMDPad,CuDef*
G36*
G01*
X131877000Y-94811001D02*
X131877000Y-93910999D01*
G75*
G02*
X132126999Y-93661000I249999J0D01*
G01*
X132777001Y-93661000D01*
G75*
G02*
X133027000Y-93910999I0J-249999D01*
G01*
X133027000Y-94811001D01*
G75*
G02*
X132777001Y-95061000I-249999J0D01*
G01*
X132126999Y-95061000D01*
G75*
G02*
X131877000Y-94811001I0J249999D01*
G01*
G37*
G04 #@! TD.AperFunction*
G04 #@! TD*
G04 #@! TO.P,R11,2*
G04 #@! TO.N,Net-(R10-Pad1)*
G04 #@! TA.AperFunction,SMDPad,CuDef*
G36*
G01*
X99256001Y-93902000D02*
X98355999Y-93902000D01*
G75*
G02*
X98106000Y-93652001I0J249999D01*
G01*
X98106000Y-93001999D01*
G75*
G02*
X98355999Y-92752000I249999J0D01*
G01*
X99256001Y-92752000D01*
G75*
G02*
X99506000Y-93001999I0J-249999D01*
G01*
X99506000Y-93652001D01*
G75*
G02*
X99256001Y-93902000I-249999J0D01*
G01*
G37*
G04 #@! TD.AperFunction*
G04 #@! TO.P,R11,1*
G04 #@! TO.N,Net-(R11-Pad1)*
G04 #@! TA.AperFunction,SMDPad,CuDef*
G36*
G01*
X99256001Y-95952000D02*
X98355999Y-95952000D01*
G75*
G02*
X98106000Y-95702001I0J249999D01*
G01*
X98106000Y-95051999D01*
G75*
G02*
X98355999Y-94802000I249999J0D01*
G01*
X99256001Y-94802000D01*
G75*
G02*
X99506000Y-95051999I0J-249999D01*
G01*
X99506000Y-95702001D01*
G75*
G02*
X99256001Y-95952000I-249999J0D01*
G01*
G37*
G04 #@! TD.AperFunction*
G04 #@! TD*
G04 #@! TO.P,R10,2*
G04 #@! TO.N,/PA0*
G04 #@! TA.AperFunction,SMDPad,CuDef*
G36*
G01*
X99256001Y-87307000D02*
X98355999Y-87307000D01*
G75*
G02*
X98106000Y-87057001I0J249999D01*
G01*
X98106000Y-86406999D01*
G75*
G02*
X98355999Y-86157000I249999J0D01*
G01*
X99256001Y-86157000D01*
G75*
G02*
X99506000Y-86406999I0J-249999D01*
G01*
X99506000Y-87057001D01*
G75*
G02*
X99256001Y-87307000I-249999J0D01*
G01*
G37*
G04 #@! TD.AperFunction*
G04 #@! TO.P,R10,1*
G04 #@! TO.N,Net-(R10-Pad1)*
G04 #@! TA.AperFunction,SMDPad,CuDef*
G36*
G01*
X99256001Y-89357000D02*
X98355999Y-89357000D01*
G75*
G02*
X98106000Y-89107001I0J249999D01*
G01*
X98106000Y-88456999D01*
G75*
G02*
X98355999Y-88207000I249999J0D01*
G01*
X99256001Y-88207000D01*
G75*
G02*
X99506000Y-88456999I0J-249999D01*
G01*
X99506000Y-89107001D01*
G75*
G02*
X99256001Y-89357000I-249999J0D01*
G01*
G37*
G04 #@! TD.AperFunction*
G04 #@! TD*
G04 #@! TO.P,R9,2*
G04 #@! TO.N,/PA0*
G04 #@! TA.AperFunction,SMDPad,CuDef*
G36*
G01*
X128212000Y-106749001D02*
X128212000Y-105848999D01*
G75*
G02*
X128461999Y-105599000I249999J0D01*
G01*
X129112001Y-105599000D01*
G75*
G02*
X129362000Y-105848999I0J-249999D01*
G01*
X129362000Y-106749001D01*
G75*
G02*
X129112001Y-106999000I-249999J0D01*
G01*
X128461999Y-106999000D01*
G75*
G02*
X128212000Y-106749001I0J249999D01*
G01*
G37*
G04 #@! TD.AperFunction*
G04 #@! TO.P,R9,1*
G04 #@! TO.N,VCC*
G04 #@! TA.AperFunction,SMDPad,CuDef*
G36*
G01*
X126162000Y-106749001D02*
X126162000Y-105848999D01*
G75*
G02*
X126411999Y-105599000I249999J0D01*
G01*
X127062001Y-105599000D01*
G75*
G02*
X127312000Y-105848999I0J-249999D01*
G01*
X127312000Y-106749001D01*
G75*
G02*
X127062001Y-106999000I-249999J0D01*
G01*
X126411999Y-106999000D01*
G75*
G02*
X126162000Y-106749001I0J249999D01*
G01*
G37*
G04 #@! TD.AperFunction*
G04 #@! TD*
G04 #@! TO.P,R7,2*
G04 #@! TO.N,/SCK*
G04 #@! TA.AperFunction,SMDPad,CuDef*
G36*
G01*
X115004000Y-86302001D02*
X115004000Y-85401999D01*
G75*
G02*
X115253999Y-85152000I249999J0D01*
G01*
X115904001Y-85152000D01*
G75*
G02*
X116154000Y-85401999I0J-249999D01*
G01*
X116154000Y-86302001D01*
G75*
G02*
X115904001Y-86552000I-249999J0D01*
G01*
X115253999Y-86552000D01*
G75*
G02*
X115004000Y-86302001I0J249999D01*
G01*
G37*
G04 #@! TD.AperFunction*
G04 #@! TO.P,R7,1*
G04 #@! TO.N,VCC*
G04 #@! TA.AperFunction,SMDPad,CuDef*
G36*
G01*
X112954000Y-86302001D02*
X112954000Y-85401999D01*
G75*
G02*
X113203999Y-85152000I249999J0D01*
G01*
X113854001Y-85152000D01*
G75*
G02*
X114104000Y-85401999I0J-249999D01*
G01*
X114104000Y-86302001D01*
G75*
G02*
X113854001Y-86552000I-249999J0D01*
G01*
X113203999Y-86552000D01*
G75*
G02*
X112954000Y-86302001I0J249999D01*
G01*
G37*
G04 #@! TD.AperFunction*
G04 #@! TD*
G04 #@! TO.P,R6,2*
G04 #@! TO.N,/MOSI*
G04 #@! TA.AperFunction,SMDPad,CuDef*
G36*
G01*
X115004000Y-88334001D02*
X115004000Y-87433999D01*
G75*
G02*
X115253999Y-87184000I249999J0D01*
G01*
X115904001Y-87184000D01*
G75*
G02*
X116154000Y-87433999I0J-249999D01*
G01*
X116154000Y-88334001D01*
G75*
G02*
X115904001Y-88584000I-249999J0D01*
G01*
X115253999Y-88584000D01*
G75*
G02*
X115004000Y-88334001I0J249999D01*
G01*
G37*
G04 #@! TD.AperFunction*
G04 #@! TO.P,R6,1*
G04 #@! TO.N,VCC*
G04 #@! TA.AperFunction,SMDPad,CuDef*
G36*
G01*
X112954000Y-88334001D02*
X112954000Y-87433999D01*
G75*
G02*
X113203999Y-87184000I249999J0D01*
G01*
X113854001Y-87184000D01*
G75*
G02*
X114104000Y-87433999I0J-249999D01*
G01*
X114104000Y-88334001D01*
G75*
G02*
X113854001Y-88584000I-249999J0D01*
G01*
X113203999Y-88584000D01*
G75*
G02*
X112954000Y-88334001I0J249999D01*
G01*
G37*
G04 #@! TD.AperFunction*
G04 #@! TD*
G04 #@! TO.P,R5,2*
G04 #@! TO.N,/SDI*
G04 #@! TA.AperFunction,SMDPad,CuDef*
G36*
G01*
X133927000Y-98875001D02*
X133927000Y-97974999D01*
G75*
G02*
X134176999Y-97725000I249999J0D01*
G01*
X134827001Y-97725000D01*
G75*
G02*
X135077000Y-97974999I0J-249999D01*
G01*
X135077000Y-98875001D01*
G75*
G02*
X134827001Y-99125000I-249999J0D01*
G01*
X134176999Y-99125000D01*
G75*
G02*
X133927000Y-98875001I0J249999D01*
G01*
G37*
G04 #@! TD.AperFunction*
G04 #@! TO.P,R5,1*
G04 #@! TO.N,/PA3*
G04 #@! TA.AperFunction,SMDPad,CuDef*
G36*
G01*
X131877000Y-98875001D02*
X131877000Y-97974999D01*
G75*
G02*
X132126999Y-97725000I249999J0D01*
G01*
X132777001Y-97725000D01*
G75*
G02*
X133027000Y-97974999I0J-249999D01*
G01*
X133027000Y-98875001D01*
G75*
G02*
X132777001Y-99125000I-249999J0D01*
G01*
X132126999Y-99125000D01*
G75*
G02*
X131877000Y-98875001I0J249999D01*
G01*
G37*
G04 #@! TD.AperFunction*
G04 #@! TD*
G04 #@! TO.P,R4,2*
G04 #@! TO.N,/SCI*
G04 #@! TA.AperFunction,SMDPad,CuDef*
G36*
G01*
X133927000Y-104971001D02*
X133927000Y-104070999D01*
G75*
G02*
X134176999Y-103821000I249999J0D01*
G01*
X134827001Y-103821000D01*
G75*
G02*
X135077000Y-104070999I0J-249999D01*
G01*
X135077000Y-104971001D01*
G75*
G02*
X134827001Y-105221000I-249999J0D01*
G01*
X134176999Y-105221000D01*
G75*
G02*
X133927000Y-104971001I0J249999D01*
G01*
G37*
G04 #@! TD.AperFunction*
G04 #@! TO.P,R4,1*
G04 #@! TO.N,/PA0*
G04 #@! TA.AperFunction,SMDPad,CuDef*
G36*
G01*
X131877000Y-104971001D02*
X131877000Y-104070999D01*
G75*
G02*
X132126999Y-103821000I249999J0D01*
G01*
X132777001Y-103821000D01*
G75*
G02*
X133027000Y-104070999I0J-249999D01*
G01*
X133027000Y-104971001D01*
G75*
G02*
X132777001Y-105221000I-249999J0D01*
G01*
X132126999Y-105221000D01*
G75*
G02*
X131877000Y-104971001I0J249999D01*
G01*
G37*
G04 #@! TD.AperFunction*
G04 #@! TD*
G04 #@! TO.P,R3,2*
G04 #@! TO.N,/SDO*
G04 #@! TA.AperFunction,SMDPad,CuDef*
G36*
G01*
X133927000Y-102939001D02*
X133927000Y-102038999D01*
G75*
G02*
X134176999Y-101789000I249999J0D01*
G01*
X134827001Y-101789000D01*
G75*
G02*
X135077000Y-102038999I0J-249999D01*
G01*
X135077000Y-102939001D01*
G75*
G02*
X134827001Y-103189000I-249999J0D01*
G01*
X134176999Y-103189000D01*
G75*
G02*
X133927000Y-102939001I0J249999D01*
G01*
G37*
G04 #@! TD.AperFunction*
G04 #@! TO.P,R3,1*
G04 #@! TO.N,/PA1*
G04 #@! TA.AperFunction,SMDPad,CuDef*
G36*
G01*
X131877000Y-102939001D02*
X131877000Y-102038999D01*
G75*
G02*
X132126999Y-101789000I249999J0D01*
G01*
X132777001Y-101789000D01*
G75*
G02*
X133027000Y-102038999I0J-249999D01*
G01*
X133027000Y-102939001D01*
G75*
G02*
X132777001Y-103189000I-249999J0D01*
G01*
X132126999Y-103189000D01*
G75*
G02*
X131877000Y-102939001I0J249999D01*
G01*
G37*
G04 #@! TD.AperFunction*
G04 #@! TD*
G04 #@! TO.P,R2,2*
G04 #@! TO.N,/RST*
G04 #@! TA.AperFunction,SMDPad,CuDef*
G36*
G01*
X133927000Y-96843001D02*
X133927000Y-95942999D01*
G75*
G02*
X134176999Y-95693000I249999J0D01*
G01*
X134827001Y-95693000D01*
G75*
G02*
X135077000Y-95942999I0J-249999D01*
G01*
X135077000Y-96843001D01*
G75*
G02*
X134827001Y-97093000I-249999J0D01*
G01*
X134176999Y-97093000D01*
G75*
G02*
X133927000Y-96843001I0J249999D01*
G01*
G37*
G04 #@! TD.AperFunction*
G04 #@! TO.P,R2,1*
G04 #@! TO.N,/PA5*
G04 #@! TA.AperFunction,SMDPad,CuDef*
G36*
G01*
X131877000Y-96843001D02*
X131877000Y-95942999D01*
G75*
G02*
X132126999Y-95693000I249999J0D01*
G01*
X132777001Y-95693000D01*
G75*
G02*
X133027000Y-95942999I0J-249999D01*
G01*
X133027000Y-96843001D01*
G75*
G02*
X132777001Y-97093000I-249999J0D01*
G01*
X132126999Y-97093000D01*
G75*
G02*
X131877000Y-96843001I0J249999D01*
G01*
G37*
G04 #@! TD.AperFunction*
G04 #@! TD*
G04 #@! TO.P,R1,2*
G04 #@! TO.N,/SII*
G04 #@! TA.AperFunction,SMDPad,CuDef*
G36*
G01*
X133927000Y-100907001D02*
X133927000Y-100006999D01*
G75*
G02*
X134176999Y-99757000I249999J0D01*
G01*
X134827001Y-99757000D01*
G75*
G02*
X135077000Y-100006999I0J-249999D01*
G01*
X135077000Y-100907001D01*
G75*
G02*
X134827001Y-101157000I-249999J0D01*
G01*
X134176999Y-101157000D01*
G75*
G02*
X133927000Y-100907001I0J249999D01*
G01*
G37*
G04 #@! TD.AperFunction*
G04 #@! TO.P,R1,1*
G04 #@! TO.N,/PA2*
G04 #@! TA.AperFunction,SMDPad,CuDef*
G36*
G01*
X131877000Y-100907001D02*
X131877000Y-100006999D01*
G75*
G02*
X132126999Y-99757000I249999J0D01*
G01*
X132777001Y-99757000D01*
G75*
G02*
X133027000Y-100006999I0J-249999D01*
G01*
X133027000Y-100907001D01*
G75*
G02*
X132777001Y-101157000I-249999J0D01*
G01*
X132126999Y-101157000D01*
G75*
G02*
X131877000Y-100907001I0J249999D01*
G01*
G37*
G04 #@! TD.AperFunction*
G04 #@! TD*
D13*
G04 #@! TO.P,J3,6*
G04 #@! TO.N,GND*
X157861000Y-82931000D03*
G04 #@! TO.P,J3,5*
G04 #@! TO.N,/RESET*
X155321000Y-82931000D03*
G04 #@! TO.P,J3,4*
G04 #@! TO.N,/MOSI*
X157861000Y-85471000D03*
G04 #@! TO.P,J3,3*
G04 #@! TO.N,/SCK*
X155321000Y-85471000D03*
G04 #@! TO.P,J3,2*
G04 #@! TO.N,VCC*
X157861000Y-88011000D03*
D14*
G04 #@! TO.P,J3,1*
G04 #@! TO.N,/PA5*
X155321000Y-88011000D03*
G04 #@! TD*
D20*
G04 #@! TO.P,J1,S1*
G04 #@! TO.N,GND*
X167936000Y-94935000D03*
X167936000Y-103585000D03*
D21*
X164556000Y-94935000D03*
X164556000Y-103585000D03*
D22*
G04 #@! TO.P,J1,B6*
G04 #@! TO.N,Net-(J1-PadB6)*
X164926000Y-98835000D03*
G04 #@! TO.P,J1,B1*
G04 #@! TO.N,GND*
X164926000Y-96285000D03*
G04 #@! TO.P,J1,B4*
G04 #@! TO.N,+5V*
X164926000Y-97135000D03*
G04 #@! TO.P,J1,B5*
G04 #@! TO.N,Net-(J1-PadB5)*
X164926000Y-97985000D03*
G04 #@! TO.P,J1,B12*
G04 #@! TO.N,GND*
X164926000Y-102235000D03*
G04 #@! TO.P,J1,B8*
G04 #@! TO.N,Net-(J1-PadB8)*
X164926000Y-100535000D03*
G04 #@! TO.P,J1,B7*
G04 #@! TO.N,Net-(J1-PadB7)*
X164926000Y-99685000D03*
G04 #@! TO.P,J1,B9*
G04 #@! TO.N,+5V*
X164926000Y-101385000D03*
G04 #@! TO.P,J1,A12*
G04 #@! TO.N,GND*
X163576000Y-96285000D03*
G04 #@! TO.P,J1,A9*
G04 #@! TO.N,+5V*
X163576000Y-97135000D03*
G04 #@! TO.P,J1,A8*
G04 #@! TO.N,Net-(J1-PadA8)*
X163576000Y-97985000D03*
G04 #@! TO.P,J1,A7*
G04 #@! TO.N,Net-(J1-PadA7)*
X163576000Y-98835000D03*
G04 #@! TO.P,J1,A6*
G04 #@! TO.N,Net-(J1-PadA6)*
X163576000Y-99685000D03*
G04 #@! TO.P,J1,A5*
G04 #@! TO.N,Net-(J1-PadA5)*
X163576000Y-100535000D03*
G04 #@! TO.P,J1,A4*
G04 #@! TO.N,+5V*
X163576000Y-101385000D03*
G04 #@! TO.P,J1,A1*
G04 #@! TO.N,GND*
X163576000Y-102235000D03*
G04 #@! TD*
G04 #@! TO.P,C10,2*
G04 #@! TO.N,VCC*
G04 #@! TA.AperFunction,SMDPad,CuDef*
G36*
G01*
X123375000Y-107880999D02*
X123375000Y-108781001D01*
G75*
G02*
X123125001Y-109031000I-249999J0D01*
G01*
X122474999Y-109031000D01*
G75*
G02*
X122225000Y-108781001I0J249999D01*
G01*
X122225000Y-107880999D01*
G75*
G02*
X122474999Y-107631000I249999J0D01*
G01*
X123125001Y-107631000D01*
G75*
G02*
X123375000Y-107880999I0J-249999D01*
G01*
G37*
G04 #@! TD.AperFunction*
G04 #@! TO.P,C10,1*
G04 #@! TO.N,GND*
G04 #@! TA.AperFunction,SMDPad,CuDef*
G36*
G01*
X125425000Y-107880999D02*
X125425000Y-108781001D01*
G75*
G02*
X125175001Y-109031000I-249999J0D01*
G01*
X124524999Y-109031000D01*
G75*
G02*
X124275000Y-108781001I0J249999D01*
G01*
X124275000Y-107880999D01*
G75*
G02*
X124524999Y-107631000I249999J0D01*
G01*
X125175001Y-107631000D01*
G75*
G02*
X125425000Y-107880999I0J-249999D01*
G01*
G37*
G04 #@! TD.AperFunction*
G04 #@! TD*
G04 #@! TO.P,C9,2*
G04 #@! TO.N,VCC*
G04 #@! TA.AperFunction,SMDPad,CuDef*
G36*
G01*
X123375000Y-105848999D02*
X123375000Y-106749001D01*
G75*
G02*
X123125001Y-106999000I-249999J0D01*
G01*
X122474999Y-106999000D01*
G75*
G02*
X122225000Y-106749001I0J249999D01*
G01*
X122225000Y-105848999D01*
G75*
G02*
X122474999Y-105599000I249999J0D01*
G01*
X123125001Y-105599000D01*
G75*
G02*
X123375000Y-105848999I0J-249999D01*
G01*
G37*
G04 #@! TD.AperFunction*
G04 #@! TO.P,C9,1*
G04 #@! TO.N,GND*
G04 #@! TA.AperFunction,SMDPad,CuDef*
G36*
G01*
X125425000Y-105848999D02*
X125425000Y-106749001D01*
G75*
G02*
X125175001Y-106999000I-249999J0D01*
G01*
X124524999Y-106999000D01*
G75*
G02*
X124275000Y-106749001I0J249999D01*
G01*
X124275000Y-105848999D01*
G75*
G02*
X124524999Y-105599000I249999J0D01*
G01*
X125175001Y-105599000D01*
G75*
G02*
X125425000Y-105848999I0J-249999D01*
G01*
G37*
G04 #@! TD.AperFunction*
G04 #@! TD*
G04 #@! TO.P,C8,2*
G04 #@! TO.N,/XTAL2*
G04 #@! TA.AperFunction,SMDPad,CuDef*
G36*
G01*
X117406000Y-106102999D02*
X117406000Y-107003001D01*
G75*
G02*
X117156001Y-107253000I-249999J0D01*
G01*
X116505999Y-107253000D01*
G75*
G02*
X116256000Y-107003001I0J249999D01*
G01*
X116256000Y-106102999D01*
G75*
G02*
X116505999Y-105853000I249999J0D01*
G01*
X117156001Y-105853000D01*
G75*
G02*
X117406000Y-106102999I0J-249999D01*
G01*
G37*
G04 #@! TD.AperFunction*
G04 #@! TO.P,C8,1*
G04 #@! TO.N,GND*
G04 #@! TA.AperFunction,SMDPad,CuDef*
G36*
G01*
X119456000Y-106102999D02*
X119456000Y-107003001D01*
G75*
G02*
X119206001Y-107253000I-249999J0D01*
G01*
X118555999Y-107253000D01*
G75*
G02*
X118306000Y-107003001I0J249999D01*
G01*
X118306000Y-106102999D01*
G75*
G02*
X118555999Y-105853000I249999J0D01*
G01*
X119206001Y-105853000D01*
G75*
G02*
X119456000Y-106102999I0J-249999D01*
G01*
G37*
G04 #@! TD.AperFunction*
G04 #@! TD*
G04 #@! TO.P,C7,2*
G04 #@! TO.N,/XTAL1*
G04 #@! TA.AperFunction,SMDPad,CuDef*
G36*
G01*
X118306000Y-99129001D02*
X118306000Y-98228999D01*
G75*
G02*
X118555999Y-97979000I249999J0D01*
G01*
X119206001Y-97979000D01*
G75*
G02*
X119456000Y-98228999I0J-249999D01*
G01*
X119456000Y-99129001D01*
G75*
G02*
X119206001Y-99379000I-249999J0D01*
G01*
X118555999Y-99379000D01*
G75*
G02*
X118306000Y-99129001I0J249999D01*
G01*
G37*
G04 #@! TD.AperFunction*
G04 #@! TO.P,C7,1*
G04 #@! TO.N,GND*
G04 #@! TA.AperFunction,SMDPad,CuDef*
G36*
G01*
X116256000Y-99129001D02*
X116256000Y-98228999D01*
G75*
G02*
X116505999Y-97979000I249999J0D01*
G01*
X117156001Y-97979000D01*
G75*
G02*
X117406000Y-98228999I0J-249999D01*
G01*
X117406000Y-99129001D01*
G75*
G02*
X117156001Y-99379000I-249999J0D01*
G01*
X116505999Y-99379000D01*
G75*
G02*
X116256000Y-99129001I0J249999D01*
G01*
G37*
G04 #@! TD.AperFunction*
G04 #@! TD*
G04 #@! TO.P,C6,2*
G04 #@! TO.N,Net-(C6-Pad2)*
G04 #@! TA.AperFunction,SMDPad,CuDef*
G36*
G01*
X119438000Y-87560999D02*
X119438000Y-88461001D01*
G75*
G02*
X119188001Y-88711000I-249999J0D01*
G01*
X118537999Y-88711000D01*
G75*
G02*
X118288000Y-88461001I0J249999D01*
G01*
X118288000Y-87560999D01*
G75*
G02*
X118537999Y-87311000I249999J0D01*
G01*
X119188001Y-87311000D01*
G75*
G02*
X119438000Y-87560999I0J-249999D01*
G01*
G37*
G04 #@! TD.AperFunction*
G04 #@! TO.P,C6,1*
G04 #@! TO.N,Net-(C6-Pad1)*
G04 #@! TA.AperFunction,SMDPad,CuDef*
G36*
G01*
X121488000Y-87560999D02*
X121488000Y-88461001D01*
G75*
G02*
X121238001Y-88711000I-249999J0D01*
G01*
X120587999Y-88711000D01*
G75*
G02*
X120338000Y-88461001I0J249999D01*
G01*
X120338000Y-87560999D01*
G75*
G02*
X120587999Y-87311000I249999J0D01*
G01*
X121238001Y-87311000D01*
G75*
G02*
X121488000Y-87560999I0J-249999D01*
G01*
G37*
G04 #@! TD.AperFunction*
G04 #@! TD*
G04 #@! TO.P,C5,2*
G04 #@! TO.N,+12V*
G04 #@! TA.AperFunction,SMDPad,CuDef*
G36*
G01*
X131006001Y-89085000D02*
X130105999Y-89085000D01*
G75*
G02*
X129856000Y-88835001I0J249999D01*
G01*
X129856000Y-88184999D01*
G75*
G02*
X130105999Y-87935000I249999J0D01*
G01*
X131006001Y-87935000D01*
G75*
G02*
X131256000Y-88184999I0J-249999D01*
G01*
X131256000Y-88835001D01*
G75*
G02*
X131006001Y-89085000I-249999J0D01*
G01*
G37*
G04 #@! TD.AperFunction*
G04 #@! TO.P,C5,1*
G04 #@! TO.N,GND*
G04 #@! TA.AperFunction,SMDPad,CuDef*
G36*
G01*
X131006001Y-91135000D02*
X130105999Y-91135000D01*
G75*
G02*
X129856000Y-90885001I0J249999D01*
G01*
X129856000Y-90234999D01*
G75*
G02*
X130105999Y-89985000I249999J0D01*
G01*
X131006001Y-89985000D01*
G75*
G02*
X131256000Y-90234999I0J-249999D01*
G01*
X131256000Y-90885001D01*
G75*
G02*
X131006001Y-91135000I-249999J0D01*
G01*
G37*
G04 #@! TD.AperFunction*
G04 #@! TD*
G04 #@! TO.P,C4,2*
G04 #@! TO.N,GND*
G04 #@! TA.AperFunction,SMDPad,CuDef*
G36*
G01*
X131006001Y-84640000D02*
X130105999Y-84640000D01*
G75*
G02*
X129856000Y-84390001I0J249999D01*
G01*
X129856000Y-83739999D01*
G75*
G02*
X130105999Y-83490000I249999J0D01*
G01*
X131006001Y-83490000D01*
G75*
G02*
X131256000Y-83739999I0J-249999D01*
G01*
X131256000Y-84390001D01*
G75*
G02*
X131006001Y-84640000I-249999J0D01*
G01*
G37*
G04 #@! TD.AperFunction*
G04 #@! TO.P,C4,1*
G04 #@! TO.N,+5V*
G04 #@! TA.AperFunction,SMDPad,CuDef*
G36*
G01*
X131006001Y-86690000D02*
X130105999Y-86690000D01*
G75*
G02*
X129856000Y-86440001I0J249999D01*
G01*
X129856000Y-85789999D01*
G75*
G02*
X130105999Y-85540000I249999J0D01*
G01*
X131006001Y-85540000D01*
G75*
G02*
X131256000Y-85789999I0J-249999D01*
G01*
X131256000Y-86440001D01*
G75*
G02*
X131006001Y-86690000I-249999J0D01*
G01*
G37*
G04 #@! TD.AperFunction*
G04 #@! TD*
G04 #@! TO.P,C2,2*
G04 #@! TO.N,Net-(C2-Pad2)*
G04 #@! TA.AperFunction,SMDPad,CuDef*
G36*
G01*
X119438000Y-89719999D02*
X119438000Y-90620001D01*
G75*
G02*
X119188001Y-90870000I-249999J0D01*
G01*
X118537999Y-90870000D01*
G75*
G02*
X118288000Y-90620001I0J249999D01*
G01*
X118288000Y-89719999D01*
G75*
G02*
X118537999Y-89470000I249999J0D01*
G01*
X119188001Y-89470000D01*
G75*
G02*
X119438000Y-89719999I0J-249999D01*
G01*
G37*
G04 #@! TD.AperFunction*
G04 #@! TO.P,C2,1*
G04 #@! TO.N,Net-(C2-Pad1)*
G04 #@! TA.AperFunction,SMDPad,CuDef*
G36*
G01*
X121488000Y-89719999D02*
X121488000Y-90620001D01*
G75*
G02*
X121238001Y-90870000I-249999J0D01*
G01*
X120587999Y-90870000D01*
G75*
G02*
X120338000Y-90620001I0J249999D01*
G01*
X120338000Y-89719999D01*
G75*
G02*
X120587999Y-89470000I249999J0D01*
G01*
X121238001Y-89470000D01*
G75*
G02*
X121488000Y-89719999I0J-249999D01*
G01*
G37*
G04 #@! TD.AperFunction*
G04 #@! TD*
D23*
G04 #@! TO.N,+5V*
X160655000Y-95504000D03*
X139679419Y-92125880D03*
G04 #@! TO.N,GND*
X126365000Y-99568000D03*
X121729500Y-98996500D03*
X130302000Y-104521000D03*
X123888500Y-96456500D03*
X130683000Y-108077000D03*
X141160500Y-83566000D03*
X130048000Y-95504000D03*
X128397000Y-84455000D03*
X133921500Y-89598500D03*
X141795500Y-80391000D03*
X139890500Y-80518000D03*
X138747500Y-80518000D03*
X137160000Y-80327500D03*
X141922500Y-84074000D03*
X138557000Y-83756500D03*
X140271500Y-84074000D03*
X137604500Y-82296000D03*
X151701500Y-81089500D03*
X103695500Y-81343500D03*
X112141000Y-90678000D03*
X110871000Y-102044500D03*
X106426000Y-106235500D03*
X102933500Y-106362500D03*
X99060000Y-99250500D03*
X110553500Y-98488500D03*
X112458500Y-94297500D03*
X107442000Y-92710000D03*
X113792000Y-100457000D03*
X115506500Y-106870500D03*
X121983500Y-109347000D03*
X119507000Y-96329500D03*
X113982500Y-81724500D03*
X140716000Y-80010000D03*
X146113500Y-84328000D03*
X136969500Y-83629500D03*
X168148000Y-85852000D03*
X168338500Y-92202000D03*
X168465500Y-88709500D03*
X168211500Y-87249000D03*
X163195000Y-82486500D03*
X161290000Y-85026500D03*
X162115500Y-87249000D03*
X162179000Y-95059500D03*
X164719000Y-82867500D03*
X168275000Y-84074000D03*
X168529000Y-90360500D03*
X161607500Y-93281500D03*
X159702500Y-96266000D03*
X155702000Y-93789500D03*
X161988500Y-108521500D03*
X162941000Y-106934000D03*
X166497000Y-98933000D03*
X168211500Y-97472500D03*
X168402000Y-101409500D03*
X136842500Y-109220000D03*
X113792000Y-104203500D03*
X112839500Y-108966000D03*
X105346500Y-109093000D03*
X99250500Y-92202000D03*
X100520500Y-105473500D03*
X107759500Y-103632000D03*
X107950000Y-99631500D03*
X100076000Y-85471000D03*
X103187500Y-83883500D03*
X137477500Y-81407000D03*
X136525000Y-82232500D03*
X135763000Y-80391000D03*
X138303000Y-79756000D03*
X136398000Y-84899500D03*
X134366000Y-80200500D03*
X136271000Y-81280000D03*
X135064500Y-81534000D03*
X135636000Y-82867500D03*
X135826500Y-83820000D03*
X137795000Y-83185000D03*
X144970500Y-84582000D03*
X143700500Y-84645500D03*
X140970000Y-85090000D03*
X139319000Y-79819500D03*
X136398000Y-79756000D03*
X135128000Y-79756000D03*
X134175500Y-81153000D03*
X135318500Y-84772500D03*
G04 #@! TO.N,+12V*
X146494500Y-95631000D03*
X125984000Y-90360500D03*
X138492686Y-93572490D03*
G04 #@! TO.N,VCC*
X140970000Y-86995000D03*
X135509000Y-107188000D03*
X135291990Y-94719570D03*
G04 #@! TO.N,/PA5*
X131064000Y-94678500D03*
X135826500Y-90741496D03*
G04 #@! TO.N,/MOSI*
X136525000Y-86233000D03*
X137160000Y-90772979D03*
G04 #@! TO.N,/SCK*
X137668000Y-84264500D03*
X137668000Y-86487000D03*
X126630053Y-97409000D03*
X138323620Y-90641010D03*
G04 #@! TO.N,/RST*
X148447000Y-94678500D03*
G04 #@! TO.N,Net-(Q1-Pad1)*
X146494500Y-93662500D03*
G04 #@! TO.N,Net-(Q2-Pad1)*
X142430500Y-93662500D03*
G04 #@! TO.N,/PA0*
X106362504Y-86741000D03*
X125349000Y-99314000D03*
G04 #@! TO.N,Net-(R10-Pad1)*
X98806000Y-88773000D03*
G04 #@! TO.N,Net-(R11-Pad1)*
X98806000Y-95377000D03*
G04 #@! TO.N,Net-(R13-Pad1)*
X98933000Y-102743000D03*
G04 #@! TO.N,/TGTVCC*
X136615591Y-93762411D03*
G04 #@! TD*
D24*
G04 #@! TO.N,+5V*
X129422000Y-87249000D02*
X130556000Y-86115000D01*
X128178000Y-87249000D02*
X129422000Y-87249000D01*
X135831587Y-87249000D02*
X136974587Y-88392000D01*
X136974587Y-88392000D02*
X139700000Y-88392000D01*
X128178000Y-87249000D02*
X135831587Y-87249000D01*
X155460620Y-92125880D02*
X139679419Y-92125880D01*
X157353000Y-90233500D02*
X155460620Y-92125880D01*
X159067500Y-90233500D02*
X157353000Y-90233500D01*
X159702500Y-90868500D02*
X159067500Y-90233500D01*
X159702500Y-92011500D02*
X159702500Y-90868500D01*
X160655000Y-96710500D02*
X160655000Y-92964000D01*
X163576000Y-97135000D02*
X161079500Y-97135000D01*
X160655000Y-92964000D02*
X159702500Y-92011500D01*
X161079500Y-97135000D02*
X160655000Y-96710500D01*
G04 #@! TO.N,GND*
X129785000Y-89789000D02*
X130556000Y-90560000D01*
X128178000Y-89789000D02*
X129785000Y-89789000D01*
G04 #@! TO.N,Net-(C2-Pad2)*
X122891990Y-91195010D02*
X123028000Y-91059000D01*
X119888010Y-91195010D02*
X122891990Y-91195010D01*
X118863000Y-90170000D02*
X119888010Y-91195010D01*
G04 #@! TO.N,Net-(C2-Pad1)*
X122647000Y-90170000D02*
X123028000Y-89789000D01*
X120913000Y-90170000D02*
X122647000Y-90170000D01*
G04 #@! TO.N,+12V*
X130547000Y-88519000D02*
X130556000Y-88510000D01*
X128178000Y-88519000D02*
X130547000Y-88519000D01*
X125984000Y-89838000D02*
X125984000Y-90360500D01*
X127303000Y-88519000D02*
X125984000Y-89838000D01*
X128178000Y-88519000D02*
X127303000Y-88519000D01*
X140551196Y-95631000D02*
X138492686Y-93572490D01*
X146494500Y-95631000D02*
X140551196Y-95631000D01*
G04 #@! TO.N,Net-(C6-Pad2)*
X119925000Y-86949000D02*
X118863000Y-88011000D01*
X122728000Y-86949000D02*
X119925000Y-86949000D01*
X123028000Y-87249000D02*
X122728000Y-86949000D01*
G04 #@! TO.N,Net-(C6-Pad1)*
X122520000Y-88011000D02*
X123028000Y-88519000D01*
X120913000Y-88011000D02*
X122520000Y-88011000D01*
G04 #@! TO.N,/XTAL1*
X118881000Y-100942000D02*
X118856000Y-100967000D01*
X118881000Y-98679000D02*
X118881000Y-100942000D01*
X118856000Y-100967000D02*
X121013000Y-103124000D01*
X121013000Y-103124000D02*
X123255000Y-103124000D01*
G04 #@! TO.N,/XTAL2*
X116856000Y-106528000D02*
X116831000Y-106553000D01*
X116856000Y-104267000D02*
X116856000Y-106528000D01*
X116856000Y-104267000D02*
X118056991Y-103066009D01*
X124555010Y-103470758D02*
X124555010Y-102179010D01*
X118056991Y-103066009D02*
X119955599Y-103066009D01*
X119955599Y-103066009D02*
X120638600Y-103749010D01*
X120638600Y-103749010D02*
X124276758Y-103749010D01*
X124276758Y-103749010D02*
X124555010Y-103470758D01*
X124555010Y-102179010D02*
X124230000Y-101854000D01*
X124230000Y-101854000D02*
X123255000Y-101854000D01*
G04 #@! TO.N,VCC*
X122800000Y-104849000D02*
X123255000Y-104394000D01*
X122800000Y-106299000D02*
X122800000Y-104849000D01*
X124832000Y-104394000D02*
X126737000Y-106299000D01*
X123255000Y-104394000D02*
X124832000Y-104394000D01*
X122800000Y-106299000D02*
X122800000Y-108331000D01*
X113529000Y-85090000D02*
X113529000Y-87122000D01*
X119888000Y-84709000D02*
X113910000Y-84709000D01*
X113910000Y-84709000D02*
X113529000Y-85090000D01*
X120459400Y-84137600D02*
X119888000Y-84709000D01*
X120459400Y-83229300D02*
X120459400Y-84137600D01*
X123943000Y-109474000D02*
X133223000Y-109474000D01*
X122800000Y-108331000D02*
X123943000Y-109474000D01*
X133223000Y-109474000D02*
X135509000Y-107188000D01*
X134620000Y-80899000D02*
X140716000Y-86995000D01*
X121646700Y-82042000D02*
X123571000Y-82042000D01*
X140716000Y-86995000D02*
X140970000Y-86995000D01*
X124079000Y-81534000D02*
X125730000Y-81534000D01*
X123571000Y-82042000D02*
X124079000Y-81534000D01*
X120459400Y-83229300D02*
X121646700Y-82042000D01*
X125730000Y-81534000D02*
X126365000Y-80899000D01*
X126365000Y-80899000D02*
X134620000Y-80899000D01*
X113529000Y-87884000D02*
X113529000Y-85852000D01*
X134933420Y-94361000D02*
X135291990Y-94719570D01*
X134502000Y-94361000D02*
X134933420Y-94361000D01*
G04 #@! TO.N,/PA5*
X130420000Y-96393000D02*
X132461000Y-96393000D01*
X130039000Y-96774000D02*
X130420000Y-96393000D01*
X128205000Y-96774000D02*
X130039000Y-96774000D01*
X132452000Y-96066500D02*
X131064000Y-94678500D01*
X132452000Y-96393000D02*
X132452000Y-96066500D01*
X155321000Y-88011000D02*
X153434999Y-89897001D01*
X153434999Y-89897001D02*
X136670995Y-89897001D01*
X136670995Y-89897001D02*
X135826500Y-90741496D01*
G04 #@! TO.N,/RESET*
X124256778Y-97418990D02*
X124555010Y-97120758D01*
X138281543Y-92392500D02*
X139361043Y-91313000D01*
X156685999Y-84295999D02*
X156170999Y-83780999D01*
X122233242Y-97418990D02*
X124256778Y-97418990D01*
X121539000Y-98113232D02*
X122233242Y-97418990D01*
X122280000Y-100584000D02*
X121539000Y-99843000D01*
X159512000Y-85382998D02*
X158425001Y-84295999D01*
X121539000Y-99843000D02*
X121539000Y-98113232D01*
X157099000Y-89725500D02*
X158814911Y-89725500D01*
X124555010Y-97120758D02*
X124555010Y-94900990D01*
X158814911Y-89725500D02*
X159512000Y-89028411D01*
X158425001Y-84295999D02*
X156685999Y-84295999D01*
X127063500Y-92392500D02*
X138281543Y-92392500D01*
X123255000Y-100584000D02*
X122280000Y-100584000D01*
X124555010Y-94900990D02*
X127063500Y-92392500D01*
X139361043Y-91313000D02*
X155511500Y-91313000D01*
X155511500Y-91313000D02*
X157099000Y-89725500D01*
X159512000Y-89028411D02*
X159512000Y-85382998D01*
X156170999Y-83780999D02*
X155321000Y-82931000D01*
X124555010Y-100258990D02*
X124230000Y-100584000D01*
X125905043Y-95582957D02*
X125905043Y-97679958D01*
X132461000Y-94361000D02*
X131842533Y-93742533D01*
X124555010Y-99029991D02*
X124555010Y-100258990D01*
X125905043Y-97679958D02*
X124555010Y-99029991D01*
X131842533Y-93742533D02*
X127745467Y-93742533D01*
X127745467Y-93742533D02*
X125905043Y-95582957D01*
X124230000Y-100584000D02*
X123255000Y-100584000D01*
G04 #@! TO.N,/MOSI*
X125539400Y-83229300D02*
X123678700Y-85090000D01*
X123678700Y-85090000D02*
X121031000Y-85090000D01*
X121031000Y-85090000D02*
X120396000Y-85725000D01*
X120396000Y-85725000D02*
X117094000Y-85725000D01*
X117094000Y-85725000D02*
X116586000Y-86233000D01*
X115921642Y-87884000D02*
X115579000Y-87884000D01*
X116586000Y-86233000D02*
X116586000Y-87219642D01*
X116586000Y-87219642D02*
X115921642Y-87884000D01*
X134333179Y-81884999D02*
X126883701Y-81884999D01*
X136525000Y-86233000D02*
X136525000Y-84076820D01*
X136525000Y-84076820D02*
X134333179Y-81884999D01*
X126883701Y-81884999D02*
X125539400Y-83229300D01*
X124523500Y-84245200D02*
X125539400Y-83229300D01*
X124523500Y-94043500D02*
X124523500Y-84245200D01*
X123255000Y-95312000D02*
X124523500Y-94043500D01*
X123255000Y-96774000D02*
X123255000Y-95312000D01*
X139174643Y-90862989D02*
X138671621Y-91366011D01*
X156912600Y-89275489D02*
X155325100Y-90862989D01*
X159061989Y-88778511D02*
X158565011Y-89275489D01*
X159061989Y-86671989D02*
X159061989Y-88778511D01*
X137753032Y-91366011D02*
X137160000Y-90772979D01*
X155325100Y-90862989D02*
X139174643Y-90862989D01*
X157861000Y-85471000D02*
X159061989Y-86671989D01*
X158565011Y-89275489D02*
X156912600Y-89275489D01*
X138671621Y-91366011D02*
X137753032Y-91366011D01*
G04 #@! TO.N,/SCK*
X116205000Y-85852000D02*
X115579000Y-85852000D01*
X116840000Y-85217000D02*
X116205000Y-85852000D01*
X120142000Y-85217000D02*
X116840000Y-85217000D01*
X120777000Y-84582000D02*
X120142000Y-85217000D01*
X121646700Y-84582000D02*
X120777000Y-84582000D01*
X122999400Y-83229300D02*
X121646700Y-84582000D01*
X127570000Y-97409000D02*
X126630053Y-97409000D01*
X125916400Y-81984011D02*
X126493410Y-81407000D01*
X122999400Y-83229300D02*
X123020110Y-83229300D01*
X124265399Y-81984011D02*
X125916400Y-81984011D01*
X126493410Y-81407000D02*
X134491590Y-81407000D01*
X134491590Y-81407000D02*
X137668000Y-84583410D01*
X137668000Y-84583410D02*
X137668000Y-86487000D01*
X128205000Y-98044000D02*
X127570000Y-97409000D01*
X123020110Y-83229300D02*
X124265399Y-81984011D01*
X155164668Y-90387010D02*
X138577620Y-90387010D01*
X138577620Y-90387010D02*
X138323620Y-90641010D01*
X156591000Y-88960678D02*
X155164668Y-90387010D01*
X156591000Y-86741000D02*
X156591000Y-88960678D01*
X155321000Y-85471000D02*
X156591000Y-86741000D01*
G04 #@! TO.N,/RST*
X148447000Y-95339190D02*
X148447000Y-94678500D01*
X147139190Y-96647000D02*
X148447000Y-95339190D01*
X141605000Y-96393000D02*
X141859000Y-96647000D01*
X134502000Y-96393000D02*
X141605000Y-96393000D01*
X141859000Y-96647000D02*
X147139190Y-96647000D01*
X148889501Y-105364499D02*
X147764500Y-106489500D01*
X148889501Y-95121001D02*
X148889501Y-105364499D01*
X148447000Y-94678500D02*
X148889501Y-95121001D01*
G04 #@! TO.N,/SII*
X134502000Y-100457000D02*
X139192000Y-100457000D01*
X139192000Y-100457000D02*
X140144500Y-101409500D01*
G04 #@! TO.N,/PA2*
X132325000Y-100584000D02*
X132452000Y-100457000D01*
X128205000Y-100584000D02*
X132325000Y-100584000D01*
G04 #@! TO.N,/SDO*
X134502000Y-102489000D02*
X138684000Y-102489000D01*
X138684000Y-102489000D02*
X140144500Y-103949500D01*
G04 #@! TO.N,/PA1*
X131817000Y-101854000D02*
X132452000Y-102489000D01*
X128205000Y-101854000D02*
X131817000Y-101854000D01*
G04 #@! TO.N,/SCI*
X134502000Y-105221000D02*
X134502000Y-104521000D01*
X146431000Y-105283000D02*
X147764500Y-103949500D01*
X135264000Y-105283000D02*
X146431000Y-105283000D01*
X134502000Y-104521000D02*
X135264000Y-105283000D01*
G04 #@! TO.N,/PA0*
X131055000Y-103124000D02*
X132452000Y-104521000D01*
X128205000Y-103124000D02*
X131055000Y-103124000D01*
X130674000Y-106299000D02*
X132452000Y-104521000D01*
X128787000Y-106299000D02*
X130674000Y-106299000D01*
X98806000Y-86732000D02*
X106353504Y-86732000D01*
X106353504Y-86732000D02*
X106362504Y-86741000D01*
X125349000Y-101243000D02*
X125349000Y-99314000D01*
X128205000Y-103124000D02*
X127230000Y-103124000D01*
X127230000Y-103124000D02*
X125349000Y-101243000D01*
G04 #@! TO.N,/SDI*
X134502000Y-98425000D02*
X134719001Y-98642001D01*
X137984090Y-98869500D02*
X140144500Y-98869500D01*
X134946500Y-98869500D02*
X137984090Y-98869500D01*
X134502000Y-98425000D02*
X134946500Y-98869500D01*
G04 #@! TO.N,/PA3*
X131563000Y-99314000D02*
X128205000Y-99314000D01*
X132452000Y-98425000D02*
X131563000Y-99314000D01*
G04 #@! TO.N,Net-(R10-Pad1)*
X98806000Y-88782000D02*
X98806000Y-93472000D01*
G04 #@! TO.N,Net-(R11-Pad1)*
X98806000Y-95377000D02*
X98806000Y-100702000D01*
G04 #@! TO.N,/PA7*
X127249899Y-92842511D02*
X139569511Y-92842511D01*
X125005021Y-95087389D02*
X127249899Y-92842511D01*
X125005021Y-97307158D02*
X125005021Y-95087389D01*
X124268179Y-98044000D02*
X125005021Y-97307158D01*
X139569511Y-92842511D02*
X140326000Y-93599000D01*
X123255000Y-98044000D02*
X124268179Y-98044000D01*
G04 #@! TO.N,/TGTVCC*
X136145702Y-93292522D02*
X136615591Y-93762411D01*
X127436298Y-93292522D02*
X136145702Y-93292522D01*
X125455032Y-95273788D02*
X127436298Y-93292522D01*
X125455032Y-97493558D02*
X125455032Y-95273788D01*
X123634590Y-99314000D02*
X125455032Y-97493558D01*
X123255000Y-99314000D02*
X123634590Y-99314000D01*
G04 #@! TD*
D25*
G04 #@! TO.N,GND*
X159738815Y-79728815D02*
X159659463Y-79825506D01*
X159600498Y-79935820D01*
X159564188Y-80055518D01*
X159551928Y-80180000D01*
X159551928Y-82380000D01*
X159564188Y-82504482D01*
X159600498Y-82624180D01*
X159659463Y-82734494D01*
X159738815Y-82831185D01*
X159835506Y-82910537D01*
X159945820Y-82969502D01*
X160065518Y-83005812D01*
X160190000Y-83018072D01*
X162390000Y-83018072D01*
X162514482Y-83005812D01*
X162634180Y-82969502D01*
X162744494Y-82910537D01*
X162841185Y-82831185D01*
X162920537Y-82734494D01*
X162979502Y-82624180D01*
X163015812Y-82504482D01*
X163028072Y-82380000D01*
X163028072Y-81773872D01*
X164729500Y-81773872D01*
X164729500Y-82214128D01*
X164815390Y-82645925D01*
X164983869Y-83052669D01*
X165228462Y-83418729D01*
X165539771Y-83730038D01*
X165905831Y-83974631D01*
X166312575Y-84143110D01*
X166744372Y-84229000D01*
X167184628Y-84229000D01*
X167616425Y-84143110D01*
X168023169Y-83974631D01*
X168389229Y-83730038D01*
X168700538Y-83418729D01*
X168945131Y-83052669D01*
X169113610Y-82645925D01*
X169199500Y-82214128D01*
X169199500Y-81773872D01*
X169113610Y-81342075D01*
X168945131Y-80935331D01*
X168700538Y-80569271D01*
X168389229Y-80257962D01*
X168023169Y-80013369D01*
X167616425Y-79844890D01*
X167184628Y-79759000D01*
X166744372Y-79759000D01*
X166312575Y-79844890D01*
X165905831Y-80013369D01*
X165539771Y-80257962D01*
X165228462Y-80569271D01*
X164983869Y-80935331D01*
X164815390Y-81342075D01*
X164729500Y-81773872D01*
X163028072Y-81773872D01*
X163028072Y-80180000D01*
X163015812Y-80055518D01*
X162979502Y-79935820D01*
X162920537Y-79825506D01*
X162841185Y-79728815D01*
X162757333Y-79660000D01*
X169340001Y-79660000D01*
X169340001Y-94526495D01*
X169308702Y-94437803D01*
X169193014Y-94257592D01*
X169044391Y-94103413D01*
X168868545Y-93981191D01*
X168672233Y-93895624D01*
X168463000Y-93850000D01*
X168063000Y-93850000D01*
X168063000Y-94808000D01*
X168083000Y-94808000D01*
X168083000Y-95062000D01*
X168063000Y-95062000D01*
X168063000Y-96020000D01*
X168463000Y-96020000D01*
X168672233Y-95974376D01*
X168868545Y-95888809D01*
X169044391Y-95766587D01*
X169193014Y-95612408D01*
X169308702Y-95432197D01*
X169340000Y-95343505D01*
X169340000Y-103176494D01*
X169308702Y-103087803D01*
X169193014Y-102907592D01*
X169044391Y-102753413D01*
X168868545Y-102631191D01*
X168672233Y-102545624D01*
X168463000Y-102500000D01*
X168063000Y-102500000D01*
X168063000Y-103458000D01*
X168083000Y-103458000D01*
X168083000Y-103712000D01*
X168063000Y-103712000D01*
X168063000Y-104670000D01*
X168463000Y-104670000D01*
X168672233Y-104624376D01*
X168868545Y-104538809D01*
X169044391Y-104416587D01*
X169193014Y-104262408D01*
X169308702Y-104082197D01*
X169340000Y-103993506D01*
X169340000Y-110340000D01*
X97660000Y-110340000D01*
X97660000Y-107773872D01*
X97729500Y-107773872D01*
X97729500Y-108214128D01*
X97815390Y-108645925D01*
X97983869Y-109052669D01*
X98228462Y-109418729D01*
X98539771Y-109730038D01*
X98905831Y-109974631D01*
X99312575Y-110143110D01*
X99744372Y-110229000D01*
X100184628Y-110229000D01*
X100616425Y-110143110D01*
X101023169Y-109974631D01*
X101389229Y-109730038D01*
X101700538Y-109418729D01*
X101945131Y-109052669D01*
X102113610Y-108645925D01*
X102199500Y-108214128D01*
X102199500Y-107773872D01*
X102113610Y-107342075D01*
X102031759Y-107144467D01*
X108319000Y-107144467D01*
X108319000Y-107466533D01*
X108381832Y-107782412D01*
X108505082Y-108079963D01*
X108684013Y-108347752D01*
X108911748Y-108575487D01*
X109179537Y-108754418D01*
X109477088Y-108877668D01*
X109792967Y-108940500D01*
X110115033Y-108940500D01*
X110430912Y-108877668D01*
X110728463Y-108754418D01*
X110996252Y-108575487D01*
X111223987Y-108347752D01*
X111402918Y-108079963D01*
X111526168Y-107782412D01*
X111589000Y-107466533D01*
X111589000Y-107144467D01*
X111526168Y-106828588D01*
X111402918Y-106531037D01*
X111223987Y-106263248D01*
X110996252Y-106035513D01*
X110728463Y-105856582D01*
X110430912Y-105733332D01*
X110115033Y-105670500D01*
X109792967Y-105670500D01*
X109477088Y-105733332D01*
X109179537Y-105856582D01*
X108911748Y-106035513D01*
X108684013Y-106263248D01*
X108505082Y-106531037D01*
X108381832Y-106828588D01*
X108319000Y-107144467D01*
X102031759Y-107144467D01*
X101945131Y-106935331D01*
X101700538Y-106569271D01*
X101389229Y-106257962D01*
X101023169Y-106013369D01*
X100616425Y-105844890D01*
X100184628Y-105759000D01*
X99744372Y-105759000D01*
X99312575Y-105844890D01*
X98905831Y-106013369D01*
X98539771Y-106257962D01*
X98228462Y-106569271D01*
X97983869Y-106935331D01*
X97815390Y-107342075D01*
X97729500Y-107773872D01*
X97660000Y-107773872D01*
X97660000Y-103622058D01*
X97728038Y-103704962D01*
X97862613Y-103815405D01*
X98016149Y-103897472D01*
X98182745Y-103948008D01*
X98355999Y-103965072D01*
X99256001Y-103965072D01*
X99429255Y-103948008D01*
X99595851Y-103897472D01*
X99749387Y-103815405D01*
X99883962Y-103704962D01*
X99994405Y-103570387D01*
X100076472Y-103416851D01*
X100127008Y-103250255D01*
X100144072Y-103077001D01*
X100144072Y-102426999D01*
X100127008Y-102253745D01*
X100076472Y-102087149D01*
X99994405Y-101933613D01*
X99883962Y-101799038D01*
X99844924Y-101767000D01*
X115567928Y-101767000D01*
X115580188Y-101891482D01*
X115616498Y-102011180D01*
X115675463Y-102121494D01*
X115754815Y-102218185D01*
X115851506Y-102297537D01*
X115961820Y-102356502D01*
X116081518Y-102392812D01*
X116206000Y-102405072D01*
X116570250Y-102402000D01*
X116729000Y-102243250D01*
X116729000Y-101094000D01*
X115729750Y-101094000D01*
X115571000Y-101252750D01*
X115567928Y-101767000D01*
X99844924Y-101767000D01*
X99796184Y-101727000D01*
X99883962Y-101654962D01*
X99994405Y-101520387D01*
X100076472Y-101366851D01*
X100127008Y-101200255D01*
X100144072Y-101027001D01*
X100144072Y-100376999D01*
X100127008Y-100203745D01*
X100115862Y-100167000D01*
X115567928Y-100167000D01*
X115571000Y-100681250D01*
X115729750Y-100840000D01*
X116729000Y-100840000D01*
X116729000Y-99690750D01*
X116704000Y-99665750D01*
X116704000Y-98806000D01*
X115779750Y-98806000D01*
X115621000Y-98964750D01*
X115617928Y-99379000D01*
X115630188Y-99503482D01*
X115666498Y-99623180D01*
X115725463Y-99733494D01*
X115732885Y-99742537D01*
X115675463Y-99812506D01*
X115616498Y-99922820D01*
X115580188Y-100042518D01*
X115567928Y-100167000D01*
X100115862Y-100167000D01*
X100076472Y-100037149D01*
X99994405Y-99883613D01*
X99883962Y-99749038D01*
X99749387Y-99638595D01*
X99595851Y-99556528D01*
X99566000Y-99547473D01*
X99566000Y-97979000D01*
X115617928Y-97979000D01*
X115621000Y-98393250D01*
X115779750Y-98552000D01*
X116704000Y-98552000D01*
X116704000Y-97502750D01*
X116545250Y-97344000D01*
X116256000Y-97340928D01*
X116131518Y-97353188D01*
X116011820Y-97389498D01*
X115901506Y-97448463D01*
X115804815Y-97527815D01*
X115725463Y-97624506D01*
X115666498Y-97734820D01*
X115630188Y-97854518D01*
X115617928Y-97979000D01*
X99566000Y-97979000D01*
X99566000Y-96531527D01*
X99595851Y-96522472D01*
X99749387Y-96440405D01*
X99883962Y-96329962D01*
X99994405Y-96195387D01*
X100076472Y-96041851D01*
X100127008Y-95875255D01*
X100144072Y-95702001D01*
X100144072Y-95051999D01*
X100127008Y-94878745D01*
X100076472Y-94712149D01*
X99994405Y-94558613D01*
X99883962Y-94424038D01*
X99796184Y-94352000D01*
X99883962Y-94279962D01*
X99994405Y-94145387D01*
X100076472Y-93991851D01*
X100127008Y-93825255D01*
X100144072Y-93652001D01*
X100144072Y-93001999D01*
X100127008Y-92828745D01*
X100076472Y-92662149D01*
X99994405Y-92508613D01*
X99883962Y-92374038D01*
X99749387Y-92263595D01*
X99595851Y-92181528D01*
X99566000Y-92172473D01*
X99566000Y-89936527D01*
X99595851Y-89927472D01*
X99749387Y-89845405D01*
X99883962Y-89734962D01*
X99994405Y-89600387D01*
X100076472Y-89446851D01*
X100127008Y-89280255D01*
X100144072Y-89107001D01*
X100144072Y-88456999D01*
X100127008Y-88283745D01*
X100076472Y-88117149D01*
X99994405Y-87963613D01*
X99883962Y-87829038D01*
X99796184Y-87757000D01*
X99883962Y-87684962D01*
X99994405Y-87550387D01*
X100025614Y-87492000D01*
X105649793Y-87492000D01*
X105702730Y-87544937D01*
X105872248Y-87658205D01*
X106060606Y-87736226D01*
X106260565Y-87776000D01*
X106464443Y-87776000D01*
X106664402Y-87736226D01*
X106852760Y-87658205D01*
X107022278Y-87544937D01*
X107166441Y-87400774D01*
X107279709Y-87231256D01*
X107357730Y-87042898D01*
X107397504Y-86842939D01*
X107397504Y-86639061D01*
X107357730Y-86439102D01*
X107279709Y-86250744D01*
X107166441Y-86081226D01*
X107022278Y-85937063D01*
X106852760Y-85823795D01*
X106664402Y-85745774D01*
X106464443Y-85706000D01*
X106260565Y-85706000D01*
X106060606Y-85745774D01*
X105872248Y-85823795D01*
X105702730Y-85937063D01*
X105667793Y-85972000D01*
X100025614Y-85972000D01*
X99994405Y-85913613D01*
X99883962Y-85779038D01*
X99749387Y-85668595D01*
X99595851Y-85586528D01*
X99429255Y-85535992D01*
X99256001Y-85518928D01*
X98355999Y-85518928D01*
X98182745Y-85535992D01*
X98016149Y-85586528D01*
X97862613Y-85668595D01*
X97728038Y-85779038D01*
X97660000Y-85861942D01*
X97660000Y-85401999D01*
X112315928Y-85401999D01*
X112315928Y-86302001D01*
X112332992Y-86475255D01*
X112383528Y-86641851D01*
X112465595Y-86795387D01*
X112525187Y-86868000D01*
X112465595Y-86940613D01*
X112383528Y-87094149D01*
X112332992Y-87260745D01*
X112315928Y-87433999D01*
X112315928Y-88334001D01*
X112332992Y-88507255D01*
X112383528Y-88673851D01*
X112465595Y-88827387D01*
X112576038Y-88961962D01*
X112710613Y-89072405D01*
X112864149Y-89154472D01*
X113030745Y-89205008D01*
X113203999Y-89222072D01*
X113854001Y-89222072D01*
X114027255Y-89205008D01*
X114193851Y-89154472D01*
X114347387Y-89072405D01*
X114481962Y-88961962D01*
X114554000Y-88874184D01*
X114626038Y-88961962D01*
X114760613Y-89072405D01*
X114914149Y-89154472D01*
X115080745Y-89205008D01*
X115253999Y-89222072D01*
X115904001Y-89222072D01*
X116077255Y-89205008D01*
X116243851Y-89154472D01*
X116397387Y-89072405D01*
X116531962Y-88961962D01*
X116642405Y-88827387D01*
X116724472Y-88673851D01*
X116775008Y-88507255D01*
X116792072Y-88334001D01*
X116792072Y-88088372D01*
X117097002Y-87783442D01*
X117126001Y-87759643D01*
X117206134Y-87662001D01*
X117220974Y-87643919D01*
X117291546Y-87511889D01*
X117300915Y-87481003D01*
X117335003Y-87368628D01*
X117346000Y-87256975D01*
X117346000Y-87256966D01*
X117349676Y-87219643D01*
X117346000Y-87182320D01*
X117346000Y-86547801D01*
X117408802Y-86485000D01*
X119314198Y-86485000D01*
X119126270Y-86672928D01*
X118537999Y-86672928D01*
X118364745Y-86689992D01*
X118198149Y-86740528D01*
X118044613Y-86822595D01*
X117910038Y-86933038D01*
X117799595Y-87067613D01*
X117717528Y-87221149D01*
X117666992Y-87387745D01*
X117649928Y-87560999D01*
X117649928Y-88461001D01*
X117666992Y-88634255D01*
X117717528Y-88800851D01*
X117799595Y-88954387D01*
X117910038Y-89088962D01*
X117911912Y-89090500D01*
X117910038Y-89092038D01*
X117799595Y-89226613D01*
X117717528Y-89380149D01*
X117666992Y-89546745D01*
X117649928Y-89719999D01*
X117649928Y-90620001D01*
X117666992Y-90793255D01*
X117717528Y-90959851D01*
X117799595Y-91113387D01*
X117910038Y-91247962D01*
X118044613Y-91358405D01*
X118198149Y-91440472D01*
X118364745Y-91491008D01*
X118537999Y-91508072D01*
X119126270Y-91508072D01*
X119324211Y-91706013D01*
X119348009Y-91735011D01*
X119377007Y-91758809D01*
X119463733Y-91829984D01*
X119575148Y-91889537D01*
X119595763Y-91900556D01*
X119739024Y-91944013D01*
X119850677Y-91955010D01*
X119850686Y-91955010D01*
X119888009Y-91958686D01*
X119925332Y-91955010D01*
X122060513Y-91955010D01*
X122149255Y-91981929D01*
X122303000Y-91997072D01*
X123753000Y-91997072D01*
X123763500Y-91996038D01*
X123763500Y-93728698D01*
X122743998Y-94748201D01*
X122715000Y-94771999D01*
X122691202Y-94800997D01*
X122691201Y-94800998D01*
X122620026Y-94887724D01*
X122549454Y-95019754D01*
X122528938Y-95087389D01*
X122505998Y-95163014D01*
X122503389Y-95189502D01*
X122491324Y-95312000D01*
X122495001Y-95349332D01*
X122495001Y-95835928D01*
X122430000Y-95835928D01*
X122276255Y-95851071D01*
X122128418Y-95895916D01*
X121992171Y-95968742D01*
X121872749Y-96066749D01*
X121774742Y-96186171D01*
X121701916Y-96322418D01*
X121657071Y-96470255D01*
X121641928Y-96624000D01*
X121641928Y-96924000D01*
X121642959Y-96934470D01*
X121027997Y-97549433D01*
X120999000Y-97573231D01*
X120975202Y-97602229D01*
X120975201Y-97602230D01*
X120904026Y-97688956D01*
X120833454Y-97820986D01*
X120809888Y-97898676D01*
X120794623Y-97949001D01*
X120789998Y-97964247D01*
X120775324Y-98113232D01*
X120779001Y-98150564D01*
X120779000Y-99805677D01*
X120775324Y-99843000D01*
X120779000Y-99880322D01*
X120779000Y-99880332D01*
X120789997Y-99991985D01*
X120828604Y-100119258D01*
X120833454Y-100135246D01*
X120904026Y-100267276D01*
X120927865Y-100296323D01*
X120998999Y-100383001D01*
X121028002Y-100406803D01*
X121716201Y-101095002D01*
X121739999Y-101124001D01*
X121756350Y-101137420D01*
X121774742Y-101171829D01*
X121813454Y-101219000D01*
X121774742Y-101266171D01*
X121701916Y-101402418D01*
X121657071Y-101550255D01*
X121641928Y-101704000D01*
X121641928Y-102004000D01*
X121657071Y-102157745D01*
X121701916Y-102305582D01*
X121733141Y-102364000D01*
X121327802Y-102364000D01*
X120144072Y-101180271D01*
X120144072Y-100167000D01*
X120131812Y-100042518D01*
X120095502Y-99922820D01*
X120036537Y-99812506D01*
X119957185Y-99715815D01*
X119903732Y-99671947D01*
X119944405Y-99622387D01*
X120026472Y-99468851D01*
X120077008Y-99302255D01*
X120094072Y-99129001D01*
X120094072Y-98228999D01*
X120077008Y-98055745D01*
X120026472Y-97889149D01*
X119944405Y-97735613D01*
X119833962Y-97601038D01*
X119699387Y-97490595D01*
X119545851Y-97408528D01*
X119379255Y-97357992D01*
X119206001Y-97340928D01*
X118555999Y-97340928D01*
X118382745Y-97357992D01*
X118216149Y-97408528D01*
X118062613Y-97490595D01*
X117928038Y-97601038D01*
X117922658Y-97607594D01*
X117857185Y-97527815D01*
X117760494Y-97448463D01*
X117650180Y-97389498D01*
X117530482Y-97353188D01*
X117406000Y-97340928D01*
X117116750Y-97344000D01*
X116958000Y-97502750D01*
X116958000Y-98552000D01*
X116978000Y-98552000D01*
X116978000Y-98806000D01*
X116958000Y-98806000D01*
X116958000Y-99855250D01*
X116983000Y-99880250D01*
X116983000Y-100840000D01*
X117003000Y-100840000D01*
X117003000Y-101094000D01*
X116983000Y-101094000D01*
X116983000Y-102243250D01*
X117141750Y-102402000D01*
X117506000Y-102405072D01*
X117630482Y-102392812D01*
X117750180Y-102356502D01*
X117856000Y-102299939D01*
X117895198Y-102320891D01*
X117764744Y-102360463D01*
X117632715Y-102431035D01*
X117516990Y-102526008D01*
X117493192Y-102555006D01*
X117219270Y-102828928D01*
X116206000Y-102828928D01*
X116081518Y-102841188D01*
X115961820Y-102877498D01*
X115851506Y-102936463D01*
X115754815Y-103015815D01*
X115675463Y-103112506D01*
X115616498Y-103222820D01*
X115580188Y-103342518D01*
X115567928Y-103467000D01*
X115567928Y-105067000D01*
X115580188Y-105191482D01*
X115616498Y-105311180D01*
X115675463Y-105421494D01*
X115754815Y-105518185D01*
X115807287Y-105561248D01*
X115767595Y-105609613D01*
X115685528Y-105763149D01*
X115634992Y-105929745D01*
X115617928Y-106102999D01*
X115617928Y-107003001D01*
X115634992Y-107176255D01*
X115685528Y-107342851D01*
X115767595Y-107496387D01*
X115878038Y-107630962D01*
X116012613Y-107741405D01*
X116166149Y-107823472D01*
X116332745Y-107874008D01*
X116505999Y-107891072D01*
X117156001Y-107891072D01*
X117329255Y-107874008D01*
X117495851Y-107823472D01*
X117649387Y-107741405D01*
X117783962Y-107630962D01*
X117789342Y-107624406D01*
X117854815Y-107704185D01*
X117951506Y-107783537D01*
X118061820Y-107842502D01*
X118181518Y-107878812D01*
X118306000Y-107891072D01*
X118595250Y-107888000D01*
X118754000Y-107729250D01*
X118754000Y-106680000D01*
X119008000Y-106680000D01*
X119008000Y-107729250D01*
X119166750Y-107888000D01*
X119456000Y-107891072D01*
X119580482Y-107878812D01*
X119700180Y-107842502D01*
X119810494Y-107783537D01*
X119907185Y-107704185D01*
X119986537Y-107607494D01*
X120045502Y-107497180D01*
X120081812Y-107377482D01*
X120094072Y-107253000D01*
X120091000Y-106838750D01*
X119932250Y-106680000D01*
X119008000Y-106680000D01*
X118754000Y-106680000D01*
X118734000Y-106680000D01*
X118734000Y-106426000D01*
X118754000Y-106426000D01*
X118754000Y-105376750D01*
X118729000Y-105351750D01*
X118729000Y-104394000D01*
X118709000Y-104394000D01*
X118709000Y-104140000D01*
X118729000Y-104140000D01*
X118729000Y-104120000D01*
X118983000Y-104120000D01*
X118983000Y-104140000D01*
X119003000Y-104140000D01*
X119003000Y-104394000D01*
X118983000Y-104394000D01*
X118983000Y-105543250D01*
X119008000Y-105568250D01*
X119008000Y-106426000D01*
X119932250Y-106426000D01*
X120091000Y-106267250D01*
X120094072Y-105853000D01*
X120081812Y-105728518D01*
X120045502Y-105608820D01*
X119986537Y-105498506D01*
X119979936Y-105490463D01*
X120036537Y-105421494D01*
X120095502Y-105311180D01*
X120131812Y-105191482D01*
X120144072Y-105067000D01*
X120141000Y-104552750D01*
X119982252Y-104394002D01*
X120141000Y-104394002D01*
X120141000Y-104323809D01*
X120214324Y-104383984D01*
X120346353Y-104454556D01*
X120489614Y-104498013D01*
X120601267Y-104509010D01*
X120601276Y-104509010D01*
X120638599Y-104512686D01*
X120675922Y-104509010D01*
X121641928Y-104509010D01*
X121641928Y-104544000D01*
X121657071Y-104697745D01*
X121701916Y-104845582D01*
X121774742Y-104981829D01*
X121872749Y-105101251D01*
X121932874Y-105150594D01*
X121847038Y-105221038D01*
X121736595Y-105355613D01*
X121654528Y-105509149D01*
X121603992Y-105675745D01*
X121586928Y-105848999D01*
X121586928Y-106749001D01*
X121603992Y-106922255D01*
X121654528Y-107088851D01*
X121736595Y-107242387D01*
X121796187Y-107315000D01*
X121736595Y-107387613D01*
X121654528Y-107541149D01*
X121603992Y-107707745D01*
X121586928Y-107880999D01*
X121586928Y-108781001D01*
X121603992Y-108954255D01*
X121654528Y-109120851D01*
X121736595Y-109274387D01*
X121847038Y-109408962D01*
X121981613Y-109519405D01*
X122135149Y-109601472D01*
X122301745Y-109652008D01*
X122474999Y-109669072D01*
X123063270Y-109669072D01*
X123379201Y-109985003D01*
X123402999Y-110014001D01*
X123431997Y-110037799D01*
X123518723Y-110108974D01*
X123582587Y-110143110D01*
X123650753Y-110179546D01*
X123794014Y-110223003D01*
X123905667Y-110234000D01*
X123905676Y-110234000D01*
X123942999Y-110237676D01*
X123980322Y-110234000D01*
X133185678Y-110234000D01*
X133223000Y-110237676D01*
X133260322Y-110234000D01*
X133260333Y-110234000D01*
X133371986Y-110223003D01*
X133515247Y-110179546D01*
X133647276Y-110108974D01*
X133763001Y-110014001D01*
X133786804Y-109984997D01*
X135548802Y-108223000D01*
X135610939Y-108223000D01*
X135810898Y-108183226D01*
X135999256Y-108105205D01*
X136168774Y-107991937D01*
X136312937Y-107847774D01*
X136426205Y-107678256D01*
X136504226Y-107489898D01*
X136544000Y-107289939D01*
X136544000Y-107086061D01*
X136504226Y-106886102D01*
X136426205Y-106697744D01*
X136312937Y-106528226D01*
X136168774Y-106384063D01*
X135999256Y-106270795D01*
X135810898Y-106192774D01*
X135610939Y-106153000D01*
X135407061Y-106153000D01*
X135207102Y-106192774D01*
X135018744Y-106270795D01*
X134862568Y-106375148D01*
X134723987Y-106167748D01*
X134537427Y-105981188D01*
X134650985Y-105970003D01*
X134794246Y-105926546D01*
X134828112Y-105908444D01*
X134839724Y-105917974D01*
X134971753Y-105988546D01*
X135115014Y-106032003D01*
X135226667Y-106043000D01*
X135226675Y-106043000D01*
X135264000Y-106046676D01*
X135301325Y-106043000D01*
X138776214Y-106043000D01*
X138764647Y-106070926D01*
X138709500Y-106348165D01*
X138709500Y-106630835D01*
X138764647Y-106908074D01*
X138872820Y-107169227D01*
X139029863Y-107404259D01*
X139229741Y-107604137D01*
X139464773Y-107761180D01*
X139725926Y-107869353D01*
X140003165Y-107924500D01*
X140285835Y-107924500D01*
X140563074Y-107869353D01*
X140824227Y-107761180D01*
X141059259Y-107604137D01*
X141259137Y-107404259D01*
X141416180Y-107169227D01*
X141524353Y-106908074D01*
X141579500Y-106630835D01*
X141579500Y-106348165D01*
X141524353Y-106070926D01*
X141512786Y-106043000D01*
X146326428Y-106043000D01*
X146326428Y-107289500D01*
X146338688Y-107413982D01*
X146374998Y-107533680D01*
X146433963Y-107643994D01*
X146513315Y-107740685D01*
X146610006Y-107820037D01*
X146720320Y-107879002D01*
X146840018Y-107915312D01*
X146964500Y-107927572D01*
X148564500Y-107927572D01*
X148688982Y-107915312D01*
X148808680Y-107879002D01*
X148918994Y-107820037D01*
X149015685Y-107740685D01*
X149095037Y-107643994D01*
X149154002Y-107533680D01*
X149190312Y-107413982D01*
X149202572Y-107289500D01*
X149202572Y-106126230D01*
X149400504Y-105928298D01*
X149429502Y-105904500D01*
X149524475Y-105788775D01*
X149595047Y-105656746D01*
X149638504Y-105513485D01*
X149649501Y-105401832D01*
X149649501Y-105401824D01*
X149653177Y-105364499D01*
X149649501Y-105327174D01*
X149649501Y-98039500D01*
X151229428Y-98039500D01*
X151229428Y-99739500D01*
X151241688Y-99863982D01*
X151277998Y-99983680D01*
X151336963Y-100093994D01*
X151416315Y-100190685D01*
X151513006Y-100270037D01*
X151623320Y-100329002D01*
X151695880Y-100351013D01*
X151564025Y-100482868D01*
X151401510Y-100726089D01*
X151289568Y-100996342D01*
X151232500Y-101283240D01*
X151232500Y-101575760D01*
X151289568Y-101862658D01*
X151401510Y-102132911D01*
X151564025Y-102376132D01*
X151770868Y-102582975D01*
X151945260Y-102699500D01*
X151770868Y-102816025D01*
X151564025Y-103022868D01*
X151401510Y-103266089D01*
X151289568Y-103536342D01*
X151232500Y-103823240D01*
X151232500Y-104115760D01*
X151289568Y-104402658D01*
X151401510Y-104672911D01*
X151564025Y-104916132D01*
X151770868Y-105122975D01*
X151945260Y-105239500D01*
X151770868Y-105356025D01*
X151564025Y-105562868D01*
X151401510Y-105806089D01*
X151289568Y-106076342D01*
X151232500Y-106363240D01*
X151232500Y-106655760D01*
X151289568Y-106942658D01*
X151401510Y-107212911D01*
X151564025Y-107456132D01*
X151770868Y-107662975D01*
X152014089Y-107825490D01*
X152284342Y-107937432D01*
X152571240Y-107994500D01*
X152863760Y-107994500D01*
X153150658Y-107937432D01*
X153420911Y-107825490D01*
X153664132Y-107662975D01*
X153870975Y-107456132D01*
X154033490Y-107212911D01*
X154145432Y-106942658D01*
X154202500Y-106655760D01*
X154202500Y-106363240D01*
X154145432Y-106076342D01*
X154033490Y-105806089D01*
X153922179Y-105639500D01*
X158849428Y-105639500D01*
X158849428Y-107339500D01*
X158861688Y-107463982D01*
X158897998Y-107583680D01*
X158956963Y-107693994D01*
X159036315Y-107790685D01*
X159133006Y-107870037D01*
X159243320Y-107929002D01*
X159363018Y-107965312D01*
X159487500Y-107977572D01*
X161187500Y-107977572D01*
X161311982Y-107965312D01*
X161431680Y-107929002D01*
X161541994Y-107870037D01*
X161638685Y-107790685D01*
X161652483Y-107773872D01*
X164729500Y-107773872D01*
X164729500Y-108214128D01*
X164815390Y-108645925D01*
X164983869Y-109052669D01*
X165228462Y-109418729D01*
X165539771Y-109730038D01*
X165905831Y-109974631D01*
X166312575Y-110143110D01*
X166744372Y-110229000D01*
X167184628Y-110229000D01*
X167616425Y-110143110D01*
X168023169Y-109974631D01*
X168389229Y-109730038D01*
X168700538Y-109418729D01*
X168945131Y-109052669D01*
X169113610Y-108645925D01*
X169199500Y-108214128D01*
X169199500Y-107773872D01*
X169113610Y-107342075D01*
X168945131Y-106935331D01*
X168700538Y-106569271D01*
X168389229Y-106257962D01*
X168023169Y-106013369D01*
X167616425Y-105844890D01*
X167184628Y-105759000D01*
X166744372Y-105759000D01*
X166312575Y-105844890D01*
X165905831Y-106013369D01*
X165539771Y-106257962D01*
X165228462Y-106569271D01*
X164983869Y-106935331D01*
X164815390Y-107342075D01*
X164729500Y-107773872D01*
X161652483Y-107773872D01*
X161718037Y-107693994D01*
X161777002Y-107583680D01*
X161813312Y-107463982D01*
X161825572Y-107339500D01*
X161825572Y-105639500D01*
X161813312Y-105515018D01*
X161777002Y-105395320D01*
X161718037Y-105285006D01*
X161638685Y-105188315D01*
X161541994Y-105108963D01*
X161431680Y-105049998D01*
X161359120Y-105027987D01*
X161490975Y-104896132D01*
X161653490Y-104652911D01*
X161765432Y-104382658D01*
X161822500Y-104095760D01*
X161822500Y-103879001D01*
X162761592Y-103879001D01*
X162833298Y-104082197D01*
X162948986Y-104262408D01*
X163097609Y-104416587D01*
X163273455Y-104538809D01*
X163469767Y-104624376D01*
X163679000Y-104670000D01*
X164429000Y-104670000D01*
X164429000Y-103712000D01*
X164683000Y-103712000D01*
X164683000Y-104670000D01*
X165433000Y-104670000D01*
X165642233Y-104624376D01*
X165838545Y-104538809D01*
X166014391Y-104416587D01*
X166163014Y-104262408D01*
X166278702Y-104082197D01*
X166350408Y-103879001D01*
X166491592Y-103879001D01*
X166563298Y-104082197D01*
X166678986Y-104262408D01*
X166827609Y-104416587D01*
X167003455Y-104538809D01*
X167199767Y-104624376D01*
X167409000Y-104670000D01*
X167809000Y-104670000D01*
X167809000Y-103712000D01*
X166618498Y-103712000D01*
X166491592Y-103879001D01*
X166350408Y-103879001D01*
X166223502Y-103712000D01*
X164683000Y-103712000D01*
X164429000Y-103712000D01*
X162888498Y-103712000D01*
X162761592Y-103879001D01*
X161822500Y-103879001D01*
X161822500Y-103803240D01*
X161765432Y-103516342D01*
X161653490Y-103246089D01*
X161490975Y-103002868D01*
X161284132Y-102796025D01*
X161109740Y-102679500D01*
X161284132Y-102562975D01*
X161490975Y-102356132D01*
X161653490Y-102112911D01*
X161765432Y-101842658D01*
X161822500Y-101555760D01*
X161822500Y-101263240D01*
X161765432Y-100976342D01*
X161653490Y-100706089D01*
X161490975Y-100462868D01*
X161284132Y-100256025D01*
X161101966Y-100134305D01*
X161218855Y-100064678D01*
X161435088Y-99869769D01*
X161609141Y-99636420D01*
X161734325Y-99373599D01*
X161778976Y-99226390D01*
X161657655Y-98996500D01*
X160464500Y-98996500D01*
X160464500Y-99016500D01*
X160210500Y-99016500D01*
X160210500Y-98996500D01*
X159017345Y-98996500D01*
X158896024Y-99226390D01*
X158940675Y-99373599D01*
X159065859Y-99636420D01*
X159239912Y-99869769D01*
X159456145Y-100064678D01*
X159573034Y-100134305D01*
X159390868Y-100256025D01*
X159184025Y-100462868D01*
X159021510Y-100706089D01*
X158909568Y-100976342D01*
X158852500Y-101263240D01*
X158852500Y-101555760D01*
X158909568Y-101842658D01*
X159021510Y-102112911D01*
X159184025Y-102356132D01*
X159390868Y-102562975D01*
X159565260Y-102679500D01*
X159390868Y-102796025D01*
X159184025Y-103002868D01*
X159021510Y-103246089D01*
X158909568Y-103516342D01*
X158852500Y-103803240D01*
X158852500Y-104095760D01*
X158909568Y-104382658D01*
X159021510Y-104652911D01*
X159184025Y-104896132D01*
X159315880Y-105027987D01*
X159243320Y-105049998D01*
X159133006Y-105108963D01*
X159036315Y-105188315D01*
X158956963Y-105285006D01*
X158897998Y-105395320D01*
X158861688Y-105515018D01*
X158849428Y-105639500D01*
X153922179Y-105639500D01*
X153870975Y-105562868D01*
X153664132Y-105356025D01*
X153489740Y-105239500D01*
X153664132Y-105122975D01*
X153870975Y-104916132D01*
X154033490Y-104672911D01*
X154145432Y-104402658D01*
X154202500Y-104115760D01*
X154202500Y-103823240D01*
X154145432Y-103536342D01*
X154033490Y-103266089D01*
X153870975Y-103022868D01*
X153664132Y-102816025D01*
X153489740Y-102699500D01*
X153664132Y-102582975D01*
X153870975Y-102376132D01*
X154033490Y-102132911D01*
X154145432Y-101862658D01*
X154202500Y-101575760D01*
X154202500Y-101283240D01*
X154145432Y-100996342D01*
X154033490Y-100726089D01*
X153870975Y-100482868D01*
X153739120Y-100351013D01*
X153811680Y-100329002D01*
X153921994Y-100270037D01*
X154018685Y-100190685D01*
X154098037Y-100093994D01*
X154157002Y-99983680D01*
X154193312Y-99863982D01*
X154205572Y-99739500D01*
X154205572Y-98039500D01*
X154193312Y-97915018D01*
X154157002Y-97795320D01*
X154098037Y-97685006D01*
X154018685Y-97588315D01*
X153921994Y-97508963D01*
X153811680Y-97449998D01*
X153691982Y-97413688D01*
X153567500Y-97401428D01*
X151867500Y-97401428D01*
X151743018Y-97413688D01*
X151623320Y-97449998D01*
X151513006Y-97508963D01*
X151416315Y-97588315D01*
X151336963Y-97685006D01*
X151277998Y-97795320D01*
X151241688Y-97915018D01*
X151229428Y-98039500D01*
X149649501Y-98039500D01*
X149649501Y-95158324D01*
X149653177Y-95121001D01*
X149649501Y-95083678D01*
X149649501Y-95083668D01*
X149638504Y-94972015D01*
X149595047Y-94828754D01*
X149569222Y-94780439D01*
X149524475Y-94696724D01*
X149482000Y-94644969D01*
X149482000Y-94576561D01*
X149442226Y-94376602D01*
X149364205Y-94188244D01*
X149250937Y-94018726D01*
X149106774Y-93874563D01*
X148937256Y-93761295D01*
X148748898Y-93683274D01*
X148548939Y-93643500D01*
X148345061Y-93643500D01*
X148145102Y-93683274D01*
X147956744Y-93761295D01*
X147832572Y-93844264D01*
X147832572Y-93328499D01*
X147815508Y-93155245D01*
X147764972Y-92988649D01*
X147710041Y-92885880D01*
X155423298Y-92885880D01*
X155460620Y-92889556D01*
X155497942Y-92885880D01*
X155497953Y-92885880D01*
X155609606Y-92874883D01*
X155752867Y-92831426D01*
X155884896Y-92760854D01*
X156000621Y-92665881D01*
X156024423Y-92636878D01*
X157667803Y-90993500D01*
X158752699Y-90993500D01*
X158942501Y-91183302D01*
X158942500Y-91974177D01*
X158938824Y-92011500D01*
X158942500Y-92048822D01*
X158942500Y-92048832D01*
X158953497Y-92160485D01*
X158989142Y-92277992D01*
X158996954Y-92303746D01*
X159067526Y-92435776D01*
X159107371Y-92484326D01*
X159162499Y-92551501D01*
X159191502Y-92575303D01*
X159895001Y-93278803D01*
X159895001Y-94800288D01*
X159851063Y-94844226D01*
X159737795Y-95013744D01*
X159659774Y-95202102D01*
X159620000Y-95402061D01*
X159620000Y-95605939D01*
X159659774Y-95805898D01*
X159737795Y-95994256D01*
X159851063Y-96163774D01*
X159895000Y-96207711D01*
X159895000Y-96673177D01*
X159891324Y-96710500D01*
X159895000Y-96747822D01*
X159895000Y-96747832D01*
X159905997Y-96859485D01*
X159947018Y-96994714D01*
X159949454Y-97002746D01*
X160020026Y-97134776D01*
X160059481Y-97182851D01*
X160114999Y-97250501D01*
X160144003Y-97274304D01*
X160254199Y-97384500D01*
X160210498Y-97384500D01*
X160210498Y-97548685D01*
X159980609Y-97428019D01*
X159706248Y-97525343D01*
X159456145Y-97674322D01*
X159239912Y-97869231D01*
X159065859Y-98102580D01*
X158940675Y-98365401D01*
X158896024Y-98512610D01*
X159017345Y-98742500D01*
X160210500Y-98742500D01*
X160210500Y-98722500D01*
X160464500Y-98722500D01*
X160464500Y-98742500D01*
X161657655Y-98742500D01*
X161778976Y-98512610D01*
X161734325Y-98365401D01*
X161609141Y-98102580D01*
X161454309Y-97895000D01*
X162591000Y-97895000D01*
X162591000Y-98082014D01*
X162628853Y-98272314D01*
X162685884Y-98410000D01*
X162628853Y-98547686D01*
X162591000Y-98737986D01*
X162591000Y-98932014D01*
X162628853Y-99122314D01*
X162685884Y-99260000D01*
X162628853Y-99397686D01*
X162591000Y-99587986D01*
X162591000Y-99782014D01*
X162628853Y-99972314D01*
X162685884Y-100110000D01*
X162628853Y-100247686D01*
X162591000Y-100437986D01*
X162591000Y-100632014D01*
X162628853Y-100822314D01*
X162685884Y-100960000D01*
X162628853Y-101097686D01*
X162591000Y-101287986D01*
X162591000Y-101482014D01*
X162628853Y-101672314D01*
X162686109Y-101810542D01*
X162631411Y-101939384D01*
X162591890Y-102129344D01*
X162590187Y-102323364D01*
X162626368Y-102513989D01*
X162699043Y-102693893D01*
X162707233Y-102709216D01*
X162905483Y-102725912D01*
X163297496Y-102333899D01*
X163478986Y-102370000D01*
X163648890Y-102370000D01*
X163590143Y-102428748D01*
X163576000Y-102414605D01*
X163425830Y-102564775D01*
X163273455Y-102631191D01*
X163097609Y-102753413D01*
X162948986Y-102907592D01*
X162833298Y-103087803D01*
X162761592Y-103290999D01*
X162888498Y-103458000D01*
X164429000Y-103458000D01*
X164429000Y-102911608D01*
X164435088Y-102905520D01*
X164451784Y-103103767D01*
X164630384Y-103179589D01*
X164683000Y-103190536D01*
X164683000Y-103458000D01*
X166223502Y-103458000D01*
X166350408Y-103290999D01*
X166491592Y-103290999D01*
X166618498Y-103458000D01*
X167809000Y-103458000D01*
X167809000Y-102500000D01*
X167409000Y-102500000D01*
X167199767Y-102545624D01*
X167003455Y-102631191D01*
X166827609Y-102753413D01*
X166678986Y-102907592D01*
X166563298Y-103087803D01*
X166491592Y-103290999D01*
X166350408Y-103290999D01*
X166278702Y-103087803D01*
X166163014Y-102907592D01*
X166014391Y-102753413D01*
X165838545Y-102631191D01*
X165829555Y-102627272D01*
X165870589Y-102530616D01*
X165910110Y-102340656D01*
X165911813Y-102146636D01*
X165875632Y-101956011D01*
X165816385Y-101809349D01*
X165873147Y-101672314D01*
X165911000Y-101482014D01*
X165911000Y-101287986D01*
X165873147Y-101097686D01*
X165816116Y-100960000D01*
X165873147Y-100822314D01*
X165911000Y-100632014D01*
X165911000Y-100437986D01*
X165873147Y-100247686D01*
X165816116Y-100110000D01*
X165873147Y-99972314D01*
X165911000Y-99782014D01*
X165911000Y-99587986D01*
X165873147Y-99397686D01*
X165816116Y-99260000D01*
X165873147Y-99122314D01*
X165911000Y-98932014D01*
X165911000Y-98737986D01*
X165873147Y-98547686D01*
X165816116Y-98410000D01*
X165873147Y-98272314D01*
X165911000Y-98082014D01*
X165911000Y-97887986D01*
X165873147Y-97697686D01*
X165816116Y-97560000D01*
X165873147Y-97422314D01*
X165911000Y-97232014D01*
X165911000Y-97037986D01*
X165873147Y-96847686D01*
X165815891Y-96709458D01*
X165870589Y-96580616D01*
X165910110Y-96390656D01*
X165911813Y-96196636D01*
X165875632Y-96006011D01*
X165829822Y-95892611D01*
X165838545Y-95888809D01*
X166014391Y-95766587D01*
X166163014Y-95612408D01*
X166278702Y-95432197D01*
X166350408Y-95229001D01*
X166491592Y-95229001D01*
X166563298Y-95432197D01*
X166678986Y-95612408D01*
X166827609Y-95766587D01*
X167003455Y-95888809D01*
X167199767Y-95974376D01*
X167409000Y-96020000D01*
X167809000Y-96020000D01*
X167809000Y-95062000D01*
X166618498Y-95062000D01*
X166491592Y-95229001D01*
X166350408Y-95229001D01*
X166223502Y-95062000D01*
X164683000Y-95062000D01*
X164683000Y-95328537D01*
X164647011Y-95335368D01*
X164467107Y-95408043D01*
X164451784Y-95416233D01*
X164435088Y-95614480D01*
X164429000Y-95608392D01*
X164429000Y-95062000D01*
X162888498Y-95062000D01*
X162761592Y-95229001D01*
X162833298Y-95432197D01*
X162948986Y-95612408D01*
X163097609Y-95766587D01*
X163273455Y-95888809D01*
X163425830Y-95955225D01*
X163576000Y-96105395D01*
X163590143Y-96091253D01*
X163648890Y-96150000D01*
X163478986Y-96150000D01*
X163297496Y-96186101D01*
X162905483Y-95794088D01*
X162707233Y-95810784D01*
X162631411Y-95989384D01*
X162591890Y-96179344D01*
X162590187Y-96373364D01*
X162590498Y-96375000D01*
X161415000Y-96375000D01*
X161415000Y-96207711D01*
X161458937Y-96163774D01*
X161572205Y-95994256D01*
X161650226Y-95805898D01*
X161690000Y-95605939D01*
X161690000Y-95402061D01*
X161650226Y-95202102D01*
X161572205Y-95013744D01*
X161458937Y-94844226D01*
X161415000Y-94800289D01*
X161415000Y-94640999D01*
X162761592Y-94640999D01*
X162888498Y-94808000D01*
X164429000Y-94808000D01*
X164429000Y-93850000D01*
X164683000Y-93850000D01*
X164683000Y-94808000D01*
X166223502Y-94808000D01*
X166350408Y-94640999D01*
X166491592Y-94640999D01*
X166618498Y-94808000D01*
X167809000Y-94808000D01*
X167809000Y-93850000D01*
X167409000Y-93850000D01*
X167199767Y-93895624D01*
X167003455Y-93981191D01*
X166827609Y-94103413D01*
X166678986Y-94257592D01*
X166563298Y-94437803D01*
X166491592Y-94640999D01*
X166350408Y-94640999D01*
X166278702Y-94437803D01*
X166163014Y-94257592D01*
X166014391Y-94103413D01*
X165838545Y-93981191D01*
X165642233Y-93895624D01*
X165433000Y-93850000D01*
X164683000Y-93850000D01*
X164429000Y-93850000D01*
X163679000Y-93850000D01*
X163469767Y-93895624D01*
X163273455Y-93981191D01*
X163097609Y-94103413D01*
X162948986Y-94257592D01*
X162833298Y-94437803D01*
X162761592Y-94640999D01*
X161415000Y-94640999D01*
X161415000Y-93175000D01*
X161460883Y-93175000D01*
X161796081Y-93108325D01*
X162111831Y-92977537D01*
X162395998Y-92787663D01*
X162637663Y-92545998D01*
X162827537Y-92261831D01*
X162958325Y-91946081D01*
X163025000Y-91610883D01*
X163025000Y-91269117D01*
X162958325Y-90933919D01*
X162827537Y-90618169D01*
X162637663Y-90334002D01*
X162395998Y-90092337D01*
X162111831Y-89902463D01*
X161796081Y-89771675D01*
X161460883Y-89705000D01*
X161119117Y-89705000D01*
X160783919Y-89771675D01*
X160468169Y-89902463D01*
X160184002Y-90092337D01*
X160092570Y-90183769D01*
X159762007Y-89853206D01*
X160023004Y-89592209D01*
X160052001Y-89568412D01*
X160146974Y-89452687D01*
X160217546Y-89320658D01*
X160261003Y-89177397D01*
X160272000Y-89065744D01*
X160272000Y-89065736D01*
X160275676Y-89028411D01*
X160272000Y-88991086D01*
X160272000Y-85420323D01*
X160275676Y-85382998D01*
X160272000Y-85345673D01*
X160272000Y-85345665D01*
X160261003Y-85234012D01*
X160217546Y-85090751D01*
X160146974Y-84958722D01*
X160052001Y-84842997D01*
X160023003Y-84819199D01*
X159033987Y-83830184D01*
X159132641Y-83697920D01*
X159257825Y-83435099D01*
X159302476Y-83287890D01*
X159181155Y-83058000D01*
X157988000Y-83058000D01*
X157988000Y-83078000D01*
X157734000Y-83078000D01*
X157734000Y-83058000D01*
X157714000Y-83058000D01*
X157714000Y-82804000D01*
X157734000Y-82804000D01*
X157734000Y-81610186D01*
X157988000Y-81610186D01*
X157988000Y-82804000D01*
X159181155Y-82804000D01*
X159302476Y-82574110D01*
X159257825Y-82426901D01*
X159132641Y-82164080D01*
X158958588Y-81930731D01*
X158742355Y-81735822D01*
X158492252Y-81586843D01*
X158217891Y-81489519D01*
X157988000Y-81610186D01*
X157734000Y-81610186D01*
X157504109Y-81489519D01*
X157229748Y-81586843D01*
X156979645Y-81735822D01*
X156763412Y-81930731D01*
X156592100Y-82160406D01*
X156474475Y-81984368D01*
X156267632Y-81777525D01*
X156024411Y-81615010D01*
X155754158Y-81503068D01*
X155467260Y-81446000D01*
X155174740Y-81446000D01*
X154887842Y-81503068D01*
X154617589Y-81615010D01*
X154374368Y-81777525D01*
X154167525Y-81984368D01*
X154005010Y-82227589D01*
X153893068Y-82497842D01*
X153836000Y-82784740D01*
X153836000Y-83077260D01*
X153893068Y-83364158D01*
X154005010Y-83634411D01*
X154167525Y-83877632D01*
X154374368Y-84084475D01*
X154548760Y-84201000D01*
X154374368Y-84317525D01*
X154167525Y-84524368D01*
X154005010Y-84767589D01*
X153893068Y-85037842D01*
X153836000Y-85324740D01*
X153836000Y-85617260D01*
X153893068Y-85904158D01*
X154005010Y-86174411D01*
X154167525Y-86417632D01*
X154299380Y-86549487D01*
X154226820Y-86571498D01*
X154116506Y-86630463D01*
X154019815Y-86709815D01*
X153940463Y-86806506D01*
X153881498Y-86916820D01*
X153845188Y-87036518D01*
X153832928Y-87161000D01*
X153832928Y-88424271D01*
X153120198Y-89137001D01*
X146175962Y-89137001D01*
X146294282Y-88851352D01*
X146354800Y-88547104D01*
X146354800Y-88236896D01*
X146294282Y-87932648D01*
X146175570Y-87646052D01*
X146003227Y-87388123D01*
X145783877Y-87168773D01*
X145525948Y-86996430D01*
X145239352Y-86877718D01*
X144935104Y-86817200D01*
X144624896Y-86817200D01*
X144320648Y-86877718D01*
X144034052Y-86996430D01*
X143776123Y-87168773D01*
X143556773Y-87388123D01*
X143510000Y-87458124D01*
X143463227Y-87388123D01*
X143243877Y-87168773D01*
X142985948Y-86996430D01*
X142699352Y-86877718D01*
X142395104Y-86817200D01*
X142084896Y-86817200D01*
X141993526Y-86835375D01*
X141965226Y-86693102D01*
X141887205Y-86504744D01*
X141773937Y-86335226D01*
X141629774Y-86191063D01*
X141460256Y-86077795D01*
X141271898Y-85999774D01*
X141071939Y-85960000D01*
X140868061Y-85960000D01*
X140774427Y-85978625D01*
X138595924Y-83800123D01*
X138585205Y-83774244D01*
X138471937Y-83604726D01*
X138327774Y-83460563D01*
X138158256Y-83347295D01*
X138132377Y-83336575D01*
X135183804Y-80388003D01*
X135160001Y-80358999D01*
X135044276Y-80264026D01*
X134912247Y-80193454D01*
X134768986Y-80149997D01*
X134657333Y-80139000D01*
X134657322Y-80139000D01*
X134620000Y-80135324D01*
X134582678Y-80139000D01*
X126402333Y-80139000D01*
X126365000Y-80135323D01*
X126327667Y-80139000D01*
X126216014Y-80149997D01*
X126072753Y-80193454D01*
X125940724Y-80264026D01*
X125824999Y-80358999D01*
X125801200Y-80387998D01*
X125415199Y-80774000D01*
X124116322Y-80774000D01*
X124078999Y-80770324D01*
X124041676Y-80774000D01*
X124041667Y-80774000D01*
X123930014Y-80784997D01*
X123786753Y-80828454D01*
X123654724Y-80899026D01*
X123538999Y-80993999D01*
X123515200Y-81022998D01*
X123256199Y-81282000D01*
X121684025Y-81282000D01*
X121646700Y-81278324D01*
X121609375Y-81282000D01*
X121609367Y-81282000D01*
X121497714Y-81292997D01*
X121354453Y-81336454D01*
X121222424Y-81407026D01*
X121106699Y-81501999D01*
X121082901Y-81530997D01*
X120750970Y-81862928D01*
X120596992Y-81832300D01*
X120321808Y-81832300D01*
X120051910Y-81885986D01*
X119797673Y-81991295D01*
X119568865Y-82144180D01*
X119374280Y-82338765D01*
X119221395Y-82567573D01*
X119191708Y-82639243D01*
X119187036Y-82626277D01*
X119125056Y-82510320D01*
X118884965Y-82443340D01*
X118099005Y-83229300D01*
X118113148Y-83243443D01*
X117933543Y-83423048D01*
X117919400Y-83408905D01*
X117905258Y-83423048D01*
X117725653Y-83243443D01*
X117739795Y-83229300D01*
X116953835Y-82443340D01*
X116713744Y-82510320D01*
X116596644Y-82759348D01*
X116530377Y-83026435D01*
X116517490Y-83301317D01*
X116558478Y-83573433D01*
X116651764Y-83832323D01*
X116713744Y-83948280D01*
X116716325Y-83949000D01*
X113947322Y-83949000D01*
X113909999Y-83945324D01*
X113872676Y-83949000D01*
X113872667Y-83949000D01*
X113761014Y-83959997D01*
X113617753Y-84003454D01*
X113485724Y-84074026D01*
X113369999Y-84168999D01*
X113346196Y-84198003D01*
X113018003Y-84526196D01*
X113001261Y-84539936D01*
X112864149Y-84581528D01*
X112710613Y-84663595D01*
X112576038Y-84774038D01*
X112465595Y-84908613D01*
X112383528Y-85062149D01*
X112332992Y-85228745D01*
X112315928Y-85401999D01*
X97660000Y-85401999D01*
X97660000Y-81773872D01*
X97729500Y-81773872D01*
X97729500Y-82214128D01*
X97815390Y-82645925D01*
X97983869Y-83052669D01*
X98228462Y-83418729D01*
X98539771Y-83730038D01*
X98905831Y-83974631D01*
X99312575Y-84143110D01*
X99744372Y-84229000D01*
X100184628Y-84229000D01*
X100616425Y-84143110D01*
X101023169Y-83974631D01*
X101389229Y-83730038D01*
X101700538Y-83418729D01*
X101883793Y-83144467D01*
X108319000Y-83144467D01*
X108319000Y-83466533D01*
X108381832Y-83782412D01*
X108505082Y-84079963D01*
X108684013Y-84347752D01*
X108911748Y-84575487D01*
X109179537Y-84754418D01*
X109477088Y-84877668D01*
X109792967Y-84940500D01*
X110115033Y-84940500D01*
X110430912Y-84877668D01*
X110728463Y-84754418D01*
X110996252Y-84575487D01*
X111223987Y-84347752D01*
X111402918Y-84079963D01*
X111526168Y-83782412D01*
X111589000Y-83466533D01*
X111589000Y-83144467D01*
X111526168Y-82828588D01*
X111402918Y-82531037D01*
X111224313Y-82263735D01*
X117133440Y-82263735D01*
X117919400Y-83049695D01*
X118705360Y-82263735D01*
X118638380Y-82023644D01*
X118389352Y-81906544D01*
X118122265Y-81840277D01*
X117847383Y-81827390D01*
X117575267Y-81868378D01*
X117316377Y-81961664D01*
X117200420Y-82023644D01*
X117133440Y-82263735D01*
X111224313Y-82263735D01*
X111223987Y-82263248D01*
X110996252Y-82035513D01*
X110728463Y-81856582D01*
X110430912Y-81733332D01*
X110115033Y-81670500D01*
X109792967Y-81670500D01*
X109477088Y-81733332D01*
X109179537Y-81856582D01*
X108911748Y-82035513D01*
X108684013Y-82263248D01*
X108505082Y-82531037D01*
X108381832Y-82828588D01*
X108319000Y-83144467D01*
X101883793Y-83144467D01*
X101945131Y-83052669D01*
X102113610Y-82645925D01*
X102199500Y-82214128D01*
X102199500Y-81773872D01*
X102113610Y-81342075D01*
X101945131Y-80935331D01*
X101700538Y-80569271D01*
X101389229Y-80257962D01*
X101023169Y-80013369D01*
X100616425Y-79844890D01*
X100184628Y-79759000D01*
X99744372Y-79759000D01*
X99312575Y-79844890D01*
X98905831Y-80013369D01*
X98539771Y-80257962D01*
X98228462Y-80569271D01*
X97983869Y-80935331D01*
X97815390Y-81342075D01*
X97729500Y-81773872D01*
X97660000Y-81773872D01*
X97660000Y-79660000D01*
X159822667Y-79660000D01*
X159738815Y-79728815D01*
G04 #@! TA.AperFunction,Conductor*
D26*
G36*
X159738815Y-79728815D02*
G01*
X159659463Y-79825506D01*
X159600498Y-79935820D01*
X159564188Y-80055518D01*
X159551928Y-80180000D01*
X159551928Y-82380000D01*
X159564188Y-82504482D01*
X159600498Y-82624180D01*
X159659463Y-82734494D01*
X159738815Y-82831185D01*
X159835506Y-82910537D01*
X159945820Y-82969502D01*
X160065518Y-83005812D01*
X160190000Y-83018072D01*
X162390000Y-83018072D01*
X162514482Y-83005812D01*
X162634180Y-82969502D01*
X162744494Y-82910537D01*
X162841185Y-82831185D01*
X162920537Y-82734494D01*
X162979502Y-82624180D01*
X163015812Y-82504482D01*
X163028072Y-82380000D01*
X163028072Y-81773872D01*
X164729500Y-81773872D01*
X164729500Y-82214128D01*
X164815390Y-82645925D01*
X164983869Y-83052669D01*
X165228462Y-83418729D01*
X165539771Y-83730038D01*
X165905831Y-83974631D01*
X166312575Y-84143110D01*
X166744372Y-84229000D01*
X167184628Y-84229000D01*
X167616425Y-84143110D01*
X168023169Y-83974631D01*
X168389229Y-83730038D01*
X168700538Y-83418729D01*
X168945131Y-83052669D01*
X169113610Y-82645925D01*
X169199500Y-82214128D01*
X169199500Y-81773872D01*
X169113610Y-81342075D01*
X168945131Y-80935331D01*
X168700538Y-80569271D01*
X168389229Y-80257962D01*
X168023169Y-80013369D01*
X167616425Y-79844890D01*
X167184628Y-79759000D01*
X166744372Y-79759000D01*
X166312575Y-79844890D01*
X165905831Y-80013369D01*
X165539771Y-80257962D01*
X165228462Y-80569271D01*
X164983869Y-80935331D01*
X164815390Y-81342075D01*
X164729500Y-81773872D01*
X163028072Y-81773872D01*
X163028072Y-80180000D01*
X163015812Y-80055518D01*
X162979502Y-79935820D01*
X162920537Y-79825506D01*
X162841185Y-79728815D01*
X162757333Y-79660000D01*
X169340001Y-79660000D01*
X169340001Y-94526495D01*
X169308702Y-94437803D01*
X169193014Y-94257592D01*
X169044391Y-94103413D01*
X168868545Y-93981191D01*
X168672233Y-93895624D01*
X168463000Y-93850000D01*
X168063000Y-93850000D01*
X168063000Y-94808000D01*
X168083000Y-94808000D01*
X168083000Y-95062000D01*
X168063000Y-95062000D01*
X168063000Y-96020000D01*
X168463000Y-96020000D01*
X168672233Y-95974376D01*
X168868545Y-95888809D01*
X169044391Y-95766587D01*
X169193014Y-95612408D01*
X169308702Y-95432197D01*
X169340000Y-95343505D01*
X169340000Y-103176494D01*
X169308702Y-103087803D01*
X169193014Y-102907592D01*
X169044391Y-102753413D01*
X168868545Y-102631191D01*
X168672233Y-102545624D01*
X168463000Y-102500000D01*
X168063000Y-102500000D01*
X168063000Y-103458000D01*
X168083000Y-103458000D01*
X168083000Y-103712000D01*
X168063000Y-103712000D01*
X168063000Y-104670000D01*
X168463000Y-104670000D01*
X168672233Y-104624376D01*
X168868545Y-104538809D01*
X169044391Y-104416587D01*
X169193014Y-104262408D01*
X169308702Y-104082197D01*
X169340000Y-103993506D01*
X169340000Y-110340000D01*
X97660000Y-110340000D01*
X97660000Y-107773872D01*
X97729500Y-107773872D01*
X97729500Y-108214128D01*
X97815390Y-108645925D01*
X97983869Y-109052669D01*
X98228462Y-109418729D01*
X98539771Y-109730038D01*
X98905831Y-109974631D01*
X99312575Y-110143110D01*
X99744372Y-110229000D01*
X100184628Y-110229000D01*
X100616425Y-110143110D01*
X101023169Y-109974631D01*
X101389229Y-109730038D01*
X101700538Y-109418729D01*
X101945131Y-109052669D01*
X102113610Y-108645925D01*
X102199500Y-108214128D01*
X102199500Y-107773872D01*
X102113610Y-107342075D01*
X102031759Y-107144467D01*
X108319000Y-107144467D01*
X108319000Y-107466533D01*
X108381832Y-107782412D01*
X108505082Y-108079963D01*
X108684013Y-108347752D01*
X108911748Y-108575487D01*
X109179537Y-108754418D01*
X109477088Y-108877668D01*
X109792967Y-108940500D01*
X110115033Y-108940500D01*
X110430912Y-108877668D01*
X110728463Y-108754418D01*
X110996252Y-108575487D01*
X111223987Y-108347752D01*
X111402918Y-108079963D01*
X111526168Y-107782412D01*
X111589000Y-107466533D01*
X111589000Y-107144467D01*
X111526168Y-106828588D01*
X111402918Y-106531037D01*
X111223987Y-106263248D01*
X110996252Y-106035513D01*
X110728463Y-105856582D01*
X110430912Y-105733332D01*
X110115033Y-105670500D01*
X109792967Y-105670500D01*
X109477088Y-105733332D01*
X109179537Y-105856582D01*
X108911748Y-106035513D01*
X108684013Y-106263248D01*
X108505082Y-106531037D01*
X108381832Y-106828588D01*
X108319000Y-107144467D01*
X102031759Y-107144467D01*
X101945131Y-106935331D01*
X101700538Y-106569271D01*
X101389229Y-106257962D01*
X101023169Y-106013369D01*
X100616425Y-105844890D01*
X100184628Y-105759000D01*
X99744372Y-105759000D01*
X99312575Y-105844890D01*
X98905831Y-106013369D01*
X98539771Y-106257962D01*
X98228462Y-106569271D01*
X97983869Y-106935331D01*
X97815390Y-107342075D01*
X97729500Y-107773872D01*
X97660000Y-107773872D01*
X97660000Y-103622058D01*
X97728038Y-103704962D01*
X97862613Y-103815405D01*
X98016149Y-103897472D01*
X98182745Y-103948008D01*
X98355999Y-103965072D01*
X99256001Y-103965072D01*
X99429255Y-103948008D01*
X99595851Y-103897472D01*
X99749387Y-103815405D01*
X99883962Y-103704962D01*
X99994405Y-103570387D01*
X100076472Y-103416851D01*
X100127008Y-103250255D01*
X100144072Y-103077001D01*
X100144072Y-102426999D01*
X100127008Y-102253745D01*
X100076472Y-102087149D01*
X99994405Y-101933613D01*
X99883962Y-101799038D01*
X99844924Y-101767000D01*
X115567928Y-101767000D01*
X115580188Y-101891482D01*
X115616498Y-102011180D01*
X115675463Y-102121494D01*
X115754815Y-102218185D01*
X115851506Y-102297537D01*
X115961820Y-102356502D01*
X116081518Y-102392812D01*
X116206000Y-102405072D01*
X116570250Y-102402000D01*
X116729000Y-102243250D01*
X116729000Y-101094000D01*
X115729750Y-101094000D01*
X115571000Y-101252750D01*
X115567928Y-101767000D01*
X99844924Y-101767000D01*
X99796184Y-101727000D01*
X99883962Y-101654962D01*
X99994405Y-101520387D01*
X100076472Y-101366851D01*
X100127008Y-101200255D01*
X100144072Y-101027001D01*
X100144072Y-100376999D01*
X100127008Y-100203745D01*
X100115862Y-100167000D01*
X115567928Y-100167000D01*
X115571000Y-100681250D01*
X115729750Y-100840000D01*
X116729000Y-100840000D01*
X116729000Y-99690750D01*
X116704000Y-99665750D01*
X116704000Y-98806000D01*
X115779750Y-98806000D01*
X115621000Y-98964750D01*
X115617928Y-99379000D01*
X115630188Y-99503482D01*
X115666498Y-99623180D01*
X115725463Y-99733494D01*
X115732885Y-99742537D01*
X115675463Y-99812506D01*
X115616498Y-99922820D01*
X115580188Y-100042518D01*
X115567928Y-100167000D01*
X100115862Y-100167000D01*
X100076472Y-100037149D01*
X99994405Y-99883613D01*
X99883962Y-99749038D01*
X99749387Y-99638595D01*
X99595851Y-99556528D01*
X99566000Y-99547473D01*
X99566000Y-97979000D01*
X115617928Y-97979000D01*
X115621000Y-98393250D01*
X115779750Y-98552000D01*
X116704000Y-98552000D01*
X116704000Y-97502750D01*
X116545250Y-97344000D01*
X116256000Y-97340928D01*
X116131518Y-97353188D01*
X116011820Y-97389498D01*
X115901506Y-97448463D01*
X115804815Y-97527815D01*
X115725463Y-97624506D01*
X115666498Y-97734820D01*
X115630188Y-97854518D01*
X115617928Y-97979000D01*
X99566000Y-97979000D01*
X99566000Y-96531527D01*
X99595851Y-96522472D01*
X99749387Y-96440405D01*
X99883962Y-96329962D01*
X99994405Y-96195387D01*
X100076472Y-96041851D01*
X100127008Y-95875255D01*
X100144072Y-95702001D01*
X100144072Y-95051999D01*
X100127008Y-94878745D01*
X100076472Y-94712149D01*
X99994405Y-94558613D01*
X99883962Y-94424038D01*
X99796184Y-94352000D01*
X99883962Y-94279962D01*
X99994405Y-94145387D01*
X100076472Y-93991851D01*
X100127008Y-93825255D01*
X100144072Y-93652001D01*
X100144072Y-93001999D01*
X100127008Y-92828745D01*
X100076472Y-92662149D01*
X99994405Y-92508613D01*
X99883962Y-92374038D01*
X99749387Y-92263595D01*
X99595851Y-92181528D01*
X99566000Y-92172473D01*
X99566000Y-89936527D01*
X99595851Y-89927472D01*
X99749387Y-89845405D01*
X99883962Y-89734962D01*
X99994405Y-89600387D01*
X100076472Y-89446851D01*
X100127008Y-89280255D01*
X100144072Y-89107001D01*
X100144072Y-88456999D01*
X100127008Y-88283745D01*
X100076472Y-88117149D01*
X99994405Y-87963613D01*
X99883962Y-87829038D01*
X99796184Y-87757000D01*
X99883962Y-87684962D01*
X99994405Y-87550387D01*
X100025614Y-87492000D01*
X105649793Y-87492000D01*
X105702730Y-87544937D01*
X105872248Y-87658205D01*
X106060606Y-87736226D01*
X106260565Y-87776000D01*
X106464443Y-87776000D01*
X106664402Y-87736226D01*
X106852760Y-87658205D01*
X107022278Y-87544937D01*
X107166441Y-87400774D01*
X107279709Y-87231256D01*
X107357730Y-87042898D01*
X107397504Y-86842939D01*
X107397504Y-86639061D01*
X107357730Y-86439102D01*
X107279709Y-86250744D01*
X107166441Y-86081226D01*
X107022278Y-85937063D01*
X106852760Y-85823795D01*
X106664402Y-85745774D01*
X106464443Y-85706000D01*
X106260565Y-85706000D01*
X106060606Y-85745774D01*
X105872248Y-85823795D01*
X105702730Y-85937063D01*
X105667793Y-85972000D01*
X100025614Y-85972000D01*
X99994405Y-85913613D01*
X99883962Y-85779038D01*
X99749387Y-85668595D01*
X99595851Y-85586528D01*
X99429255Y-85535992D01*
X99256001Y-85518928D01*
X98355999Y-85518928D01*
X98182745Y-85535992D01*
X98016149Y-85586528D01*
X97862613Y-85668595D01*
X97728038Y-85779038D01*
X97660000Y-85861942D01*
X97660000Y-85401999D01*
X112315928Y-85401999D01*
X112315928Y-86302001D01*
X112332992Y-86475255D01*
X112383528Y-86641851D01*
X112465595Y-86795387D01*
X112525187Y-86868000D01*
X112465595Y-86940613D01*
X112383528Y-87094149D01*
X112332992Y-87260745D01*
X112315928Y-87433999D01*
X112315928Y-88334001D01*
X112332992Y-88507255D01*
X112383528Y-88673851D01*
X112465595Y-88827387D01*
X112576038Y-88961962D01*
X112710613Y-89072405D01*
X112864149Y-89154472D01*
X113030745Y-89205008D01*
X113203999Y-89222072D01*
X113854001Y-89222072D01*
X114027255Y-89205008D01*
X114193851Y-89154472D01*
X114347387Y-89072405D01*
X114481962Y-88961962D01*
X114554000Y-88874184D01*
X114626038Y-88961962D01*
X114760613Y-89072405D01*
X114914149Y-89154472D01*
X115080745Y-89205008D01*
X115253999Y-89222072D01*
X115904001Y-89222072D01*
X116077255Y-89205008D01*
X116243851Y-89154472D01*
X116397387Y-89072405D01*
X116531962Y-88961962D01*
X116642405Y-88827387D01*
X116724472Y-88673851D01*
X116775008Y-88507255D01*
X116792072Y-88334001D01*
X116792072Y-88088372D01*
X117097002Y-87783442D01*
X117126001Y-87759643D01*
X117206134Y-87662001D01*
X117220974Y-87643919D01*
X117291546Y-87511889D01*
X117300915Y-87481003D01*
X117335003Y-87368628D01*
X117346000Y-87256975D01*
X117346000Y-87256966D01*
X117349676Y-87219643D01*
X117346000Y-87182320D01*
X117346000Y-86547801D01*
X117408802Y-86485000D01*
X119314198Y-86485000D01*
X119126270Y-86672928D01*
X118537999Y-86672928D01*
X118364745Y-86689992D01*
X118198149Y-86740528D01*
X118044613Y-86822595D01*
X117910038Y-86933038D01*
X117799595Y-87067613D01*
X117717528Y-87221149D01*
X117666992Y-87387745D01*
X117649928Y-87560999D01*
X117649928Y-88461001D01*
X117666992Y-88634255D01*
X117717528Y-88800851D01*
X117799595Y-88954387D01*
X117910038Y-89088962D01*
X117911912Y-89090500D01*
X117910038Y-89092038D01*
X117799595Y-89226613D01*
X117717528Y-89380149D01*
X117666992Y-89546745D01*
X117649928Y-89719999D01*
X117649928Y-90620001D01*
X117666992Y-90793255D01*
X117717528Y-90959851D01*
X117799595Y-91113387D01*
X117910038Y-91247962D01*
X118044613Y-91358405D01*
X118198149Y-91440472D01*
X118364745Y-91491008D01*
X118537999Y-91508072D01*
X119126270Y-91508072D01*
X119324211Y-91706013D01*
X119348009Y-91735011D01*
X119377007Y-91758809D01*
X119463733Y-91829984D01*
X119575148Y-91889537D01*
X119595763Y-91900556D01*
X119739024Y-91944013D01*
X119850677Y-91955010D01*
X119850686Y-91955010D01*
X119888009Y-91958686D01*
X119925332Y-91955010D01*
X122060513Y-91955010D01*
X122149255Y-91981929D01*
X122303000Y-91997072D01*
X123753000Y-91997072D01*
X123763500Y-91996038D01*
X123763500Y-93728698D01*
X122743998Y-94748201D01*
X122715000Y-94771999D01*
X122691202Y-94800997D01*
X122691201Y-94800998D01*
X122620026Y-94887724D01*
X122549454Y-95019754D01*
X122528938Y-95087389D01*
X122505998Y-95163014D01*
X122503389Y-95189502D01*
X122491324Y-95312000D01*
X122495001Y-95349332D01*
X122495001Y-95835928D01*
X122430000Y-95835928D01*
X122276255Y-95851071D01*
X122128418Y-95895916D01*
X121992171Y-95968742D01*
X121872749Y-96066749D01*
X121774742Y-96186171D01*
X121701916Y-96322418D01*
X121657071Y-96470255D01*
X121641928Y-96624000D01*
X121641928Y-96924000D01*
X121642959Y-96934470D01*
X121027997Y-97549433D01*
X120999000Y-97573231D01*
X120975202Y-97602229D01*
X120975201Y-97602230D01*
X120904026Y-97688956D01*
X120833454Y-97820986D01*
X120809888Y-97898676D01*
X120794623Y-97949001D01*
X120789998Y-97964247D01*
X120775324Y-98113232D01*
X120779001Y-98150564D01*
X120779000Y-99805677D01*
X120775324Y-99843000D01*
X120779000Y-99880322D01*
X120779000Y-99880332D01*
X120789997Y-99991985D01*
X120828604Y-100119258D01*
X120833454Y-100135246D01*
X120904026Y-100267276D01*
X120927865Y-100296323D01*
X120998999Y-100383001D01*
X121028002Y-100406803D01*
X121716201Y-101095002D01*
X121739999Y-101124001D01*
X121756350Y-101137420D01*
X121774742Y-101171829D01*
X121813454Y-101219000D01*
X121774742Y-101266171D01*
X121701916Y-101402418D01*
X121657071Y-101550255D01*
X121641928Y-101704000D01*
X121641928Y-102004000D01*
X121657071Y-102157745D01*
X121701916Y-102305582D01*
X121733141Y-102364000D01*
X121327802Y-102364000D01*
X120144072Y-101180271D01*
X120144072Y-100167000D01*
X120131812Y-100042518D01*
X120095502Y-99922820D01*
X120036537Y-99812506D01*
X119957185Y-99715815D01*
X119903732Y-99671947D01*
X119944405Y-99622387D01*
X120026472Y-99468851D01*
X120077008Y-99302255D01*
X120094072Y-99129001D01*
X120094072Y-98228999D01*
X120077008Y-98055745D01*
X120026472Y-97889149D01*
X119944405Y-97735613D01*
X119833962Y-97601038D01*
X119699387Y-97490595D01*
X119545851Y-97408528D01*
X119379255Y-97357992D01*
X119206001Y-97340928D01*
X118555999Y-97340928D01*
X118382745Y-97357992D01*
X118216149Y-97408528D01*
X118062613Y-97490595D01*
X117928038Y-97601038D01*
X117922658Y-97607594D01*
X117857185Y-97527815D01*
X117760494Y-97448463D01*
X117650180Y-97389498D01*
X117530482Y-97353188D01*
X117406000Y-97340928D01*
X117116750Y-97344000D01*
X116958000Y-97502750D01*
X116958000Y-98552000D01*
X116978000Y-98552000D01*
X116978000Y-98806000D01*
X116958000Y-98806000D01*
X116958000Y-99855250D01*
X116983000Y-99880250D01*
X116983000Y-100840000D01*
X117003000Y-100840000D01*
X117003000Y-101094000D01*
X116983000Y-101094000D01*
X116983000Y-102243250D01*
X117141750Y-102402000D01*
X117506000Y-102405072D01*
X117630482Y-102392812D01*
X117750180Y-102356502D01*
X117856000Y-102299939D01*
X117895198Y-102320891D01*
X117764744Y-102360463D01*
X117632715Y-102431035D01*
X117516990Y-102526008D01*
X117493192Y-102555006D01*
X117219270Y-102828928D01*
X116206000Y-102828928D01*
X116081518Y-102841188D01*
X115961820Y-102877498D01*
X115851506Y-102936463D01*
X115754815Y-103015815D01*
X115675463Y-103112506D01*
X115616498Y-103222820D01*
X115580188Y-103342518D01*
X115567928Y-103467000D01*
X115567928Y-105067000D01*
X115580188Y-105191482D01*
X115616498Y-105311180D01*
X115675463Y-105421494D01*
X115754815Y-105518185D01*
X115807287Y-105561248D01*
X115767595Y-105609613D01*
X115685528Y-105763149D01*
X115634992Y-105929745D01*
X115617928Y-106102999D01*
X115617928Y-107003001D01*
X115634992Y-107176255D01*
X115685528Y-107342851D01*
X115767595Y-107496387D01*
X115878038Y-107630962D01*
X116012613Y-107741405D01*
X116166149Y-107823472D01*
X116332745Y-107874008D01*
X116505999Y-107891072D01*
X117156001Y-107891072D01*
X117329255Y-107874008D01*
X117495851Y-107823472D01*
X117649387Y-107741405D01*
X117783962Y-107630962D01*
X117789342Y-107624406D01*
X117854815Y-107704185D01*
X117951506Y-107783537D01*
X118061820Y-107842502D01*
X118181518Y-107878812D01*
X118306000Y-107891072D01*
X118595250Y-107888000D01*
X118754000Y-107729250D01*
X118754000Y-106680000D01*
X119008000Y-106680000D01*
X119008000Y-107729250D01*
X119166750Y-107888000D01*
X119456000Y-107891072D01*
X119580482Y-107878812D01*
X119700180Y-107842502D01*
X119810494Y-107783537D01*
X119907185Y-107704185D01*
X119986537Y-107607494D01*
X120045502Y-107497180D01*
X120081812Y-107377482D01*
X120094072Y-107253000D01*
X120091000Y-106838750D01*
X119932250Y-106680000D01*
X119008000Y-106680000D01*
X118754000Y-106680000D01*
X118734000Y-106680000D01*
X118734000Y-106426000D01*
X118754000Y-106426000D01*
X118754000Y-105376750D01*
X118729000Y-105351750D01*
X118729000Y-104394000D01*
X118709000Y-104394000D01*
X118709000Y-104140000D01*
X118729000Y-104140000D01*
X118729000Y-104120000D01*
X118983000Y-104120000D01*
X118983000Y-104140000D01*
X119003000Y-104140000D01*
X119003000Y-104394000D01*
X118983000Y-104394000D01*
X118983000Y-105543250D01*
X119008000Y-105568250D01*
X119008000Y-106426000D01*
X119932250Y-106426000D01*
X120091000Y-106267250D01*
X120094072Y-105853000D01*
X120081812Y-105728518D01*
X120045502Y-105608820D01*
X119986537Y-105498506D01*
X119979936Y-105490463D01*
X120036537Y-105421494D01*
X120095502Y-105311180D01*
X120131812Y-105191482D01*
X120144072Y-105067000D01*
X120141000Y-104552750D01*
X119982252Y-104394002D01*
X120141000Y-104394002D01*
X120141000Y-104323809D01*
X120214324Y-104383984D01*
X120346353Y-104454556D01*
X120489614Y-104498013D01*
X120601267Y-104509010D01*
X120601276Y-104509010D01*
X120638599Y-104512686D01*
X120675922Y-104509010D01*
X121641928Y-104509010D01*
X121641928Y-104544000D01*
X121657071Y-104697745D01*
X121701916Y-104845582D01*
X121774742Y-104981829D01*
X121872749Y-105101251D01*
X121932874Y-105150594D01*
X121847038Y-105221038D01*
X121736595Y-105355613D01*
X121654528Y-105509149D01*
X121603992Y-105675745D01*
X121586928Y-105848999D01*
X121586928Y-106749001D01*
X121603992Y-106922255D01*
X121654528Y-107088851D01*
X121736595Y-107242387D01*
X121796187Y-107315000D01*
X121736595Y-107387613D01*
X121654528Y-107541149D01*
X121603992Y-107707745D01*
X121586928Y-107880999D01*
X121586928Y-108781001D01*
X121603992Y-108954255D01*
X121654528Y-109120851D01*
X121736595Y-109274387D01*
X121847038Y-109408962D01*
X121981613Y-109519405D01*
X122135149Y-109601472D01*
X122301745Y-109652008D01*
X122474999Y-109669072D01*
X123063270Y-109669072D01*
X123379201Y-109985003D01*
X123402999Y-110014001D01*
X123431997Y-110037799D01*
X123518723Y-110108974D01*
X123582587Y-110143110D01*
X123650753Y-110179546D01*
X123794014Y-110223003D01*
X123905667Y-110234000D01*
X123905676Y-110234000D01*
X123942999Y-110237676D01*
X123980322Y-110234000D01*
X133185678Y-110234000D01*
X133223000Y-110237676D01*
X133260322Y-110234000D01*
X133260333Y-110234000D01*
X133371986Y-110223003D01*
X133515247Y-110179546D01*
X133647276Y-110108974D01*
X133763001Y-110014001D01*
X133786804Y-109984997D01*
X135548802Y-108223000D01*
X135610939Y-108223000D01*
X135810898Y-108183226D01*
X135999256Y-108105205D01*
X136168774Y-107991937D01*
X136312937Y-107847774D01*
X136426205Y-107678256D01*
X136504226Y-107489898D01*
X136544000Y-107289939D01*
X136544000Y-107086061D01*
X136504226Y-106886102D01*
X136426205Y-106697744D01*
X136312937Y-106528226D01*
X136168774Y-106384063D01*
X135999256Y-106270795D01*
X135810898Y-106192774D01*
X135610939Y-106153000D01*
X135407061Y-106153000D01*
X135207102Y-106192774D01*
X135018744Y-106270795D01*
X134862568Y-106375148D01*
X134723987Y-106167748D01*
X134537427Y-105981188D01*
X134650985Y-105970003D01*
X134794246Y-105926546D01*
X134828112Y-105908444D01*
X134839724Y-105917974D01*
X134971753Y-105988546D01*
X135115014Y-106032003D01*
X135226667Y-106043000D01*
X135226675Y-106043000D01*
X135264000Y-106046676D01*
X135301325Y-106043000D01*
X138776214Y-106043000D01*
X138764647Y-106070926D01*
X138709500Y-106348165D01*
X138709500Y-106630835D01*
X138764647Y-106908074D01*
X138872820Y-107169227D01*
X139029863Y-107404259D01*
X139229741Y-107604137D01*
X139464773Y-107761180D01*
X139725926Y-107869353D01*
X140003165Y-107924500D01*
X140285835Y-107924500D01*
X140563074Y-107869353D01*
X140824227Y-107761180D01*
X141059259Y-107604137D01*
X141259137Y-107404259D01*
X141416180Y-107169227D01*
X141524353Y-106908074D01*
X141579500Y-106630835D01*
X141579500Y-106348165D01*
X141524353Y-106070926D01*
X141512786Y-106043000D01*
X146326428Y-106043000D01*
X146326428Y-107289500D01*
X146338688Y-107413982D01*
X146374998Y-107533680D01*
X146433963Y-107643994D01*
X146513315Y-107740685D01*
X146610006Y-107820037D01*
X146720320Y-107879002D01*
X146840018Y-107915312D01*
X146964500Y-107927572D01*
X148564500Y-107927572D01*
X148688982Y-107915312D01*
X148808680Y-107879002D01*
X148918994Y-107820037D01*
X149015685Y-107740685D01*
X149095037Y-107643994D01*
X149154002Y-107533680D01*
X149190312Y-107413982D01*
X149202572Y-107289500D01*
X149202572Y-106126230D01*
X149400504Y-105928298D01*
X149429502Y-105904500D01*
X149524475Y-105788775D01*
X149595047Y-105656746D01*
X149638504Y-105513485D01*
X149649501Y-105401832D01*
X149649501Y-105401824D01*
X149653177Y-105364499D01*
X149649501Y-105327174D01*
X149649501Y-98039500D01*
X151229428Y-98039500D01*
X151229428Y-99739500D01*
X151241688Y-99863982D01*
X151277998Y-99983680D01*
X151336963Y-100093994D01*
X151416315Y-100190685D01*
X151513006Y-100270037D01*
X151623320Y-100329002D01*
X151695880Y-100351013D01*
X151564025Y-100482868D01*
X151401510Y-100726089D01*
X151289568Y-100996342D01*
X151232500Y-101283240D01*
X151232500Y-101575760D01*
X151289568Y-101862658D01*
X151401510Y-102132911D01*
X151564025Y-102376132D01*
X151770868Y-102582975D01*
X151945260Y-102699500D01*
X151770868Y-102816025D01*
X151564025Y-103022868D01*
X151401510Y-103266089D01*
X151289568Y-103536342D01*
X151232500Y-103823240D01*
X151232500Y-104115760D01*
X151289568Y-104402658D01*
X151401510Y-104672911D01*
X151564025Y-104916132D01*
X151770868Y-105122975D01*
X151945260Y-105239500D01*
X151770868Y-105356025D01*
X151564025Y-105562868D01*
X151401510Y-105806089D01*
X151289568Y-106076342D01*
X151232500Y-106363240D01*
X151232500Y-106655760D01*
X151289568Y-106942658D01*
X151401510Y-107212911D01*
X151564025Y-107456132D01*
X151770868Y-107662975D01*
X152014089Y-107825490D01*
X152284342Y-107937432D01*
X152571240Y-107994500D01*
X152863760Y-107994500D01*
X153150658Y-107937432D01*
X153420911Y-107825490D01*
X153664132Y-107662975D01*
X153870975Y-107456132D01*
X154033490Y-107212911D01*
X154145432Y-106942658D01*
X154202500Y-106655760D01*
X154202500Y-106363240D01*
X154145432Y-106076342D01*
X154033490Y-105806089D01*
X153922179Y-105639500D01*
X158849428Y-105639500D01*
X158849428Y-107339500D01*
X158861688Y-107463982D01*
X158897998Y-107583680D01*
X158956963Y-107693994D01*
X159036315Y-107790685D01*
X159133006Y-107870037D01*
X159243320Y-107929002D01*
X159363018Y-107965312D01*
X159487500Y-107977572D01*
X161187500Y-107977572D01*
X161311982Y-107965312D01*
X161431680Y-107929002D01*
X161541994Y-107870037D01*
X161638685Y-107790685D01*
X161652483Y-107773872D01*
X164729500Y-107773872D01*
X164729500Y-108214128D01*
X164815390Y-108645925D01*
X164983869Y-109052669D01*
X165228462Y-109418729D01*
X165539771Y-109730038D01*
X165905831Y-109974631D01*
X166312575Y-110143110D01*
X166744372Y-110229000D01*
X167184628Y-110229000D01*
X167616425Y-110143110D01*
X168023169Y-109974631D01*
X168389229Y-109730038D01*
X168700538Y-109418729D01*
X168945131Y-109052669D01*
X169113610Y-108645925D01*
X169199500Y-108214128D01*
X169199500Y-107773872D01*
X169113610Y-107342075D01*
X168945131Y-106935331D01*
X168700538Y-106569271D01*
X168389229Y-106257962D01*
X168023169Y-106013369D01*
X167616425Y-105844890D01*
X167184628Y-105759000D01*
X166744372Y-105759000D01*
X166312575Y-105844890D01*
X165905831Y-106013369D01*
X165539771Y-106257962D01*
X165228462Y-106569271D01*
X164983869Y-106935331D01*
X164815390Y-107342075D01*
X164729500Y-107773872D01*
X161652483Y-107773872D01*
X161718037Y-107693994D01*
X161777002Y-107583680D01*
X161813312Y-107463982D01*
X161825572Y-107339500D01*
X161825572Y-105639500D01*
X161813312Y-105515018D01*
X161777002Y-105395320D01*
X161718037Y-105285006D01*
X161638685Y-105188315D01*
X161541994Y-105108963D01*
X161431680Y-105049998D01*
X161359120Y-105027987D01*
X161490975Y-104896132D01*
X161653490Y-104652911D01*
X161765432Y-104382658D01*
X161822500Y-104095760D01*
X161822500Y-103879001D01*
X162761592Y-103879001D01*
X162833298Y-104082197D01*
X162948986Y-104262408D01*
X163097609Y-104416587D01*
X163273455Y-104538809D01*
X163469767Y-104624376D01*
X163679000Y-104670000D01*
X164429000Y-104670000D01*
X164429000Y-103712000D01*
X164683000Y-103712000D01*
X164683000Y-104670000D01*
X165433000Y-104670000D01*
X165642233Y-104624376D01*
X165838545Y-104538809D01*
X166014391Y-104416587D01*
X166163014Y-104262408D01*
X166278702Y-104082197D01*
X166350408Y-103879001D01*
X166491592Y-103879001D01*
X166563298Y-104082197D01*
X166678986Y-104262408D01*
X166827609Y-104416587D01*
X167003455Y-104538809D01*
X167199767Y-104624376D01*
X167409000Y-104670000D01*
X167809000Y-104670000D01*
X167809000Y-103712000D01*
X166618498Y-103712000D01*
X166491592Y-103879001D01*
X166350408Y-103879001D01*
X166223502Y-103712000D01*
X164683000Y-103712000D01*
X164429000Y-103712000D01*
X162888498Y-103712000D01*
X162761592Y-103879001D01*
X161822500Y-103879001D01*
X161822500Y-103803240D01*
X161765432Y-103516342D01*
X161653490Y-103246089D01*
X161490975Y-103002868D01*
X161284132Y-102796025D01*
X161109740Y-102679500D01*
X161284132Y-102562975D01*
X161490975Y-102356132D01*
X161653490Y-102112911D01*
X161765432Y-101842658D01*
X161822500Y-101555760D01*
X161822500Y-101263240D01*
X161765432Y-100976342D01*
X161653490Y-100706089D01*
X161490975Y-100462868D01*
X161284132Y-100256025D01*
X161101966Y-100134305D01*
X161218855Y-100064678D01*
X161435088Y-99869769D01*
X161609141Y-99636420D01*
X161734325Y-99373599D01*
X161778976Y-99226390D01*
X161657655Y-98996500D01*
X160464500Y-98996500D01*
X160464500Y-99016500D01*
X160210500Y-99016500D01*
X160210500Y-98996500D01*
X159017345Y-98996500D01*
X158896024Y-99226390D01*
X158940675Y-99373599D01*
X159065859Y-99636420D01*
X159239912Y-99869769D01*
X159456145Y-100064678D01*
X159573034Y-100134305D01*
X159390868Y-100256025D01*
X159184025Y-100462868D01*
X159021510Y-100706089D01*
X158909568Y-100976342D01*
X158852500Y-101263240D01*
X158852500Y-101555760D01*
X158909568Y-101842658D01*
X159021510Y-102112911D01*
X159184025Y-102356132D01*
X159390868Y-102562975D01*
X159565260Y-102679500D01*
X159390868Y-102796025D01*
X159184025Y-103002868D01*
X159021510Y-103246089D01*
X158909568Y-103516342D01*
X158852500Y-103803240D01*
X158852500Y-104095760D01*
X158909568Y-104382658D01*
X159021510Y-104652911D01*
X159184025Y-104896132D01*
X159315880Y-105027987D01*
X159243320Y-105049998D01*
X159133006Y-105108963D01*
X159036315Y-105188315D01*
X158956963Y-105285006D01*
X158897998Y-105395320D01*
X158861688Y-105515018D01*
X158849428Y-105639500D01*
X153922179Y-105639500D01*
X153870975Y-105562868D01*
X153664132Y-105356025D01*
X153489740Y-105239500D01*
X153664132Y-105122975D01*
X153870975Y-104916132D01*
X154033490Y-104672911D01*
X154145432Y-104402658D01*
X154202500Y-104115760D01*
X154202500Y-103823240D01*
X154145432Y-103536342D01*
X154033490Y-103266089D01*
X153870975Y-103022868D01*
X153664132Y-102816025D01*
X153489740Y-102699500D01*
X153664132Y-102582975D01*
X153870975Y-102376132D01*
X154033490Y-102132911D01*
X154145432Y-101862658D01*
X154202500Y-101575760D01*
X154202500Y-101283240D01*
X154145432Y-100996342D01*
X154033490Y-100726089D01*
X153870975Y-100482868D01*
X153739120Y-100351013D01*
X153811680Y-100329002D01*
X153921994Y-100270037D01*
X154018685Y-100190685D01*
X154098037Y-100093994D01*
X154157002Y-99983680D01*
X154193312Y-99863982D01*
X154205572Y-99739500D01*
X154205572Y-98039500D01*
X154193312Y-97915018D01*
X154157002Y-97795320D01*
X154098037Y-97685006D01*
X154018685Y-97588315D01*
X153921994Y-97508963D01*
X153811680Y-97449998D01*
X153691982Y-97413688D01*
X153567500Y-97401428D01*
X151867500Y-97401428D01*
X151743018Y-97413688D01*
X151623320Y-97449998D01*
X151513006Y-97508963D01*
X151416315Y-97588315D01*
X151336963Y-97685006D01*
X151277998Y-97795320D01*
X151241688Y-97915018D01*
X151229428Y-98039500D01*
X149649501Y-98039500D01*
X149649501Y-95158324D01*
X149653177Y-95121001D01*
X149649501Y-95083678D01*
X149649501Y-95083668D01*
X149638504Y-94972015D01*
X149595047Y-94828754D01*
X149569222Y-94780439D01*
X149524475Y-94696724D01*
X149482000Y-94644969D01*
X149482000Y-94576561D01*
X149442226Y-94376602D01*
X149364205Y-94188244D01*
X149250937Y-94018726D01*
X149106774Y-93874563D01*
X148937256Y-93761295D01*
X148748898Y-93683274D01*
X148548939Y-93643500D01*
X148345061Y-93643500D01*
X148145102Y-93683274D01*
X147956744Y-93761295D01*
X147832572Y-93844264D01*
X147832572Y-93328499D01*
X147815508Y-93155245D01*
X147764972Y-92988649D01*
X147710041Y-92885880D01*
X155423298Y-92885880D01*
X155460620Y-92889556D01*
X155497942Y-92885880D01*
X155497953Y-92885880D01*
X155609606Y-92874883D01*
X155752867Y-92831426D01*
X155884896Y-92760854D01*
X156000621Y-92665881D01*
X156024423Y-92636878D01*
X157667803Y-90993500D01*
X158752699Y-90993500D01*
X158942501Y-91183302D01*
X158942500Y-91974177D01*
X158938824Y-92011500D01*
X158942500Y-92048822D01*
X158942500Y-92048832D01*
X158953497Y-92160485D01*
X158989142Y-92277992D01*
X158996954Y-92303746D01*
X159067526Y-92435776D01*
X159107371Y-92484326D01*
X159162499Y-92551501D01*
X159191502Y-92575303D01*
X159895001Y-93278803D01*
X159895001Y-94800288D01*
X159851063Y-94844226D01*
X159737795Y-95013744D01*
X159659774Y-95202102D01*
X159620000Y-95402061D01*
X159620000Y-95605939D01*
X159659774Y-95805898D01*
X159737795Y-95994256D01*
X159851063Y-96163774D01*
X159895000Y-96207711D01*
X159895000Y-96673177D01*
X159891324Y-96710500D01*
X159895000Y-96747822D01*
X159895000Y-96747832D01*
X159905997Y-96859485D01*
X159947018Y-96994714D01*
X159949454Y-97002746D01*
X160020026Y-97134776D01*
X160059481Y-97182851D01*
X160114999Y-97250501D01*
X160144003Y-97274304D01*
X160254199Y-97384500D01*
X160210498Y-97384500D01*
X160210498Y-97548685D01*
X159980609Y-97428019D01*
X159706248Y-97525343D01*
X159456145Y-97674322D01*
X159239912Y-97869231D01*
X159065859Y-98102580D01*
X158940675Y-98365401D01*
X158896024Y-98512610D01*
X159017345Y-98742500D01*
X160210500Y-98742500D01*
X160210500Y-98722500D01*
X160464500Y-98722500D01*
X160464500Y-98742500D01*
X161657655Y-98742500D01*
X161778976Y-98512610D01*
X161734325Y-98365401D01*
X161609141Y-98102580D01*
X161454309Y-97895000D01*
X162591000Y-97895000D01*
X162591000Y-98082014D01*
X162628853Y-98272314D01*
X162685884Y-98410000D01*
X162628853Y-98547686D01*
X162591000Y-98737986D01*
X162591000Y-98932014D01*
X162628853Y-99122314D01*
X162685884Y-99260000D01*
X162628853Y-99397686D01*
X162591000Y-99587986D01*
X162591000Y-99782014D01*
X162628853Y-99972314D01*
X162685884Y-100110000D01*
X162628853Y-100247686D01*
X162591000Y-100437986D01*
X162591000Y-100632014D01*
X162628853Y-100822314D01*
X162685884Y-100960000D01*
X162628853Y-101097686D01*
X162591000Y-101287986D01*
X162591000Y-101482014D01*
X162628853Y-101672314D01*
X162686109Y-101810542D01*
X162631411Y-101939384D01*
X162591890Y-102129344D01*
X162590187Y-102323364D01*
X162626368Y-102513989D01*
X162699043Y-102693893D01*
X162707233Y-102709216D01*
X162905483Y-102725912D01*
X163297496Y-102333899D01*
X163478986Y-102370000D01*
X163648890Y-102370000D01*
X163590143Y-102428748D01*
X163576000Y-102414605D01*
X163425830Y-102564775D01*
X163273455Y-102631191D01*
X163097609Y-102753413D01*
X162948986Y-102907592D01*
X162833298Y-103087803D01*
X162761592Y-103290999D01*
X162888498Y-103458000D01*
X164429000Y-103458000D01*
X164429000Y-102911608D01*
X164435088Y-102905520D01*
X164451784Y-103103767D01*
X164630384Y-103179589D01*
X164683000Y-103190536D01*
X164683000Y-103458000D01*
X166223502Y-103458000D01*
X166350408Y-103290999D01*
X166491592Y-103290999D01*
X166618498Y-103458000D01*
X167809000Y-103458000D01*
X167809000Y-102500000D01*
X167409000Y-102500000D01*
X167199767Y-102545624D01*
X167003455Y-102631191D01*
X166827609Y-102753413D01*
X166678986Y-102907592D01*
X166563298Y-103087803D01*
X166491592Y-103290999D01*
X166350408Y-103290999D01*
X166278702Y-103087803D01*
X166163014Y-102907592D01*
X166014391Y-102753413D01*
X165838545Y-102631191D01*
X165829555Y-102627272D01*
X165870589Y-102530616D01*
X165910110Y-102340656D01*
X165911813Y-102146636D01*
X165875632Y-101956011D01*
X165816385Y-101809349D01*
X165873147Y-101672314D01*
X165911000Y-101482014D01*
X165911000Y-101287986D01*
X165873147Y-101097686D01*
X165816116Y-100960000D01*
X165873147Y-100822314D01*
X165911000Y-100632014D01*
X165911000Y-100437986D01*
X165873147Y-100247686D01*
X165816116Y-100110000D01*
X165873147Y-99972314D01*
X165911000Y-99782014D01*
X165911000Y-99587986D01*
X165873147Y-99397686D01*
X165816116Y-99260000D01*
X165873147Y-99122314D01*
X165911000Y-98932014D01*
X165911000Y-98737986D01*
X165873147Y-98547686D01*
X165816116Y-98410000D01*
X165873147Y-98272314D01*
X165911000Y-98082014D01*
X165911000Y-97887986D01*
X165873147Y-97697686D01*
X165816116Y-97560000D01*
X165873147Y-97422314D01*
X165911000Y-97232014D01*
X165911000Y-97037986D01*
X165873147Y-96847686D01*
X165815891Y-96709458D01*
X165870589Y-96580616D01*
X165910110Y-96390656D01*
X165911813Y-96196636D01*
X165875632Y-96006011D01*
X165829822Y-95892611D01*
X165838545Y-95888809D01*
X166014391Y-95766587D01*
X166163014Y-95612408D01*
X166278702Y-95432197D01*
X166350408Y-95229001D01*
X166491592Y-95229001D01*
X166563298Y-95432197D01*
X166678986Y-95612408D01*
X166827609Y-95766587D01*
X167003455Y-95888809D01*
X167199767Y-95974376D01*
X167409000Y-96020000D01*
X167809000Y-96020000D01*
X167809000Y-95062000D01*
X166618498Y-95062000D01*
X166491592Y-95229001D01*
X166350408Y-95229001D01*
X166223502Y-95062000D01*
X164683000Y-95062000D01*
X164683000Y-95328537D01*
X164647011Y-95335368D01*
X164467107Y-95408043D01*
X164451784Y-95416233D01*
X164435088Y-95614480D01*
X164429000Y-95608392D01*
X164429000Y-95062000D01*
X162888498Y-95062000D01*
X162761592Y-95229001D01*
X162833298Y-95432197D01*
X162948986Y-95612408D01*
X163097609Y-95766587D01*
X163273455Y-95888809D01*
X163425830Y-95955225D01*
X163576000Y-96105395D01*
X163590143Y-96091253D01*
X163648890Y-96150000D01*
X163478986Y-96150000D01*
X163297496Y-96186101D01*
X162905483Y-95794088D01*
X162707233Y-95810784D01*
X162631411Y-95989384D01*
X162591890Y-96179344D01*
X162590187Y-96373364D01*
X162590498Y-96375000D01*
X161415000Y-96375000D01*
X161415000Y-96207711D01*
X161458937Y-96163774D01*
X161572205Y-95994256D01*
X161650226Y-95805898D01*
X161690000Y-95605939D01*
X161690000Y-95402061D01*
X161650226Y-95202102D01*
X161572205Y-95013744D01*
X161458937Y-94844226D01*
X161415000Y-94800289D01*
X161415000Y-94640999D01*
X162761592Y-94640999D01*
X162888498Y-94808000D01*
X164429000Y-94808000D01*
X164429000Y-93850000D01*
X164683000Y-93850000D01*
X164683000Y-94808000D01*
X166223502Y-94808000D01*
X166350408Y-94640999D01*
X166491592Y-94640999D01*
X166618498Y-94808000D01*
X167809000Y-94808000D01*
X167809000Y-93850000D01*
X167409000Y-93850000D01*
X167199767Y-93895624D01*
X167003455Y-93981191D01*
X166827609Y-94103413D01*
X166678986Y-94257592D01*
X166563298Y-94437803D01*
X166491592Y-94640999D01*
X166350408Y-94640999D01*
X166278702Y-94437803D01*
X166163014Y-94257592D01*
X166014391Y-94103413D01*
X165838545Y-93981191D01*
X165642233Y-93895624D01*
X165433000Y-93850000D01*
X164683000Y-93850000D01*
X164429000Y-93850000D01*
X163679000Y-93850000D01*
X163469767Y-93895624D01*
X163273455Y-93981191D01*
X163097609Y-94103413D01*
X162948986Y-94257592D01*
X162833298Y-94437803D01*
X162761592Y-94640999D01*
X161415000Y-94640999D01*
X161415000Y-93175000D01*
X161460883Y-93175000D01*
X161796081Y-93108325D01*
X162111831Y-92977537D01*
X162395998Y-92787663D01*
X162637663Y-92545998D01*
X162827537Y-92261831D01*
X162958325Y-91946081D01*
X163025000Y-91610883D01*
X163025000Y-91269117D01*
X162958325Y-90933919D01*
X162827537Y-90618169D01*
X162637663Y-90334002D01*
X162395998Y-90092337D01*
X162111831Y-89902463D01*
X161796081Y-89771675D01*
X161460883Y-89705000D01*
X161119117Y-89705000D01*
X160783919Y-89771675D01*
X160468169Y-89902463D01*
X160184002Y-90092337D01*
X160092570Y-90183769D01*
X159762007Y-89853206D01*
X160023004Y-89592209D01*
X160052001Y-89568412D01*
X160146974Y-89452687D01*
X160217546Y-89320658D01*
X160261003Y-89177397D01*
X160272000Y-89065744D01*
X160272000Y-89065736D01*
X160275676Y-89028411D01*
X160272000Y-88991086D01*
X160272000Y-85420323D01*
X160275676Y-85382998D01*
X160272000Y-85345673D01*
X160272000Y-85345665D01*
X160261003Y-85234012D01*
X160217546Y-85090751D01*
X160146974Y-84958722D01*
X160052001Y-84842997D01*
X160023003Y-84819199D01*
X159033987Y-83830184D01*
X159132641Y-83697920D01*
X159257825Y-83435099D01*
X159302476Y-83287890D01*
X159181155Y-83058000D01*
X157988000Y-83058000D01*
X157988000Y-83078000D01*
X157734000Y-83078000D01*
X157734000Y-83058000D01*
X157714000Y-83058000D01*
X157714000Y-82804000D01*
X157734000Y-82804000D01*
X157734000Y-81610186D01*
X157988000Y-81610186D01*
X157988000Y-82804000D01*
X159181155Y-82804000D01*
X159302476Y-82574110D01*
X159257825Y-82426901D01*
X159132641Y-82164080D01*
X158958588Y-81930731D01*
X158742355Y-81735822D01*
X158492252Y-81586843D01*
X158217891Y-81489519D01*
X157988000Y-81610186D01*
X157734000Y-81610186D01*
X157504109Y-81489519D01*
X157229748Y-81586843D01*
X156979645Y-81735822D01*
X156763412Y-81930731D01*
X156592100Y-82160406D01*
X156474475Y-81984368D01*
X156267632Y-81777525D01*
X156024411Y-81615010D01*
X155754158Y-81503068D01*
X155467260Y-81446000D01*
X155174740Y-81446000D01*
X154887842Y-81503068D01*
X154617589Y-81615010D01*
X154374368Y-81777525D01*
X154167525Y-81984368D01*
X154005010Y-82227589D01*
X153893068Y-82497842D01*
X153836000Y-82784740D01*
X153836000Y-83077260D01*
X153893068Y-83364158D01*
X154005010Y-83634411D01*
X154167525Y-83877632D01*
X154374368Y-84084475D01*
X154548760Y-84201000D01*
X154374368Y-84317525D01*
X154167525Y-84524368D01*
X154005010Y-84767589D01*
X153893068Y-85037842D01*
X153836000Y-85324740D01*
X153836000Y-85617260D01*
X153893068Y-85904158D01*
X154005010Y-86174411D01*
X154167525Y-86417632D01*
X154299380Y-86549487D01*
X154226820Y-86571498D01*
X154116506Y-86630463D01*
X154019815Y-86709815D01*
X153940463Y-86806506D01*
X153881498Y-86916820D01*
X153845188Y-87036518D01*
X153832928Y-87161000D01*
X153832928Y-88424271D01*
X153120198Y-89137001D01*
X146175962Y-89137001D01*
X146294282Y-88851352D01*
X146354800Y-88547104D01*
X146354800Y-88236896D01*
X146294282Y-87932648D01*
X146175570Y-87646052D01*
X146003227Y-87388123D01*
X145783877Y-87168773D01*
X145525948Y-86996430D01*
X145239352Y-86877718D01*
X144935104Y-86817200D01*
X144624896Y-86817200D01*
X144320648Y-86877718D01*
X144034052Y-86996430D01*
X143776123Y-87168773D01*
X143556773Y-87388123D01*
X143510000Y-87458124D01*
X143463227Y-87388123D01*
X143243877Y-87168773D01*
X142985948Y-86996430D01*
X142699352Y-86877718D01*
X142395104Y-86817200D01*
X142084896Y-86817200D01*
X141993526Y-86835375D01*
X141965226Y-86693102D01*
X141887205Y-86504744D01*
X141773937Y-86335226D01*
X141629774Y-86191063D01*
X141460256Y-86077795D01*
X141271898Y-85999774D01*
X141071939Y-85960000D01*
X140868061Y-85960000D01*
X140774427Y-85978625D01*
X138595924Y-83800123D01*
X138585205Y-83774244D01*
X138471937Y-83604726D01*
X138327774Y-83460563D01*
X138158256Y-83347295D01*
X138132377Y-83336575D01*
X135183804Y-80388003D01*
X135160001Y-80358999D01*
X135044276Y-80264026D01*
X134912247Y-80193454D01*
X134768986Y-80149997D01*
X134657333Y-80139000D01*
X134657322Y-80139000D01*
X134620000Y-80135324D01*
X134582678Y-80139000D01*
X126402333Y-80139000D01*
X126365000Y-80135323D01*
X126327667Y-80139000D01*
X126216014Y-80149997D01*
X126072753Y-80193454D01*
X125940724Y-80264026D01*
X125824999Y-80358999D01*
X125801200Y-80387998D01*
X125415199Y-80774000D01*
X124116322Y-80774000D01*
X124078999Y-80770324D01*
X124041676Y-80774000D01*
X124041667Y-80774000D01*
X123930014Y-80784997D01*
X123786753Y-80828454D01*
X123654724Y-80899026D01*
X123538999Y-80993999D01*
X123515200Y-81022998D01*
X123256199Y-81282000D01*
X121684025Y-81282000D01*
X121646700Y-81278324D01*
X121609375Y-81282000D01*
X121609367Y-81282000D01*
X121497714Y-81292997D01*
X121354453Y-81336454D01*
X121222424Y-81407026D01*
X121106699Y-81501999D01*
X121082901Y-81530997D01*
X120750970Y-81862928D01*
X120596992Y-81832300D01*
X120321808Y-81832300D01*
X120051910Y-81885986D01*
X119797673Y-81991295D01*
X119568865Y-82144180D01*
X119374280Y-82338765D01*
X119221395Y-82567573D01*
X119191708Y-82639243D01*
X119187036Y-82626277D01*
X119125056Y-82510320D01*
X118884965Y-82443340D01*
X118099005Y-83229300D01*
X118113148Y-83243443D01*
X117933543Y-83423048D01*
X117919400Y-83408905D01*
X117905258Y-83423048D01*
X117725653Y-83243443D01*
X117739795Y-83229300D01*
X116953835Y-82443340D01*
X116713744Y-82510320D01*
X116596644Y-82759348D01*
X116530377Y-83026435D01*
X116517490Y-83301317D01*
X116558478Y-83573433D01*
X116651764Y-83832323D01*
X116713744Y-83948280D01*
X116716325Y-83949000D01*
X113947322Y-83949000D01*
X113909999Y-83945324D01*
X113872676Y-83949000D01*
X113872667Y-83949000D01*
X113761014Y-83959997D01*
X113617753Y-84003454D01*
X113485724Y-84074026D01*
X113369999Y-84168999D01*
X113346196Y-84198003D01*
X113018003Y-84526196D01*
X113001261Y-84539936D01*
X112864149Y-84581528D01*
X112710613Y-84663595D01*
X112576038Y-84774038D01*
X112465595Y-84908613D01*
X112383528Y-85062149D01*
X112332992Y-85228745D01*
X112315928Y-85401999D01*
X97660000Y-85401999D01*
X97660000Y-81773872D01*
X97729500Y-81773872D01*
X97729500Y-82214128D01*
X97815390Y-82645925D01*
X97983869Y-83052669D01*
X98228462Y-83418729D01*
X98539771Y-83730038D01*
X98905831Y-83974631D01*
X99312575Y-84143110D01*
X99744372Y-84229000D01*
X100184628Y-84229000D01*
X100616425Y-84143110D01*
X101023169Y-83974631D01*
X101389229Y-83730038D01*
X101700538Y-83418729D01*
X101883793Y-83144467D01*
X108319000Y-83144467D01*
X108319000Y-83466533D01*
X108381832Y-83782412D01*
X108505082Y-84079963D01*
X108684013Y-84347752D01*
X108911748Y-84575487D01*
X109179537Y-84754418D01*
X109477088Y-84877668D01*
X109792967Y-84940500D01*
X110115033Y-84940500D01*
X110430912Y-84877668D01*
X110728463Y-84754418D01*
X110996252Y-84575487D01*
X111223987Y-84347752D01*
X111402918Y-84079963D01*
X111526168Y-83782412D01*
X111589000Y-83466533D01*
X111589000Y-83144467D01*
X111526168Y-82828588D01*
X111402918Y-82531037D01*
X111224313Y-82263735D01*
X117133440Y-82263735D01*
X117919400Y-83049695D01*
X118705360Y-82263735D01*
X118638380Y-82023644D01*
X118389352Y-81906544D01*
X118122265Y-81840277D01*
X117847383Y-81827390D01*
X117575267Y-81868378D01*
X117316377Y-81961664D01*
X117200420Y-82023644D01*
X117133440Y-82263735D01*
X111224313Y-82263735D01*
X111223987Y-82263248D01*
X110996252Y-82035513D01*
X110728463Y-81856582D01*
X110430912Y-81733332D01*
X110115033Y-81670500D01*
X109792967Y-81670500D01*
X109477088Y-81733332D01*
X109179537Y-81856582D01*
X108911748Y-82035513D01*
X108684013Y-82263248D01*
X108505082Y-82531037D01*
X108381832Y-82828588D01*
X108319000Y-83144467D01*
X101883793Y-83144467D01*
X101945131Y-83052669D01*
X102113610Y-82645925D01*
X102199500Y-82214128D01*
X102199500Y-81773872D01*
X102113610Y-81342075D01*
X101945131Y-80935331D01*
X101700538Y-80569271D01*
X101389229Y-80257962D01*
X101023169Y-80013369D01*
X100616425Y-79844890D01*
X100184628Y-79759000D01*
X99744372Y-79759000D01*
X99312575Y-79844890D01*
X98905831Y-80013369D01*
X98539771Y-80257962D01*
X98228462Y-80569271D01*
X97983869Y-80935331D01*
X97815390Y-81342075D01*
X97729500Y-81773872D01*
X97660000Y-81773872D01*
X97660000Y-79660000D01*
X159822667Y-79660000D01*
X159738815Y-79728815D01*
G37*
G04 #@! TD.AperFunction*
D25*
X132411748Y-105940013D02*
X132184013Y-106167748D01*
X132005082Y-106435537D01*
X131881832Y-106733088D01*
X131819000Y-107048967D01*
X131819000Y-107371033D01*
X131881832Y-107686912D01*
X132005082Y-107984463D01*
X132184013Y-108252252D01*
X132411748Y-108479987D01*
X132679537Y-108658918D01*
X132812516Y-108714000D01*
X126060721Y-108714000D01*
X126060000Y-108616750D01*
X125901250Y-108458000D01*
X124977000Y-108458000D01*
X124977000Y-108478000D01*
X124723000Y-108478000D01*
X124723000Y-108458000D01*
X124703000Y-108458000D01*
X124703000Y-108204000D01*
X124723000Y-108204000D01*
X124723000Y-106426000D01*
X124703000Y-106426000D01*
X124703000Y-106172000D01*
X124723000Y-106172000D01*
X124723000Y-106152000D01*
X124977000Y-106152000D01*
X124977000Y-106172000D01*
X124997000Y-106172000D01*
X124997000Y-106426000D01*
X124977000Y-106426000D01*
X124977000Y-108204000D01*
X125901250Y-108204000D01*
X126060000Y-108045250D01*
X126063072Y-107631000D01*
X126056171Y-107560932D01*
X126072149Y-107569472D01*
X126238745Y-107620008D01*
X126411999Y-107637072D01*
X127062001Y-107637072D01*
X127235255Y-107620008D01*
X127401851Y-107569472D01*
X127555387Y-107487405D01*
X127689962Y-107376962D01*
X127762000Y-107289184D01*
X127834038Y-107376962D01*
X127968613Y-107487405D01*
X128122149Y-107569472D01*
X128288745Y-107620008D01*
X128461999Y-107637072D01*
X129112001Y-107637072D01*
X129285255Y-107620008D01*
X129451851Y-107569472D01*
X129605387Y-107487405D01*
X129739962Y-107376962D01*
X129850405Y-107242387D01*
X129932472Y-107088851D01*
X129941527Y-107059000D01*
X130636678Y-107059000D01*
X130674000Y-107062676D01*
X130711322Y-107059000D01*
X130711333Y-107059000D01*
X130822986Y-107048003D01*
X130966247Y-107004546D01*
X131098276Y-106933974D01*
X131214001Y-106839001D01*
X131237804Y-106809997D01*
X132188730Y-105859072D01*
X132532885Y-105859072D01*
X132411748Y-105940013D01*
G04 #@! TA.AperFunction,Conductor*
D26*
G36*
X132411748Y-105940013D02*
G01*
X132184013Y-106167748D01*
X132005082Y-106435537D01*
X131881832Y-106733088D01*
X131819000Y-107048967D01*
X131819000Y-107371033D01*
X131881832Y-107686912D01*
X132005082Y-107984463D01*
X132184013Y-108252252D01*
X132411748Y-108479987D01*
X132679537Y-108658918D01*
X132812516Y-108714000D01*
X126060721Y-108714000D01*
X126060000Y-108616750D01*
X125901250Y-108458000D01*
X124977000Y-108458000D01*
X124977000Y-108478000D01*
X124723000Y-108478000D01*
X124723000Y-108458000D01*
X124703000Y-108458000D01*
X124703000Y-108204000D01*
X124723000Y-108204000D01*
X124723000Y-106426000D01*
X124703000Y-106426000D01*
X124703000Y-106172000D01*
X124723000Y-106172000D01*
X124723000Y-106152000D01*
X124977000Y-106152000D01*
X124977000Y-106172000D01*
X124997000Y-106172000D01*
X124997000Y-106426000D01*
X124977000Y-106426000D01*
X124977000Y-108204000D01*
X125901250Y-108204000D01*
X126060000Y-108045250D01*
X126063072Y-107631000D01*
X126056171Y-107560932D01*
X126072149Y-107569472D01*
X126238745Y-107620008D01*
X126411999Y-107637072D01*
X127062001Y-107637072D01*
X127235255Y-107620008D01*
X127401851Y-107569472D01*
X127555387Y-107487405D01*
X127689962Y-107376962D01*
X127762000Y-107289184D01*
X127834038Y-107376962D01*
X127968613Y-107487405D01*
X128122149Y-107569472D01*
X128288745Y-107620008D01*
X128461999Y-107637072D01*
X129112001Y-107637072D01*
X129285255Y-107620008D01*
X129451851Y-107569472D01*
X129605387Y-107487405D01*
X129739962Y-107376962D01*
X129850405Y-107242387D01*
X129932472Y-107088851D01*
X129941527Y-107059000D01*
X130636678Y-107059000D01*
X130674000Y-107062676D01*
X130711322Y-107059000D01*
X130711333Y-107059000D01*
X130822986Y-107048003D01*
X130966247Y-107004546D01*
X131098276Y-106933974D01*
X131214001Y-106839001D01*
X131237804Y-106809997D01*
X132188730Y-105859072D01*
X132532885Y-105859072D01*
X132411748Y-105940013D01*
G37*
G04 #@! TD.AperFunction*
D25*
X126666200Y-103635002D02*
X126689999Y-103664001D01*
X126706350Y-103677420D01*
X126723730Y-103709936D01*
X126699463Y-103739506D01*
X126640498Y-103849820D01*
X126604188Y-103969518D01*
X126591928Y-104094000D01*
X126595000Y-104108250D01*
X126753750Y-104267000D01*
X128078000Y-104267000D01*
X128078000Y-104247000D01*
X128332000Y-104247000D01*
X128332000Y-104267000D01*
X129656250Y-104267000D01*
X129815000Y-104108250D01*
X129818072Y-104094000D01*
X129805812Y-103969518D01*
X129779870Y-103884000D01*
X130740199Y-103884000D01*
X131238928Y-104382730D01*
X131238928Y-104659270D01*
X130359199Y-105539000D01*
X129941527Y-105539000D01*
X129932472Y-105509149D01*
X129850405Y-105355613D01*
X129739962Y-105221038D01*
X129637765Y-105137167D01*
X129710537Y-105048494D01*
X129769502Y-104938180D01*
X129805812Y-104818482D01*
X129818072Y-104694000D01*
X129815000Y-104679750D01*
X129656250Y-104521000D01*
X128332000Y-104521000D01*
X128332000Y-104541000D01*
X128078000Y-104541000D01*
X128078000Y-104521000D01*
X126753750Y-104521000D01*
X126595000Y-104679750D01*
X126591928Y-104694000D01*
X126604188Y-104818482D01*
X126640498Y-104938180D01*
X126652657Y-104960928D01*
X126473730Y-104960928D01*
X125395804Y-103883003D01*
X125372001Y-103853999D01*
X125260669Y-103762631D01*
X125304013Y-103619744D01*
X125315010Y-103508091D01*
X125315010Y-103508083D01*
X125318686Y-103470758D01*
X125315010Y-103433433D01*
X125315010Y-102283811D01*
X126666200Y-103635002D01*
G04 #@! TA.AperFunction,Conductor*
D26*
G36*
X126666200Y-103635002D02*
G01*
X126689999Y-103664001D01*
X126706350Y-103677420D01*
X126723730Y-103709936D01*
X126699463Y-103739506D01*
X126640498Y-103849820D01*
X126604188Y-103969518D01*
X126591928Y-104094000D01*
X126595000Y-104108250D01*
X126753750Y-104267000D01*
X128078000Y-104267000D01*
X128078000Y-104247000D01*
X128332000Y-104247000D01*
X128332000Y-104267000D01*
X129656250Y-104267000D01*
X129815000Y-104108250D01*
X129818072Y-104094000D01*
X129805812Y-103969518D01*
X129779870Y-103884000D01*
X130740199Y-103884000D01*
X131238928Y-104382730D01*
X131238928Y-104659270D01*
X130359199Y-105539000D01*
X129941527Y-105539000D01*
X129932472Y-105509149D01*
X129850405Y-105355613D01*
X129739962Y-105221038D01*
X129637765Y-105137167D01*
X129710537Y-105048494D01*
X129769502Y-104938180D01*
X129805812Y-104818482D01*
X129818072Y-104694000D01*
X129815000Y-104679750D01*
X129656250Y-104521000D01*
X128332000Y-104521000D01*
X128332000Y-104541000D01*
X128078000Y-104541000D01*
X128078000Y-104521000D01*
X126753750Y-104521000D01*
X126595000Y-104679750D01*
X126591928Y-104694000D01*
X126604188Y-104818482D01*
X126640498Y-104938180D01*
X126652657Y-104960928D01*
X126473730Y-104960928D01*
X125395804Y-103883003D01*
X125372001Y-103853999D01*
X125260669Y-103762631D01*
X125304013Y-103619744D01*
X125315010Y-103508091D01*
X125315010Y-103508083D01*
X125318686Y-103470758D01*
X125315010Y-103433433D01*
X125315010Y-102283811D01*
X126666200Y-103635002D01*
G37*
G04 #@! TD.AperFunction*
D25*
X148129501Y-97483307D02*
X148113540Y-97477591D01*
X147891500Y-97598876D01*
X147891500Y-98742500D01*
X147911500Y-98742500D01*
X147911500Y-98996500D01*
X147891500Y-98996500D01*
X147891500Y-99016500D01*
X147637500Y-99016500D01*
X147637500Y-98996500D01*
X146494585Y-98996500D01*
X146372596Y-99218539D01*
X146413254Y-99352587D01*
X146533463Y-99606920D01*
X146700981Y-99832914D01*
X146909369Y-100021885D01*
X147095365Y-100133433D01*
X147084773Y-100137820D01*
X146849741Y-100294863D01*
X146649863Y-100494741D01*
X146492820Y-100729773D01*
X146384647Y-100990926D01*
X146329500Y-101268165D01*
X146329500Y-101550835D01*
X146384647Y-101828074D01*
X146492820Y-102089227D01*
X146649863Y-102324259D01*
X146849741Y-102524137D01*
X147082259Y-102679500D01*
X146849741Y-102834863D01*
X146649863Y-103034741D01*
X146492820Y-103269773D01*
X146384647Y-103530926D01*
X146329500Y-103808165D01*
X146329500Y-104090835D01*
X146365812Y-104273386D01*
X146116199Y-104523000D01*
X141460181Y-104523000D01*
X141524353Y-104368074D01*
X141579500Y-104090835D01*
X141579500Y-103808165D01*
X141524353Y-103530926D01*
X141416180Y-103269773D01*
X141259137Y-103034741D01*
X141059259Y-102834863D01*
X140826741Y-102679500D01*
X141059259Y-102524137D01*
X141259137Y-102324259D01*
X141416180Y-102089227D01*
X141524353Y-101828074D01*
X141579500Y-101550835D01*
X141579500Y-101268165D01*
X141524353Y-100990926D01*
X141416180Y-100729773D01*
X141259137Y-100494741D01*
X141059259Y-100294863D01*
X140826741Y-100139500D01*
X141059259Y-99984137D01*
X141259137Y-99784259D01*
X141416180Y-99549227D01*
X141524353Y-99288074D01*
X141579500Y-99010835D01*
X141579500Y-98728165D01*
X141538185Y-98520461D01*
X146372596Y-98520461D01*
X146494585Y-98742500D01*
X147637500Y-98742500D01*
X147637500Y-97598876D01*
X147415460Y-97477591D01*
X147150619Y-97572430D01*
X146909369Y-97717115D01*
X146700981Y-97906086D01*
X146533463Y-98132080D01*
X146413254Y-98386413D01*
X146372596Y-98520461D01*
X141538185Y-98520461D01*
X141524353Y-98450926D01*
X141416180Y-98189773D01*
X141259137Y-97954741D01*
X141059259Y-97754863D01*
X140824227Y-97597820D01*
X140563074Y-97489647D01*
X140285835Y-97434500D01*
X140003165Y-97434500D01*
X139725926Y-97489647D01*
X139464773Y-97597820D01*
X139229741Y-97754863D01*
X139029863Y-97954741D01*
X138926457Y-98109500D01*
X135715072Y-98109500D01*
X135715072Y-97974999D01*
X135698008Y-97801745D01*
X135647472Y-97635149D01*
X135565405Y-97481613D01*
X135505813Y-97409000D01*
X135565405Y-97336387D01*
X135647472Y-97182851D01*
X135656527Y-97153000D01*
X141290199Y-97153000D01*
X141295196Y-97157997D01*
X141318999Y-97187001D01*
X141434724Y-97281974D01*
X141566753Y-97352546D01*
X141710014Y-97396003D01*
X141821667Y-97407000D01*
X141821676Y-97407000D01*
X141858999Y-97410676D01*
X141896322Y-97407000D01*
X147101868Y-97407000D01*
X147139190Y-97410676D01*
X147176512Y-97407000D01*
X147176523Y-97407000D01*
X147288176Y-97396003D01*
X147431437Y-97352546D01*
X147563466Y-97281974D01*
X147679191Y-97187001D01*
X147702994Y-97157997D01*
X148129501Y-96731490D01*
X148129501Y-97483307D01*
G04 #@! TA.AperFunction,Conductor*
D26*
G36*
X148129501Y-97483307D02*
G01*
X148113540Y-97477591D01*
X147891500Y-97598876D01*
X147891500Y-98742500D01*
X147911500Y-98742500D01*
X147911500Y-98996500D01*
X147891500Y-98996500D01*
X147891500Y-99016500D01*
X147637500Y-99016500D01*
X147637500Y-98996500D01*
X146494585Y-98996500D01*
X146372596Y-99218539D01*
X146413254Y-99352587D01*
X146533463Y-99606920D01*
X146700981Y-99832914D01*
X146909369Y-100021885D01*
X147095365Y-100133433D01*
X147084773Y-100137820D01*
X146849741Y-100294863D01*
X146649863Y-100494741D01*
X146492820Y-100729773D01*
X146384647Y-100990926D01*
X146329500Y-101268165D01*
X146329500Y-101550835D01*
X146384647Y-101828074D01*
X146492820Y-102089227D01*
X146649863Y-102324259D01*
X146849741Y-102524137D01*
X147082259Y-102679500D01*
X146849741Y-102834863D01*
X146649863Y-103034741D01*
X146492820Y-103269773D01*
X146384647Y-103530926D01*
X146329500Y-103808165D01*
X146329500Y-104090835D01*
X146365812Y-104273386D01*
X146116199Y-104523000D01*
X141460181Y-104523000D01*
X141524353Y-104368074D01*
X141579500Y-104090835D01*
X141579500Y-103808165D01*
X141524353Y-103530926D01*
X141416180Y-103269773D01*
X141259137Y-103034741D01*
X141059259Y-102834863D01*
X140826741Y-102679500D01*
X141059259Y-102524137D01*
X141259137Y-102324259D01*
X141416180Y-102089227D01*
X141524353Y-101828074D01*
X141579500Y-101550835D01*
X141579500Y-101268165D01*
X141524353Y-100990926D01*
X141416180Y-100729773D01*
X141259137Y-100494741D01*
X141059259Y-100294863D01*
X140826741Y-100139500D01*
X141059259Y-99984137D01*
X141259137Y-99784259D01*
X141416180Y-99549227D01*
X141524353Y-99288074D01*
X141579500Y-99010835D01*
X141579500Y-98728165D01*
X141538185Y-98520461D01*
X146372596Y-98520461D01*
X146494585Y-98742500D01*
X147637500Y-98742500D01*
X147637500Y-97598876D01*
X147415460Y-97477591D01*
X147150619Y-97572430D01*
X146909369Y-97717115D01*
X146700981Y-97906086D01*
X146533463Y-98132080D01*
X146413254Y-98386413D01*
X146372596Y-98520461D01*
X141538185Y-98520461D01*
X141524353Y-98450926D01*
X141416180Y-98189773D01*
X141259137Y-97954741D01*
X141059259Y-97754863D01*
X140824227Y-97597820D01*
X140563074Y-97489647D01*
X140285835Y-97434500D01*
X140003165Y-97434500D01*
X139725926Y-97489647D01*
X139464773Y-97597820D01*
X139229741Y-97754863D01*
X139029863Y-97954741D01*
X138926457Y-98109500D01*
X135715072Y-98109500D01*
X135715072Y-97974999D01*
X135698008Y-97801745D01*
X135647472Y-97635149D01*
X135565405Y-97481613D01*
X135505813Y-97409000D01*
X135565405Y-97336387D01*
X135647472Y-97182851D01*
X135656527Y-97153000D01*
X141290199Y-97153000D01*
X141295196Y-97157997D01*
X141318999Y-97187001D01*
X141434724Y-97281974D01*
X141566753Y-97352546D01*
X141710014Y-97396003D01*
X141821667Y-97407000D01*
X141821676Y-97407000D01*
X141858999Y-97410676D01*
X141896322Y-97407000D01*
X147101868Y-97407000D01*
X147139190Y-97410676D01*
X147176512Y-97407000D01*
X147176523Y-97407000D01*
X147288176Y-97396003D01*
X147431437Y-97352546D01*
X147563466Y-97281974D01*
X147679191Y-97187001D01*
X147702994Y-97157997D01*
X148129501Y-96731490D01*
X148129501Y-97483307D01*
G37*
G04 #@! TD.AperFunction*
D25*
X126328155Y-98404226D02*
X126528114Y-98444000D01*
X126636269Y-98444000D01*
X126651916Y-98495582D01*
X126724742Y-98631829D01*
X126763454Y-98679000D01*
X126724742Y-98726171D01*
X126651916Y-98862418D01*
X126607071Y-99010255D01*
X126591928Y-99164000D01*
X126591928Y-99464000D01*
X126607071Y-99617745D01*
X126651916Y-99765582D01*
X126724742Y-99901829D01*
X126763454Y-99949000D01*
X126724742Y-99996171D01*
X126651916Y-100132418D01*
X126607071Y-100280255D01*
X126591928Y-100434000D01*
X126591928Y-100734000D01*
X126607071Y-100887745D01*
X126651916Y-101035582D01*
X126724742Y-101171829D01*
X126763454Y-101219000D01*
X126724742Y-101266171D01*
X126651916Y-101402418D01*
X126635927Y-101455126D01*
X126109000Y-100928199D01*
X126109000Y-100017711D01*
X126152937Y-99973774D01*
X126266205Y-99804256D01*
X126344226Y-99615898D01*
X126384000Y-99415939D01*
X126384000Y-99212061D01*
X126344226Y-99012102D01*
X126266205Y-98823744D01*
X126152937Y-98654226D01*
X126079257Y-98580546D01*
X126276835Y-98382968D01*
X126328155Y-98404226D01*
G04 #@! TA.AperFunction,Conductor*
D26*
G36*
X126328155Y-98404226D02*
G01*
X126528114Y-98444000D01*
X126636269Y-98444000D01*
X126651916Y-98495582D01*
X126724742Y-98631829D01*
X126763454Y-98679000D01*
X126724742Y-98726171D01*
X126651916Y-98862418D01*
X126607071Y-99010255D01*
X126591928Y-99164000D01*
X126591928Y-99464000D01*
X126607071Y-99617745D01*
X126651916Y-99765582D01*
X126724742Y-99901829D01*
X126763454Y-99949000D01*
X126724742Y-99996171D01*
X126651916Y-100132418D01*
X126607071Y-100280255D01*
X126591928Y-100434000D01*
X126591928Y-100734000D01*
X126607071Y-100887745D01*
X126651916Y-101035582D01*
X126724742Y-101171829D01*
X126763454Y-101219000D01*
X126724742Y-101266171D01*
X126651916Y-101402418D01*
X126635927Y-101455126D01*
X126109000Y-100928199D01*
X126109000Y-100017711D01*
X126152937Y-99973774D01*
X126266205Y-99804256D01*
X126344226Y-99615898D01*
X126384000Y-99415939D01*
X126384000Y-99212061D01*
X126344226Y-99012102D01*
X126266205Y-98823744D01*
X126152937Y-98654226D01*
X126079257Y-98580546D01*
X126276835Y-98382968D01*
X126328155Y-98404226D01*
G37*
G04 #@! TD.AperFunction*
D25*
X130029000Y-94576561D02*
X130029000Y-94780439D01*
X130068774Y-94980398D01*
X130146795Y-95168756D01*
X130260063Y-95338274D01*
X130404226Y-95482437D01*
X130573744Y-95595705D01*
X130663781Y-95633000D01*
X130457322Y-95633000D01*
X130419999Y-95629324D01*
X130382676Y-95633000D01*
X130382667Y-95633000D01*
X130271014Y-95643997D01*
X130127753Y-95687454D01*
X129995724Y-95758026D01*
X129879999Y-95852999D01*
X129856196Y-95882003D01*
X129724199Y-96014000D01*
X129522976Y-96014000D01*
X129467829Y-95968742D01*
X129331582Y-95895916D01*
X129183745Y-95851071D01*
X129030000Y-95835928D01*
X127380000Y-95835928D01*
X127226255Y-95851071D01*
X127078418Y-95895916D01*
X126942171Y-95968742D01*
X126822749Y-96066749D01*
X126724742Y-96186171D01*
X126665043Y-96297859D01*
X126665043Y-95897758D01*
X128060269Y-94502533D01*
X130043725Y-94502533D01*
X130029000Y-94576561D01*
G04 #@! TA.AperFunction,Conductor*
D26*
G36*
X130029000Y-94576561D02*
G01*
X130029000Y-94780439D01*
X130068774Y-94980398D01*
X130146795Y-95168756D01*
X130260063Y-95338274D01*
X130404226Y-95482437D01*
X130573744Y-95595705D01*
X130663781Y-95633000D01*
X130457322Y-95633000D01*
X130419999Y-95629324D01*
X130382676Y-95633000D01*
X130382667Y-95633000D01*
X130271014Y-95643997D01*
X130127753Y-95687454D01*
X129995724Y-95758026D01*
X129879999Y-95852999D01*
X129856196Y-95882003D01*
X129724199Y-96014000D01*
X129522976Y-96014000D01*
X129467829Y-95968742D01*
X129331582Y-95895916D01*
X129183745Y-95851071D01*
X129030000Y-95835928D01*
X127380000Y-95835928D01*
X127226255Y-95851071D01*
X127078418Y-95895916D01*
X126942171Y-95968742D01*
X126822749Y-96066749D01*
X126724742Y-96186171D01*
X126665043Y-96297859D01*
X126665043Y-95897758D01*
X128060269Y-94502533D01*
X130043725Y-94502533D01*
X130029000Y-94576561D01*
G37*
G04 #@! TD.AperFunction*
D25*
X136410788Y-88903003D02*
X136434586Y-88932001D01*
X136463584Y-88955799D01*
X136550310Y-89026974D01*
X136655978Y-89083455D01*
X136682340Y-89097546D01*
X136812408Y-89137001D01*
X136708317Y-89137001D01*
X136670994Y-89133325D01*
X136633671Y-89137001D01*
X136633662Y-89137001D01*
X136522009Y-89147998D01*
X136378748Y-89191455D01*
X136246719Y-89262027D01*
X136130994Y-89357000D01*
X136107196Y-89385998D01*
X135786698Y-89706496D01*
X135724561Y-89706496D01*
X135524602Y-89746270D01*
X135336244Y-89824291D01*
X135166726Y-89937559D01*
X135022563Y-90081722D01*
X134909295Y-90251240D01*
X134831274Y-90439598D01*
X134791500Y-90639557D01*
X134791500Y-90843435D01*
X134831274Y-91043394D01*
X134909295Y-91231752D01*
X135022563Y-91401270D01*
X135166726Y-91545433D01*
X135297031Y-91632500D01*
X131650750Y-91632500D01*
X131707185Y-91586185D01*
X131786537Y-91489494D01*
X131845502Y-91379180D01*
X131881812Y-91259482D01*
X131894072Y-91135000D01*
X131891000Y-90845750D01*
X131732250Y-90687000D01*
X130683000Y-90687000D01*
X130683000Y-90707000D01*
X130429000Y-90707000D01*
X130429000Y-90687000D01*
X130409000Y-90687000D01*
X130409000Y-90433000D01*
X130429000Y-90433000D01*
X130429000Y-90413000D01*
X130683000Y-90413000D01*
X130683000Y-90433000D01*
X131732250Y-90433000D01*
X131891000Y-90274250D01*
X131894072Y-89985000D01*
X131881812Y-89860518D01*
X131845502Y-89740820D01*
X131786537Y-89630506D01*
X131707185Y-89533815D01*
X131627406Y-89468342D01*
X131633962Y-89462962D01*
X131744405Y-89328387D01*
X131826472Y-89174851D01*
X131877008Y-89008255D01*
X131894072Y-88835001D01*
X131894072Y-88184999D01*
X131877008Y-88011745D01*
X131876175Y-88009000D01*
X135516786Y-88009000D01*
X136410788Y-88903003D01*
G04 #@! TA.AperFunction,Conductor*
D26*
G36*
X136410788Y-88903003D02*
G01*
X136434586Y-88932001D01*
X136463584Y-88955799D01*
X136550310Y-89026974D01*
X136655978Y-89083455D01*
X136682340Y-89097546D01*
X136812408Y-89137001D01*
X136708317Y-89137001D01*
X136670994Y-89133325D01*
X136633671Y-89137001D01*
X136633662Y-89137001D01*
X136522009Y-89147998D01*
X136378748Y-89191455D01*
X136246719Y-89262027D01*
X136130994Y-89357000D01*
X136107196Y-89385998D01*
X135786698Y-89706496D01*
X135724561Y-89706496D01*
X135524602Y-89746270D01*
X135336244Y-89824291D01*
X135166726Y-89937559D01*
X135022563Y-90081722D01*
X134909295Y-90251240D01*
X134831274Y-90439598D01*
X134791500Y-90639557D01*
X134791500Y-90843435D01*
X134831274Y-91043394D01*
X134909295Y-91231752D01*
X135022563Y-91401270D01*
X135166726Y-91545433D01*
X135297031Y-91632500D01*
X131650750Y-91632500D01*
X131707185Y-91586185D01*
X131786537Y-91489494D01*
X131845502Y-91379180D01*
X131881812Y-91259482D01*
X131894072Y-91135000D01*
X131891000Y-90845750D01*
X131732250Y-90687000D01*
X130683000Y-90687000D01*
X130683000Y-90707000D01*
X130429000Y-90707000D01*
X130429000Y-90687000D01*
X130409000Y-90687000D01*
X130409000Y-90433000D01*
X130429000Y-90433000D01*
X130429000Y-90413000D01*
X130683000Y-90413000D01*
X130683000Y-90433000D01*
X131732250Y-90433000D01*
X131891000Y-90274250D01*
X131894072Y-89985000D01*
X131881812Y-89860518D01*
X131845502Y-89740820D01*
X131786537Y-89630506D01*
X131707185Y-89533815D01*
X131627406Y-89468342D01*
X131633962Y-89462962D01*
X131744405Y-89328387D01*
X131826472Y-89174851D01*
X131877008Y-89008255D01*
X131894072Y-88835001D01*
X131894072Y-88184999D01*
X131877008Y-88011745D01*
X131876175Y-88009000D01*
X135516786Y-88009000D01*
X136410788Y-88903003D01*
G37*
G04 #@! TD.AperFunction*
D25*
X128305000Y-89662000D02*
X128325000Y-89662000D01*
X128325000Y-89916000D01*
X128305000Y-89916000D01*
X128305000Y-90932000D01*
X128325000Y-90932000D01*
X128325000Y-91186000D01*
X128305000Y-91186000D01*
X128305000Y-91206000D01*
X128051000Y-91206000D01*
X128051000Y-91186000D01*
X128031000Y-91186000D01*
X128031000Y-90932000D01*
X128051000Y-90932000D01*
X128051000Y-89916000D01*
X128031000Y-89916000D01*
X128031000Y-89662000D01*
X128051000Y-89662000D01*
X128051000Y-89642000D01*
X128305000Y-89642000D01*
X128305000Y-89662000D01*
G04 #@! TA.AperFunction,Conductor*
D26*
G36*
X128305000Y-89662000D02*
G01*
X128325000Y-89662000D01*
X128325000Y-89916000D01*
X128305000Y-89916000D01*
X128305000Y-90932000D01*
X128325000Y-90932000D01*
X128325000Y-91186000D01*
X128305000Y-91186000D01*
X128305000Y-91206000D01*
X128051000Y-91206000D01*
X128051000Y-91186000D01*
X128031000Y-91186000D01*
X128031000Y-90932000D01*
X128051000Y-90932000D01*
X128051000Y-89916000D01*
X128031000Y-89916000D01*
X128031000Y-89662000D01*
X128051000Y-89662000D01*
X128051000Y-89642000D01*
X128305000Y-89642000D01*
X128305000Y-89662000D01*
G37*
G04 #@! TD.AperFunction*
D25*
X131881832Y-82733088D02*
X131819000Y-83048967D01*
X131819000Y-83196239D01*
X131786537Y-83135506D01*
X131707185Y-83038815D01*
X131610494Y-82959463D01*
X131500180Y-82900498D01*
X131380482Y-82864188D01*
X131256000Y-82851928D01*
X130841750Y-82855000D01*
X130683000Y-83013750D01*
X130683000Y-83938000D01*
X131732250Y-83938000D01*
X131891000Y-83779250D01*
X131891727Y-83710801D01*
X132005082Y-83984463D01*
X132184013Y-84252252D01*
X132411748Y-84479987D01*
X132679537Y-84658918D01*
X132977088Y-84782168D01*
X133292967Y-84845000D01*
X133615033Y-84845000D01*
X133930912Y-84782168D01*
X134228463Y-84658918D01*
X134496252Y-84479987D01*
X134723987Y-84252252D01*
X134902918Y-83984463D01*
X135026168Y-83686912D01*
X135031829Y-83658451D01*
X135765001Y-84391623D01*
X135765000Y-85529289D01*
X135721063Y-85573226D01*
X135607795Y-85742744D01*
X135529774Y-85931102D01*
X135490000Y-86131061D01*
X135490000Y-86334939D01*
X135520644Y-86489000D01*
X131889246Y-86489000D01*
X131894072Y-86440001D01*
X131894072Y-85789999D01*
X131877008Y-85616745D01*
X131826472Y-85450149D01*
X131744405Y-85296613D01*
X131633962Y-85162038D01*
X131627406Y-85156658D01*
X131707185Y-85091185D01*
X131786537Y-84994494D01*
X131845502Y-84884180D01*
X131881812Y-84764482D01*
X131894072Y-84640000D01*
X131891000Y-84350750D01*
X131732250Y-84192000D01*
X130683000Y-84192000D01*
X130683000Y-84212000D01*
X130429000Y-84212000D01*
X130429000Y-84192000D01*
X129379750Y-84192000D01*
X129221000Y-84350750D01*
X129217928Y-84640000D01*
X129230188Y-84764482D01*
X129266498Y-84884180D01*
X129325463Y-84994494D01*
X129404815Y-85091185D01*
X129484594Y-85156658D01*
X129478038Y-85162038D01*
X129367595Y-85296613D01*
X129285528Y-85450149D01*
X129234992Y-85616745D01*
X129217928Y-85789999D01*
X129217928Y-86378050D01*
X129204582Y-86370916D01*
X129056745Y-86326071D01*
X128903000Y-86310928D01*
X127453000Y-86310928D01*
X127299255Y-86326071D01*
X127151418Y-86370916D01*
X127015171Y-86443742D01*
X126895749Y-86541749D01*
X126797742Y-86661171D01*
X126724916Y-86797418D01*
X126680071Y-86945255D01*
X126664928Y-87099000D01*
X126664928Y-87399000D01*
X126680071Y-87552745D01*
X126724916Y-87700582D01*
X126797742Y-87836829D01*
X126836454Y-87884000D01*
X126797742Y-87931171D01*
X126779350Y-87965580D01*
X126762999Y-87978999D01*
X126739201Y-88007997D01*
X125473003Y-89274196D01*
X125443999Y-89297999D01*
X125395579Y-89357000D01*
X125349026Y-89413724D01*
X125308790Y-89489000D01*
X125283500Y-89536314D01*
X125283500Y-84602767D01*
X125401808Y-84626300D01*
X125676992Y-84626300D01*
X125946890Y-84572614D01*
X126201127Y-84467305D01*
X126429935Y-84314420D01*
X126624520Y-84119835D01*
X126777405Y-83891027D01*
X126882714Y-83636790D01*
X126911912Y-83490000D01*
X129217928Y-83490000D01*
X129221000Y-83779250D01*
X129379750Y-83938000D01*
X130429000Y-83938000D01*
X130429000Y-83013750D01*
X130270250Y-82855000D01*
X129856000Y-82851928D01*
X129731518Y-82864188D01*
X129611820Y-82900498D01*
X129501506Y-82959463D01*
X129404815Y-83038815D01*
X129325463Y-83135506D01*
X129266498Y-83245820D01*
X129230188Y-83365518D01*
X129217928Y-83490000D01*
X126911912Y-83490000D01*
X126936400Y-83366892D01*
X126936400Y-83091708D01*
X126905772Y-82937730D01*
X127198503Y-82644999D01*
X131918320Y-82644999D01*
X131881832Y-82733088D01*
G04 #@! TA.AperFunction,Conductor*
D26*
G36*
X131881832Y-82733088D02*
G01*
X131819000Y-83048967D01*
X131819000Y-83196239D01*
X131786537Y-83135506D01*
X131707185Y-83038815D01*
X131610494Y-82959463D01*
X131500180Y-82900498D01*
X131380482Y-82864188D01*
X131256000Y-82851928D01*
X130841750Y-82855000D01*
X130683000Y-83013750D01*
X130683000Y-83938000D01*
X131732250Y-83938000D01*
X131891000Y-83779250D01*
X131891727Y-83710801D01*
X132005082Y-83984463D01*
X132184013Y-84252252D01*
X132411748Y-84479987D01*
X132679537Y-84658918D01*
X132977088Y-84782168D01*
X133292967Y-84845000D01*
X133615033Y-84845000D01*
X133930912Y-84782168D01*
X134228463Y-84658918D01*
X134496252Y-84479987D01*
X134723987Y-84252252D01*
X134902918Y-83984463D01*
X135026168Y-83686912D01*
X135031829Y-83658451D01*
X135765001Y-84391623D01*
X135765000Y-85529289D01*
X135721063Y-85573226D01*
X135607795Y-85742744D01*
X135529774Y-85931102D01*
X135490000Y-86131061D01*
X135490000Y-86334939D01*
X135520644Y-86489000D01*
X131889246Y-86489000D01*
X131894072Y-86440001D01*
X131894072Y-85789999D01*
X131877008Y-85616745D01*
X131826472Y-85450149D01*
X131744405Y-85296613D01*
X131633962Y-85162038D01*
X131627406Y-85156658D01*
X131707185Y-85091185D01*
X131786537Y-84994494D01*
X131845502Y-84884180D01*
X131881812Y-84764482D01*
X131894072Y-84640000D01*
X131891000Y-84350750D01*
X131732250Y-84192000D01*
X130683000Y-84192000D01*
X130683000Y-84212000D01*
X130429000Y-84212000D01*
X130429000Y-84192000D01*
X129379750Y-84192000D01*
X129221000Y-84350750D01*
X129217928Y-84640000D01*
X129230188Y-84764482D01*
X129266498Y-84884180D01*
X129325463Y-84994494D01*
X129404815Y-85091185D01*
X129484594Y-85156658D01*
X129478038Y-85162038D01*
X129367595Y-85296613D01*
X129285528Y-85450149D01*
X129234992Y-85616745D01*
X129217928Y-85789999D01*
X129217928Y-86378050D01*
X129204582Y-86370916D01*
X129056745Y-86326071D01*
X128903000Y-86310928D01*
X127453000Y-86310928D01*
X127299255Y-86326071D01*
X127151418Y-86370916D01*
X127015171Y-86443742D01*
X126895749Y-86541749D01*
X126797742Y-86661171D01*
X126724916Y-86797418D01*
X126680071Y-86945255D01*
X126664928Y-87099000D01*
X126664928Y-87399000D01*
X126680071Y-87552745D01*
X126724916Y-87700582D01*
X126797742Y-87836829D01*
X126836454Y-87884000D01*
X126797742Y-87931171D01*
X126779350Y-87965580D01*
X126762999Y-87978999D01*
X126739201Y-88007997D01*
X125473003Y-89274196D01*
X125443999Y-89297999D01*
X125395579Y-89357000D01*
X125349026Y-89413724D01*
X125308790Y-89489000D01*
X125283500Y-89536314D01*
X125283500Y-84602767D01*
X125401808Y-84626300D01*
X125676992Y-84626300D01*
X125946890Y-84572614D01*
X126201127Y-84467305D01*
X126429935Y-84314420D01*
X126624520Y-84119835D01*
X126777405Y-83891027D01*
X126882714Y-83636790D01*
X126911912Y-83490000D01*
X129217928Y-83490000D01*
X129221000Y-83779250D01*
X129379750Y-83938000D01*
X130429000Y-83938000D01*
X130429000Y-83013750D01*
X130270250Y-82855000D01*
X129856000Y-82851928D01*
X129731518Y-82864188D01*
X129611820Y-82900498D01*
X129501506Y-82959463D01*
X129404815Y-83038815D01*
X129325463Y-83135506D01*
X129266498Y-83245820D01*
X129230188Y-83365518D01*
X129217928Y-83490000D01*
X126911912Y-83490000D01*
X126936400Y-83366892D01*
X126936400Y-83091708D01*
X126905772Y-82937730D01*
X127198503Y-82644999D01*
X131918320Y-82644999D01*
X131881832Y-82733088D01*
G37*
G04 #@! TD.AperFunction*
G04 #@! TD*
M02*
