G04 #@! TF.GenerationSoftware,KiCad,Pcbnew,5.1.10*
G04 #@! TF.CreationDate,2021-09-21T16:03:23-04:00*
G04 #@! TF.ProjectId,tinycalibrator,74696e79-6361-46c6-9962-7261746f722e,rev?*
G04 #@! TF.SameCoordinates,Original*
G04 #@! TF.FileFunction,Legend,Top*
G04 #@! TF.FilePolarity,Positive*
%FSLAX46Y46*%
G04 Gerber Fmt 4.6, Leading zero omitted, Abs format (unit mm)*
G04 Created by KiCad (PCBNEW 5.1.10) date 2021-09-21 16:03:23*
%MOMM*%
%LPD*%
G01*
G04 APERTURE LIST*
%ADD10C,0.150000*%
G04 #@! TA.AperFunction,Profile*
%ADD11C,0.050000*%
G04 #@! TD*
%ADD12C,0.120000*%
%ADD13C,0.010000*%
%ADD14C,0.203200*%
%ADD15C,0.250000*%
G04 APERTURE END LIST*
D10*
X150988000Y-109831214D02*
X151368952Y-109831214D01*
X151130857Y-109497880D02*
X151130857Y-110355023D01*
X151178476Y-110450261D01*
X151273714Y-110497880D01*
X151368952Y-110497880D01*
X151607047Y-109831214D02*
X151797523Y-110497880D01*
X151988000Y-110021690D01*
X152178476Y-110497880D01*
X152368952Y-109831214D01*
X152749904Y-110497880D02*
X152749904Y-109831214D01*
X152749904Y-109497880D02*
X152702285Y-109545500D01*
X152749904Y-109593119D01*
X152797523Y-109545500D01*
X152749904Y-109497880D01*
X152749904Y-109593119D01*
X153083238Y-109831214D02*
X153464190Y-109831214D01*
X153226095Y-109497880D02*
X153226095Y-110355023D01*
X153273714Y-110450261D01*
X153368952Y-110497880D01*
X153464190Y-110497880D01*
X154226095Y-110450261D02*
X154130857Y-110497880D01*
X153940380Y-110497880D01*
X153845142Y-110450261D01*
X153797523Y-110402642D01*
X153749904Y-110307404D01*
X153749904Y-110021690D01*
X153797523Y-109926452D01*
X153845142Y-109878833D01*
X153940380Y-109831214D01*
X154130857Y-109831214D01*
X154226095Y-109878833D01*
X154654666Y-110497880D02*
X154654666Y-109497880D01*
X155083238Y-110497880D02*
X155083238Y-109974071D01*
X155035619Y-109878833D01*
X154940380Y-109831214D01*
X154797523Y-109831214D01*
X154702285Y-109878833D01*
X154654666Y-109926452D01*
X155559428Y-110402642D02*
X155607047Y-110450261D01*
X155559428Y-110497880D01*
X155511809Y-110450261D01*
X155559428Y-110402642D01*
X155559428Y-110497880D01*
X155892761Y-109831214D02*
X156273714Y-109831214D01*
X156035619Y-109497880D02*
X156035619Y-110355023D01*
X156083238Y-110450261D01*
X156178476Y-110497880D01*
X156273714Y-110497880D01*
X156511809Y-109831214D02*
X156749904Y-110497880D01*
X156988000Y-109831214D01*
X158083238Y-109450261D02*
X157226095Y-110735976D01*
X158416571Y-109831214D02*
X158416571Y-110831214D01*
X158416571Y-109878833D02*
X158511809Y-109831214D01*
X158702285Y-109831214D01*
X158797523Y-109878833D01*
X158845142Y-109926452D01*
X158892761Y-110021690D01*
X158892761Y-110307404D01*
X158845142Y-110402642D01*
X158797523Y-110450261D01*
X158702285Y-110497880D01*
X158511809Y-110497880D01*
X158416571Y-110450261D01*
X159321333Y-110497880D02*
X159321333Y-109497880D01*
X159749904Y-110497880D02*
X159749904Y-109974071D01*
X159702285Y-109878833D01*
X159607047Y-109831214D01*
X159464190Y-109831214D01*
X159368952Y-109878833D01*
X159321333Y-109926452D01*
X160654666Y-110497880D02*
X160654666Y-109974071D01*
X160607047Y-109878833D01*
X160511809Y-109831214D01*
X160321333Y-109831214D01*
X160226095Y-109878833D01*
X160654666Y-110450261D02*
X160559428Y-110497880D01*
X160321333Y-110497880D01*
X160226095Y-110450261D01*
X160178476Y-110355023D01*
X160178476Y-110259785D01*
X160226095Y-110164547D01*
X160321333Y-110116928D01*
X160559428Y-110116928D01*
X160654666Y-110069309D01*
X160988000Y-109831214D02*
X161368952Y-109831214D01*
X161130857Y-109497880D02*
X161130857Y-110355023D01*
X161178476Y-110450261D01*
X161273714Y-110497880D01*
X161368952Y-110497880D01*
X162130857Y-110497880D02*
X162130857Y-109974071D01*
X162083238Y-109878833D01*
X161988000Y-109831214D01*
X161797523Y-109831214D01*
X161702285Y-109878833D01*
X162130857Y-110450261D02*
X162035619Y-110497880D01*
X161797523Y-110497880D01*
X161702285Y-110450261D01*
X161654666Y-110355023D01*
X161654666Y-110259785D01*
X161702285Y-110164547D01*
X161797523Y-110116928D01*
X162035619Y-110116928D01*
X162130857Y-110069309D01*
X162607047Y-109831214D02*
X162607047Y-110497880D01*
X162607047Y-109926452D02*
X162654666Y-109878833D01*
X162749904Y-109831214D01*
X162892761Y-109831214D01*
X162988000Y-109878833D01*
X163035619Y-109974071D01*
X163035619Y-110497880D01*
X163654666Y-110497880D02*
X163559428Y-110450261D01*
X163511809Y-110402642D01*
X163464190Y-110307404D01*
X163464190Y-110021690D01*
X163511809Y-109926452D01*
X163559428Y-109878833D01*
X163654666Y-109831214D01*
X163797523Y-109831214D01*
X163892761Y-109878833D01*
X163940380Y-109926452D01*
X163988000Y-110021690D01*
X163988000Y-110307404D01*
X163940380Y-110402642D01*
X163892761Y-110450261D01*
X163797523Y-110497880D01*
X163654666Y-110497880D01*
X164416571Y-109831214D02*
X164416571Y-110497880D01*
X164416571Y-109926452D02*
X164464190Y-109878833D01*
X164559428Y-109831214D01*
X164702285Y-109831214D01*
X164797523Y-109878833D01*
X164845142Y-109974071D01*
X164845142Y-110497880D01*
X163283380Y-93780928D02*
X163283380Y-93209500D01*
X164283380Y-93495214D02*
X163283380Y-93495214D01*
X164283380Y-92876166D02*
X163616714Y-92876166D01*
X163283380Y-92876166D02*
X163331000Y-92923785D01*
X163378619Y-92876166D01*
X163331000Y-92828547D01*
X163283380Y-92876166D01*
X163378619Y-92876166D01*
X163616714Y-92399976D02*
X164283380Y-92399976D01*
X163711952Y-92399976D02*
X163664333Y-92352357D01*
X163616714Y-92257119D01*
X163616714Y-92114261D01*
X163664333Y-92019023D01*
X163759571Y-91971404D01*
X164283380Y-91971404D01*
X163616714Y-91590452D02*
X164283380Y-91352357D01*
X163616714Y-91114261D02*
X164283380Y-91352357D01*
X164521476Y-91447595D01*
X164569095Y-91495214D01*
X164616714Y-91590452D01*
X164188142Y-90161880D02*
X164235761Y-90209500D01*
X164283380Y-90352357D01*
X164283380Y-90447595D01*
X164235761Y-90590452D01*
X164140523Y-90685690D01*
X164045285Y-90733309D01*
X163854809Y-90780928D01*
X163711952Y-90780928D01*
X163521476Y-90733309D01*
X163426238Y-90685690D01*
X163331000Y-90590452D01*
X163283380Y-90447595D01*
X163283380Y-90352357D01*
X163331000Y-90209500D01*
X163378619Y-90161880D01*
X164283380Y-89304738D02*
X163759571Y-89304738D01*
X163664333Y-89352357D01*
X163616714Y-89447595D01*
X163616714Y-89638071D01*
X163664333Y-89733309D01*
X164235761Y-89304738D02*
X164283380Y-89399976D01*
X164283380Y-89638071D01*
X164235761Y-89733309D01*
X164140523Y-89780928D01*
X164045285Y-89780928D01*
X163950047Y-89733309D01*
X163902428Y-89638071D01*
X163902428Y-89399976D01*
X163854809Y-89304738D01*
X164283380Y-88685690D02*
X164235761Y-88780928D01*
X164140523Y-88828547D01*
X163283380Y-88828547D01*
X164283380Y-88304738D02*
X163616714Y-88304738D01*
X163283380Y-88304738D02*
X163331000Y-88352357D01*
X163378619Y-88304738D01*
X163331000Y-88257119D01*
X163283380Y-88304738D01*
X163378619Y-88304738D01*
X164283380Y-87828547D02*
X163283380Y-87828547D01*
X163664333Y-87828547D02*
X163616714Y-87733309D01*
X163616714Y-87542833D01*
X163664333Y-87447595D01*
X163711952Y-87399976D01*
X163807190Y-87352357D01*
X164092904Y-87352357D01*
X164188142Y-87399976D01*
X164235761Y-87447595D01*
X164283380Y-87542833D01*
X164283380Y-87733309D01*
X164235761Y-87828547D01*
X164283380Y-86923785D02*
X163616714Y-86923785D01*
X163807190Y-86923785D02*
X163711952Y-86876166D01*
X163664333Y-86828547D01*
X163616714Y-86733309D01*
X163616714Y-86638071D01*
X164283380Y-85876166D02*
X163759571Y-85876166D01*
X163664333Y-85923785D01*
X163616714Y-86019023D01*
X163616714Y-86209500D01*
X163664333Y-86304738D01*
X164235761Y-85876166D02*
X164283380Y-85971404D01*
X164283380Y-86209500D01*
X164235761Y-86304738D01*
X164140523Y-86352357D01*
X164045285Y-86352357D01*
X163950047Y-86304738D01*
X163902428Y-86209500D01*
X163902428Y-85971404D01*
X163854809Y-85876166D01*
X163616714Y-85542833D02*
X163616714Y-85161880D01*
X163283380Y-85399976D02*
X164140523Y-85399976D01*
X164235761Y-85352357D01*
X164283380Y-85257119D01*
X164283380Y-85161880D01*
X164283380Y-84685690D02*
X164235761Y-84780928D01*
X164188142Y-84828547D01*
X164092904Y-84876166D01*
X163807190Y-84876166D01*
X163711952Y-84828547D01*
X163664333Y-84780928D01*
X163616714Y-84685690D01*
X163616714Y-84542833D01*
X163664333Y-84447595D01*
X163711952Y-84399976D01*
X163807190Y-84352357D01*
X164092904Y-84352357D01*
X164188142Y-84399976D01*
X164235761Y-84447595D01*
X164283380Y-84542833D01*
X164283380Y-84685690D01*
X164283380Y-83923785D02*
X163616714Y-83923785D01*
X163807190Y-83923785D02*
X163711952Y-83876166D01*
X163664333Y-83828547D01*
X163616714Y-83733309D01*
X163616714Y-83638071D01*
X165266714Y-92685690D02*
X166076238Y-92685690D01*
X166171476Y-92733309D01*
X166219095Y-92780928D01*
X166266714Y-92876166D01*
X166266714Y-93019023D01*
X166219095Y-93114261D01*
X165885761Y-92685690D02*
X165933380Y-92780928D01*
X165933380Y-92971404D01*
X165885761Y-93066642D01*
X165838142Y-93114261D01*
X165742904Y-93161880D01*
X165457190Y-93161880D01*
X165361952Y-93114261D01*
X165314333Y-93066642D01*
X165266714Y-92971404D01*
X165266714Y-92780928D01*
X165314333Y-92685690D01*
X165933380Y-92209500D02*
X165266714Y-92209500D01*
X164933380Y-92209500D02*
X164981000Y-92257119D01*
X165028619Y-92209500D01*
X164981000Y-92161880D01*
X164933380Y-92209500D01*
X165028619Y-92209500D01*
X165266714Y-91876166D02*
X165266714Y-91495214D01*
X164933380Y-91733309D02*
X165790523Y-91733309D01*
X165885761Y-91685690D01*
X165933380Y-91590452D01*
X165933380Y-91495214D01*
X165933380Y-91161880D02*
X164933380Y-91161880D01*
X165933380Y-90733309D02*
X165409571Y-90733309D01*
X165314333Y-90780928D01*
X165266714Y-90876166D01*
X165266714Y-91019023D01*
X165314333Y-91114261D01*
X165361952Y-91161880D01*
X165266714Y-89828547D02*
X165933380Y-89828547D01*
X165266714Y-90257119D02*
X165790523Y-90257119D01*
X165885761Y-90209500D01*
X165933380Y-90114261D01*
X165933380Y-89971404D01*
X165885761Y-89876166D01*
X165838142Y-89828547D01*
X165933380Y-89352357D02*
X164933380Y-89352357D01*
X165314333Y-89352357D02*
X165266714Y-89257119D01*
X165266714Y-89066642D01*
X165314333Y-88971404D01*
X165361952Y-88923785D01*
X165457190Y-88876166D01*
X165742904Y-88876166D01*
X165838142Y-88923785D01*
X165885761Y-88971404D01*
X165933380Y-89066642D01*
X165933380Y-89257119D01*
X165885761Y-89352357D01*
X165838142Y-88447595D02*
X165885761Y-88399976D01*
X165933380Y-88447595D01*
X165885761Y-88495214D01*
X165838142Y-88447595D01*
X165933380Y-88447595D01*
X165885761Y-87542833D02*
X165933380Y-87638071D01*
X165933380Y-87828547D01*
X165885761Y-87923785D01*
X165838142Y-87971404D01*
X165742904Y-88019023D01*
X165457190Y-88019023D01*
X165361952Y-87971404D01*
X165314333Y-87923785D01*
X165266714Y-87828547D01*
X165266714Y-87638071D01*
X165314333Y-87542833D01*
X165933380Y-86971404D02*
X165885761Y-87066642D01*
X165838142Y-87114261D01*
X165742904Y-87161880D01*
X165457190Y-87161880D01*
X165361952Y-87114261D01*
X165314333Y-87066642D01*
X165266714Y-86971404D01*
X165266714Y-86828547D01*
X165314333Y-86733309D01*
X165361952Y-86685690D01*
X165457190Y-86638071D01*
X165742904Y-86638071D01*
X165838142Y-86685690D01*
X165885761Y-86733309D01*
X165933380Y-86828547D01*
X165933380Y-86971404D01*
X165933380Y-86209500D02*
X165266714Y-86209500D01*
X165361952Y-86209500D02*
X165314333Y-86161880D01*
X165266714Y-86066642D01*
X165266714Y-85923785D01*
X165314333Y-85828547D01*
X165409571Y-85780928D01*
X165933380Y-85780928D01*
X165409571Y-85780928D02*
X165314333Y-85733309D01*
X165266714Y-85638071D01*
X165266714Y-85495214D01*
X165314333Y-85399976D01*
X165409571Y-85352357D01*
X165933380Y-85352357D01*
X164885761Y-84161880D02*
X166171476Y-85019023D01*
X166916714Y-93090452D02*
X167583380Y-92899976D01*
X167107190Y-92709500D01*
X167583380Y-92519023D01*
X166916714Y-92328547D01*
X167583380Y-91519023D02*
X167059571Y-91519023D01*
X166964333Y-91566642D01*
X166916714Y-91661880D01*
X166916714Y-91852357D01*
X166964333Y-91947595D01*
X167535761Y-91519023D02*
X167583380Y-91614261D01*
X167583380Y-91852357D01*
X167535761Y-91947595D01*
X167440523Y-91995214D01*
X167345285Y-91995214D01*
X167250047Y-91947595D01*
X167202428Y-91852357D01*
X167202428Y-91614261D01*
X167154809Y-91519023D01*
X166916714Y-90614261D02*
X167726238Y-90614261D01*
X167821476Y-90661880D01*
X167869095Y-90709500D01*
X167916714Y-90804738D01*
X167916714Y-90947595D01*
X167869095Y-91042833D01*
X167535761Y-90614261D02*
X167583380Y-90709500D01*
X167583380Y-90899976D01*
X167535761Y-90995214D01*
X167488142Y-91042833D01*
X167392904Y-91090452D01*
X167107190Y-91090452D01*
X167011952Y-91042833D01*
X166964333Y-90995214D01*
X166916714Y-90899976D01*
X166916714Y-90709500D01*
X166964333Y-90614261D01*
X167583380Y-90138071D02*
X166916714Y-90138071D01*
X166583380Y-90138071D02*
X166631000Y-90185690D01*
X166678619Y-90138071D01*
X166631000Y-90090452D01*
X166583380Y-90138071D01*
X166678619Y-90138071D01*
X167583380Y-89661880D02*
X166916714Y-89661880D01*
X167011952Y-89661880D02*
X166964333Y-89614261D01*
X166916714Y-89519023D01*
X166916714Y-89376166D01*
X166964333Y-89280928D01*
X167059571Y-89233309D01*
X167583380Y-89233309D01*
X167059571Y-89233309D02*
X166964333Y-89185690D01*
X166916714Y-89090452D01*
X166916714Y-88947595D01*
X166964333Y-88852357D01*
X167059571Y-88804738D01*
X167583380Y-88804738D01*
X167583380Y-88328547D02*
X166916714Y-88328547D01*
X166583380Y-88328547D02*
X166631000Y-88376166D01*
X166678619Y-88328547D01*
X166631000Y-88280928D01*
X166583380Y-88328547D01*
X166678619Y-88328547D01*
X166916714Y-87852357D02*
X167583380Y-87852357D01*
X167011952Y-87852357D02*
X166964333Y-87804738D01*
X166916714Y-87709500D01*
X166916714Y-87566642D01*
X166964333Y-87471404D01*
X167059571Y-87423785D01*
X167583380Y-87423785D01*
X167583380Y-86519023D02*
X167059571Y-86519023D01*
X166964333Y-86566642D01*
X166916714Y-86661880D01*
X166916714Y-86852357D01*
X166964333Y-86947595D01*
X167535761Y-86519023D02*
X167583380Y-86614261D01*
X167583380Y-86852357D01*
X167535761Y-86947595D01*
X167440523Y-86995214D01*
X167345285Y-86995214D01*
X167250047Y-86947595D01*
X167202428Y-86852357D01*
X167202428Y-86614261D01*
X167154809Y-86519023D01*
X166916714Y-86185690D02*
X166916714Y-85804738D01*
X166583380Y-86042833D02*
X167440523Y-86042833D01*
X167535761Y-85995214D01*
X167583380Y-85899976D01*
X167583380Y-85804738D01*
X167583380Y-85328547D02*
X167535761Y-85423785D01*
X167488142Y-85471404D01*
X167392904Y-85519023D01*
X167107190Y-85519023D01*
X167011952Y-85471404D01*
X166964333Y-85423785D01*
X166916714Y-85328547D01*
X166916714Y-85185690D01*
X166964333Y-85090452D01*
X167011952Y-85042833D01*
X167107190Y-84995214D01*
X167392904Y-84995214D01*
X167488142Y-85042833D01*
X167535761Y-85090452D01*
X167583380Y-85185690D01*
X167583380Y-85328547D01*
X167583380Y-84566642D02*
X166916714Y-84566642D01*
X167107190Y-84566642D02*
X167011952Y-84519023D01*
X166964333Y-84471404D01*
X166916714Y-84376166D01*
X166916714Y-84280928D01*
X155551309Y-80970380D02*
X155551309Y-79970380D01*
X155979880Y-80922761D02*
X156122738Y-80970380D01*
X156360833Y-80970380D01*
X156456071Y-80922761D01*
X156503690Y-80875142D01*
X156551309Y-80779904D01*
X156551309Y-80684666D01*
X156503690Y-80589428D01*
X156456071Y-80541809D01*
X156360833Y-80494190D01*
X156170357Y-80446571D01*
X156075119Y-80398952D01*
X156027500Y-80351333D01*
X155979880Y-80256095D01*
X155979880Y-80160857D01*
X156027500Y-80065619D01*
X156075119Y-80018000D01*
X156170357Y-79970380D01*
X156408452Y-79970380D01*
X156551309Y-80018000D01*
X156979880Y-80970380D02*
X156979880Y-79970380D01*
X157360833Y-79970380D01*
X157456071Y-80018000D01*
X157503690Y-80065619D01*
X157551309Y-80160857D01*
X157551309Y-80303714D01*
X157503690Y-80398952D01*
X157456071Y-80446571D01*
X157360833Y-80494190D01*
X156979880Y-80494190D01*
D11*
X97000000Y-111000000D02*
X170000000Y-111000000D01*
X97000000Y-79000000D02*
X97000000Y-111000000D01*
X170000000Y-79000000D02*
X97000000Y-79000000D01*
X170000000Y-111000000D02*
X170000000Y-79000000D01*
D12*
G04 #@! TO.C,Q1*
X148207000Y-96258500D02*
X148207000Y-95328500D01*
X148207000Y-93098500D02*
X148207000Y-94028500D01*
X148207000Y-93098500D02*
X146047000Y-93098500D01*
X148207000Y-96258500D02*
X146747000Y-96258500D01*
G04 #@! TO.C,U1*
X138814500Y-107879500D02*
X149094500Y-107879500D01*
X138814500Y-97479500D02*
X138814500Y-107879500D01*
X149094500Y-97479500D02*
X138814500Y-97479500D01*
X149094500Y-107879500D02*
X149094500Y-97479500D01*
X141304500Y-107819500D02*
X142954500Y-107819500D01*
X141304500Y-97539500D02*
X141304500Y-107819500D01*
X146604500Y-97539500D02*
X141304500Y-97539500D01*
X146604500Y-107819500D02*
X146604500Y-97539500D01*
X144954500Y-107819500D02*
X146604500Y-107819500D01*
X142954500Y-107819500D02*
G75*
G02*
X144954500Y-107819500I1000000J0D01*
G01*
G04 #@! TO.C,J4*
X152717500Y-97559500D02*
X154047500Y-97559500D01*
X154047500Y-97559500D02*
X154047500Y-98889500D01*
X154047500Y-100159500D02*
X154047500Y-107839500D01*
X151387500Y-107839500D02*
X154047500Y-107839500D01*
X151387500Y-100159500D02*
X151387500Y-107839500D01*
X151387500Y-100159500D02*
X154047500Y-100159500D01*
G04 #@! TO.C,J2*
X160337500Y-107819500D02*
X159007500Y-107819500D01*
X159007500Y-107819500D02*
X159007500Y-106489500D01*
X159007500Y-105219500D02*
X159007500Y-97539500D01*
X161667500Y-97539500D02*
X159007500Y-97539500D01*
X161667500Y-105219500D02*
X161667500Y-97539500D01*
X161667500Y-105219500D02*
X159007500Y-105219500D01*
G04 #@! TO.C,D1*
X162760000Y-84420000D02*
X159820000Y-84420000D01*
X162760000Y-84660000D02*
X159820000Y-84660000D01*
X162760000Y-84540000D02*
X159820000Y-84540000D01*
X161290000Y-90100000D02*
X161290000Y-89080000D01*
X161290000Y-82620000D02*
X161290000Y-83640000D01*
X162760000Y-89080000D02*
X162760000Y-83640000D01*
X159820000Y-89080000D02*
X162760000Y-89080000D01*
X159820000Y-83640000D02*
X159820000Y-89080000D01*
X162760000Y-83640000D02*
X159820000Y-83640000D01*
D13*
G04 #@! TO.C,REF\u002A\u002A*
G36*
X153301744Y-96090418D02*
G01*
X153357201Y-96118068D01*
X153406148Y-96168980D01*
X153419629Y-96187838D01*
X153434314Y-96212515D01*
X153443842Y-96239316D01*
X153449293Y-96275087D01*
X153451747Y-96326669D01*
X153452286Y-96394767D01*
X153449852Y-96488088D01*
X153441394Y-96558157D01*
X153425174Y-96610431D01*
X153399454Y-96650369D01*
X153362497Y-96683429D01*
X153359782Y-96685386D01*
X153323360Y-96705408D01*
X153279502Y-96715315D01*
X153223724Y-96717757D01*
X153133048Y-96717757D01*
X153133010Y-96805783D01*
X153132166Y-96854808D01*
X153127024Y-96883565D01*
X153113587Y-96900811D01*
X153087858Y-96915308D01*
X153081679Y-96918269D01*
X153052764Y-96932148D01*
X153030376Y-96940914D01*
X153013729Y-96941671D01*
X153002036Y-96931523D01*
X152994510Y-96907573D01*
X152990366Y-96866926D01*
X152988815Y-96806686D01*
X152989071Y-96723955D01*
X152990349Y-96615839D01*
X152990748Y-96583500D01*
X152992185Y-96472024D01*
X152993472Y-96399103D01*
X153132971Y-96399103D01*
X153133755Y-96460999D01*
X153137240Y-96501497D01*
X153145124Y-96528208D01*
X153159105Y-96548744D01*
X153168597Y-96558760D01*
X153207404Y-96588067D01*
X153241763Y-96590452D01*
X153277216Y-96566250D01*
X153278114Y-96565357D01*
X153292539Y-96546653D01*
X153301313Y-96521232D01*
X153305739Y-96482084D01*
X153307118Y-96422197D01*
X153307143Y-96408930D01*
X153303812Y-96326401D01*
X153292969Y-96269191D01*
X153273340Y-96234266D01*
X153243650Y-96218594D01*
X153226491Y-96217014D01*
X153185766Y-96224426D01*
X153157832Y-96248830D01*
X153141017Y-96293480D01*
X153133650Y-96361630D01*
X153132971Y-96399103D01*
X152993472Y-96399103D01*
X152993708Y-96385745D01*
X152995677Y-96320833D01*
X152998450Y-96273458D01*
X153002388Y-96239790D01*
X153007849Y-96215998D01*
X153015192Y-96198253D01*
X153024777Y-96182724D01*
X153028887Y-96176881D01*
X153083405Y-96121685D01*
X153152336Y-96090390D01*
X153232072Y-96081665D01*
X153301744Y-96090418D01*
G37*
X153301744Y-96090418D02*
X153357201Y-96118068D01*
X153406148Y-96168980D01*
X153419629Y-96187838D01*
X153434314Y-96212515D01*
X153443842Y-96239316D01*
X153449293Y-96275087D01*
X153451747Y-96326669D01*
X153452286Y-96394767D01*
X153449852Y-96488088D01*
X153441394Y-96558157D01*
X153425174Y-96610431D01*
X153399454Y-96650369D01*
X153362497Y-96683429D01*
X153359782Y-96685386D01*
X153323360Y-96705408D01*
X153279502Y-96715315D01*
X153223724Y-96717757D01*
X153133048Y-96717757D01*
X153133010Y-96805783D01*
X153132166Y-96854808D01*
X153127024Y-96883565D01*
X153113587Y-96900811D01*
X153087858Y-96915308D01*
X153081679Y-96918269D01*
X153052764Y-96932148D01*
X153030376Y-96940914D01*
X153013729Y-96941671D01*
X153002036Y-96931523D01*
X152994510Y-96907573D01*
X152990366Y-96866926D01*
X152988815Y-96806686D01*
X152989071Y-96723955D01*
X152990349Y-96615839D01*
X152990748Y-96583500D01*
X152992185Y-96472024D01*
X152993472Y-96399103D01*
X153132971Y-96399103D01*
X153133755Y-96460999D01*
X153137240Y-96501497D01*
X153145124Y-96528208D01*
X153159105Y-96548744D01*
X153168597Y-96558760D01*
X153207404Y-96588067D01*
X153241763Y-96590452D01*
X153277216Y-96566250D01*
X153278114Y-96565357D01*
X153292539Y-96546653D01*
X153301313Y-96521232D01*
X153305739Y-96482084D01*
X153307118Y-96422197D01*
X153307143Y-96408930D01*
X153303812Y-96326401D01*
X153292969Y-96269191D01*
X153273340Y-96234266D01*
X153243650Y-96218594D01*
X153226491Y-96217014D01*
X153185766Y-96224426D01*
X153157832Y-96248830D01*
X153141017Y-96293480D01*
X153133650Y-96361630D01*
X153132971Y-96399103D01*
X152993472Y-96399103D01*
X152993708Y-96385745D01*
X152995677Y-96320833D01*
X152998450Y-96273458D01*
X153002388Y-96239790D01*
X153007849Y-96215998D01*
X153015192Y-96198253D01*
X153024777Y-96182724D01*
X153028887Y-96176881D01*
X153083405Y-96121685D01*
X153152336Y-96090390D01*
X153232072Y-96081665D01*
X153301744Y-96090418D01*
G36*
X154418093Y-96098280D02*
G01*
X154464672Y-96125223D01*
X154497057Y-96151966D01*
X154520742Y-96179984D01*
X154537059Y-96214248D01*
X154547339Y-96259727D01*
X154552914Y-96321392D01*
X154555116Y-96404211D01*
X154555371Y-96463746D01*
X154555371Y-96682891D01*
X154493686Y-96710544D01*
X154432000Y-96738197D01*
X154424743Y-96498170D01*
X154421744Y-96408528D01*
X154418598Y-96343462D01*
X154414701Y-96298526D01*
X154409447Y-96269270D01*
X154402231Y-96251248D01*
X154392450Y-96240011D01*
X154389312Y-96237579D01*
X154341761Y-96218583D01*
X154293697Y-96226100D01*
X154265086Y-96246043D01*
X154253447Y-96260175D01*
X154245391Y-96278720D01*
X154240271Y-96306834D01*
X154237441Y-96349673D01*
X154236256Y-96412395D01*
X154236057Y-96477761D01*
X154236018Y-96559768D01*
X154234614Y-96617816D01*
X154229914Y-96656965D01*
X154219987Y-96682280D01*
X154202903Y-96698823D01*
X154176732Y-96711656D01*
X154141775Y-96724991D01*
X154103596Y-96739507D01*
X154108141Y-96481889D01*
X154109971Y-96389019D01*
X154112112Y-96320389D01*
X154115181Y-96271211D01*
X154119794Y-96236698D01*
X154126568Y-96212062D01*
X154136119Y-96192516D01*
X154147634Y-96175270D01*
X154203190Y-96120180D01*
X154270980Y-96088322D01*
X154344713Y-96080691D01*
X154418093Y-96098280D01*
G37*
X154418093Y-96098280D02*
X154464672Y-96125223D01*
X154497057Y-96151966D01*
X154520742Y-96179984D01*
X154537059Y-96214248D01*
X154547339Y-96259727D01*
X154552914Y-96321392D01*
X154555116Y-96404211D01*
X154555371Y-96463746D01*
X154555371Y-96682891D01*
X154493686Y-96710544D01*
X154432000Y-96738197D01*
X154424743Y-96498170D01*
X154421744Y-96408528D01*
X154418598Y-96343462D01*
X154414701Y-96298526D01*
X154409447Y-96269270D01*
X154402231Y-96251248D01*
X154392450Y-96240011D01*
X154389312Y-96237579D01*
X154341761Y-96218583D01*
X154293697Y-96226100D01*
X154265086Y-96246043D01*
X154253447Y-96260175D01*
X154245391Y-96278720D01*
X154240271Y-96306834D01*
X154237441Y-96349673D01*
X154236256Y-96412395D01*
X154236057Y-96477761D01*
X154236018Y-96559768D01*
X154234614Y-96617816D01*
X154229914Y-96656965D01*
X154219987Y-96682280D01*
X154202903Y-96698823D01*
X154176732Y-96711656D01*
X154141775Y-96724991D01*
X154103596Y-96739507D01*
X154108141Y-96481889D01*
X154109971Y-96389019D01*
X154112112Y-96320389D01*
X154115181Y-96271211D01*
X154119794Y-96236698D01*
X154126568Y-96212062D01*
X154136119Y-96192516D01*
X154147634Y-96175270D01*
X154203190Y-96120180D01*
X154270980Y-96088322D01*
X154344713Y-96080691D01*
X154418093Y-96098280D01*
G36*
X152743115Y-96092462D02*
G01*
X152811145Y-96128233D01*
X152861351Y-96185801D01*
X152879185Y-96222812D01*
X152893063Y-96278382D01*
X152900167Y-96348596D01*
X152900840Y-96425227D01*
X152895427Y-96500052D01*
X152884270Y-96564842D01*
X152867714Y-96611373D01*
X152862626Y-96619387D01*
X152802355Y-96679207D01*
X152730769Y-96715035D01*
X152653092Y-96725520D01*
X152574548Y-96709310D01*
X152552689Y-96699592D01*
X152510122Y-96669643D01*
X152472763Y-96629933D01*
X152469232Y-96624897D01*
X152454881Y-96600624D01*
X152445394Y-96574678D01*
X152439790Y-96540522D01*
X152437086Y-96491619D01*
X152436299Y-96421435D01*
X152436286Y-96405700D01*
X152436322Y-96400692D01*
X152581429Y-96400692D01*
X152582273Y-96466930D01*
X152585596Y-96510886D01*
X152592583Y-96539279D01*
X152604416Y-96558825D01*
X152610457Y-96565357D01*
X152645186Y-96590180D01*
X152678903Y-96589048D01*
X152712995Y-96567516D01*
X152733329Y-96544529D01*
X152745371Y-96510978D01*
X152752134Y-96458069D01*
X152752598Y-96451899D01*
X152753752Y-96356013D01*
X152741688Y-96284799D01*
X152716570Y-96238694D01*
X152678560Y-96218135D01*
X152664992Y-96217014D01*
X152629364Y-96222652D01*
X152604994Y-96242186D01*
X152590093Y-96279542D01*
X152582875Y-96338650D01*
X152581429Y-96400692D01*
X152436322Y-96400692D01*
X152436826Y-96330913D01*
X152439096Y-96278659D01*
X152444068Y-96242449D01*
X152452713Y-96215799D01*
X152466005Y-96192222D01*
X152468943Y-96187838D01*
X152518313Y-96128749D01*
X152572109Y-96094447D01*
X152637602Y-96080831D01*
X152659842Y-96080165D01*
X152743115Y-96092462D01*
G37*
X152743115Y-96092462D02*
X152811145Y-96128233D01*
X152861351Y-96185801D01*
X152879185Y-96222812D01*
X152893063Y-96278382D01*
X152900167Y-96348596D01*
X152900840Y-96425227D01*
X152895427Y-96500052D01*
X152884270Y-96564842D01*
X152867714Y-96611373D01*
X152862626Y-96619387D01*
X152802355Y-96679207D01*
X152730769Y-96715035D01*
X152653092Y-96725520D01*
X152574548Y-96709310D01*
X152552689Y-96699592D01*
X152510122Y-96669643D01*
X152472763Y-96629933D01*
X152469232Y-96624897D01*
X152454881Y-96600624D01*
X152445394Y-96574678D01*
X152439790Y-96540522D01*
X152437086Y-96491619D01*
X152436299Y-96421435D01*
X152436286Y-96405700D01*
X152436322Y-96400692D01*
X152581429Y-96400692D01*
X152582273Y-96466930D01*
X152585596Y-96510886D01*
X152592583Y-96539279D01*
X152604416Y-96558825D01*
X152610457Y-96565357D01*
X152645186Y-96590180D01*
X152678903Y-96589048D01*
X152712995Y-96567516D01*
X152733329Y-96544529D01*
X152745371Y-96510978D01*
X152752134Y-96458069D01*
X152752598Y-96451899D01*
X152753752Y-96356013D01*
X152741688Y-96284799D01*
X152716570Y-96238694D01*
X152678560Y-96218135D01*
X152664992Y-96217014D01*
X152629364Y-96222652D01*
X152604994Y-96242186D01*
X152590093Y-96279542D01*
X152582875Y-96338650D01*
X152581429Y-96400692D01*
X152436322Y-96400692D01*
X152436826Y-96330913D01*
X152439096Y-96278659D01*
X152444068Y-96242449D01*
X152452713Y-96215799D01*
X152466005Y-96192222D01*
X152468943Y-96187838D01*
X152518313Y-96128749D01*
X152572109Y-96094447D01*
X152637602Y-96080831D01*
X152659842Y-96080165D01*
X152743115Y-96092462D01*
G36*
X153870303Y-96101739D02*
G01*
X153927527Y-96140235D01*
X153971749Y-96195835D01*
X153998167Y-96266586D01*
X154003510Y-96318662D01*
X154002903Y-96340393D01*
X153997822Y-96357031D01*
X153983855Y-96371937D01*
X153956589Y-96388473D01*
X153911612Y-96409998D01*
X153844511Y-96439874D01*
X153844171Y-96440024D01*
X153782407Y-96468313D01*
X153731759Y-96493433D01*
X153697404Y-96512679D01*
X153684518Y-96523348D01*
X153684514Y-96523434D01*
X153695872Y-96546666D01*
X153722431Y-96572274D01*
X153752923Y-96590721D01*
X153768370Y-96594386D01*
X153810515Y-96581712D01*
X153846808Y-96549971D01*
X153864517Y-96515072D01*
X153881552Y-96489345D01*
X153914922Y-96460046D01*
X153954149Y-96434735D01*
X153988756Y-96420971D01*
X153995993Y-96420214D01*
X154004139Y-96432660D01*
X154004630Y-96464472D01*
X153998643Y-96507366D01*
X153987357Y-96553058D01*
X153971950Y-96593261D01*
X153971171Y-96594822D01*
X153924804Y-96659562D01*
X153864711Y-96703597D01*
X153796465Y-96725211D01*
X153725638Y-96722685D01*
X153657804Y-96694304D01*
X153654788Y-96692308D01*
X153601427Y-96643948D01*
X153566340Y-96580852D01*
X153546922Y-96497887D01*
X153544316Y-96474578D01*
X153539701Y-96364555D01*
X153545233Y-96313248D01*
X153684514Y-96313248D01*
X153686324Y-96345253D01*
X153696222Y-96354593D01*
X153720898Y-96347605D01*
X153759795Y-96331087D01*
X153803275Y-96310381D01*
X153804356Y-96309833D01*
X153841209Y-96290449D01*
X153856000Y-96277513D01*
X153852353Y-96263951D01*
X153836995Y-96246132D01*
X153797923Y-96220345D01*
X153755846Y-96218450D01*
X153718103Y-96237217D01*
X153692034Y-96273415D01*
X153684514Y-96313248D01*
X153545233Y-96313248D01*
X153549194Y-96276527D01*
X153573550Y-96206712D01*
X153607456Y-96157802D01*
X153668653Y-96108378D01*
X153736063Y-96083859D01*
X153804880Y-96082297D01*
X153870303Y-96101739D01*
G37*
X153870303Y-96101739D02*
X153927527Y-96140235D01*
X153971749Y-96195835D01*
X153998167Y-96266586D01*
X154003510Y-96318662D01*
X154002903Y-96340393D01*
X153997822Y-96357031D01*
X153983855Y-96371937D01*
X153956589Y-96388473D01*
X153911612Y-96409998D01*
X153844511Y-96439874D01*
X153844171Y-96440024D01*
X153782407Y-96468313D01*
X153731759Y-96493433D01*
X153697404Y-96512679D01*
X153684518Y-96523348D01*
X153684514Y-96523434D01*
X153695872Y-96546666D01*
X153722431Y-96572274D01*
X153752923Y-96590721D01*
X153768370Y-96594386D01*
X153810515Y-96581712D01*
X153846808Y-96549971D01*
X153864517Y-96515072D01*
X153881552Y-96489345D01*
X153914922Y-96460046D01*
X153954149Y-96434735D01*
X153988756Y-96420971D01*
X153995993Y-96420214D01*
X154004139Y-96432660D01*
X154004630Y-96464472D01*
X153998643Y-96507366D01*
X153987357Y-96553058D01*
X153971950Y-96593261D01*
X153971171Y-96594822D01*
X153924804Y-96659562D01*
X153864711Y-96703597D01*
X153796465Y-96725211D01*
X153725638Y-96722685D01*
X153657804Y-96694304D01*
X153654788Y-96692308D01*
X153601427Y-96643948D01*
X153566340Y-96580852D01*
X153546922Y-96497887D01*
X153544316Y-96474578D01*
X153539701Y-96364555D01*
X153545233Y-96313248D01*
X153684514Y-96313248D01*
X153686324Y-96345253D01*
X153696222Y-96354593D01*
X153720898Y-96347605D01*
X153759795Y-96331087D01*
X153803275Y-96310381D01*
X153804356Y-96309833D01*
X153841209Y-96290449D01*
X153856000Y-96277513D01*
X153852353Y-96263951D01*
X153836995Y-96246132D01*
X153797923Y-96220345D01*
X153755846Y-96218450D01*
X153718103Y-96237217D01*
X153692034Y-96273415D01*
X153684514Y-96313248D01*
X153545233Y-96313248D01*
X153549194Y-96276527D01*
X153573550Y-96206712D01*
X153607456Y-96157802D01*
X153668653Y-96108378D01*
X153736063Y-96083859D01*
X153804880Y-96082297D01*
X153870303Y-96101739D01*
G36*
X155077886Y-96021789D02*
G01*
X155082139Y-96081113D01*
X155087025Y-96116072D01*
X155093795Y-96131320D01*
X155103702Y-96131515D01*
X155106914Y-96129695D01*
X155149644Y-96116515D01*
X155205227Y-96117285D01*
X155261737Y-96130833D01*
X155297082Y-96148361D01*
X155333321Y-96176361D01*
X155359813Y-96208049D01*
X155377999Y-96248313D01*
X155389322Y-96302043D01*
X155395222Y-96374126D01*
X155397143Y-96469451D01*
X155397177Y-96487737D01*
X155397200Y-96693146D01*
X155351491Y-96709080D01*
X155319027Y-96719920D01*
X155301215Y-96724968D01*
X155300691Y-96725014D01*
X155298937Y-96711328D01*
X155297444Y-96673576D01*
X155296326Y-96616724D01*
X155295697Y-96545734D01*
X155295600Y-96502573D01*
X155295398Y-96417473D01*
X155294358Y-96356481D01*
X155291831Y-96314677D01*
X155287164Y-96287142D01*
X155279707Y-96268956D01*
X155268811Y-96255198D01*
X155262007Y-96248573D01*
X155215272Y-96221875D01*
X155164272Y-96219875D01*
X155118001Y-96242455D01*
X155109444Y-96250607D01*
X155096893Y-96265936D01*
X155088188Y-96284118D01*
X155082631Y-96310409D01*
X155079526Y-96350062D01*
X155078176Y-96408332D01*
X155077886Y-96488673D01*
X155077886Y-96693146D01*
X155032177Y-96709080D01*
X154999713Y-96719920D01*
X154981901Y-96724968D01*
X154981377Y-96725014D01*
X154980037Y-96711123D01*
X154978828Y-96671939D01*
X154977801Y-96611200D01*
X154977002Y-96532641D01*
X154976481Y-96439998D01*
X154976286Y-96337009D01*
X154976286Y-95939842D01*
X155023457Y-95919944D01*
X155070629Y-95900047D01*
X155077886Y-96021789D01*
G37*
X155077886Y-96021789D02*
X155082139Y-96081113D01*
X155087025Y-96116072D01*
X155093795Y-96131320D01*
X155103702Y-96131515D01*
X155106914Y-96129695D01*
X155149644Y-96116515D01*
X155205227Y-96117285D01*
X155261737Y-96130833D01*
X155297082Y-96148361D01*
X155333321Y-96176361D01*
X155359813Y-96208049D01*
X155377999Y-96248313D01*
X155389322Y-96302043D01*
X155395222Y-96374126D01*
X155397143Y-96469451D01*
X155397177Y-96487737D01*
X155397200Y-96693146D01*
X155351491Y-96709080D01*
X155319027Y-96719920D01*
X155301215Y-96724968D01*
X155300691Y-96725014D01*
X155298937Y-96711328D01*
X155297444Y-96673576D01*
X155296326Y-96616724D01*
X155295697Y-96545734D01*
X155295600Y-96502573D01*
X155295398Y-96417473D01*
X155294358Y-96356481D01*
X155291831Y-96314677D01*
X155287164Y-96287142D01*
X155279707Y-96268956D01*
X155268811Y-96255198D01*
X155262007Y-96248573D01*
X155215272Y-96221875D01*
X155164272Y-96219875D01*
X155118001Y-96242455D01*
X155109444Y-96250607D01*
X155096893Y-96265936D01*
X155088188Y-96284118D01*
X155082631Y-96310409D01*
X155079526Y-96350062D01*
X155078176Y-96408332D01*
X155077886Y-96488673D01*
X155077886Y-96693146D01*
X155032177Y-96709080D01*
X154999713Y-96719920D01*
X154981901Y-96724968D01*
X154981377Y-96725014D01*
X154980037Y-96711123D01*
X154978828Y-96671939D01*
X154977801Y-96611200D01*
X154977002Y-96532641D01*
X154976481Y-96439998D01*
X154976286Y-96337009D01*
X154976286Y-95939842D01*
X155023457Y-95919944D01*
X155070629Y-95900047D01*
X155077886Y-96021789D01*
G36*
X155741744Y-96121468D02*
G01*
X155798616Y-96142587D01*
X155799267Y-96142993D01*
X155834440Y-96168880D01*
X155860407Y-96199133D01*
X155878670Y-96238558D01*
X155890732Y-96291962D01*
X155898096Y-96364151D01*
X155902264Y-96459932D01*
X155902629Y-96473578D01*
X155907876Y-96679342D01*
X155863716Y-96702178D01*
X155831763Y-96717610D01*
X155812470Y-96724923D01*
X155811578Y-96725014D01*
X155808239Y-96711522D01*
X155805587Y-96675126D01*
X155803956Y-96621952D01*
X155803600Y-96578893D01*
X155803592Y-96509141D01*
X155800403Y-96465337D01*
X155789288Y-96444444D01*
X155765501Y-96443425D01*
X155724296Y-96459241D01*
X155662086Y-96488315D01*
X155616341Y-96512463D01*
X155592813Y-96533413D01*
X155585896Y-96556247D01*
X155585886Y-96557377D01*
X155597299Y-96596712D01*
X155631092Y-96617962D01*
X155682809Y-96621039D01*
X155720061Y-96620506D01*
X155739703Y-96631235D01*
X155751952Y-96657005D01*
X155759002Y-96689837D01*
X155748842Y-96708466D01*
X155745017Y-96711132D01*
X155709001Y-96721840D01*
X155658566Y-96723356D01*
X155606626Y-96716259D01*
X155569822Y-96703288D01*
X155518938Y-96660085D01*
X155490014Y-96599946D01*
X155484286Y-96552962D01*
X155488657Y-96510582D01*
X155504475Y-96475988D01*
X155535797Y-96445263D01*
X155586678Y-96414490D01*
X155661176Y-96379752D01*
X155665714Y-96377788D01*
X155732821Y-96346787D01*
X155774232Y-96321362D01*
X155791981Y-96298514D01*
X155788107Y-96275245D01*
X155764643Y-96248556D01*
X155757627Y-96242414D01*
X155710630Y-96218600D01*
X155661933Y-96219603D01*
X155619522Y-96242951D01*
X155591384Y-96286175D01*
X155588769Y-96294660D01*
X155563308Y-96335808D01*
X155531001Y-96355628D01*
X155484286Y-96375270D01*
X155484286Y-96324450D01*
X155498496Y-96250582D01*
X155540675Y-96182827D01*
X155562624Y-96160161D01*
X155612517Y-96131069D01*
X155675967Y-96117900D01*
X155741744Y-96121468D01*
G37*
X155741744Y-96121468D02*
X155798616Y-96142587D01*
X155799267Y-96142993D01*
X155834440Y-96168880D01*
X155860407Y-96199133D01*
X155878670Y-96238558D01*
X155890732Y-96291962D01*
X155898096Y-96364151D01*
X155902264Y-96459932D01*
X155902629Y-96473578D01*
X155907876Y-96679342D01*
X155863716Y-96702178D01*
X155831763Y-96717610D01*
X155812470Y-96724923D01*
X155811578Y-96725014D01*
X155808239Y-96711522D01*
X155805587Y-96675126D01*
X155803956Y-96621952D01*
X155803600Y-96578893D01*
X155803592Y-96509141D01*
X155800403Y-96465337D01*
X155789288Y-96444444D01*
X155765501Y-96443425D01*
X155724296Y-96459241D01*
X155662086Y-96488315D01*
X155616341Y-96512463D01*
X155592813Y-96533413D01*
X155585896Y-96556247D01*
X155585886Y-96557377D01*
X155597299Y-96596712D01*
X155631092Y-96617962D01*
X155682809Y-96621039D01*
X155720061Y-96620506D01*
X155739703Y-96631235D01*
X155751952Y-96657005D01*
X155759002Y-96689837D01*
X155748842Y-96708466D01*
X155745017Y-96711132D01*
X155709001Y-96721840D01*
X155658566Y-96723356D01*
X155606626Y-96716259D01*
X155569822Y-96703288D01*
X155518938Y-96660085D01*
X155490014Y-96599946D01*
X155484286Y-96552962D01*
X155488657Y-96510582D01*
X155504475Y-96475988D01*
X155535797Y-96445263D01*
X155586678Y-96414490D01*
X155661176Y-96379752D01*
X155665714Y-96377788D01*
X155732821Y-96346787D01*
X155774232Y-96321362D01*
X155791981Y-96298514D01*
X155788107Y-96275245D01*
X155764643Y-96248556D01*
X155757627Y-96242414D01*
X155710630Y-96218600D01*
X155661933Y-96219603D01*
X155619522Y-96242951D01*
X155591384Y-96286175D01*
X155588769Y-96294660D01*
X155563308Y-96335808D01*
X155531001Y-96355628D01*
X155484286Y-96375270D01*
X155484286Y-96324450D01*
X155498496Y-96250582D01*
X155540675Y-96182827D01*
X155562624Y-96160161D01*
X155612517Y-96131069D01*
X155675967Y-96117900D01*
X155741744Y-96121468D01*
G36*
X156231926Y-96120255D02*
G01*
X156297858Y-96144584D01*
X156351273Y-96187617D01*
X156372164Y-96217909D01*
X156394939Y-96273494D01*
X156394466Y-96313686D01*
X156370562Y-96340717D01*
X156361717Y-96345313D01*
X156323530Y-96359644D01*
X156304028Y-96355972D01*
X156297422Y-96331907D01*
X156297086Y-96318614D01*
X156284992Y-96269710D01*
X156253471Y-96235499D01*
X156209659Y-96218976D01*
X156160695Y-96223134D01*
X156120894Y-96244727D01*
X156107450Y-96257044D01*
X156097921Y-96271987D01*
X156091485Y-96294575D01*
X156087317Y-96329828D01*
X156084597Y-96382766D01*
X156082502Y-96458407D01*
X156081960Y-96482357D01*
X156079981Y-96564290D01*
X156077731Y-96621955D01*
X156074357Y-96660108D01*
X156069006Y-96683504D01*
X156060824Y-96696898D01*
X156048959Y-96705045D01*
X156041362Y-96708644D01*
X156009102Y-96720952D01*
X155990111Y-96725014D01*
X155983836Y-96711448D01*
X155980006Y-96670434D01*
X155978600Y-96601499D01*
X155979598Y-96504169D01*
X155979908Y-96489157D01*
X155982101Y-96400359D01*
X155984693Y-96335519D01*
X155988382Y-96289567D01*
X155993864Y-96257435D01*
X156001835Y-96234053D01*
X156012993Y-96214352D01*
X156018830Y-96205910D01*
X156052296Y-96168557D01*
X156089727Y-96139503D01*
X156094309Y-96136967D01*
X156161426Y-96116943D01*
X156231926Y-96120255D01*
G37*
X156231926Y-96120255D02*
X156297858Y-96144584D01*
X156351273Y-96187617D01*
X156372164Y-96217909D01*
X156394939Y-96273494D01*
X156394466Y-96313686D01*
X156370562Y-96340717D01*
X156361717Y-96345313D01*
X156323530Y-96359644D01*
X156304028Y-96355972D01*
X156297422Y-96331907D01*
X156297086Y-96318614D01*
X156284992Y-96269710D01*
X156253471Y-96235499D01*
X156209659Y-96218976D01*
X156160695Y-96223134D01*
X156120894Y-96244727D01*
X156107450Y-96257044D01*
X156097921Y-96271987D01*
X156091485Y-96294575D01*
X156087317Y-96329828D01*
X156084597Y-96382766D01*
X156082502Y-96458407D01*
X156081960Y-96482357D01*
X156079981Y-96564290D01*
X156077731Y-96621955D01*
X156074357Y-96660108D01*
X156069006Y-96683504D01*
X156060824Y-96696898D01*
X156048959Y-96705045D01*
X156041362Y-96708644D01*
X156009102Y-96720952D01*
X155990111Y-96725014D01*
X155983836Y-96711448D01*
X155980006Y-96670434D01*
X155978600Y-96601499D01*
X155979598Y-96504169D01*
X155979908Y-96489157D01*
X155982101Y-96400359D01*
X155984693Y-96335519D01*
X155988382Y-96289567D01*
X155993864Y-96257435D01*
X156001835Y-96234053D01*
X156012993Y-96214352D01*
X156018830Y-96205910D01*
X156052296Y-96168557D01*
X156089727Y-96139503D01*
X156094309Y-96136967D01*
X156161426Y-96116943D01*
X156231926Y-96120255D01*
G36*
X156892117Y-96235858D02*
G01*
X156891933Y-96344337D01*
X156891219Y-96427787D01*
X156889675Y-96490204D01*
X156887001Y-96535585D01*
X156882894Y-96567929D01*
X156877055Y-96591233D01*
X156869182Y-96609495D01*
X156863221Y-96619918D01*
X156813855Y-96676445D01*
X156751264Y-96711877D01*
X156682013Y-96724590D01*
X156612668Y-96712963D01*
X156571375Y-96692068D01*
X156528025Y-96655922D01*
X156498481Y-96611776D01*
X156480655Y-96553962D01*
X156472463Y-96476813D01*
X156471302Y-96420214D01*
X156471458Y-96416147D01*
X156572857Y-96416147D01*
X156573476Y-96481050D01*
X156576314Y-96524014D01*
X156582840Y-96552122D01*
X156594523Y-96572453D01*
X156608483Y-96587788D01*
X156655365Y-96617390D01*
X156705701Y-96619919D01*
X156753276Y-96595205D01*
X156756979Y-96591856D01*
X156772783Y-96574435D01*
X156782693Y-96553709D01*
X156788058Y-96522862D01*
X156790228Y-96475077D01*
X156790571Y-96422248D01*
X156789827Y-96355881D01*
X156786748Y-96311606D01*
X156780061Y-96282509D01*
X156768496Y-96261673D01*
X156759013Y-96250607D01*
X156714960Y-96222698D01*
X156664224Y-96219343D01*
X156615796Y-96240659D01*
X156606450Y-96248573D01*
X156590540Y-96266147D01*
X156580610Y-96287087D01*
X156575278Y-96318282D01*
X156573163Y-96366622D01*
X156572857Y-96416147D01*
X156471458Y-96416147D01*
X156474810Y-96329068D01*
X156486726Y-96260586D01*
X156509135Y-96209100D01*
X156544124Y-96168943D01*
X156571375Y-96148361D01*
X156620907Y-96126125D01*
X156678316Y-96115804D01*
X156731682Y-96118567D01*
X156761543Y-96129712D01*
X156773261Y-96132883D01*
X156781037Y-96121057D01*
X156786465Y-96089366D01*
X156790571Y-96041093D01*
X156795067Y-95987329D01*
X156801313Y-95954982D01*
X156812676Y-95936485D01*
X156832528Y-95924270D01*
X156845000Y-95918862D01*
X156892171Y-95899101D01*
X156892117Y-96235858D01*
G37*
X156892117Y-96235858D02*
X156891933Y-96344337D01*
X156891219Y-96427787D01*
X156889675Y-96490204D01*
X156887001Y-96535585D01*
X156882894Y-96567929D01*
X156877055Y-96591233D01*
X156869182Y-96609495D01*
X156863221Y-96619918D01*
X156813855Y-96676445D01*
X156751264Y-96711877D01*
X156682013Y-96724590D01*
X156612668Y-96712963D01*
X156571375Y-96692068D01*
X156528025Y-96655922D01*
X156498481Y-96611776D01*
X156480655Y-96553962D01*
X156472463Y-96476813D01*
X156471302Y-96420214D01*
X156471458Y-96416147D01*
X156572857Y-96416147D01*
X156573476Y-96481050D01*
X156576314Y-96524014D01*
X156582840Y-96552122D01*
X156594523Y-96572453D01*
X156608483Y-96587788D01*
X156655365Y-96617390D01*
X156705701Y-96619919D01*
X156753276Y-96595205D01*
X156756979Y-96591856D01*
X156772783Y-96574435D01*
X156782693Y-96553709D01*
X156788058Y-96522862D01*
X156790228Y-96475077D01*
X156790571Y-96422248D01*
X156789827Y-96355881D01*
X156786748Y-96311606D01*
X156780061Y-96282509D01*
X156768496Y-96261673D01*
X156759013Y-96250607D01*
X156714960Y-96222698D01*
X156664224Y-96219343D01*
X156615796Y-96240659D01*
X156606450Y-96248573D01*
X156590540Y-96266147D01*
X156580610Y-96287087D01*
X156575278Y-96318282D01*
X156573163Y-96366622D01*
X156572857Y-96416147D01*
X156471458Y-96416147D01*
X156474810Y-96329068D01*
X156486726Y-96260586D01*
X156509135Y-96209100D01*
X156544124Y-96168943D01*
X156571375Y-96148361D01*
X156620907Y-96126125D01*
X156678316Y-96115804D01*
X156731682Y-96118567D01*
X156761543Y-96129712D01*
X156773261Y-96132883D01*
X156781037Y-96121057D01*
X156786465Y-96089366D01*
X156790571Y-96041093D01*
X156795067Y-95987329D01*
X156801313Y-95954982D01*
X156812676Y-95936485D01*
X156832528Y-95924270D01*
X156845000Y-95918862D01*
X156892171Y-95899101D01*
X156892117Y-96235858D01*
G36*
X157481833Y-96129163D02*
G01*
X157484048Y-96167350D01*
X157485784Y-96225386D01*
X157486899Y-96298680D01*
X157487257Y-96375555D01*
X157487257Y-96635696D01*
X157441326Y-96681627D01*
X157409675Y-96709929D01*
X157381890Y-96721393D01*
X157343915Y-96720668D01*
X157328840Y-96718821D01*
X157281726Y-96713448D01*
X157242756Y-96710369D01*
X157233257Y-96710085D01*
X157201233Y-96711945D01*
X157155432Y-96716614D01*
X157137674Y-96718821D01*
X157094057Y-96722235D01*
X157064745Y-96714820D01*
X157035680Y-96691927D01*
X157025188Y-96681627D01*
X156979257Y-96635696D01*
X156979257Y-96149102D01*
X157016226Y-96132258D01*
X157048059Y-96119782D01*
X157066683Y-96115414D01*
X157071458Y-96129218D01*
X157075921Y-96167786D01*
X157079775Y-96226856D01*
X157082722Y-96302163D01*
X157084143Y-96365786D01*
X157088114Y-96616157D01*
X157122759Y-96621056D01*
X157154268Y-96617631D01*
X157169708Y-96606541D01*
X157174023Y-96585808D01*
X157177708Y-96541645D01*
X157180469Y-96479646D01*
X157182012Y-96405409D01*
X157182235Y-96367206D01*
X157182457Y-96147283D01*
X157228166Y-96131349D01*
X157260518Y-96120515D01*
X157278115Y-96115462D01*
X157278623Y-96115414D01*
X157280388Y-96129148D01*
X157282329Y-96167230D01*
X157284282Y-96224982D01*
X157286084Y-96297727D01*
X157287343Y-96365786D01*
X157291314Y-96616157D01*
X157378400Y-96616157D01*
X157382396Y-96387740D01*
X157386392Y-96159322D01*
X157428847Y-96137368D01*
X157460192Y-96122293D01*
X157478744Y-96115451D01*
X157479279Y-96115414D01*
X157481833Y-96129163D01*
G37*
X157481833Y-96129163D02*
X157484048Y-96167350D01*
X157485784Y-96225386D01*
X157486899Y-96298680D01*
X157487257Y-96375555D01*
X157487257Y-96635696D01*
X157441326Y-96681627D01*
X157409675Y-96709929D01*
X157381890Y-96721393D01*
X157343915Y-96720668D01*
X157328840Y-96718821D01*
X157281726Y-96713448D01*
X157242756Y-96710369D01*
X157233257Y-96710085D01*
X157201233Y-96711945D01*
X157155432Y-96716614D01*
X157137674Y-96718821D01*
X157094057Y-96722235D01*
X157064745Y-96714820D01*
X157035680Y-96691927D01*
X157025188Y-96681627D01*
X156979257Y-96635696D01*
X156979257Y-96149102D01*
X157016226Y-96132258D01*
X157048059Y-96119782D01*
X157066683Y-96115414D01*
X157071458Y-96129218D01*
X157075921Y-96167786D01*
X157079775Y-96226856D01*
X157082722Y-96302163D01*
X157084143Y-96365786D01*
X157088114Y-96616157D01*
X157122759Y-96621056D01*
X157154268Y-96617631D01*
X157169708Y-96606541D01*
X157174023Y-96585808D01*
X157177708Y-96541645D01*
X157180469Y-96479646D01*
X157182012Y-96405409D01*
X157182235Y-96367206D01*
X157182457Y-96147283D01*
X157228166Y-96131349D01*
X157260518Y-96120515D01*
X157278115Y-96115462D01*
X157278623Y-96115414D01*
X157280388Y-96129148D01*
X157282329Y-96167230D01*
X157284282Y-96224982D01*
X157286084Y-96297727D01*
X157287343Y-96365786D01*
X157291314Y-96616157D01*
X157378400Y-96616157D01*
X157382396Y-96387740D01*
X157386392Y-96159322D01*
X157428847Y-96137368D01*
X157460192Y-96122293D01*
X157478744Y-96115451D01*
X157479279Y-96115414D01*
X157481833Y-96129163D01*
G36*
X157846876Y-96126835D02*
G01*
X157888667Y-96145844D01*
X157921469Y-96168878D01*
X157945503Y-96194633D01*
X157962097Y-96227858D01*
X157972577Y-96273300D01*
X157978271Y-96335707D01*
X157980507Y-96419827D01*
X157980743Y-96475221D01*
X157980743Y-96691326D01*
X157943774Y-96708170D01*
X157914656Y-96720481D01*
X157900231Y-96725014D01*
X157897472Y-96711525D01*
X157895282Y-96675153D01*
X157893942Y-96622042D01*
X157893657Y-96579872D01*
X157892434Y-96518947D01*
X157889136Y-96470615D01*
X157884321Y-96441018D01*
X157880496Y-96434729D01*
X157854783Y-96441152D01*
X157814418Y-96457625D01*
X157767679Y-96479958D01*
X157722845Y-96503957D01*
X157688193Y-96525430D01*
X157672002Y-96540185D01*
X157671938Y-96540345D01*
X157673330Y-96567652D01*
X157685818Y-96593719D01*
X157707743Y-96614892D01*
X157739743Y-96621974D01*
X157767092Y-96621149D01*
X157805826Y-96620542D01*
X157826158Y-96629616D01*
X157838369Y-96653592D01*
X157839909Y-96658113D01*
X157845203Y-96692306D01*
X157831047Y-96713068D01*
X157794148Y-96722962D01*
X157754289Y-96724792D01*
X157682562Y-96711227D01*
X157645432Y-96691855D01*
X157599576Y-96646345D01*
X157575256Y-96590483D01*
X157573073Y-96531457D01*
X157593629Y-96476453D01*
X157624549Y-96441986D01*
X157655420Y-96422689D01*
X157703942Y-96398259D01*
X157760485Y-96373485D01*
X157769910Y-96369699D01*
X157832019Y-96342291D01*
X157867822Y-96318134D01*
X157879337Y-96294119D01*
X157868580Y-96267135D01*
X157850114Y-96246043D01*
X157806469Y-96220072D01*
X157758446Y-96218124D01*
X157714406Y-96238137D01*
X157682709Y-96278051D01*
X157678549Y-96288348D01*
X157654327Y-96326224D01*
X157618965Y-96354342D01*
X157574343Y-96377417D01*
X157574343Y-96311985D01*
X157576969Y-96272006D01*
X157588230Y-96240497D01*
X157613199Y-96206878D01*
X157637169Y-96180984D01*
X157674441Y-96144317D01*
X157703401Y-96124621D01*
X157734505Y-96116720D01*
X157769713Y-96115414D01*
X157846876Y-96126835D01*
G37*
X157846876Y-96126835D02*
X157888667Y-96145844D01*
X157921469Y-96168878D01*
X157945503Y-96194633D01*
X157962097Y-96227858D01*
X157972577Y-96273300D01*
X157978271Y-96335707D01*
X157980507Y-96419827D01*
X157980743Y-96475221D01*
X157980743Y-96691326D01*
X157943774Y-96708170D01*
X157914656Y-96720481D01*
X157900231Y-96725014D01*
X157897472Y-96711525D01*
X157895282Y-96675153D01*
X157893942Y-96622042D01*
X157893657Y-96579872D01*
X157892434Y-96518947D01*
X157889136Y-96470615D01*
X157884321Y-96441018D01*
X157880496Y-96434729D01*
X157854783Y-96441152D01*
X157814418Y-96457625D01*
X157767679Y-96479958D01*
X157722845Y-96503957D01*
X157688193Y-96525430D01*
X157672002Y-96540185D01*
X157671938Y-96540345D01*
X157673330Y-96567652D01*
X157685818Y-96593719D01*
X157707743Y-96614892D01*
X157739743Y-96621974D01*
X157767092Y-96621149D01*
X157805826Y-96620542D01*
X157826158Y-96629616D01*
X157838369Y-96653592D01*
X157839909Y-96658113D01*
X157845203Y-96692306D01*
X157831047Y-96713068D01*
X157794148Y-96722962D01*
X157754289Y-96724792D01*
X157682562Y-96711227D01*
X157645432Y-96691855D01*
X157599576Y-96646345D01*
X157575256Y-96590483D01*
X157573073Y-96531457D01*
X157593629Y-96476453D01*
X157624549Y-96441986D01*
X157655420Y-96422689D01*
X157703942Y-96398259D01*
X157760485Y-96373485D01*
X157769910Y-96369699D01*
X157832019Y-96342291D01*
X157867822Y-96318134D01*
X157879337Y-96294119D01*
X157868580Y-96267135D01*
X157850114Y-96246043D01*
X157806469Y-96220072D01*
X157758446Y-96218124D01*
X157714406Y-96238137D01*
X157682709Y-96278051D01*
X157678549Y-96288348D01*
X157654327Y-96326224D01*
X157618965Y-96354342D01*
X157574343Y-96377417D01*
X157574343Y-96311985D01*
X157576969Y-96272006D01*
X157588230Y-96240497D01*
X157613199Y-96206878D01*
X157637169Y-96180984D01*
X157674441Y-96144317D01*
X157703401Y-96124621D01*
X157734505Y-96116720D01*
X157769713Y-96115414D01*
X157846876Y-96126835D01*
G36*
X158354600Y-96129252D02*
G01*
X158371948Y-96136834D01*
X158413356Y-96169628D01*
X158448765Y-96217047D01*
X158470664Y-96267651D01*
X158474229Y-96292598D01*
X158462279Y-96327427D01*
X158436067Y-96345857D01*
X158407964Y-96357016D01*
X158395095Y-96359072D01*
X158388829Y-96344149D01*
X158376456Y-96311675D01*
X158371028Y-96297002D01*
X158340590Y-96246244D01*
X158296520Y-96220927D01*
X158240010Y-96221706D01*
X158235825Y-96222703D01*
X158205655Y-96237007D01*
X158183476Y-96264893D01*
X158168327Y-96309787D01*
X158159250Y-96375115D01*
X158155286Y-96464304D01*
X158154914Y-96511761D01*
X158154730Y-96586571D01*
X158153522Y-96637569D01*
X158150309Y-96669971D01*
X158144109Y-96688995D01*
X158133940Y-96699856D01*
X158118819Y-96707772D01*
X158117946Y-96708170D01*
X158088828Y-96720481D01*
X158074403Y-96725014D01*
X158072186Y-96711309D01*
X158070289Y-96673425D01*
X158068847Y-96616215D01*
X158067998Y-96544527D01*
X158067829Y-96492065D01*
X158068692Y-96390547D01*
X158072070Y-96313532D01*
X158079142Y-96256523D01*
X158091088Y-96215026D01*
X158109090Y-96184543D01*
X158134327Y-96160580D01*
X158159247Y-96143855D01*
X158219171Y-96121597D01*
X158288911Y-96116576D01*
X158354600Y-96129252D01*
G37*
X158354600Y-96129252D02*
X158371948Y-96136834D01*
X158413356Y-96169628D01*
X158448765Y-96217047D01*
X158470664Y-96267651D01*
X158474229Y-96292598D01*
X158462279Y-96327427D01*
X158436067Y-96345857D01*
X158407964Y-96357016D01*
X158395095Y-96359072D01*
X158388829Y-96344149D01*
X158376456Y-96311675D01*
X158371028Y-96297002D01*
X158340590Y-96246244D01*
X158296520Y-96220927D01*
X158240010Y-96221706D01*
X158235825Y-96222703D01*
X158205655Y-96237007D01*
X158183476Y-96264893D01*
X158168327Y-96309787D01*
X158159250Y-96375115D01*
X158155286Y-96464304D01*
X158154914Y-96511761D01*
X158154730Y-96586571D01*
X158153522Y-96637569D01*
X158150309Y-96669971D01*
X158144109Y-96688995D01*
X158133940Y-96699856D01*
X158118819Y-96707772D01*
X158117946Y-96708170D01*
X158088828Y-96720481D01*
X158074403Y-96725014D01*
X158072186Y-96711309D01*
X158070289Y-96673425D01*
X158068847Y-96616215D01*
X158067998Y-96544527D01*
X158067829Y-96492065D01*
X158068692Y-96390547D01*
X158072070Y-96313532D01*
X158079142Y-96256523D01*
X158091088Y-96215026D01*
X158109090Y-96184543D01*
X158134327Y-96160580D01*
X158159247Y-96143855D01*
X158219171Y-96121597D01*
X158288911Y-96116576D01*
X158354600Y-96129252D01*
G36*
X158855595Y-96137466D02*
G01*
X158913021Y-96174997D01*
X158940719Y-96208596D01*
X158962662Y-96269564D01*
X158964405Y-96317808D01*
X158960457Y-96382316D01*
X158811686Y-96447434D01*
X158739349Y-96480702D01*
X158692084Y-96507464D01*
X158667507Y-96530644D01*
X158663237Y-96553167D01*
X158676889Y-96577955D01*
X158691943Y-96594386D01*
X158735746Y-96620735D01*
X158783389Y-96622581D01*
X158827145Y-96602046D01*
X158859289Y-96561252D01*
X158865038Y-96546847D01*
X158892576Y-96501856D01*
X158924258Y-96482682D01*
X158967714Y-96466279D01*
X158967714Y-96528466D01*
X158963872Y-96570783D01*
X158948823Y-96606469D01*
X158917280Y-96647443D01*
X158912592Y-96652767D01*
X158877506Y-96689220D01*
X158847347Y-96708783D01*
X158809615Y-96717783D01*
X158778335Y-96720730D01*
X158722385Y-96721465D01*
X158682555Y-96712160D01*
X158657708Y-96698346D01*
X158618656Y-96667967D01*
X158591625Y-96635113D01*
X158574517Y-96593794D01*
X158565238Y-96538021D01*
X158561693Y-96461805D01*
X158561410Y-96423122D01*
X158562372Y-96376747D01*
X158650007Y-96376747D01*
X158651023Y-96401626D01*
X158653556Y-96405700D01*
X158670274Y-96400165D01*
X158706249Y-96385517D01*
X158754331Y-96364690D01*
X158764386Y-96360214D01*
X158825152Y-96329314D01*
X158858632Y-96302157D01*
X158865990Y-96276720D01*
X158848391Y-96250981D01*
X158833856Y-96239609D01*
X158781410Y-96216864D01*
X158732322Y-96220622D01*
X158691227Y-96248384D01*
X158662758Y-96297652D01*
X158653631Y-96336757D01*
X158650007Y-96376747D01*
X158562372Y-96376747D01*
X158563285Y-96332749D01*
X158570196Y-96265884D01*
X158583884Y-96217195D01*
X158606096Y-96181349D01*
X158638574Y-96153013D01*
X158652733Y-96143855D01*
X158717053Y-96120007D01*
X158787473Y-96118506D01*
X158855595Y-96137466D01*
G37*
X158855595Y-96137466D02*
X158913021Y-96174997D01*
X158940719Y-96208596D01*
X158962662Y-96269564D01*
X158964405Y-96317808D01*
X158960457Y-96382316D01*
X158811686Y-96447434D01*
X158739349Y-96480702D01*
X158692084Y-96507464D01*
X158667507Y-96530644D01*
X158663237Y-96553167D01*
X158676889Y-96577955D01*
X158691943Y-96594386D01*
X158735746Y-96620735D01*
X158783389Y-96622581D01*
X158827145Y-96602046D01*
X158859289Y-96561252D01*
X158865038Y-96546847D01*
X158892576Y-96501856D01*
X158924258Y-96482682D01*
X158967714Y-96466279D01*
X158967714Y-96528466D01*
X158963872Y-96570783D01*
X158948823Y-96606469D01*
X158917280Y-96647443D01*
X158912592Y-96652767D01*
X158877506Y-96689220D01*
X158847347Y-96708783D01*
X158809615Y-96717783D01*
X158778335Y-96720730D01*
X158722385Y-96721465D01*
X158682555Y-96712160D01*
X158657708Y-96698346D01*
X158618656Y-96667967D01*
X158591625Y-96635113D01*
X158574517Y-96593794D01*
X158565238Y-96538021D01*
X158561693Y-96461805D01*
X158561410Y-96423122D01*
X158562372Y-96376747D01*
X158650007Y-96376747D01*
X158651023Y-96401626D01*
X158653556Y-96405700D01*
X158670274Y-96400165D01*
X158706249Y-96385517D01*
X158754331Y-96364690D01*
X158764386Y-96360214D01*
X158825152Y-96329314D01*
X158858632Y-96302157D01*
X158865990Y-96276720D01*
X158848391Y-96250981D01*
X158833856Y-96239609D01*
X158781410Y-96216864D01*
X158732322Y-96220622D01*
X158691227Y-96248384D01*
X158662758Y-96297652D01*
X158653631Y-96336757D01*
X158650007Y-96376747D01*
X158562372Y-96376747D01*
X158563285Y-96332749D01*
X158570196Y-96265884D01*
X158583884Y-96217195D01*
X158606096Y-96181349D01*
X158638574Y-96153013D01*
X158652733Y-96143855D01*
X158717053Y-96120007D01*
X158787473Y-96118506D01*
X158855595Y-96137466D01*
G36*
X155805910Y-91412848D02*
G01*
X155884454Y-91413278D01*
X155941298Y-91414442D01*
X155980105Y-91416707D01*
X156004538Y-91420440D01*
X156018262Y-91426006D01*
X156024940Y-91433773D01*
X156028236Y-91444105D01*
X156028556Y-91445443D01*
X156033562Y-91469579D01*
X156042829Y-91517201D01*
X156055392Y-91583241D01*
X156070287Y-91662628D01*
X156086551Y-91750296D01*
X156087119Y-91753375D01*
X156103410Y-91839289D01*
X156118652Y-91915196D01*
X156131861Y-91976545D01*
X156142054Y-92018782D01*
X156148248Y-92037355D01*
X156148543Y-92037684D01*
X156166788Y-92046753D01*
X156204405Y-92061867D01*
X156253271Y-92079762D01*
X156253543Y-92079858D01*
X156315093Y-92102993D01*
X156387657Y-92132465D01*
X156456057Y-92162097D01*
X156459294Y-92163562D01*
X156570702Y-92214126D01*
X156817399Y-92045660D01*
X156893077Y-91994303D01*
X156961631Y-91948389D01*
X157019088Y-91910530D01*
X157061476Y-91883337D01*
X157084825Y-91869421D01*
X157087042Y-91868389D01*
X157104010Y-91872984D01*
X157135701Y-91895155D01*
X157183352Y-91935947D01*
X157248198Y-91996405D01*
X157314397Y-92060727D01*
X157378214Y-92124112D01*
X157435329Y-92181951D01*
X157482305Y-92230675D01*
X157515703Y-92266710D01*
X157532085Y-92286484D01*
X157532694Y-92287502D01*
X157534505Y-92301072D01*
X157527683Y-92323233D01*
X157510540Y-92356978D01*
X157481393Y-92405300D01*
X157438555Y-92471192D01*
X157381448Y-92556017D01*
X157330766Y-92630677D01*
X157285461Y-92697640D01*
X157248150Y-92753016D01*
X157221452Y-92792920D01*
X157207985Y-92813462D01*
X157207137Y-92814856D01*
X157208781Y-92834538D01*
X157221245Y-92872793D01*
X157242048Y-92922389D01*
X157249462Y-92938228D01*
X157281814Y-93008790D01*
X157316328Y-93088853D01*
X157344365Y-93158129D01*
X157364568Y-93209545D01*
X157380615Y-93248619D01*
X157389888Y-93269041D01*
X157391041Y-93270614D01*
X157408096Y-93273221D01*
X157448298Y-93280363D01*
X157506302Y-93291023D01*
X157576763Y-93304185D01*
X157654335Y-93318833D01*
X157733672Y-93333949D01*
X157809431Y-93348518D01*
X157876264Y-93361522D01*
X157928828Y-93371945D01*
X157961776Y-93378770D01*
X157969857Y-93380699D01*
X157978205Y-93385462D01*
X157984506Y-93396218D01*
X157989045Y-93416598D01*
X157992104Y-93450234D01*
X157993967Y-93500755D01*
X157994918Y-93571792D01*
X157995240Y-93666976D01*
X157995257Y-93705992D01*
X157995257Y-94023299D01*
X157919057Y-94038339D01*
X157876663Y-94046495D01*
X157813400Y-94058399D01*
X157736962Y-94072616D01*
X157655043Y-94087710D01*
X157632400Y-94091855D01*
X157556806Y-94106553D01*
X157490953Y-94121005D01*
X157440366Y-94133875D01*
X157410574Y-94143822D01*
X157405612Y-94146787D01*
X157393426Y-94167783D01*
X157375953Y-94208467D01*
X157356577Y-94260822D01*
X157352734Y-94272100D01*
X157327339Y-94342023D01*
X157295817Y-94420918D01*
X157264969Y-94491766D01*
X157264817Y-94492095D01*
X157213447Y-94603233D01*
X157382399Y-94851753D01*
X157551352Y-95100272D01*
X157334429Y-95317558D01*
X157268819Y-95382226D01*
X157208979Y-95439233D01*
X157158267Y-95485533D01*
X157120046Y-95518084D01*
X157097675Y-95533843D01*
X157094466Y-95534843D01*
X157075626Y-95526969D01*
X157037180Y-95505078D01*
X156983330Y-95471767D01*
X156918276Y-95429631D01*
X156847940Y-95382443D01*
X156776555Y-95334310D01*
X156712908Y-95292428D01*
X156661041Y-95259371D01*
X156624995Y-95237718D01*
X156608867Y-95230043D01*
X156589189Y-95236537D01*
X156551875Y-95253650D01*
X156504621Y-95277826D01*
X156499612Y-95280513D01*
X156435977Y-95312427D01*
X156392341Y-95328079D01*
X156365202Y-95328245D01*
X156351057Y-95313704D01*
X156350975Y-95313500D01*
X156343905Y-95296279D01*
X156327042Y-95255399D01*
X156301695Y-95194025D01*
X156269171Y-95115319D01*
X156230778Y-95022447D01*
X156187822Y-94918572D01*
X156146222Y-94818002D01*
X156100504Y-94707016D01*
X156058526Y-94604203D01*
X156021548Y-94512715D01*
X155990827Y-94435701D01*
X155967622Y-94376315D01*
X155953190Y-94337709D01*
X155948743Y-94323300D01*
X155959896Y-94306772D01*
X155989069Y-94280430D01*
X156027971Y-94251387D01*
X156138757Y-94159539D01*
X156225351Y-94054259D01*
X156286716Y-93937766D01*
X156321815Y-93812276D01*
X156329608Y-93680007D01*
X156323943Y-93618957D01*
X156293078Y-93492295D01*
X156239920Y-93380441D01*
X156167767Y-93284501D01*
X156079917Y-93205576D01*
X155979665Y-93144770D01*
X155870310Y-93103187D01*
X155755147Y-93081928D01*
X155637475Y-93082099D01*
X155520590Y-93104801D01*
X155407789Y-93151138D01*
X155302369Y-93222213D01*
X155258368Y-93262411D01*
X155173979Y-93365629D01*
X155115222Y-93478425D01*
X155081704Y-93597510D01*
X155073035Y-93719595D01*
X155088823Y-93841393D01*
X155128678Y-93959616D01*
X155192207Y-94070975D01*
X155279021Y-94172184D01*
X155376029Y-94251387D01*
X155416437Y-94281662D01*
X155444982Y-94307719D01*
X155455257Y-94323325D01*
X155449877Y-94340343D01*
X155434575Y-94381000D01*
X155410612Y-94442142D01*
X155379244Y-94520619D01*
X155341732Y-94613280D01*
X155299333Y-94716972D01*
X155257663Y-94818026D01*
X155211690Y-94929107D01*
X155169107Y-95032041D01*
X155131221Y-95123665D01*
X155099340Y-95200816D01*
X155074771Y-95260331D01*
X155058820Y-95299044D01*
X155052910Y-95313500D01*
X155038948Y-95328185D01*
X155011940Y-95328142D01*
X154968413Y-95312599D01*
X154904890Y-95280784D01*
X154904388Y-95280513D01*
X154856560Y-95255823D01*
X154817897Y-95237838D01*
X154796095Y-95230114D01*
X154795133Y-95230043D01*
X154778721Y-95237878D01*
X154742487Y-95259665D01*
X154690474Y-95292828D01*
X154626725Y-95334791D01*
X154556060Y-95382443D01*
X154484116Y-95430691D01*
X154419274Y-95472651D01*
X154365735Y-95505727D01*
X154327697Y-95527321D01*
X154309533Y-95534843D01*
X154292808Y-95524957D01*
X154259180Y-95497326D01*
X154212010Y-95454995D01*
X154154658Y-95401005D01*
X154090484Y-95338399D01*
X154069497Y-95317483D01*
X153852499Y-95100123D01*
X154017668Y-94857720D01*
X154067864Y-94783281D01*
X154111919Y-94716472D01*
X154147362Y-94661165D01*
X154171719Y-94621229D01*
X154182522Y-94600536D01*
X154182838Y-94599063D01*
X154177143Y-94579558D01*
X154161826Y-94540322D01*
X154139537Y-94487930D01*
X154123893Y-94452855D01*
X154094641Y-94385701D01*
X154067094Y-94317858D01*
X154045737Y-94260534D01*
X154039935Y-94243072D01*
X154023452Y-94196438D01*
X154007340Y-94160405D01*
X153998490Y-94146787D01*
X153978960Y-94138452D01*
X153936334Y-94126637D01*
X153876145Y-94112681D01*
X153803922Y-94097922D01*
X153771600Y-94091855D01*
X153689522Y-94076773D01*
X153610795Y-94062169D01*
X153543109Y-94049480D01*
X153494160Y-94040142D01*
X153484943Y-94038339D01*
X153408743Y-94023299D01*
X153408743Y-93705992D01*
X153408914Y-93601654D01*
X153409616Y-93522713D01*
X153411134Y-93465538D01*
X153413749Y-93426499D01*
X153417746Y-93401965D01*
X153423409Y-93388305D01*
X153431020Y-93381889D01*
X153434143Y-93380699D01*
X153452978Y-93376480D01*
X153494588Y-93368062D01*
X153553630Y-93356461D01*
X153624757Y-93342695D01*
X153702625Y-93327780D01*
X153781887Y-93312732D01*
X153857198Y-93298569D01*
X153923213Y-93286306D01*
X153974587Y-93276961D01*
X154005975Y-93271550D01*
X154012959Y-93270614D01*
X154019285Y-93258096D01*
X154033290Y-93224746D01*
X154052355Y-93176877D01*
X154059634Y-93158129D01*
X154088996Y-93085695D01*
X154123571Y-93005670D01*
X154154537Y-92938228D01*
X154177323Y-92886659D01*
X154192482Y-92844285D01*
X154197542Y-92818334D01*
X154196736Y-92814856D01*
X154186041Y-92798436D01*
X154161620Y-92761917D01*
X154126095Y-92709187D01*
X154082087Y-92644135D01*
X154032217Y-92570651D01*
X154022356Y-92556145D01*
X153964492Y-92470204D01*
X153921956Y-92404761D01*
X153893054Y-92356804D01*
X153876090Y-92323320D01*
X153869367Y-92301295D01*
X153871190Y-92287717D01*
X153871236Y-92287631D01*
X153885586Y-92269797D01*
X153917323Y-92235317D01*
X153963010Y-92187768D01*
X154019204Y-92130722D01*
X154082468Y-92067755D01*
X154089602Y-92060727D01*
X154169330Y-91983520D01*
X154230857Y-91926830D01*
X154275421Y-91889610D01*
X154304257Y-91870815D01*
X154316958Y-91868389D01*
X154335494Y-91878971D01*
X154373961Y-91903416D01*
X154428386Y-91939112D01*
X154494798Y-91983447D01*
X154569225Y-92033811D01*
X154586601Y-92045660D01*
X154833297Y-92214126D01*
X154944706Y-92163562D01*
X155012457Y-92134095D01*
X155085183Y-92104459D01*
X155147703Y-92080830D01*
X155150457Y-92079858D01*
X155199360Y-92061957D01*
X155237057Y-92046820D01*
X155255425Y-92037710D01*
X155255456Y-92037684D01*
X155261285Y-92021217D01*
X155271192Y-91980719D01*
X155284195Y-91920742D01*
X155299309Y-91845840D01*
X155315552Y-91760564D01*
X155316881Y-91753375D01*
X155333175Y-91665514D01*
X155348133Y-91585760D01*
X155360791Y-91519181D01*
X155370186Y-91470847D01*
X155375354Y-91445825D01*
X155375444Y-91445443D01*
X155378589Y-91434799D01*
X155384704Y-91426762D01*
X155397453Y-91420967D01*
X155420500Y-91417047D01*
X155457509Y-91414635D01*
X155512144Y-91413365D01*
X155588067Y-91412871D01*
X155688944Y-91412786D01*
X155702000Y-91412786D01*
X155805910Y-91412848D01*
G37*
X155805910Y-91412848D02*
X155884454Y-91413278D01*
X155941298Y-91414442D01*
X155980105Y-91416707D01*
X156004538Y-91420440D01*
X156018262Y-91426006D01*
X156024940Y-91433773D01*
X156028236Y-91444105D01*
X156028556Y-91445443D01*
X156033562Y-91469579D01*
X156042829Y-91517201D01*
X156055392Y-91583241D01*
X156070287Y-91662628D01*
X156086551Y-91750296D01*
X156087119Y-91753375D01*
X156103410Y-91839289D01*
X156118652Y-91915196D01*
X156131861Y-91976545D01*
X156142054Y-92018782D01*
X156148248Y-92037355D01*
X156148543Y-92037684D01*
X156166788Y-92046753D01*
X156204405Y-92061867D01*
X156253271Y-92079762D01*
X156253543Y-92079858D01*
X156315093Y-92102993D01*
X156387657Y-92132465D01*
X156456057Y-92162097D01*
X156459294Y-92163562D01*
X156570702Y-92214126D01*
X156817399Y-92045660D01*
X156893077Y-91994303D01*
X156961631Y-91948389D01*
X157019088Y-91910530D01*
X157061476Y-91883337D01*
X157084825Y-91869421D01*
X157087042Y-91868389D01*
X157104010Y-91872984D01*
X157135701Y-91895155D01*
X157183352Y-91935947D01*
X157248198Y-91996405D01*
X157314397Y-92060727D01*
X157378214Y-92124112D01*
X157435329Y-92181951D01*
X157482305Y-92230675D01*
X157515703Y-92266710D01*
X157532085Y-92286484D01*
X157532694Y-92287502D01*
X157534505Y-92301072D01*
X157527683Y-92323233D01*
X157510540Y-92356978D01*
X157481393Y-92405300D01*
X157438555Y-92471192D01*
X157381448Y-92556017D01*
X157330766Y-92630677D01*
X157285461Y-92697640D01*
X157248150Y-92753016D01*
X157221452Y-92792920D01*
X157207985Y-92813462D01*
X157207137Y-92814856D01*
X157208781Y-92834538D01*
X157221245Y-92872793D01*
X157242048Y-92922389D01*
X157249462Y-92938228D01*
X157281814Y-93008790D01*
X157316328Y-93088853D01*
X157344365Y-93158129D01*
X157364568Y-93209545D01*
X157380615Y-93248619D01*
X157389888Y-93269041D01*
X157391041Y-93270614D01*
X157408096Y-93273221D01*
X157448298Y-93280363D01*
X157506302Y-93291023D01*
X157576763Y-93304185D01*
X157654335Y-93318833D01*
X157733672Y-93333949D01*
X157809431Y-93348518D01*
X157876264Y-93361522D01*
X157928828Y-93371945D01*
X157961776Y-93378770D01*
X157969857Y-93380699D01*
X157978205Y-93385462D01*
X157984506Y-93396218D01*
X157989045Y-93416598D01*
X157992104Y-93450234D01*
X157993967Y-93500755D01*
X157994918Y-93571792D01*
X157995240Y-93666976D01*
X157995257Y-93705992D01*
X157995257Y-94023299D01*
X157919057Y-94038339D01*
X157876663Y-94046495D01*
X157813400Y-94058399D01*
X157736962Y-94072616D01*
X157655043Y-94087710D01*
X157632400Y-94091855D01*
X157556806Y-94106553D01*
X157490953Y-94121005D01*
X157440366Y-94133875D01*
X157410574Y-94143822D01*
X157405612Y-94146787D01*
X157393426Y-94167783D01*
X157375953Y-94208467D01*
X157356577Y-94260822D01*
X157352734Y-94272100D01*
X157327339Y-94342023D01*
X157295817Y-94420918D01*
X157264969Y-94491766D01*
X157264817Y-94492095D01*
X157213447Y-94603233D01*
X157382399Y-94851753D01*
X157551352Y-95100272D01*
X157334429Y-95317558D01*
X157268819Y-95382226D01*
X157208979Y-95439233D01*
X157158267Y-95485533D01*
X157120046Y-95518084D01*
X157097675Y-95533843D01*
X157094466Y-95534843D01*
X157075626Y-95526969D01*
X157037180Y-95505078D01*
X156983330Y-95471767D01*
X156918276Y-95429631D01*
X156847940Y-95382443D01*
X156776555Y-95334310D01*
X156712908Y-95292428D01*
X156661041Y-95259371D01*
X156624995Y-95237718D01*
X156608867Y-95230043D01*
X156589189Y-95236537D01*
X156551875Y-95253650D01*
X156504621Y-95277826D01*
X156499612Y-95280513D01*
X156435977Y-95312427D01*
X156392341Y-95328079D01*
X156365202Y-95328245D01*
X156351057Y-95313704D01*
X156350975Y-95313500D01*
X156343905Y-95296279D01*
X156327042Y-95255399D01*
X156301695Y-95194025D01*
X156269171Y-95115319D01*
X156230778Y-95022447D01*
X156187822Y-94918572D01*
X156146222Y-94818002D01*
X156100504Y-94707016D01*
X156058526Y-94604203D01*
X156021548Y-94512715D01*
X155990827Y-94435701D01*
X155967622Y-94376315D01*
X155953190Y-94337709D01*
X155948743Y-94323300D01*
X155959896Y-94306772D01*
X155989069Y-94280430D01*
X156027971Y-94251387D01*
X156138757Y-94159539D01*
X156225351Y-94054259D01*
X156286716Y-93937766D01*
X156321815Y-93812276D01*
X156329608Y-93680007D01*
X156323943Y-93618957D01*
X156293078Y-93492295D01*
X156239920Y-93380441D01*
X156167767Y-93284501D01*
X156079917Y-93205576D01*
X155979665Y-93144770D01*
X155870310Y-93103187D01*
X155755147Y-93081928D01*
X155637475Y-93082099D01*
X155520590Y-93104801D01*
X155407789Y-93151138D01*
X155302369Y-93222213D01*
X155258368Y-93262411D01*
X155173979Y-93365629D01*
X155115222Y-93478425D01*
X155081704Y-93597510D01*
X155073035Y-93719595D01*
X155088823Y-93841393D01*
X155128678Y-93959616D01*
X155192207Y-94070975D01*
X155279021Y-94172184D01*
X155376029Y-94251387D01*
X155416437Y-94281662D01*
X155444982Y-94307719D01*
X155455257Y-94323325D01*
X155449877Y-94340343D01*
X155434575Y-94381000D01*
X155410612Y-94442142D01*
X155379244Y-94520619D01*
X155341732Y-94613280D01*
X155299333Y-94716972D01*
X155257663Y-94818026D01*
X155211690Y-94929107D01*
X155169107Y-95032041D01*
X155131221Y-95123665D01*
X155099340Y-95200816D01*
X155074771Y-95260331D01*
X155058820Y-95299044D01*
X155052910Y-95313500D01*
X155038948Y-95328185D01*
X155011940Y-95328142D01*
X154968413Y-95312599D01*
X154904890Y-95280784D01*
X154904388Y-95280513D01*
X154856560Y-95255823D01*
X154817897Y-95237838D01*
X154796095Y-95230114D01*
X154795133Y-95230043D01*
X154778721Y-95237878D01*
X154742487Y-95259665D01*
X154690474Y-95292828D01*
X154626725Y-95334791D01*
X154556060Y-95382443D01*
X154484116Y-95430691D01*
X154419274Y-95472651D01*
X154365735Y-95505727D01*
X154327697Y-95527321D01*
X154309533Y-95534843D01*
X154292808Y-95524957D01*
X154259180Y-95497326D01*
X154212010Y-95454995D01*
X154154658Y-95401005D01*
X154090484Y-95338399D01*
X154069497Y-95317483D01*
X153852499Y-95100123D01*
X154017668Y-94857720D01*
X154067864Y-94783281D01*
X154111919Y-94716472D01*
X154147362Y-94661165D01*
X154171719Y-94621229D01*
X154182522Y-94600536D01*
X154182838Y-94599063D01*
X154177143Y-94579558D01*
X154161826Y-94540322D01*
X154139537Y-94487930D01*
X154123893Y-94452855D01*
X154094641Y-94385701D01*
X154067094Y-94317858D01*
X154045737Y-94260534D01*
X154039935Y-94243072D01*
X154023452Y-94196438D01*
X154007340Y-94160405D01*
X153998490Y-94146787D01*
X153978960Y-94138452D01*
X153936334Y-94126637D01*
X153876145Y-94112681D01*
X153803922Y-94097922D01*
X153771600Y-94091855D01*
X153689522Y-94076773D01*
X153610795Y-94062169D01*
X153543109Y-94049480D01*
X153494160Y-94040142D01*
X153484943Y-94038339D01*
X153408743Y-94023299D01*
X153408743Y-93705992D01*
X153408914Y-93601654D01*
X153409616Y-93522713D01*
X153411134Y-93465538D01*
X153413749Y-93426499D01*
X153417746Y-93401965D01*
X153423409Y-93388305D01*
X153431020Y-93381889D01*
X153434143Y-93380699D01*
X153452978Y-93376480D01*
X153494588Y-93368062D01*
X153553630Y-93356461D01*
X153624757Y-93342695D01*
X153702625Y-93327780D01*
X153781887Y-93312732D01*
X153857198Y-93298569D01*
X153923213Y-93286306D01*
X153974587Y-93276961D01*
X154005975Y-93271550D01*
X154012959Y-93270614D01*
X154019285Y-93258096D01*
X154033290Y-93224746D01*
X154052355Y-93176877D01*
X154059634Y-93158129D01*
X154088996Y-93085695D01*
X154123571Y-93005670D01*
X154154537Y-92938228D01*
X154177323Y-92886659D01*
X154192482Y-92844285D01*
X154197542Y-92818334D01*
X154196736Y-92814856D01*
X154186041Y-92798436D01*
X154161620Y-92761917D01*
X154126095Y-92709187D01*
X154082087Y-92644135D01*
X154032217Y-92570651D01*
X154022356Y-92556145D01*
X153964492Y-92470204D01*
X153921956Y-92404761D01*
X153893054Y-92356804D01*
X153876090Y-92323320D01*
X153869367Y-92301295D01*
X153871190Y-92287717D01*
X153871236Y-92287631D01*
X153885586Y-92269797D01*
X153917323Y-92235317D01*
X153963010Y-92187768D01*
X154019204Y-92130722D01*
X154082468Y-92067755D01*
X154089602Y-92060727D01*
X154169330Y-91983520D01*
X154230857Y-91926830D01*
X154275421Y-91889610D01*
X154304257Y-91870815D01*
X154316958Y-91868389D01*
X154335494Y-91878971D01*
X154373961Y-91903416D01*
X154428386Y-91939112D01*
X154494798Y-91983447D01*
X154569225Y-92033811D01*
X154586601Y-92045660D01*
X154833297Y-92214126D01*
X154944706Y-92163562D01*
X155012457Y-92134095D01*
X155085183Y-92104459D01*
X155147703Y-92080830D01*
X155150457Y-92079858D01*
X155199360Y-92061957D01*
X155237057Y-92046820D01*
X155255425Y-92037710D01*
X155255456Y-92037684D01*
X155261285Y-92021217D01*
X155271192Y-91980719D01*
X155284195Y-91920742D01*
X155299309Y-91845840D01*
X155315552Y-91760564D01*
X155316881Y-91753375D01*
X155333175Y-91665514D01*
X155348133Y-91585760D01*
X155360791Y-91519181D01*
X155370186Y-91470847D01*
X155375354Y-91445825D01*
X155375444Y-91445443D01*
X155378589Y-91434799D01*
X155384704Y-91426762D01*
X155397453Y-91420967D01*
X155420500Y-91417047D01*
X155457509Y-91414635D01*
X155512144Y-91413365D01*
X155588067Y-91412871D01*
X155688944Y-91412786D01*
X155702000Y-91412786D01*
X155805910Y-91412848D01*
G04 #@! TO.C,G\u002A\u002A\u002A*
G36*
X114789860Y-90640375D02*
G01*
X114806674Y-90641181D01*
X114824574Y-90643430D01*
X114844653Y-90647451D01*
X114868007Y-90653572D01*
X114895731Y-90662120D01*
X114928921Y-90673425D01*
X114968670Y-90687813D01*
X115016074Y-90705614D01*
X115046760Y-90717343D01*
X115085372Y-90732018D01*
X115129126Y-90748393D01*
X115174083Y-90765009D01*
X115216303Y-90780409D01*
X115242340Y-90789763D01*
X115551798Y-90905125D01*
X115858486Y-91029738D01*
X116161957Y-91163344D01*
X116461762Y-91305683D01*
X116757455Y-91456494D01*
X117048590Y-91615519D01*
X117334718Y-91782498D01*
X117615394Y-91957172D01*
X117890170Y-92139279D01*
X118158599Y-92328563D01*
X118420235Y-92524761D01*
X118674630Y-92727616D01*
X118884670Y-92904936D01*
X118952073Y-92964040D01*
X119020383Y-93025235D01*
X119088700Y-93087652D01*
X119156123Y-93150421D01*
X119221751Y-93212672D01*
X119284684Y-93273538D01*
X119344020Y-93332149D01*
X119398858Y-93387635D01*
X119448299Y-93439127D01*
X119491441Y-93485757D01*
X119519731Y-93517720D01*
X119542796Y-93544200D01*
X119565353Y-93569686D01*
X119585962Y-93592583D01*
X119603187Y-93611297D01*
X119615592Y-93624236D01*
X119617606Y-93626222D01*
X119643091Y-93650905D01*
X119718555Y-93632799D01*
X119860310Y-93601542D01*
X120011406Y-93573520D01*
X120171550Y-93548748D01*
X120340447Y-93527243D01*
X120517802Y-93509023D01*
X120703321Y-93494103D01*
X120896708Y-93482501D01*
X121097668Y-93474233D01*
X121305908Y-93469316D01*
X121521132Y-93467767D01*
X121743045Y-93469601D01*
X121971354Y-93474837D01*
X122205762Y-93483490D01*
X122288300Y-93487286D01*
X122530248Y-93500422D01*
X122769427Y-93516290D01*
X123003777Y-93534737D01*
X123231239Y-93555607D01*
X123335751Y-93566269D01*
X123458643Y-93579230D01*
X123597371Y-93505010D01*
X123641914Y-93481418D01*
X123694074Y-93454196D01*
X123752315Y-93424120D01*
X123815099Y-93391965D01*
X123880888Y-93358507D01*
X123948145Y-93324521D01*
X124015333Y-93290784D01*
X124080913Y-93258070D01*
X124143350Y-93227155D01*
X124201105Y-93198814D01*
X124252640Y-93173824D01*
X124277120Y-93162102D01*
X124513398Y-93051365D01*
X124759292Y-92939611D01*
X125014329Y-92827028D01*
X125278038Y-92713807D01*
X125549944Y-92600135D01*
X125829577Y-92486204D01*
X126116464Y-92372201D01*
X126410132Y-92258317D01*
X126710109Y-92144741D01*
X127015922Y-92031663D01*
X127327100Y-91919270D01*
X127643170Y-91807754D01*
X127736600Y-91775286D01*
X127771009Y-91763424D01*
X127810758Y-91749814D01*
X127854961Y-91734753D01*
X127902730Y-91718539D01*
X127953181Y-91701467D01*
X128005427Y-91683835D01*
X128058581Y-91665939D01*
X128111757Y-91648076D01*
X128164069Y-91630542D01*
X128214631Y-91613636D01*
X128262557Y-91597652D01*
X128306960Y-91582888D01*
X128346953Y-91569641D01*
X128381652Y-91558208D01*
X128410169Y-91548884D01*
X128431618Y-91541968D01*
X128445113Y-91537755D01*
X128449708Y-91536519D01*
X128451003Y-91541361D01*
X128452124Y-91554936D01*
X128453059Y-91575819D01*
X128453792Y-91602583D01*
X128454312Y-91633804D01*
X128454604Y-91668055D01*
X128454655Y-91703912D01*
X128454451Y-91739948D01*
X128453980Y-91774738D01*
X128453227Y-91806856D01*
X128452465Y-91828450D01*
X128450745Y-91864120D01*
X128448342Y-91906207D01*
X128445367Y-91953286D01*
X128441932Y-92003931D01*
X128438146Y-92056717D01*
X128434123Y-92110219D01*
X128429972Y-92163011D01*
X128425804Y-92213668D01*
X128421732Y-92260765D01*
X128417865Y-92302877D01*
X128414316Y-92338578D01*
X128411194Y-92366442D01*
X128409529Y-92379118D01*
X128390128Y-92483066D01*
X128361470Y-92589427D01*
X128323486Y-92698379D01*
X128276106Y-92810096D01*
X128219264Y-92924755D01*
X128152890Y-93042532D01*
X128146887Y-93052557D01*
X128110611Y-93111212D01*
X128068368Y-93176596D01*
X128020853Y-93247765D01*
X127968762Y-93323778D01*
X127912789Y-93403691D01*
X127853629Y-93486562D01*
X127791978Y-93571447D01*
X127728529Y-93657404D01*
X127663979Y-93743490D01*
X127599021Y-93828762D01*
X127534351Y-93912278D01*
X127470664Y-93993094D01*
X127408654Y-94070268D01*
X127349017Y-94142857D01*
X127302748Y-94197856D01*
X127142238Y-94381536D01*
X126981365Y-94555888D01*
X126819299Y-94721731D01*
X126655212Y-94879886D01*
X126488276Y-95031174D01*
X126317661Y-95176415D01*
X126298604Y-95192081D01*
X126223718Y-95252958D01*
X126153891Y-95308758D01*
X126089467Y-95359222D01*
X126030791Y-95404090D01*
X125978207Y-95443102D01*
X125932061Y-95475998D01*
X125892697Y-95502518D01*
X125860953Y-95522117D01*
X125842710Y-95532690D01*
X125828106Y-95541188D01*
X125819144Y-95546444D01*
X125817321Y-95547546D01*
X125819702Y-95551711D01*
X125827311Y-95562454D01*
X125839108Y-95578359D01*
X125854049Y-95598009D01*
X125862186Y-95608554D01*
X125933520Y-95705791D01*
X126000559Y-95808108D01*
X126063685Y-95916260D01*
X126123279Y-96031006D01*
X126179725Y-96153102D01*
X126233403Y-96283307D01*
X126284697Y-96422377D01*
X126309280Y-96494600D01*
X126330010Y-96558284D01*
X126350034Y-96622335D01*
X126369540Y-96687517D01*
X126388718Y-96754595D01*
X126407756Y-96824335D01*
X126426843Y-96897502D01*
X126446168Y-96974861D01*
X126465919Y-97057177D01*
X126486286Y-97145216D01*
X126507456Y-97239743D01*
X126529618Y-97341523D01*
X126552962Y-97451321D01*
X126577676Y-97569903D01*
X126593685Y-97647760D01*
X126606089Y-97708033D01*
X126619883Y-97774493D01*
X126634533Y-97844603D01*
X126649505Y-97915826D01*
X126664266Y-97985626D01*
X126678281Y-98051466D01*
X126691017Y-98110810D01*
X126695243Y-98130360D01*
X126767295Y-98468555D01*
X126836137Y-98803493D01*
X126902046Y-99136720D01*
X126965301Y-99469780D01*
X127026177Y-99804219D01*
X127084953Y-100141584D01*
X127141905Y-100483420D01*
X127197312Y-100831273D01*
X127251450Y-101186688D01*
X127286600Y-101426010D01*
X127323562Y-101681280D01*
X127248141Y-101681280D01*
X127218573Y-101680960D01*
X127195404Y-101680052D01*
X127179803Y-101678633D01*
X127172941Y-101676780D01*
X127172720Y-101676343D01*
X127172008Y-101670439D01*
X127169973Y-101655517D01*
X127166762Y-101632614D01*
X127162522Y-101602765D01*
X127157402Y-101567005D01*
X127151547Y-101526370D01*
X127145107Y-101481896D01*
X127139956Y-101446473D01*
X127088907Y-101102680D01*
X127037179Y-100767800D01*
X126984550Y-100440593D01*
X126930799Y-100119824D01*
X126875703Y-99804254D01*
X126819040Y-99492645D01*
X126760589Y-99183760D01*
X126700126Y-98876361D01*
X126637429Y-98569210D01*
X126572278Y-98261071D01*
X126548401Y-98150680D01*
X126538424Y-98104396D01*
X126526855Y-98050000D01*
X126514079Y-97989344D01*
X126500481Y-97924284D01*
X126486447Y-97856671D01*
X126472363Y-97788359D01*
X126458614Y-97721201D01*
X126445585Y-97657052D01*
X126441148Y-97635060D01*
X126418842Y-97524955D01*
X126398114Y-97424037D01*
X126378776Y-97331486D01*
X126360640Y-97246483D01*
X126343520Y-97168208D01*
X126327228Y-97095842D01*
X126311577Y-97028566D01*
X126296380Y-96965560D01*
X126281450Y-96906005D01*
X126266599Y-96849082D01*
X126251641Y-96793971D01*
X126237438Y-96743520D01*
X126186138Y-96575415D01*
X126130657Y-96414765D01*
X126071114Y-96261766D01*
X126007629Y-96116616D01*
X125940324Y-95979512D01*
X125869320Y-95850652D01*
X125794735Y-95730233D01*
X125716693Y-95618451D01*
X125635312Y-95515506D01*
X125550714Y-95421594D01*
X125463019Y-95336913D01*
X125372347Y-95261659D01*
X125300740Y-95210371D01*
X125269135Y-95190513D01*
X125231402Y-95168825D01*
X125190136Y-95146636D01*
X125147930Y-95125273D01*
X125107379Y-95106065D01*
X125071077Y-95090341D01*
X125051820Y-95082916D01*
X125030455Y-95074538D01*
X125011679Y-95065959D01*
X124998348Y-95058535D01*
X124994747Y-95055805D01*
X124983159Y-95038600D01*
X124979681Y-95018187D01*
X124984184Y-94997298D01*
X124996537Y-94978667D01*
X124998520Y-94976732D01*
X125012751Y-94967104D01*
X125029458Y-94963608D01*
X125050614Y-94966173D01*
X125075981Y-94973923D01*
X125127622Y-94994272D01*
X125179319Y-95018350D01*
X125232081Y-95046786D01*
X125286917Y-95080209D01*
X125344834Y-95119248D01*
X125406840Y-95164532D01*
X125473945Y-95216691D01*
X125504701Y-95241457D01*
X125553388Y-95278010D01*
X125598594Y-95305497D01*
X125640958Y-95324140D01*
X125681121Y-95334161D01*
X125719723Y-95335780D01*
X125757405Y-95329218D01*
X125758192Y-95328994D01*
X125769656Y-95324633D01*
X125788850Y-95316093D01*
X125814549Y-95303997D01*
X125845528Y-95288965D01*
X125880564Y-95271621D01*
X125918431Y-95252584D01*
X125957905Y-95232478D01*
X125997762Y-95211924D01*
X126036776Y-95191544D01*
X126073723Y-95171960D01*
X126107378Y-95153793D01*
X126136518Y-95137666D01*
X126149100Y-95130510D01*
X126202048Y-95099223D01*
X126251991Y-95067873D01*
X126299955Y-95035629D01*
X126346969Y-95001658D01*
X126394060Y-94965129D01*
X126442255Y-94925208D01*
X126492584Y-94881065D01*
X126546072Y-94831867D01*
X126603748Y-94776781D01*
X126666640Y-94714977D01*
X126685266Y-94696413D01*
X126768676Y-94611705D01*
X126844845Y-94531378D01*
X126914911Y-94454068D01*
X126980011Y-94378408D01*
X127041284Y-94303034D01*
X127099868Y-94226580D01*
X127156900Y-94147682D01*
X127213519Y-94064975D01*
X127221049Y-94053660D01*
X127260614Y-93993191D01*
X127295380Y-93938062D01*
X127326858Y-93885650D01*
X127356555Y-93833330D01*
X127385982Y-93778478D01*
X127416648Y-93718469D01*
X127434342Y-93682820D01*
X127451058Y-93648381D01*
X127594940Y-93648381D01*
X127596455Y-93648688D01*
X127598123Y-93647260D01*
X127602621Y-93641719D01*
X127612074Y-93629330D01*
X127625456Y-93611457D01*
X127641747Y-93589467D01*
X127659921Y-93564728D01*
X127660864Y-93563440D01*
X127735176Y-93461212D01*
X127802966Y-93366624D01*
X127864298Y-93279583D01*
X127919237Y-93199994D01*
X127967849Y-93127762D01*
X128010199Y-93062793D01*
X128046350Y-93004993D01*
X128053780Y-92992729D01*
X128114346Y-92886283D01*
X128167190Y-92781218D01*
X128212057Y-92678179D01*
X128248688Y-92577811D01*
X128276828Y-92480759D01*
X128296221Y-92387669D01*
X128297482Y-92379800D01*
X128300585Y-92356803D01*
X128304148Y-92324997D01*
X128308070Y-92285714D01*
X128312245Y-92240290D01*
X128316572Y-92190057D01*
X128320947Y-92136352D01*
X128325266Y-92080506D01*
X128329428Y-92023856D01*
X128333327Y-91967734D01*
X128336862Y-91913475D01*
X128339928Y-91862413D01*
X128342423Y-91815882D01*
X128344222Y-91775764D01*
X128345419Y-91743919D01*
X128346079Y-91720869D01*
X128346105Y-91705257D01*
X128345399Y-91695730D01*
X128343863Y-91690930D01*
X128341399Y-91689503D01*
X128338047Y-91690054D01*
X128320865Y-91694992D01*
X128296019Y-91702286D01*
X128265070Y-91711465D01*
X128229578Y-91722058D01*
X128191103Y-91733594D01*
X128151206Y-91745603D01*
X128111447Y-91757613D01*
X128073387Y-91769155D01*
X128038585Y-91779758D01*
X128008603Y-91788951D01*
X127985000Y-91796264D01*
X127969337Y-91801225D01*
X127967740Y-91801747D01*
X127916940Y-91818460D01*
X127913455Y-91935300D01*
X127912058Y-91978083D01*
X127910288Y-92026112D01*
X127908302Y-92075498D01*
X127906256Y-92122352D01*
X127904379Y-92161360D01*
X127890862Y-92362795D01*
X127871328Y-92556779D01*
X127845802Y-92743190D01*
X127814307Y-92921906D01*
X127776869Y-93092803D01*
X127733510Y-93255760D01*
X127684256Y-93410654D01*
X127629130Y-93557362D01*
X127628724Y-93558360D01*
X127615369Y-93591309D01*
X127605639Y-93615841D01*
X127599207Y-93632901D01*
X127595749Y-93643433D01*
X127594940Y-93648381D01*
X127451058Y-93648381D01*
X127463920Y-93621885D01*
X127489957Y-93566104D01*
X127512818Y-93514186D01*
X127532869Y-93464840D01*
X127550475Y-93416777D01*
X127566000Y-93368707D01*
X127579809Y-93319339D01*
X127592268Y-93267385D01*
X127603741Y-93211552D01*
X127614594Y-93150553D01*
X127625192Y-93083095D01*
X127635900Y-93007890D01*
X127645320Y-92937213D01*
X127651081Y-92893623D01*
X127657095Y-92849230D01*
X127663065Y-92806141D01*
X127668696Y-92766466D01*
X127673691Y-92732314D01*
X127677754Y-92705793D01*
X127678301Y-92702380D01*
X127681431Y-92680419D01*
X127685168Y-92649901D01*
X127689352Y-92612395D01*
X127693819Y-92569476D01*
X127698408Y-92522714D01*
X127702957Y-92473683D01*
X127707304Y-92423953D01*
X127708659Y-92407740D01*
X127716296Y-92316409D01*
X127723296Y-92235032D01*
X127729676Y-92163424D01*
X127735453Y-92101399D01*
X127740647Y-92048774D01*
X127745275Y-92005362D01*
X127749355Y-91970978D01*
X127752904Y-91945439D01*
X127754148Y-91937840D01*
X127757129Y-91919491D01*
X127759017Y-91905524D01*
X127759474Y-91898495D01*
X127759369Y-91898153D01*
X127754319Y-91899075D01*
X127741188Y-91902622D01*
X127721575Y-91908331D01*
X127697081Y-91915738D01*
X127674899Y-91922622D01*
X127639773Y-91933633D01*
X127600735Y-91945862D01*
X127561895Y-91958022D01*
X127527363Y-91968825D01*
X127518160Y-91971703D01*
X127464697Y-91989173D01*
X127402545Y-92010842D01*
X127332172Y-92036515D01*
X127254050Y-92065996D01*
X127168649Y-92099089D01*
X127076438Y-92135600D01*
X126977888Y-92175331D01*
X126873469Y-92218088D01*
X126763650Y-92263674D01*
X126648904Y-92311895D01*
X126529698Y-92362554D01*
X126406504Y-92415456D01*
X126279792Y-92470405D01*
X126150032Y-92527205D01*
X126017693Y-92585661D01*
X125883247Y-92645577D01*
X125747163Y-92706758D01*
X125691900Y-92731756D01*
X125596508Y-92775128D01*
X125495566Y-92821294D01*
X125389841Y-92869894D01*
X125280095Y-92920565D01*
X125167095Y-92972948D01*
X125051605Y-93026680D01*
X124934390Y-93081400D01*
X124816214Y-93136748D01*
X124697843Y-93192361D01*
X124580041Y-93247880D01*
X124463573Y-93302941D01*
X124349204Y-93357186D01*
X124237699Y-93410251D01*
X124129822Y-93461776D01*
X124026339Y-93511400D01*
X123928014Y-93558762D01*
X123835612Y-93603500D01*
X123749897Y-93645253D01*
X123671636Y-93683659D01*
X123601592Y-93718359D01*
X123578921Y-93729680D01*
X123503022Y-93767674D01*
X123416361Y-93756916D01*
X123225728Y-93734632D01*
X123026901Y-93714034D01*
X122821725Y-93695258D01*
X122612048Y-93678445D01*
X122399715Y-93663733D01*
X122186574Y-93651260D01*
X121974471Y-93641165D01*
X121780300Y-93634050D01*
X121735562Y-93632905D01*
X121683262Y-93631993D01*
X121624611Y-93631307D01*
X121560820Y-93630840D01*
X121493101Y-93630586D01*
X121422664Y-93630538D01*
X121350722Y-93630689D01*
X121278484Y-93631032D01*
X121207163Y-93631561D01*
X121137969Y-93632269D01*
X121072114Y-93633148D01*
X121010809Y-93634193D01*
X120955266Y-93635396D01*
X120906694Y-93636751D01*
X120866307Y-93638251D01*
X120845580Y-93639269D01*
X120689111Y-93648943D01*
X120542023Y-93660040D01*
X120403621Y-93672650D01*
X120273215Y-93686862D01*
X120150112Y-93702765D01*
X120033619Y-93720448D01*
X119923044Y-93740001D01*
X119817696Y-93761514D01*
X119718967Y-93784555D01*
X119690009Y-93791657D01*
X119669179Y-93796405D01*
X119654771Y-93799010D01*
X119645082Y-93799681D01*
X119638407Y-93798628D01*
X119633043Y-93796062D01*
X119631823Y-93795285D01*
X119625032Y-93789192D01*
X119612819Y-93776594D01*
X119596330Y-93758737D01*
X119576710Y-93736870D01*
X119555103Y-93712241D01*
X119546311Y-93702071D01*
X119482898Y-93630149D01*
X119412757Y-93553761D01*
X119337374Y-93474420D01*
X119258235Y-93393641D01*
X119176823Y-93312937D01*
X119094626Y-93233824D01*
X119013128Y-93157815D01*
X119006324Y-93151586D01*
X118782708Y-92953667D01*
X118550602Y-92760914D01*
X118310411Y-92573591D01*
X118062544Y-92391960D01*
X117807408Y-92216286D01*
X117545410Y-92046829D01*
X117276957Y-91883854D01*
X117002457Y-91727623D01*
X116722316Y-91578399D01*
X116436942Y-91436445D01*
X116146742Y-91302023D01*
X116128800Y-91294032D01*
X116095514Y-91279256D01*
X116064511Y-91265525D01*
X116037250Y-91253480D01*
X116015186Y-91243764D01*
X115999777Y-91237022D01*
X115993205Y-91234194D01*
X115976990Y-91227404D01*
X115938819Y-91342592D01*
X115900649Y-91457780D01*
X115894102Y-91559380D01*
X115891962Y-91600304D01*
X115890256Y-91648797D01*
X115888979Y-91703306D01*
X115888125Y-91762281D01*
X115887686Y-91824169D01*
X115887656Y-91887419D01*
X115888030Y-91950481D01*
X115888801Y-92011802D01*
X115889963Y-92069832D01*
X115891508Y-92123018D01*
X115893432Y-92169810D01*
X115895727Y-92208656D01*
X115896808Y-92222320D01*
X115910709Y-92359295D01*
X115927987Y-92488604D01*
X115949007Y-92612286D01*
X115974134Y-92732379D01*
X116003734Y-92850920D01*
X116019711Y-92908120D01*
X116036413Y-92964735D01*
X116051476Y-93012962D01*
X116065449Y-93054333D01*
X116078878Y-93090381D01*
X116092313Y-93122638D01*
X116106301Y-93152638D01*
X116109301Y-93158677D01*
X116123323Y-93185980D01*
X116137307Y-93211660D01*
X116151966Y-93236740D01*
X116168014Y-93262242D01*
X116186163Y-93289188D01*
X116207128Y-93318601D01*
X116231622Y-93351502D01*
X116260358Y-93388913D01*
X116294050Y-93431858D01*
X116333412Y-93481358D01*
X116342176Y-93492320D01*
X116367499Y-93524133D01*
X116393862Y-93557534D01*
X116419575Y-93590363D01*
X116442948Y-93620461D01*
X116462294Y-93645666D01*
X116468447Y-93653791D01*
X116492408Y-93685005D01*
X116521813Y-93722259D01*
X116556755Y-93765660D01*
X116597328Y-93815320D01*
X116643623Y-93871348D01*
X116695735Y-93933853D01*
X116753755Y-94002946D01*
X116817776Y-94078738D01*
X116887892Y-94161336D01*
X116964196Y-94250852D01*
X117046779Y-94347396D01*
X117135735Y-94451077D01*
X117231158Y-94562005D01*
X117333138Y-94680290D01*
X117441771Y-94806042D01*
X117454482Y-94820742D01*
X117486075Y-94857281D01*
X117516583Y-94892580D01*
X117545152Y-94925650D01*
X117570928Y-94955500D01*
X117593057Y-94981142D01*
X117610682Y-95001584D01*
X117622952Y-95015839D01*
X117626875Y-95020412D01*
X117654290Y-95052439D01*
X117677998Y-95007555D01*
X117695086Y-94976481D01*
X117712452Y-94947897D01*
X117731612Y-94919616D01*
X117754085Y-94889454D01*
X117781389Y-94855224D01*
X117796548Y-94836837D01*
X117839597Y-94786684D01*
X117881907Y-94740572D01*
X117922826Y-94699064D01*
X117961700Y-94662721D01*
X117997875Y-94632106D01*
X118030698Y-94607781D01*
X118059517Y-94590309D01*
X118083677Y-94580252D01*
X118097332Y-94577929D01*
X118114822Y-94580080D01*
X118124366Y-94587871D01*
X118125976Y-94601485D01*
X118119665Y-94621103D01*
X118105446Y-94646907D01*
X118102474Y-94651566D01*
X118087749Y-94675934D01*
X118069401Y-94709057D01*
X118047713Y-94750310D01*
X118022969Y-94799068D01*
X117995451Y-94854706D01*
X117965444Y-94916600D01*
X117933230Y-94984126D01*
X117899093Y-95056659D01*
X117863316Y-95133573D01*
X117826183Y-95214246D01*
X117787977Y-95298051D01*
X117748981Y-95384365D01*
X117709479Y-95472562D01*
X117669754Y-95562019D01*
X117630090Y-95652110D01*
X117590769Y-95742212D01*
X117552075Y-95831698D01*
X117514292Y-95919946D01*
X117477703Y-96006330D01*
X117442590Y-96090226D01*
X117409239Y-96171008D01*
X117377931Y-96248054D01*
X117375820Y-96253300D01*
X117341891Y-96339745D01*
X117306511Y-96433780D01*
X117270129Y-96534014D01*
X117233194Y-96639057D01*
X117196152Y-96747518D01*
X117159452Y-96858008D01*
X117123543Y-96969135D01*
X117088873Y-97079510D01*
X117055889Y-97187743D01*
X117025040Y-97292442D01*
X116996775Y-97392218D01*
X116971541Y-97485679D01*
X116949786Y-97571437D01*
X116946380Y-97585505D01*
X116907864Y-97759102D01*
X116875968Y-97931238D01*
X116850752Y-98101158D01*
X116832272Y-98268105D01*
X116820590Y-98431321D01*
X116815761Y-98590049D01*
X116817847Y-98743532D01*
X116826904Y-98891014D01*
X116837567Y-98991420D01*
X116859995Y-99133084D01*
X116891374Y-99274939D01*
X116931015Y-99413972D01*
X116941830Y-99447025D01*
X116956172Y-99488796D01*
X116970509Y-99528368D01*
X116985288Y-99566624D01*
X117000955Y-99604452D01*
X117017956Y-99642736D01*
X117036739Y-99682361D01*
X117057749Y-99724212D01*
X117081434Y-99769175D01*
X117108239Y-99818135D01*
X117138612Y-99871977D01*
X117172999Y-99931587D01*
X117211846Y-99997849D01*
X117255600Y-100071649D01*
X117264127Y-100085964D01*
X117288778Y-100127425D01*
X117313008Y-100168383D01*
X117336045Y-100207516D01*
X117357117Y-100243505D01*
X117375451Y-100275029D01*
X117390273Y-100300766D01*
X117400812Y-100319398D01*
X117402461Y-100322380D01*
X117447023Y-100406204D01*
X117485677Y-100484715D01*
X117518247Y-100557492D01*
X117544557Y-100624112D01*
X117564432Y-100684152D01*
X117577697Y-100737190D01*
X117579839Y-100748614D01*
X117584728Y-100790111D01*
X117586586Y-100839881D01*
X117585473Y-100896518D01*
X117581451Y-100958616D01*
X117574581Y-101024771D01*
X117564923Y-101093577D01*
X117564771Y-101094540D01*
X117558327Y-101136117D01*
X117551362Y-101182776D01*
X117544439Y-101230631D01*
X117538120Y-101275795D01*
X117533480Y-101310440D01*
X117523522Y-101383819D01*
X117513697Y-101449874D01*
X117504087Y-101508179D01*
X117494776Y-101558312D01*
X117485844Y-101599848D01*
X117477374Y-101632363D01*
X117469449Y-101655434D01*
X117464739Y-101664984D01*
X117454829Y-101681280D01*
X117357691Y-101681280D01*
X117324031Y-101681222D01*
X117299256Y-101680970D01*
X117282087Y-101680401D01*
X117271248Y-101679395D01*
X117265464Y-101677830D01*
X117263458Y-101675585D01*
X117263953Y-101672539D01*
X117264010Y-101672390D01*
X117279010Y-101631103D01*
X117295377Y-101581144D01*
X117312756Y-101523853D01*
X117330789Y-101460571D01*
X117349121Y-101392638D01*
X117367395Y-101321395D01*
X117385255Y-101248181D01*
X117402344Y-101174338D01*
X117418306Y-101101206D01*
X117426901Y-101059673D01*
X117435388Y-101016694D01*
X117441639Y-100981943D01*
X117445784Y-100953769D01*
X117447952Y-100930520D01*
X117448273Y-100910543D01*
X117446876Y-100892186D01*
X117443891Y-100873798D01*
X117442129Y-100865366D01*
X117434545Y-100834338D01*
X117425263Y-100803397D01*
X117413770Y-100771415D01*
X117399550Y-100737265D01*
X117382089Y-100699822D01*
X117360871Y-100657960D01*
X117335383Y-100610551D01*
X117305108Y-100556470D01*
X117284519Y-100520500D01*
X117259034Y-100475959D01*
X117236569Y-100435910D01*
X117216143Y-100398445D01*
X117196772Y-100361655D01*
X117177476Y-100323632D01*
X117157271Y-100282467D01*
X117135175Y-100236253D01*
X117110208Y-100183081D01*
X117103964Y-100169684D01*
X117080092Y-100118286D01*
X117055094Y-100064237D01*
X117029375Y-100008426D01*
X117003340Y-99951747D01*
X116977394Y-99895090D01*
X116951941Y-99839347D01*
X116927387Y-99785409D01*
X116904136Y-99734168D01*
X116882594Y-99686515D01*
X116863166Y-99643341D01*
X116846256Y-99605538D01*
X116832269Y-99573998D01*
X116821610Y-99549611D01*
X116814685Y-99533270D01*
X116813329Y-99529900D01*
X116770755Y-99408763D01*
X116735344Y-99280503D01*
X116707097Y-99145198D01*
X116686011Y-99002929D01*
X116672088Y-98853776D01*
X116665327Y-98697819D01*
X116665728Y-98535138D01*
X116673289Y-98365815D01*
X116688012Y-98189927D01*
X116709895Y-98007557D01*
X116738938Y-97818784D01*
X116775141Y-97623688D01*
X116818503Y-97422350D01*
X116822759Y-97403920D01*
X116871269Y-97206738D01*
X116926552Y-97003549D01*
X116988193Y-96795528D01*
X117055778Y-96583850D01*
X117128895Y-96369688D01*
X117207128Y-96154218D01*
X117290064Y-95938615D01*
X117377288Y-95724054D01*
X117468388Y-95511709D01*
X117562949Y-95302755D01*
X117563439Y-95301700D01*
X117576033Y-95274275D01*
X117587159Y-95249406D01*
X117596072Y-95228810D01*
X117602029Y-95214200D01*
X117604222Y-95207720D01*
X117603497Y-95200221D01*
X117597612Y-95191008D01*
X117585346Y-95178468D01*
X117575016Y-95169202D01*
X117563380Y-95158767D01*
X117545594Y-95142462D01*
X117522873Y-95121418D01*
X117496430Y-95096765D01*
X117467481Y-95069631D01*
X117437238Y-95041149D01*
X117426277Y-95030790D01*
X117275698Y-94883821D01*
X117124475Y-94727227D01*
X116973022Y-94561486D01*
X116821752Y-94387080D01*
X116671077Y-94204486D01*
X116521411Y-94014186D01*
X116373167Y-93816657D01*
X116331174Y-93759020D01*
X116257555Y-93656201D01*
X116184725Y-93552194D01*
X116112208Y-93446245D01*
X116039525Y-93337606D01*
X115966200Y-93225524D01*
X115891755Y-93109249D01*
X115815712Y-92988030D01*
X115737594Y-92861117D01*
X115656924Y-92727758D01*
X115573225Y-92587202D01*
X115486018Y-92438699D01*
X115425215Y-92334080D01*
X115354943Y-92212101D01*
X115289935Y-92097944D01*
X115229866Y-91990949D01*
X115174410Y-91890453D01*
X115123242Y-91795794D01*
X115076036Y-91706311D01*
X115032466Y-91621343D01*
X114992208Y-91540228D01*
X114954936Y-91462303D01*
X114920324Y-91386908D01*
X114888047Y-91313380D01*
X114857779Y-91241059D01*
X114829195Y-91169282D01*
X114801970Y-91097388D01*
X114775777Y-91024716D01*
X114762966Y-90987880D01*
X114751024Y-90953633D01*
X114738788Y-90919399D01*
X114727112Y-90887507D01*
X114716848Y-90860283D01*
X114708851Y-90840054D01*
X114708006Y-90838020D01*
X114698538Y-90814230D01*
X114692776Y-90795756D01*
X114689861Y-90778833D01*
X114689162Y-90764359D01*
X114818248Y-90764359D01*
X114818781Y-90769050D01*
X114821852Y-90782371D01*
X114827161Y-90803196D01*
X114834411Y-90830401D01*
X114843302Y-90862859D01*
X114853537Y-90899444D01*
X114861808Y-90928544D01*
X114876616Y-90979719D01*
X114889548Y-91022928D01*
X114901239Y-91060048D01*
X114912328Y-91092959D01*
X114923451Y-91123536D01*
X114935245Y-91153660D01*
X114948348Y-91185207D01*
X114951003Y-91191434D01*
X114980432Y-91257932D01*
X115015309Y-91332618D01*
X115055483Y-91415204D01*
X115100802Y-91505403D01*
X115151114Y-91602926D01*
X115206267Y-91707484D01*
X115266110Y-91818790D01*
X115330490Y-91936554D01*
X115399255Y-92060490D01*
X115472254Y-92190308D01*
X115541026Y-92311199D01*
X115570289Y-92362190D01*
X115600117Y-92413830D01*
X115630072Y-92465380D01*
X115659712Y-92516102D01*
X115688598Y-92565257D01*
X115716289Y-92612108D01*
X115742345Y-92655916D01*
X115766326Y-92695943D01*
X115787791Y-92731452D01*
X115806300Y-92761703D01*
X115821414Y-92785959D01*
X115832691Y-92803481D01*
X115839691Y-92813531D01*
X115841920Y-92815692D01*
X115841341Y-92810464D01*
X115838663Y-92797174D01*
X115834278Y-92777609D01*
X115828576Y-92753560D01*
X115825992Y-92742993D01*
X115791237Y-92588043D01*
X115761718Y-92427022D01*
X115737876Y-92262811D01*
X115720148Y-92098295D01*
X115712353Y-91996346D01*
X115710701Y-91963225D01*
X115709384Y-91921973D01*
X115708401Y-91874441D01*
X115707753Y-91822478D01*
X115707439Y-91767936D01*
X115707460Y-91712666D01*
X115707815Y-91658517D01*
X115708504Y-91607340D01*
X115709528Y-91560985D01*
X115710886Y-91521304D01*
X115712359Y-91493340D01*
X115715377Y-91452035D01*
X115719116Y-91407690D01*
X115723413Y-91361744D01*
X115728102Y-91315636D01*
X115733019Y-91270807D01*
X115737999Y-91228696D01*
X115742878Y-91190742D01*
X115747490Y-91158385D01*
X115751670Y-91133064D01*
X115755254Y-91116219D01*
X115755726Y-91114525D01*
X115756086Y-91112329D01*
X115755305Y-91110076D01*
X115752600Y-91107424D01*
X115747187Y-91104028D01*
X115738283Y-91099546D01*
X115725105Y-91093635D01*
X115706869Y-91085952D01*
X115682792Y-91076152D01*
X115652090Y-91063894D01*
X115613981Y-91048833D01*
X115567680Y-91030627D01*
X115534440Y-91017579D01*
X115428002Y-90976574D01*
X115315203Y-90934525D01*
X115199574Y-90892709D01*
X115084644Y-90852402D01*
X114973946Y-90814879D01*
X114968500Y-90813071D01*
X114931790Y-90800929D01*
X114898213Y-90789892D01*
X114868975Y-90780351D01*
X114845281Y-90772696D01*
X114828335Y-90767318D01*
X114819344Y-90764609D01*
X114818248Y-90764359D01*
X114689162Y-90764359D01*
X114688937Y-90759700D01*
X114688916Y-90754200D01*
X114692795Y-90716110D01*
X114704267Y-90684678D01*
X114723301Y-90659977D01*
X114730853Y-90653607D01*
X114740989Y-90646661D01*
X114750837Y-90642600D01*
X114763545Y-90640719D01*
X114782265Y-90640312D01*
X114789860Y-90640375D01*
G37*
X114789860Y-90640375D02*
X114806674Y-90641181D01*
X114824574Y-90643430D01*
X114844653Y-90647451D01*
X114868007Y-90653572D01*
X114895731Y-90662120D01*
X114928921Y-90673425D01*
X114968670Y-90687813D01*
X115016074Y-90705614D01*
X115046760Y-90717343D01*
X115085372Y-90732018D01*
X115129126Y-90748393D01*
X115174083Y-90765009D01*
X115216303Y-90780409D01*
X115242340Y-90789763D01*
X115551798Y-90905125D01*
X115858486Y-91029738D01*
X116161957Y-91163344D01*
X116461762Y-91305683D01*
X116757455Y-91456494D01*
X117048590Y-91615519D01*
X117334718Y-91782498D01*
X117615394Y-91957172D01*
X117890170Y-92139279D01*
X118158599Y-92328563D01*
X118420235Y-92524761D01*
X118674630Y-92727616D01*
X118884670Y-92904936D01*
X118952073Y-92964040D01*
X119020383Y-93025235D01*
X119088700Y-93087652D01*
X119156123Y-93150421D01*
X119221751Y-93212672D01*
X119284684Y-93273538D01*
X119344020Y-93332149D01*
X119398858Y-93387635D01*
X119448299Y-93439127D01*
X119491441Y-93485757D01*
X119519731Y-93517720D01*
X119542796Y-93544200D01*
X119565353Y-93569686D01*
X119585962Y-93592583D01*
X119603187Y-93611297D01*
X119615592Y-93624236D01*
X119617606Y-93626222D01*
X119643091Y-93650905D01*
X119718555Y-93632799D01*
X119860310Y-93601542D01*
X120011406Y-93573520D01*
X120171550Y-93548748D01*
X120340447Y-93527243D01*
X120517802Y-93509023D01*
X120703321Y-93494103D01*
X120896708Y-93482501D01*
X121097668Y-93474233D01*
X121305908Y-93469316D01*
X121521132Y-93467767D01*
X121743045Y-93469601D01*
X121971354Y-93474837D01*
X122205762Y-93483490D01*
X122288300Y-93487286D01*
X122530248Y-93500422D01*
X122769427Y-93516290D01*
X123003777Y-93534737D01*
X123231239Y-93555607D01*
X123335751Y-93566269D01*
X123458643Y-93579230D01*
X123597371Y-93505010D01*
X123641914Y-93481418D01*
X123694074Y-93454196D01*
X123752315Y-93424120D01*
X123815099Y-93391965D01*
X123880888Y-93358507D01*
X123948145Y-93324521D01*
X124015333Y-93290784D01*
X124080913Y-93258070D01*
X124143350Y-93227155D01*
X124201105Y-93198814D01*
X124252640Y-93173824D01*
X124277120Y-93162102D01*
X124513398Y-93051365D01*
X124759292Y-92939611D01*
X125014329Y-92827028D01*
X125278038Y-92713807D01*
X125549944Y-92600135D01*
X125829577Y-92486204D01*
X126116464Y-92372201D01*
X126410132Y-92258317D01*
X126710109Y-92144741D01*
X127015922Y-92031663D01*
X127327100Y-91919270D01*
X127643170Y-91807754D01*
X127736600Y-91775286D01*
X127771009Y-91763424D01*
X127810758Y-91749814D01*
X127854961Y-91734753D01*
X127902730Y-91718539D01*
X127953181Y-91701467D01*
X128005427Y-91683835D01*
X128058581Y-91665939D01*
X128111757Y-91648076D01*
X128164069Y-91630542D01*
X128214631Y-91613636D01*
X128262557Y-91597652D01*
X128306960Y-91582888D01*
X128346953Y-91569641D01*
X128381652Y-91558208D01*
X128410169Y-91548884D01*
X128431618Y-91541968D01*
X128445113Y-91537755D01*
X128449708Y-91536519D01*
X128451003Y-91541361D01*
X128452124Y-91554936D01*
X128453059Y-91575819D01*
X128453792Y-91602583D01*
X128454312Y-91633804D01*
X128454604Y-91668055D01*
X128454655Y-91703912D01*
X128454451Y-91739948D01*
X128453980Y-91774738D01*
X128453227Y-91806856D01*
X128452465Y-91828450D01*
X128450745Y-91864120D01*
X128448342Y-91906207D01*
X128445367Y-91953286D01*
X128441932Y-92003931D01*
X128438146Y-92056717D01*
X128434123Y-92110219D01*
X128429972Y-92163011D01*
X128425804Y-92213668D01*
X128421732Y-92260765D01*
X128417865Y-92302877D01*
X128414316Y-92338578D01*
X128411194Y-92366442D01*
X128409529Y-92379118D01*
X128390128Y-92483066D01*
X128361470Y-92589427D01*
X128323486Y-92698379D01*
X128276106Y-92810096D01*
X128219264Y-92924755D01*
X128152890Y-93042532D01*
X128146887Y-93052557D01*
X128110611Y-93111212D01*
X128068368Y-93176596D01*
X128020853Y-93247765D01*
X127968762Y-93323778D01*
X127912789Y-93403691D01*
X127853629Y-93486562D01*
X127791978Y-93571447D01*
X127728529Y-93657404D01*
X127663979Y-93743490D01*
X127599021Y-93828762D01*
X127534351Y-93912278D01*
X127470664Y-93993094D01*
X127408654Y-94070268D01*
X127349017Y-94142857D01*
X127302748Y-94197856D01*
X127142238Y-94381536D01*
X126981365Y-94555888D01*
X126819299Y-94721731D01*
X126655212Y-94879886D01*
X126488276Y-95031174D01*
X126317661Y-95176415D01*
X126298604Y-95192081D01*
X126223718Y-95252958D01*
X126153891Y-95308758D01*
X126089467Y-95359222D01*
X126030791Y-95404090D01*
X125978207Y-95443102D01*
X125932061Y-95475998D01*
X125892697Y-95502518D01*
X125860953Y-95522117D01*
X125842710Y-95532690D01*
X125828106Y-95541188D01*
X125819144Y-95546444D01*
X125817321Y-95547546D01*
X125819702Y-95551711D01*
X125827311Y-95562454D01*
X125839108Y-95578359D01*
X125854049Y-95598009D01*
X125862186Y-95608554D01*
X125933520Y-95705791D01*
X126000559Y-95808108D01*
X126063685Y-95916260D01*
X126123279Y-96031006D01*
X126179725Y-96153102D01*
X126233403Y-96283307D01*
X126284697Y-96422377D01*
X126309280Y-96494600D01*
X126330010Y-96558284D01*
X126350034Y-96622335D01*
X126369540Y-96687517D01*
X126388718Y-96754595D01*
X126407756Y-96824335D01*
X126426843Y-96897502D01*
X126446168Y-96974861D01*
X126465919Y-97057177D01*
X126486286Y-97145216D01*
X126507456Y-97239743D01*
X126529618Y-97341523D01*
X126552962Y-97451321D01*
X126577676Y-97569903D01*
X126593685Y-97647760D01*
X126606089Y-97708033D01*
X126619883Y-97774493D01*
X126634533Y-97844603D01*
X126649505Y-97915826D01*
X126664266Y-97985626D01*
X126678281Y-98051466D01*
X126691017Y-98110810D01*
X126695243Y-98130360D01*
X126767295Y-98468555D01*
X126836137Y-98803493D01*
X126902046Y-99136720D01*
X126965301Y-99469780D01*
X127026177Y-99804219D01*
X127084953Y-100141584D01*
X127141905Y-100483420D01*
X127197312Y-100831273D01*
X127251450Y-101186688D01*
X127286600Y-101426010D01*
X127323562Y-101681280D01*
X127248141Y-101681280D01*
X127218573Y-101680960D01*
X127195404Y-101680052D01*
X127179803Y-101678633D01*
X127172941Y-101676780D01*
X127172720Y-101676343D01*
X127172008Y-101670439D01*
X127169973Y-101655517D01*
X127166762Y-101632614D01*
X127162522Y-101602765D01*
X127157402Y-101567005D01*
X127151547Y-101526370D01*
X127145107Y-101481896D01*
X127139956Y-101446473D01*
X127088907Y-101102680D01*
X127037179Y-100767800D01*
X126984550Y-100440593D01*
X126930799Y-100119824D01*
X126875703Y-99804254D01*
X126819040Y-99492645D01*
X126760589Y-99183760D01*
X126700126Y-98876361D01*
X126637429Y-98569210D01*
X126572278Y-98261071D01*
X126548401Y-98150680D01*
X126538424Y-98104396D01*
X126526855Y-98050000D01*
X126514079Y-97989344D01*
X126500481Y-97924284D01*
X126486447Y-97856671D01*
X126472363Y-97788359D01*
X126458614Y-97721201D01*
X126445585Y-97657052D01*
X126441148Y-97635060D01*
X126418842Y-97524955D01*
X126398114Y-97424037D01*
X126378776Y-97331486D01*
X126360640Y-97246483D01*
X126343520Y-97168208D01*
X126327228Y-97095842D01*
X126311577Y-97028566D01*
X126296380Y-96965560D01*
X126281450Y-96906005D01*
X126266599Y-96849082D01*
X126251641Y-96793971D01*
X126237438Y-96743520D01*
X126186138Y-96575415D01*
X126130657Y-96414765D01*
X126071114Y-96261766D01*
X126007629Y-96116616D01*
X125940324Y-95979512D01*
X125869320Y-95850652D01*
X125794735Y-95730233D01*
X125716693Y-95618451D01*
X125635312Y-95515506D01*
X125550714Y-95421594D01*
X125463019Y-95336913D01*
X125372347Y-95261659D01*
X125300740Y-95210371D01*
X125269135Y-95190513D01*
X125231402Y-95168825D01*
X125190136Y-95146636D01*
X125147930Y-95125273D01*
X125107379Y-95106065D01*
X125071077Y-95090341D01*
X125051820Y-95082916D01*
X125030455Y-95074538D01*
X125011679Y-95065959D01*
X124998348Y-95058535D01*
X124994747Y-95055805D01*
X124983159Y-95038600D01*
X124979681Y-95018187D01*
X124984184Y-94997298D01*
X124996537Y-94978667D01*
X124998520Y-94976732D01*
X125012751Y-94967104D01*
X125029458Y-94963608D01*
X125050614Y-94966173D01*
X125075981Y-94973923D01*
X125127622Y-94994272D01*
X125179319Y-95018350D01*
X125232081Y-95046786D01*
X125286917Y-95080209D01*
X125344834Y-95119248D01*
X125406840Y-95164532D01*
X125473945Y-95216691D01*
X125504701Y-95241457D01*
X125553388Y-95278010D01*
X125598594Y-95305497D01*
X125640958Y-95324140D01*
X125681121Y-95334161D01*
X125719723Y-95335780D01*
X125757405Y-95329218D01*
X125758192Y-95328994D01*
X125769656Y-95324633D01*
X125788850Y-95316093D01*
X125814549Y-95303997D01*
X125845528Y-95288965D01*
X125880564Y-95271621D01*
X125918431Y-95252584D01*
X125957905Y-95232478D01*
X125997762Y-95211924D01*
X126036776Y-95191544D01*
X126073723Y-95171960D01*
X126107378Y-95153793D01*
X126136518Y-95137666D01*
X126149100Y-95130510D01*
X126202048Y-95099223D01*
X126251991Y-95067873D01*
X126299955Y-95035629D01*
X126346969Y-95001658D01*
X126394060Y-94965129D01*
X126442255Y-94925208D01*
X126492584Y-94881065D01*
X126546072Y-94831867D01*
X126603748Y-94776781D01*
X126666640Y-94714977D01*
X126685266Y-94696413D01*
X126768676Y-94611705D01*
X126844845Y-94531378D01*
X126914911Y-94454068D01*
X126980011Y-94378408D01*
X127041284Y-94303034D01*
X127099868Y-94226580D01*
X127156900Y-94147682D01*
X127213519Y-94064975D01*
X127221049Y-94053660D01*
X127260614Y-93993191D01*
X127295380Y-93938062D01*
X127326858Y-93885650D01*
X127356555Y-93833330D01*
X127385982Y-93778478D01*
X127416648Y-93718469D01*
X127434342Y-93682820D01*
X127451058Y-93648381D01*
X127594940Y-93648381D01*
X127596455Y-93648688D01*
X127598123Y-93647260D01*
X127602621Y-93641719D01*
X127612074Y-93629330D01*
X127625456Y-93611457D01*
X127641747Y-93589467D01*
X127659921Y-93564728D01*
X127660864Y-93563440D01*
X127735176Y-93461212D01*
X127802966Y-93366624D01*
X127864298Y-93279583D01*
X127919237Y-93199994D01*
X127967849Y-93127762D01*
X128010199Y-93062793D01*
X128046350Y-93004993D01*
X128053780Y-92992729D01*
X128114346Y-92886283D01*
X128167190Y-92781218D01*
X128212057Y-92678179D01*
X128248688Y-92577811D01*
X128276828Y-92480759D01*
X128296221Y-92387669D01*
X128297482Y-92379800D01*
X128300585Y-92356803D01*
X128304148Y-92324997D01*
X128308070Y-92285714D01*
X128312245Y-92240290D01*
X128316572Y-92190057D01*
X128320947Y-92136352D01*
X128325266Y-92080506D01*
X128329428Y-92023856D01*
X128333327Y-91967734D01*
X128336862Y-91913475D01*
X128339928Y-91862413D01*
X128342423Y-91815882D01*
X128344222Y-91775764D01*
X128345419Y-91743919D01*
X128346079Y-91720869D01*
X128346105Y-91705257D01*
X128345399Y-91695730D01*
X128343863Y-91690930D01*
X128341399Y-91689503D01*
X128338047Y-91690054D01*
X128320865Y-91694992D01*
X128296019Y-91702286D01*
X128265070Y-91711465D01*
X128229578Y-91722058D01*
X128191103Y-91733594D01*
X128151206Y-91745603D01*
X128111447Y-91757613D01*
X128073387Y-91769155D01*
X128038585Y-91779758D01*
X128008603Y-91788951D01*
X127985000Y-91796264D01*
X127969337Y-91801225D01*
X127967740Y-91801747D01*
X127916940Y-91818460D01*
X127913455Y-91935300D01*
X127912058Y-91978083D01*
X127910288Y-92026112D01*
X127908302Y-92075498D01*
X127906256Y-92122352D01*
X127904379Y-92161360D01*
X127890862Y-92362795D01*
X127871328Y-92556779D01*
X127845802Y-92743190D01*
X127814307Y-92921906D01*
X127776869Y-93092803D01*
X127733510Y-93255760D01*
X127684256Y-93410654D01*
X127629130Y-93557362D01*
X127628724Y-93558360D01*
X127615369Y-93591309D01*
X127605639Y-93615841D01*
X127599207Y-93632901D01*
X127595749Y-93643433D01*
X127594940Y-93648381D01*
X127451058Y-93648381D01*
X127463920Y-93621885D01*
X127489957Y-93566104D01*
X127512818Y-93514186D01*
X127532869Y-93464840D01*
X127550475Y-93416777D01*
X127566000Y-93368707D01*
X127579809Y-93319339D01*
X127592268Y-93267385D01*
X127603741Y-93211552D01*
X127614594Y-93150553D01*
X127625192Y-93083095D01*
X127635900Y-93007890D01*
X127645320Y-92937213D01*
X127651081Y-92893623D01*
X127657095Y-92849230D01*
X127663065Y-92806141D01*
X127668696Y-92766466D01*
X127673691Y-92732314D01*
X127677754Y-92705793D01*
X127678301Y-92702380D01*
X127681431Y-92680419D01*
X127685168Y-92649901D01*
X127689352Y-92612395D01*
X127693819Y-92569476D01*
X127698408Y-92522714D01*
X127702957Y-92473683D01*
X127707304Y-92423953D01*
X127708659Y-92407740D01*
X127716296Y-92316409D01*
X127723296Y-92235032D01*
X127729676Y-92163424D01*
X127735453Y-92101399D01*
X127740647Y-92048774D01*
X127745275Y-92005362D01*
X127749355Y-91970978D01*
X127752904Y-91945439D01*
X127754148Y-91937840D01*
X127757129Y-91919491D01*
X127759017Y-91905524D01*
X127759474Y-91898495D01*
X127759369Y-91898153D01*
X127754319Y-91899075D01*
X127741188Y-91902622D01*
X127721575Y-91908331D01*
X127697081Y-91915738D01*
X127674899Y-91922622D01*
X127639773Y-91933633D01*
X127600735Y-91945862D01*
X127561895Y-91958022D01*
X127527363Y-91968825D01*
X127518160Y-91971703D01*
X127464697Y-91989173D01*
X127402545Y-92010842D01*
X127332172Y-92036515D01*
X127254050Y-92065996D01*
X127168649Y-92099089D01*
X127076438Y-92135600D01*
X126977888Y-92175331D01*
X126873469Y-92218088D01*
X126763650Y-92263674D01*
X126648904Y-92311895D01*
X126529698Y-92362554D01*
X126406504Y-92415456D01*
X126279792Y-92470405D01*
X126150032Y-92527205D01*
X126017693Y-92585661D01*
X125883247Y-92645577D01*
X125747163Y-92706758D01*
X125691900Y-92731756D01*
X125596508Y-92775128D01*
X125495566Y-92821294D01*
X125389841Y-92869894D01*
X125280095Y-92920565D01*
X125167095Y-92972948D01*
X125051605Y-93026680D01*
X124934390Y-93081400D01*
X124816214Y-93136748D01*
X124697843Y-93192361D01*
X124580041Y-93247880D01*
X124463573Y-93302941D01*
X124349204Y-93357186D01*
X124237699Y-93410251D01*
X124129822Y-93461776D01*
X124026339Y-93511400D01*
X123928014Y-93558762D01*
X123835612Y-93603500D01*
X123749897Y-93645253D01*
X123671636Y-93683659D01*
X123601592Y-93718359D01*
X123578921Y-93729680D01*
X123503022Y-93767674D01*
X123416361Y-93756916D01*
X123225728Y-93734632D01*
X123026901Y-93714034D01*
X122821725Y-93695258D01*
X122612048Y-93678445D01*
X122399715Y-93663733D01*
X122186574Y-93651260D01*
X121974471Y-93641165D01*
X121780300Y-93634050D01*
X121735562Y-93632905D01*
X121683262Y-93631993D01*
X121624611Y-93631307D01*
X121560820Y-93630840D01*
X121493101Y-93630586D01*
X121422664Y-93630538D01*
X121350722Y-93630689D01*
X121278484Y-93631032D01*
X121207163Y-93631561D01*
X121137969Y-93632269D01*
X121072114Y-93633148D01*
X121010809Y-93634193D01*
X120955266Y-93635396D01*
X120906694Y-93636751D01*
X120866307Y-93638251D01*
X120845580Y-93639269D01*
X120689111Y-93648943D01*
X120542023Y-93660040D01*
X120403621Y-93672650D01*
X120273215Y-93686862D01*
X120150112Y-93702765D01*
X120033619Y-93720448D01*
X119923044Y-93740001D01*
X119817696Y-93761514D01*
X119718967Y-93784555D01*
X119690009Y-93791657D01*
X119669179Y-93796405D01*
X119654771Y-93799010D01*
X119645082Y-93799681D01*
X119638407Y-93798628D01*
X119633043Y-93796062D01*
X119631823Y-93795285D01*
X119625032Y-93789192D01*
X119612819Y-93776594D01*
X119596330Y-93758737D01*
X119576710Y-93736870D01*
X119555103Y-93712241D01*
X119546311Y-93702071D01*
X119482898Y-93630149D01*
X119412757Y-93553761D01*
X119337374Y-93474420D01*
X119258235Y-93393641D01*
X119176823Y-93312937D01*
X119094626Y-93233824D01*
X119013128Y-93157815D01*
X119006324Y-93151586D01*
X118782708Y-92953667D01*
X118550602Y-92760914D01*
X118310411Y-92573591D01*
X118062544Y-92391960D01*
X117807408Y-92216286D01*
X117545410Y-92046829D01*
X117276957Y-91883854D01*
X117002457Y-91727623D01*
X116722316Y-91578399D01*
X116436942Y-91436445D01*
X116146742Y-91302023D01*
X116128800Y-91294032D01*
X116095514Y-91279256D01*
X116064511Y-91265525D01*
X116037250Y-91253480D01*
X116015186Y-91243764D01*
X115999777Y-91237022D01*
X115993205Y-91234194D01*
X115976990Y-91227404D01*
X115938819Y-91342592D01*
X115900649Y-91457780D01*
X115894102Y-91559380D01*
X115891962Y-91600304D01*
X115890256Y-91648797D01*
X115888979Y-91703306D01*
X115888125Y-91762281D01*
X115887686Y-91824169D01*
X115887656Y-91887419D01*
X115888030Y-91950481D01*
X115888801Y-92011802D01*
X115889963Y-92069832D01*
X115891508Y-92123018D01*
X115893432Y-92169810D01*
X115895727Y-92208656D01*
X115896808Y-92222320D01*
X115910709Y-92359295D01*
X115927987Y-92488604D01*
X115949007Y-92612286D01*
X115974134Y-92732379D01*
X116003734Y-92850920D01*
X116019711Y-92908120D01*
X116036413Y-92964735D01*
X116051476Y-93012962D01*
X116065449Y-93054333D01*
X116078878Y-93090381D01*
X116092313Y-93122638D01*
X116106301Y-93152638D01*
X116109301Y-93158677D01*
X116123323Y-93185980D01*
X116137307Y-93211660D01*
X116151966Y-93236740D01*
X116168014Y-93262242D01*
X116186163Y-93289188D01*
X116207128Y-93318601D01*
X116231622Y-93351502D01*
X116260358Y-93388913D01*
X116294050Y-93431858D01*
X116333412Y-93481358D01*
X116342176Y-93492320D01*
X116367499Y-93524133D01*
X116393862Y-93557534D01*
X116419575Y-93590363D01*
X116442948Y-93620461D01*
X116462294Y-93645666D01*
X116468447Y-93653791D01*
X116492408Y-93685005D01*
X116521813Y-93722259D01*
X116556755Y-93765660D01*
X116597328Y-93815320D01*
X116643623Y-93871348D01*
X116695735Y-93933853D01*
X116753755Y-94002946D01*
X116817776Y-94078738D01*
X116887892Y-94161336D01*
X116964196Y-94250852D01*
X117046779Y-94347396D01*
X117135735Y-94451077D01*
X117231158Y-94562005D01*
X117333138Y-94680290D01*
X117441771Y-94806042D01*
X117454482Y-94820742D01*
X117486075Y-94857281D01*
X117516583Y-94892580D01*
X117545152Y-94925650D01*
X117570928Y-94955500D01*
X117593057Y-94981142D01*
X117610682Y-95001584D01*
X117622952Y-95015839D01*
X117626875Y-95020412D01*
X117654290Y-95052439D01*
X117677998Y-95007555D01*
X117695086Y-94976481D01*
X117712452Y-94947897D01*
X117731612Y-94919616D01*
X117754085Y-94889454D01*
X117781389Y-94855224D01*
X117796548Y-94836837D01*
X117839597Y-94786684D01*
X117881907Y-94740572D01*
X117922826Y-94699064D01*
X117961700Y-94662721D01*
X117997875Y-94632106D01*
X118030698Y-94607781D01*
X118059517Y-94590309D01*
X118083677Y-94580252D01*
X118097332Y-94577929D01*
X118114822Y-94580080D01*
X118124366Y-94587871D01*
X118125976Y-94601485D01*
X118119665Y-94621103D01*
X118105446Y-94646907D01*
X118102474Y-94651566D01*
X118087749Y-94675934D01*
X118069401Y-94709057D01*
X118047713Y-94750310D01*
X118022969Y-94799068D01*
X117995451Y-94854706D01*
X117965444Y-94916600D01*
X117933230Y-94984126D01*
X117899093Y-95056659D01*
X117863316Y-95133573D01*
X117826183Y-95214246D01*
X117787977Y-95298051D01*
X117748981Y-95384365D01*
X117709479Y-95472562D01*
X117669754Y-95562019D01*
X117630090Y-95652110D01*
X117590769Y-95742212D01*
X117552075Y-95831698D01*
X117514292Y-95919946D01*
X117477703Y-96006330D01*
X117442590Y-96090226D01*
X117409239Y-96171008D01*
X117377931Y-96248054D01*
X117375820Y-96253300D01*
X117341891Y-96339745D01*
X117306511Y-96433780D01*
X117270129Y-96534014D01*
X117233194Y-96639057D01*
X117196152Y-96747518D01*
X117159452Y-96858008D01*
X117123543Y-96969135D01*
X117088873Y-97079510D01*
X117055889Y-97187743D01*
X117025040Y-97292442D01*
X116996775Y-97392218D01*
X116971541Y-97485679D01*
X116949786Y-97571437D01*
X116946380Y-97585505D01*
X116907864Y-97759102D01*
X116875968Y-97931238D01*
X116850752Y-98101158D01*
X116832272Y-98268105D01*
X116820590Y-98431321D01*
X116815761Y-98590049D01*
X116817847Y-98743532D01*
X116826904Y-98891014D01*
X116837567Y-98991420D01*
X116859995Y-99133084D01*
X116891374Y-99274939D01*
X116931015Y-99413972D01*
X116941830Y-99447025D01*
X116956172Y-99488796D01*
X116970509Y-99528368D01*
X116985288Y-99566624D01*
X117000955Y-99604452D01*
X117017956Y-99642736D01*
X117036739Y-99682361D01*
X117057749Y-99724212D01*
X117081434Y-99769175D01*
X117108239Y-99818135D01*
X117138612Y-99871977D01*
X117172999Y-99931587D01*
X117211846Y-99997849D01*
X117255600Y-100071649D01*
X117264127Y-100085964D01*
X117288778Y-100127425D01*
X117313008Y-100168383D01*
X117336045Y-100207516D01*
X117357117Y-100243505D01*
X117375451Y-100275029D01*
X117390273Y-100300766D01*
X117400812Y-100319398D01*
X117402461Y-100322380D01*
X117447023Y-100406204D01*
X117485677Y-100484715D01*
X117518247Y-100557492D01*
X117544557Y-100624112D01*
X117564432Y-100684152D01*
X117577697Y-100737190D01*
X117579839Y-100748614D01*
X117584728Y-100790111D01*
X117586586Y-100839881D01*
X117585473Y-100896518D01*
X117581451Y-100958616D01*
X117574581Y-101024771D01*
X117564923Y-101093577D01*
X117564771Y-101094540D01*
X117558327Y-101136117D01*
X117551362Y-101182776D01*
X117544439Y-101230631D01*
X117538120Y-101275795D01*
X117533480Y-101310440D01*
X117523522Y-101383819D01*
X117513697Y-101449874D01*
X117504087Y-101508179D01*
X117494776Y-101558312D01*
X117485844Y-101599848D01*
X117477374Y-101632363D01*
X117469449Y-101655434D01*
X117464739Y-101664984D01*
X117454829Y-101681280D01*
X117357691Y-101681280D01*
X117324031Y-101681222D01*
X117299256Y-101680970D01*
X117282087Y-101680401D01*
X117271248Y-101679395D01*
X117265464Y-101677830D01*
X117263458Y-101675585D01*
X117263953Y-101672539D01*
X117264010Y-101672390D01*
X117279010Y-101631103D01*
X117295377Y-101581144D01*
X117312756Y-101523853D01*
X117330789Y-101460571D01*
X117349121Y-101392638D01*
X117367395Y-101321395D01*
X117385255Y-101248181D01*
X117402344Y-101174338D01*
X117418306Y-101101206D01*
X117426901Y-101059673D01*
X117435388Y-101016694D01*
X117441639Y-100981943D01*
X117445784Y-100953769D01*
X117447952Y-100930520D01*
X117448273Y-100910543D01*
X117446876Y-100892186D01*
X117443891Y-100873798D01*
X117442129Y-100865366D01*
X117434545Y-100834338D01*
X117425263Y-100803397D01*
X117413770Y-100771415D01*
X117399550Y-100737265D01*
X117382089Y-100699822D01*
X117360871Y-100657960D01*
X117335383Y-100610551D01*
X117305108Y-100556470D01*
X117284519Y-100520500D01*
X117259034Y-100475959D01*
X117236569Y-100435910D01*
X117216143Y-100398445D01*
X117196772Y-100361655D01*
X117177476Y-100323632D01*
X117157271Y-100282467D01*
X117135175Y-100236253D01*
X117110208Y-100183081D01*
X117103964Y-100169684D01*
X117080092Y-100118286D01*
X117055094Y-100064237D01*
X117029375Y-100008426D01*
X117003340Y-99951747D01*
X116977394Y-99895090D01*
X116951941Y-99839347D01*
X116927387Y-99785409D01*
X116904136Y-99734168D01*
X116882594Y-99686515D01*
X116863166Y-99643341D01*
X116846256Y-99605538D01*
X116832269Y-99573998D01*
X116821610Y-99549611D01*
X116814685Y-99533270D01*
X116813329Y-99529900D01*
X116770755Y-99408763D01*
X116735344Y-99280503D01*
X116707097Y-99145198D01*
X116686011Y-99002929D01*
X116672088Y-98853776D01*
X116665327Y-98697819D01*
X116665728Y-98535138D01*
X116673289Y-98365815D01*
X116688012Y-98189927D01*
X116709895Y-98007557D01*
X116738938Y-97818784D01*
X116775141Y-97623688D01*
X116818503Y-97422350D01*
X116822759Y-97403920D01*
X116871269Y-97206738D01*
X116926552Y-97003549D01*
X116988193Y-96795528D01*
X117055778Y-96583850D01*
X117128895Y-96369688D01*
X117207128Y-96154218D01*
X117290064Y-95938615D01*
X117377288Y-95724054D01*
X117468388Y-95511709D01*
X117562949Y-95302755D01*
X117563439Y-95301700D01*
X117576033Y-95274275D01*
X117587159Y-95249406D01*
X117596072Y-95228810D01*
X117602029Y-95214200D01*
X117604222Y-95207720D01*
X117603497Y-95200221D01*
X117597612Y-95191008D01*
X117585346Y-95178468D01*
X117575016Y-95169202D01*
X117563380Y-95158767D01*
X117545594Y-95142462D01*
X117522873Y-95121418D01*
X117496430Y-95096765D01*
X117467481Y-95069631D01*
X117437238Y-95041149D01*
X117426277Y-95030790D01*
X117275698Y-94883821D01*
X117124475Y-94727227D01*
X116973022Y-94561486D01*
X116821752Y-94387080D01*
X116671077Y-94204486D01*
X116521411Y-94014186D01*
X116373167Y-93816657D01*
X116331174Y-93759020D01*
X116257555Y-93656201D01*
X116184725Y-93552194D01*
X116112208Y-93446245D01*
X116039525Y-93337606D01*
X115966200Y-93225524D01*
X115891755Y-93109249D01*
X115815712Y-92988030D01*
X115737594Y-92861117D01*
X115656924Y-92727758D01*
X115573225Y-92587202D01*
X115486018Y-92438699D01*
X115425215Y-92334080D01*
X115354943Y-92212101D01*
X115289935Y-92097944D01*
X115229866Y-91990949D01*
X115174410Y-91890453D01*
X115123242Y-91795794D01*
X115076036Y-91706311D01*
X115032466Y-91621343D01*
X114992208Y-91540228D01*
X114954936Y-91462303D01*
X114920324Y-91386908D01*
X114888047Y-91313380D01*
X114857779Y-91241059D01*
X114829195Y-91169282D01*
X114801970Y-91097388D01*
X114775777Y-91024716D01*
X114762966Y-90987880D01*
X114751024Y-90953633D01*
X114738788Y-90919399D01*
X114727112Y-90887507D01*
X114716848Y-90860283D01*
X114708851Y-90840054D01*
X114708006Y-90838020D01*
X114698538Y-90814230D01*
X114692776Y-90795756D01*
X114689861Y-90778833D01*
X114689162Y-90764359D01*
X114818248Y-90764359D01*
X114818781Y-90769050D01*
X114821852Y-90782371D01*
X114827161Y-90803196D01*
X114834411Y-90830401D01*
X114843302Y-90862859D01*
X114853537Y-90899444D01*
X114861808Y-90928544D01*
X114876616Y-90979719D01*
X114889548Y-91022928D01*
X114901239Y-91060048D01*
X114912328Y-91092959D01*
X114923451Y-91123536D01*
X114935245Y-91153660D01*
X114948348Y-91185207D01*
X114951003Y-91191434D01*
X114980432Y-91257932D01*
X115015309Y-91332618D01*
X115055483Y-91415204D01*
X115100802Y-91505403D01*
X115151114Y-91602926D01*
X115206267Y-91707484D01*
X115266110Y-91818790D01*
X115330490Y-91936554D01*
X115399255Y-92060490D01*
X115472254Y-92190308D01*
X115541026Y-92311199D01*
X115570289Y-92362190D01*
X115600117Y-92413830D01*
X115630072Y-92465380D01*
X115659712Y-92516102D01*
X115688598Y-92565257D01*
X115716289Y-92612108D01*
X115742345Y-92655916D01*
X115766326Y-92695943D01*
X115787791Y-92731452D01*
X115806300Y-92761703D01*
X115821414Y-92785959D01*
X115832691Y-92803481D01*
X115839691Y-92813531D01*
X115841920Y-92815692D01*
X115841341Y-92810464D01*
X115838663Y-92797174D01*
X115834278Y-92777609D01*
X115828576Y-92753560D01*
X115825992Y-92742993D01*
X115791237Y-92588043D01*
X115761718Y-92427022D01*
X115737876Y-92262811D01*
X115720148Y-92098295D01*
X115712353Y-91996346D01*
X115710701Y-91963225D01*
X115709384Y-91921973D01*
X115708401Y-91874441D01*
X115707753Y-91822478D01*
X115707439Y-91767936D01*
X115707460Y-91712666D01*
X115707815Y-91658517D01*
X115708504Y-91607340D01*
X115709528Y-91560985D01*
X115710886Y-91521304D01*
X115712359Y-91493340D01*
X115715377Y-91452035D01*
X115719116Y-91407690D01*
X115723413Y-91361744D01*
X115728102Y-91315636D01*
X115733019Y-91270807D01*
X115737999Y-91228696D01*
X115742878Y-91190742D01*
X115747490Y-91158385D01*
X115751670Y-91133064D01*
X115755254Y-91116219D01*
X115755726Y-91114525D01*
X115756086Y-91112329D01*
X115755305Y-91110076D01*
X115752600Y-91107424D01*
X115747187Y-91104028D01*
X115738283Y-91099546D01*
X115725105Y-91093635D01*
X115706869Y-91085952D01*
X115682792Y-91076152D01*
X115652090Y-91063894D01*
X115613981Y-91048833D01*
X115567680Y-91030627D01*
X115534440Y-91017579D01*
X115428002Y-90976574D01*
X115315203Y-90934525D01*
X115199574Y-90892709D01*
X115084644Y-90852402D01*
X114973946Y-90814879D01*
X114968500Y-90813071D01*
X114931790Y-90800929D01*
X114898213Y-90789892D01*
X114868975Y-90780351D01*
X114845281Y-90772696D01*
X114828335Y-90767318D01*
X114819344Y-90764609D01*
X114818248Y-90764359D01*
X114689162Y-90764359D01*
X114688937Y-90759700D01*
X114688916Y-90754200D01*
X114692795Y-90716110D01*
X114704267Y-90684678D01*
X114723301Y-90659977D01*
X114730853Y-90653607D01*
X114740989Y-90646661D01*
X114750837Y-90642600D01*
X114763545Y-90640719D01*
X114782265Y-90640312D01*
X114789860Y-90640375D01*
G36*
X121925574Y-98315694D02*
G01*
X121974062Y-98316635D01*
X122018342Y-98318140D01*
X122056827Y-98320210D01*
X122087930Y-98322845D01*
X122105267Y-98325158D01*
X122179031Y-98340539D01*
X122244347Y-98360526D01*
X122301956Y-98385388D01*
X122350260Y-98413794D01*
X122374590Y-98432814D01*
X122401279Y-98457739D01*
X122427600Y-98485681D01*
X122450827Y-98513750D01*
X122467779Y-98538297D01*
X122498300Y-98597806D01*
X122523779Y-98665867D01*
X122544161Y-98742179D01*
X122559390Y-98826442D01*
X122569411Y-98918354D01*
X122574168Y-99017617D01*
X122573920Y-99112259D01*
X122570097Y-99191525D01*
X122562504Y-99262532D01*
X122550806Y-99326585D01*
X122534663Y-99384989D01*
X122513739Y-99439049D01*
X122487696Y-99490069D01*
X122467851Y-99522238D01*
X122423330Y-99580588D01*
X122370325Y-99633362D01*
X122308853Y-99680552D01*
X122238931Y-99722150D01*
X122160575Y-99758146D01*
X122073800Y-99788532D01*
X121978624Y-99813300D01*
X121891161Y-99829923D01*
X121863419Y-99833388D01*
X121828496Y-99836201D01*
X121788506Y-99838333D01*
X121745563Y-99839755D01*
X121701781Y-99840437D01*
X121659275Y-99840349D01*
X121620159Y-99839462D01*
X121586547Y-99837746D01*
X121560554Y-99835172D01*
X121556780Y-99834604D01*
X121461597Y-99814173D01*
X121369865Y-99784425D01*
X121282135Y-99745780D01*
X121198959Y-99698659D01*
X121120890Y-99643481D01*
X121048479Y-99580667D01*
X120982277Y-99510638D01*
X120922838Y-99433814D01*
X120870712Y-99350615D01*
X120838131Y-99287235D01*
X120809619Y-99220667D01*
X120788661Y-99157391D01*
X120774636Y-99094666D01*
X120766924Y-99029748D01*
X120764881Y-98963480D01*
X120765144Y-98938650D01*
X120875104Y-98938650D01*
X120876024Y-99018157D01*
X120886588Y-99096817D01*
X120906282Y-99173945D01*
X120934591Y-99248854D01*
X120971000Y-99320856D01*
X121014994Y-99389265D01*
X121066060Y-99453393D01*
X121123681Y-99512554D01*
X121187345Y-99566060D01*
X121256536Y-99613224D01*
X121330739Y-99653361D01*
X121409440Y-99685781D01*
X121442971Y-99696710D01*
X121491512Y-99709853D01*
X121540479Y-99719925D01*
X121591332Y-99727021D01*
X121645530Y-99731234D01*
X121704535Y-99732659D01*
X121769805Y-99731390D01*
X121842801Y-99727522D01*
X121879360Y-99724898D01*
X121973277Y-99714689D01*
X122058735Y-99699037D01*
X122135960Y-99677769D01*
X122205181Y-99650710D01*
X122266625Y-99617687D01*
X122320520Y-99578526D01*
X122367092Y-99533052D01*
X122406570Y-99481092D01*
X122439180Y-99422473D01*
X122465151Y-99357019D01*
X122484710Y-99284557D01*
X122489972Y-99258120D01*
X122493772Y-99235352D01*
X122496603Y-99213089D01*
X122498598Y-99189210D01*
X122499891Y-99161595D01*
X122500617Y-99128124D01*
X122500910Y-99086676D01*
X122500914Y-99085400D01*
X122499096Y-98997188D01*
X122493087Y-98917455D01*
X122482736Y-98845354D01*
X122467892Y-98780042D01*
X122448403Y-98720673D01*
X122426643Y-98671380D01*
X122396023Y-98618340D01*
X122360251Y-98571649D01*
X122318803Y-98531022D01*
X122271155Y-98496174D01*
X122216786Y-98466819D01*
X122155172Y-98442673D01*
X122085790Y-98423449D01*
X122008118Y-98408863D01*
X121927620Y-98399176D01*
X121899138Y-98397135D01*
X121863360Y-98395521D01*
X121822140Y-98394335D01*
X121777335Y-98393577D01*
X121730802Y-98393251D01*
X121684398Y-98393355D01*
X121639979Y-98393891D01*
X121599403Y-98394860D01*
X121564524Y-98396264D01*
X121537200Y-98398103D01*
X121528840Y-98398956D01*
X121432818Y-98413650D01*
X121343299Y-98434378D01*
X121260626Y-98460971D01*
X121185142Y-98493258D01*
X121117193Y-98531069D01*
X121057121Y-98574235D01*
X121005272Y-98622586D01*
X120961989Y-98675951D01*
X120958892Y-98680453D01*
X120924322Y-98739983D01*
X120898885Y-98803458D01*
X120882443Y-98871308D01*
X120875104Y-98938650D01*
X120765144Y-98938650D01*
X120765235Y-98930158D01*
X120766089Y-98904387D01*
X120767712Y-98883560D01*
X120770374Y-98865069D01*
X120774343Y-98846307D01*
X120778770Y-98828860D01*
X120802290Y-98759375D01*
X120834708Y-98694733D01*
X120875977Y-98634964D01*
X120926049Y-98580097D01*
X120984874Y-98530163D01*
X121052405Y-98485190D01*
X121128593Y-98445208D01*
X121213391Y-98410247D01*
X121306748Y-98380337D01*
X121408618Y-98355507D01*
X121518952Y-98335786D01*
X121601654Y-98324986D01*
X121635158Y-98321954D01*
X121675564Y-98319491D01*
X121721285Y-98317597D01*
X121770734Y-98316271D01*
X121822323Y-98315512D01*
X121874465Y-98315320D01*
X121925574Y-98315694D01*
G37*
X121925574Y-98315694D02*
X121974062Y-98316635D01*
X122018342Y-98318140D01*
X122056827Y-98320210D01*
X122087930Y-98322845D01*
X122105267Y-98325158D01*
X122179031Y-98340539D01*
X122244347Y-98360526D01*
X122301956Y-98385388D01*
X122350260Y-98413794D01*
X122374590Y-98432814D01*
X122401279Y-98457739D01*
X122427600Y-98485681D01*
X122450827Y-98513750D01*
X122467779Y-98538297D01*
X122498300Y-98597806D01*
X122523779Y-98665867D01*
X122544161Y-98742179D01*
X122559390Y-98826442D01*
X122569411Y-98918354D01*
X122574168Y-99017617D01*
X122573920Y-99112259D01*
X122570097Y-99191525D01*
X122562504Y-99262532D01*
X122550806Y-99326585D01*
X122534663Y-99384989D01*
X122513739Y-99439049D01*
X122487696Y-99490069D01*
X122467851Y-99522238D01*
X122423330Y-99580588D01*
X122370325Y-99633362D01*
X122308853Y-99680552D01*
X122238931Y-99722150D01*
X122160575Y-99758146D01*
X122073800Y-99788532D01*
X121978624Y-99813300D01*
X121891161Y-99829923D01*
X121863419Y-99833388D01*
X121828496Y-99836201D01*
X121788506Y-99838333D01*
X121745563Y-99839755D01*
X121701781Y-99840437D01*
X121659275Y-99840349D01*
X121620159Y-99839462D01*
X121586547Y-99837746D01*
X121560554Y-99835172D01*
X121556780Y-99834604D01*
X121461597Y-99814173D01*
X121369865Y-99784425D01*
X121282135Y-99745780D01*
X121198959Y-99698659D01*
X121120890Y-99643481D01*
X121048479Y-99580667D01*
X120982277Y-99510638D01*
X120922838Y-99433814D01*
X120870712Y-99350615D01*
X120838131Y-99287235D01*
X120809619Y-99220667D01*
X120788661Y-99157391D01*
X120774636Y-99094666D01*
X120766924Y-99029748D01*
X120764881Y-98963480D01*
X120765144Y-98938650D01*
X120875104Y-98938650D01*
X120876024Y-99018157D01*
X120886588Y-99096817D01*
X120906282Y-99173945D01*
X120934591Y-99248854D01*
X120971000Y-99320856D01*
X121014994Y-99389265D01*
X121066060Y-99453393D01*
X121123681Y-99512554D01*
X121187345Y-99566060D01*
X121256536Y-99613224D01*
X121330739Y-99653361D01*
X121409440Y-99685781D01*
X121442971Y-99696710D01*
X121491512Y-99709853D01*
X121540479Y-99719925D01*
X121591332Y-99727021D01*
X121645530Y-99731234D01*
X121704535Y-99732659D01*
X121769805Y-99731390D01*
X121842801Y-99727522D01*
X121879360Y-99724898D01*
X121973277Y-99714689D01*
X122058735Y-99699037D01*
X122135960Y-99677769D01*
X122205181Y-99650710D01*
X122266625Y-99617687D01*
X122320520Y-99578526D01*
X122367092Y-99533052D01*
X122406570Y-99481092D01*
X122439180Y-99422473D01*
X122465151Y-99357019D01*
X122484710Y-99284557D01*
X122489972Y-99258120D01*
X122493772Y-99235352D01*
X122496603Y-99213089D01*
X122498598Y-99189210D01*
X122499891Y-99161595D01*
X122500617Y-99128124D01*
X122500910Y-99086676D01*
X122500914Y-99085400D01*
X122499096Y-98997188D01*
X122493087Y-98917455D01*
X122482736Y-98845354D01*
X122467892Y-98780042D01*
X122448403Y-98720673D01*
X122426643Y-98671380D01*
X122396023Y-98618340D01*
X122360251Y-98571649D01*
X122318803Y-98531022D01*
X122271155Y-98496174D01*
X122216786Y-98466819D01*
X122155172Y-98442673D01*
X122085790Y-98423449D01*
X122008118Y-98408863D01*
X121927620Y-98399176D01*
X121899138Y-98397135D01*
X121863360Y-98395521D01*
X121822140Y-98394335D01*
X121777335Y-98393577D01*
X121730802Y-98393251D01*
X121684398Y-98393355D01*
X121639979Y-98393891D01*
X121599403Y-98394860D01*
X121564524Y-98396264D01*
X121537200Y-98398103D01*
X121528840Y-98398956D01*
X121432818Y-98413650D01*
X121343299Y-98434378D01*
X121260626Y-98460971D01*
X121185142Y-98493258D01*
X121117193Y-98531069D01*
X121057121Y-98574235D01*
X121005272Y-98622586D01*
X120961989Y-98675951D01*
X120958892Y-98680453D01*
X120924322Y-98739983D01*
X120898885Y-98803458D01*
X120882443Y-98871308D01*
X120875104Y-98938650D01*
X120765144Y-98938650D01*
X120765235Y-98930158D01*
X120766089Y-98904387D01*
X120767712Y-98883560D01*
X120770374Y-98865069D01*
X120774343Y-98846307D01*
X120778770Y-98828860D01*
X120802290Y-98759375D01*
X120834708Y-98694733D01*
X120875977Y-98634964D01*
X120926049Y-98580097D01*
X120984874Y-98530163D01*
X121052405Y-98485190D01*
X121128593Y-98445208D01*
X121213391Y-98410247D01*
X121306748Y-98380337D01*
X121408618Y-98355507D01*
X121518952Y-98335786D01*
X121601654Y-98324986D01*
X121635158Y-98321954D01*
X121675564Y-98319491D01*
X121721285Y-98317597D01*
X121770734Y-98316271D01*
X121822323Y-98315512D01*
X121874465Y-98315320D01*
X121925574Y-98315694D01*
G36*
X121507989Y-97175371D02*
G01*
X121546474Y-97179290D01*
X121576894Y-97184842D01*
X121630417Y-97201659D01*
X121677282Y-97224086D01*
X121716936Y-97251596D01*
X121748827Y-97283662D01*
X121772400Y-97319755D01*
X121787103Y-97359348D01*
X121791904Y-97389966D01*
X121791100Y-97424487D01*
X121782668Y-97453863D01*
X121765740Y-97480533D01*
X121755771Y-97491635D01*
X121724612Y-97517773D01*
X121684968Y-97541447D01*
X121638347Y-97562023D01*
X121586259Y-97578864D01*
X121530211Y-97591331D01*
X121512948Y-97594110D01*
X121487009Y-97596912D01*
X121453313Y-97599064D01*
X121414243Y-97600546D01*
X121372182Y-97601344D01*
X121329513Y-97601439D01*
X121288619Y-97600817D01*
X121251884Y-97599459D01*
X121221689Y-97597350D01*
X121211340Y-97596212D01*
X121155361Y-97585887D01*
X121105321Y-97570173D01*
X121062292Y-97549502D01*
X121027347Y-97524309D01*
X121022475Y-97519789D01*
X121004976Y-97499020D01*
X120989357Y-97473300D01*
X120976607Y-97445167D01*
X120967714Y-97417157D01*
X120966613Y-97410255D01*
X121036098Y-97410255D01*
X121040205Y-97421478D01*
X121051251Y-97435654D01*
X121067267Y-97450850D01*
X121086287Y-97465130D01*
X121100756Y-97473772D01*
X121134215Y-97488875D01*
X121173760Y-97502623D01*
X121215320Y-97513741D01*
X121249440Y-97520213D01*
X121269859Y-97523257D01*
X121287825Y-97526016D01*
X121299680Y-97527927D01*
X121300240Y-97528023D01*
X121314021Y-97529184D01*
X121335727Y-97529560D01*
X121363159Y-97529244D01*
X121394122Y-97528332D01*
X121426416Y-97526917D01*
X121457846Y-97525095D01*
X121486212Y-97522960D01*
X121509319Y-97520606D01*
X121523614Y-97518416D01*
X121574953Y-97505817D01*
X121620409Y-97490332D01*
X121658832Y-97472470D01*
X121689069Y-97452738D01*
X121704193Y-97438707D01*
X121716468Y-97423137D01*
X121721016Y-97410338D01*
X121718300Y-97397073D01*
X121711879Y-97385040D01*
X121694748Y-97365321D01*
X121668389Y-97346506D01*
X121633722Y-97329041D01*
X121591669Y-97313366D01*
X121543149Y-97299927D01*
X121527874Y-97296483D01*
X121506351Y-97292238D01*
X121485890Y-97289181D01*
X121464120Y-97287134D01*
X121438670Y-97285918D01*
X121407168Y-97285354D01*
X121378980Y-97285251D01*
X121323099Y-97286296D01*
X121274856Y-97289663D01*
X121231921Y-97295700D01*
X121191963Y-97304757D01*
X121152653Y-97317181D01*
X121143725Y-97320452D01*
X121110831Y-97334962D01*
X121082395Y-97351779D01*
X121059686Y-97369843D01*
X121043975Y-97388094D01*
X121036530Y-97405474D01*
X121036098Y-97410255D01*
X120966613Y-97410255D01*
X120963668Y-97391808D01*
X120965163Y-97372683D01*
X120976658Y-97347980D01*
X120997349Y-97323083D01*
X121026297Y-97298472D01*
X121062559Y-97274626D01*
X121105196Y-97252026D01*
X121153266Y-97231151D01*
X121205829Y-97212482D01*
X121261944Y-97196498D01*
X121320670Y-97183679D01*
X121343420Y-97179747D01*
X121380128Y-97175514D01*
X121421801Y-97173417D01*
X121465427Y-97173392D01*
X121507989Y-97175371D01*
G37*
X121507989Y-97175371D02*
X121546474Y-97179290D01*
X121576894Y-97184842D01*
X121630417Y-97201659D01*
X121677282Y-97224086D01*
X121716936Y-97251596D01*
X121748827Y-97283662D01*
X121772400Y-97319755D01*
X121787103Y-97359348D01*
X121791904Y-97389966D01*
X121791100Y-97424487D01*
X121782668Y-97453863D01*
X121765740Y-97480533D01*
X121755771Y-97491635D01*
X121724612Y-97517773D01*
X121684968Y-97541447D01*
X121638347Y-97562023D01*
X121586259Y-97578864D01*
X121530211Y-97591331D01*
X121512948Y-97594110D01*
X121487009Y-97596912D01*
X121453313Y-97599064D01*
X121414243Y-97600546D01*
X121372182Y-97601344D01*
X121329513Y-97601439D01*
X121288619Y-97600817D01*
X121251884Y-97599459D01*
X121221689Y-97597350D01*
X121211340Y-97596212D01*
X121155361Y-97585887D01*
X121105321Y-97570173D01*
X121062292Y-97549502D01*
X121027347Y-97524309D01*
X121022475Y-97519789D01*
X121004976Y-97499020D01*
X120989357Y-97473300D01*
X120976607Y-97445167D01*
X120967714Y-97417157D01*
X120966613Y-97410255D01*
X121036098Y-97410255D01*
X121040205Y-97421478D01*
X121051251Y-97435654D01*
X121067267Y-97450850D01*
X121086287Y-97465130D01*
X121100756Y-97473772D01*
X121134215Y-97488875D01*
X121173760Y-97502623D01*
X121215320Y-97513741D01*
X121249440Y-97520213D01*
X121269859Y-97523257D01*
X121287825Y-97526016D01*
X121299680Y-97527927D01*
X121300240Y-97528023D01*
X121314021Y-97529184D01*
X121335727Y-97529560D01*
X121363159Y-97529244D01*
X121394122Y-97528332D01*
X121426416Y-97526917D01*
X121457846Y-97525095D01*
X121486212Y-97522960D01*
X121509319Y-97520606D01*
X121523614Y-97518416D01*
X121574953Y-97505817D01*
X121620409Y-97490332D01*
X121658832Y-97472470D01*
X121689069Y-97452738D01*
X121704193Y-97438707D01*
X121716468Y-97423137D01*
X121721016Y-97410338D01*
X121718300Y-97397073D01*
X121711879Y-97385040D01*
X121694748Y-97365321D01*
X121668389Y-97346506D01*
X121633722Y-97329041D01*
X121591669Y-97313366D01*
X121543149Y-97299927D01*
X121527874Y-97296483D01*
X121506351Y-97292238D01*
X121485890Y-97289181D01*
X121464120Y-97287134D01*
X121438670Y-97285918D01*
X121407168Y-97285354D01*
X121378980Y-97285251D01*
X121323099Y-97286296D01*
X121274856Y-97289663D01*
X121231921Y-97295700D01*
X121191963Y-97304757D01*
X121152653Y-97317181D01*
X121143725Y-97320452D01*
X121110831Y-97334962D01*
X121082395Y-97351779D01*
X121059686Y-97369843D01*
X121043975Y-97388094D01*
X121036530Y-97405474D01*
X121036098Y-97410255D01*
X120966613Y-97410255D01*
X120963668Y-97391808D01*
X120965163Y-97372683D01*
X120976658Y-97347980D01*
X120997349Y-97323083D01*
X121026297Y-97298472D01*
X121062559Y-97274626D01*
X121105196Y-97252026D01*
X121153266Y-97231151D01*
X121205829Y-97212482D01*
X121261944Y-97196498D01*
X121320670Y-97183679D01*
X121343420Y-97179747D01*
X121380128Y-97175514D01*
X121421801Y-97173417D01*
X121465427Y-97173392D01*
X121507989Y-97175371D01*
G36*
X123954139Y-95697979D02*
G01*
X123975196Y-95700046D01*
X123997108Y-95703996D01*
X124009199Y-95706687D01*
X124073775Y-95726733D01*
X124136492Y-95756131D01*
X124196604Y-95794135D01*
X124253367Y-95839998D01*
X124306034Y-95892974D01*
X124353862Y-95952316D01*
X124396104Y-96017277D01*
X124432016Y-96087112D01*
X124459902Y-96158219D01*
X124482206Y-96240300D01*
X124495707Y-96326700D01*
X124500312Y-96416508D01*
X124495928Y-96508812D01*
X124495829Y-96509840D01*
X124483268Y-96601840D01*
X124464116Y-96686447D01*
X124438446Y-96763570D01*
X124406331Y-96833117D01*
X124367842Y-96894996D01*
X124323052Y-96949116D01*
X124272034Y-96995386D01*
X124214861Y-97033714D01*
X124151603Y-97064008D01*
X124082335Y-97086177D01*
X124031032Y-97096696D01*
X123991275Y-97101414D01*
X123947886Y-97103632D01*
X123903991Y-97103393D01*
X123862718Y-97100743D01*
X123827194Y-97095729D01*
X123817380Y-97093590D01*
X123767096Y-97077242D01*
X123715379Y-97052873D01*
X123664501Y-97021923D01*
X123616734Y-96985832D01*
X123574350Y-96946038D01*
X123560924Y-96931171D01*
X123507494Y-96861332D01*
X123462274Y-96785544D01*
X123425312Y-96703906D01*
X123396655Y-96616516D01*
X123382108Y-96554715D01*
X123375219Y-96509259D01*
X123371060Y-96457253D01*
X123370147Y-96421908D01*
X123442830Y-96421908D01*
X123445516Y-96473152D01*
X123450888Y-96519709D01*
X123453890Y-96536762D01*
X123473131Y-96612817D01*
X123499385Y-96683705D01*
X123532180Y-96748853D01*
X123571045Y-96807686D01*
X123615508Y-96859631D01*
X123665096Y-96904113D01*
X123719338Y-96940558D01*
X123777761Y-96968392D01*
X123820024Y-96982212D01*
X123838787Y-96986684D01*
X123857115Y-96989523D01*
X123877868Y-96990961D01*
X123903907Y-96991232D01*
X123926600Y-96990855D01*
X123956166Y-96989945D01*
X123978517Y-96988492D01*
X123996594Y-96986051D01*
X124013340Y-96982176D01*
X124031700Y-96976423D01*
X124039345Y-96973779D01*
X124098868Y-96947589D01*
X124154316Y-96912499D01*
X124205213Y-96869111D01*
X124251083Y-96818025D01*
X124291451Y-96759843D01*
X124325842Y-96695166D01*
X124353780Y-96624595D01*
X124374491Y-96550067D01*
X124378886Y-96529021D01*
X124382065Y-96509573D01*
X124384214Y-96489376D01*
X124385518Y-96466079D01*
X124386165Y-96437334D01*
X124386339Y-96400792D01*
X124386340Y-96400620D01*
X124386166Y-96364040D01*
X124385522Y-96335267D01*
X124384221Y-96311953D01*
X124382076Y-96291747D01*
X124378902Y-96272301D01*
X124374512Y-96251267D01*
X124374491Y-96251172D01*
X124352270Y-96171680D01*
X124322678Y-96098358D01*
X124285952Y-96031602D01*
X124242327Y-95971807D01*
X124192039Y-95919368D01*
X124160280Y-95892762D01*
X124106592Y-95857406D01*
X124049430Y-95831215D01*
X123989674Y-95814448D01*
X123928206Y-95807363D01*
X123875850Y-95809089D01*
X123816005Y-95820117D01*
X123758562Y-95840519D01*
X123704083Y-95869676D01*
X123653131Y-95906971D01*
X123606268Y-95951785D01*
X123564054Y-96003501D01*
X123527053Y-96061499D01*
X123495826Y-96125162D01*
X123470935Y-96193871D01*
X123452942Y-96267010D01*
X123451254Y-96276160D01*
X123445663Y-96319800D01*
X123442867Y-96369587D01*
X123442830Y-96421908D01*
X123370147Y-96421908D01*
X123369631Y-96401934D01*
X123370932Y-96346539D01*
X123374962Y-96294305D01*
X123381723Y-96248468D01*
X123382108Y-96246524D01*
X123403081Y-96162251D01*
X123430964Y-96082917D01*
X123465329Y-96009150D01*
X123505747Y-95941575D01*
X123551792Y-95880820D01*
X123603035Y-95827513D01*
X123659049Y-95782280D01*
X123719406Y-95745748D01*
X123725940Y-95742461D01*
X123761937Y-95725746D01*
X123793506Y-95713897D01*
X123824225Y-95706009D01*
X123857671Y-95701175D01*
X123897422Y-95698489D01*
X123899979Y-95698381D01*
X123930285Y-95697517D01*
X123954139Y-95697979D01*
G37*
X123954139Y-95697979D02*
X123975196Y-95700046D01*
X123997108Y-95703996D01*
X124009199Y-95706687D01*
X124073775Y-95726733D01*
X124136492Y-95756131D01*
X124196604Y-95794135D01*
X124253367Y-95839998D01*
X124306034Y-95892974D01*
X124353862Y-95952316D01*
X124396104Y-96017277D01*
X124432016Y-96087112D01*
X124459902Y-96158219D01*
X124482206Y-96240300D01*
X124495707Y-96326700D01*
X124500312Y-96416508D01*
X124495928Y-96508812D01*
X124495829Y-96509840D01*
X124483268Y-96601840D01*
X124464116Y-96686447D01*
X124438446Y-96763570D01*
X124406331Y-96833117D01*
X124367842Y-96894996D01*
X124323052Y-96949116D01*
X124272034Y-96995386D01*
X124214861Y-97033714D01*
X124151603Y-97064008D01*
X124082335Y-97086177D01*
X124031032Y-97096696D01*
X123991275Y-97101414D01*
X123947886Y-97103632D01*
X123903991Y-97103393D01*
X123862718Y-97100743D01*
X123827194Y-97095729D01*
X123817380Y-97093590D01*
X123767096Y-97077242D01*
X123715379Y-97052873D01*
X123664501Y-97021923D01*
X123616734Y-96985832D01*
X123574350Y-96946038D01*
X123560924Y-96931171D01*
X123507494Y-96861332D01*
X123462274Y-96785544D01*
X123425312Y-96703906D01*
X123396655Y-96616516D01*
X123382108Y-96554715D01*
X123375219Y-96509259D01*
X123371060Y-96457253D01*
X123370147Y-96421908D01*
X123442830Y-96421908D01*
X123445516Y-96473152D01*
X123450888Y-96519709D01*
X123453890Y-96536762D01*
X123473131Y-96612817D01*
X123499385Y-96683705D01*
X123532180Y-96748853D01*
X123571045Y-96807686D01*
X123615508Y-96859631D01*
X123665096Y-96904113D01*
X123719338Y-96940558D01*
X123777761Y-96968392D01*
X123820024Y-96982212D01*
X123838787Y-96986684D01*
X123857115Y-96989523D01*
X123877868Y-96990961D01*
X123903907Y-96991232D01*
X123926600Y-96990855D01*
X123956166Y-96989945D01*
X123978517Y-96988492D01*
X123996594Y-96986051D01*
X124013340Y-96982176D01*
X124031700Y-96976423D01*
X124039345Y-96973779D01*
X124098868Y-96947589D01*
X124154316Y-96912499D01*
X124205213Y-96869111D01*
X124251083Y-96818025D01*
X124291451Y-96759843D01*
X124325842Y-96695166D01*
X124353780Y-96624595D01*
X124374491Y-96550067D01*
X124378886Y-96529021D01*
X124382065Y-96509573D01*
X124384214Y-96489376D01*
X124385518Y-96466079D01*
X124386165Y-96437334D01*
X124386339Y-96400792D01*
X124386340Y-96400620D01*
X124386166Y-96364040D01*
X124385522Y-96335267D01*
X124384221Y-96311953D01*
X124382076Y-96291747D01*
X124378902Y-96272301D01*
X124374512Y-96251267D01*
X124374491Y-96251172D01*
X124352270Y-96171680D01*
X124322678Y-96098358D01*
X124285952Y-96031602D01*
X124242327Y-95971807D01*
X124192039Y-95919368D01*
X124160280Y-95892762D01*
X124106592Y-95857406D01*
X124049430Y-95831215D01*
X123989674Y-95814448D01*
X123928206Y-95807363D01*
X123875850Y-95809089D01*
X123816005Y-95820117D01*
X123758562Y-95840519D01*
X123704083Y-95869676D01*
X123653131Y-95906971D01*
X123606268Y-95951785D01*
X123564054Y-96003501D01*
X123527053Y-96061499D01*
X123495826Y-96125162D01*
X123470935Y-96193871D01*
X123452942Y-96267010D01*
X123451254Y-96276160D01*
X123445663Y-96319800D01*
X123442867Y-96369587D01*
X123442830Y-96421908D01*
X123370147Y-96421908D01*
X123369631Y-96401934D01*
X123370932Y-96346539D01*
X123374962Y-96294305D01*
X123381723Y-96248468D01*
X123382108Y-96246524D01*
X123403081Y-96162251D01*
X123430964Y-96082917D01*
X123465329Y-96009150D01*
X123505747Y-95941575D01*
X123551792Y-95880820D01*
X123603035Y-95827513D01*
X123659049Y-95782280D01*
X123719406Y-95745748D01*
X123725940Y-95742461D01*
X123761937Y-95725746D01*
X123793506Y-95713897D01*
X123824225Y-95706009D01*
X123857671Y-95701175D01*
X123897422Y-95698489D01*
X123899979Y-95698381D01*
X123930285Y-95697517D01*
X123954139Y-95697979D01*
G36*
X119559240Y-95698241D02*
G01*
X119609450Y-95703575D01*
X119627469Y-95706696D01*
X119703690Y-95726227D01*
X119773975Y-95753913D01*
X119838085Y-95789498D01*
X119895780Y-95832725D01*
X119946821Y-95883336D01*
X119990970Y-95941076D01*
X120027988Y-96005686D01*
X120057635Y-96076911D01*
X120079672Y-96154494D01*
X120088904Y-96202500D01*
X120094938Y-96255704D01*
X120097447Y-96316171D01*
X120096612Y-96381702D01*
X120092610Y-96450097D01*
X120085623Y-96519158D01*
X120075828Y-96586686D01*
X120063406Y-96650484D01*
X120048537Y-96708351D01*
X120047262Y-96712608D01*
X120021513Y-96784117D01*
X119990042Y-96847261D01*
X119952683Y-96902182D01*
X119909272Y-96949020D01*
X119859644Y-96987916D01*
X119803634Y-97019010D01*
X119741076Y-97042444D01*
X119671807Y-97058357D01*
X119636419Y-97063333D01*
X119589170Y-97067031D01*
X119541578Y-97067658D01*
X119497730Y-97065220D01*
X119480142Y-97063099D01*
X119416608Y-97048977D01*
X119353199Y-97025646D01*
X119291404Y-96993966D01*
X119232716Y-96954797D01*
X119178625Y-96908998D01*
X119137476Y-96865615D01*
X119085006Y-96796789D01*
X119042022Y-96724327D01*
X119008503Y-96648175D01*
X118984428Y-96568280D01*
X118969775Y-96484590D01*
X118965313Y-96428560D01*
X118965365Y-96420554D01*
X119077651Y-96420554D01*
X119079081Y-96463513D01*
X119082015Y-96502367D01*
X119086454Y-96534283D01*
X119086976Y-96536963D01*
X119105937Y-96610900D01*
X119131862Y-96680365D01*
X119164188Y-96744682D01*
X119202355Y-96803180D01*
X119245799Y-96855183D01*
X119293959Y-96900018D01*
X119346273Y-96937011D01*
X119402180Y-96965489D01*
X119460285Y-96984577D01*
X119490854Y-96989593D01*
X119527528Y-96991925D01*
X119566626Y-96991621D01*
X119604467Y-96988730D01*
X119637370Y-96983302D01*
X119642077Y-96982163D01*
X119700900Y-96962567D01*
X119755434Y-96934718D01*
X119806771Y-96897966D01*
X119847905Y-96860065D01*
X119895789Y-96804202D01*
X119936341Y-96742080D01*
X119969371Y-96674669D01*
X119994690Y-96602937D01*
X120012109Y-96527850D01*
X120021438Y-96450376D01*
X120022488Y-96371485D01*
X120015069Y-96292144D01*
X119998992Y-96213319D01*
X119984180Y-96163912D01*
X119970262Y-96128765D01*
X119951420Y-96089506D01*
X119929539Y-96049565D01*
X119906501Y-96012372D01*
X119884190Y-95981358D01*
X119883380Y-95980346D01*
X119863980Y-95957890D01*
X119841215Y-95934071D01*
X119819024Y-95912941D01*
X119811800Y-95906659D01*
X119780075Y-95883158D01*
X119742708Y-95860500D01*
X119703041Y-95840414D01*
X119664411Y-95824623D01*
X119637067Y-95816378D01*
X119605011Y-95811049D01*
X119567217Y-95808459D01*
X119527735Y-95808619D01*
X119490612Y-95811541D01*
X119465273Y-95815889D01*
X119405316Y-95834936D01*
X119348599Y-95863146D01*
X119295655Y-95899886D01*
X119247015Y-95944529D01*
X119203211Y-95996442D01*
X119164775Y-96054996D01*
X119132239Y-96119561D01*
X119106133Y-96189506D01*
X119086991Y-96264201D01*
X119086976Y-96264276D01*
X119082388Y-96295350D01*
X119079305Y-96333642D01*
X119077726Y-96376320D01*
X119077651Y-96420554D01*
X118965365Y-96420554D01*
X118965831Y-96349392D01*
X118974080Y-96271329D01*
X118989587Y-96195128D01*
X119011879Y-96121549D01*
X119040482Y-96051350D01*
X119074923Y-95985288D01*
X119114729Y-95924122D01*
X119159426Y-95868610D01*
X119208541Y-95819510D01*
X119261600Y-95777580D01*
X119318131Y-95743580D01*
X119377660Y-95718266D01*
X119415560Y-95707339D01*
X119458818Y-95700134D01*
X119507870Y-95697098D01*
X119559240Y-95698241D01*
G37*
X119559240Y-95698241D02*
X119609450Y-95703575D01*
X119627469Y-95706696D01*
X119703690Y-95726227D01*
X119773975Y-95753913D01*
X119838085Y-95789498D01*
X119895780Y-95832725D01*
X119946821Y-95883336D01*
X119990970Y-95941076D01*
X120027988Y-96005686D01*
X120057635Y-96076911D01*
X120079672Y-96154494D01*
X120088904Y-96202500D01*
X120094938Y-96255704D01*
X120097447Y-96316171D01*
X120096612Y-96381702D01*
X120092610Y-96450097D01*
X120085623Y-96519158D01*
X120075828Y-96586686D01*
X120063406Y-96650484D01*
X120048537Y-96708351D01*
X120047262Y-96712608D01*
X120021513Y-96784117D01*
X119990042Y-96847261D01*
X119952683Y-96902182D01*
X119909272Y-96949020D01*
X119859644Y-96987916D01*
X119803634Y-97019010D01*
X119741076Y-97042444D01*
X119671807Y-97058357D01*
X119636419Y-97063333D01*
X119589170Y-97067031D01*
X119541578Y-97067658D01*
X119497730Y-97065220D01*
X119480142Y-97063099D01*
X119416608Y-97048977D01*
X119353199Y-97025646D01*
X119291404Y-96993966D01*
X119232716Y-96954797D01*
X119178625Y-96908998D01*
X119137476Y-96865615D01*
X119085006Y-96796789D01*
X119042022Y-96724327D01*
X119008503Y-96648175D01*
X118984428Y-96568280D01*
X118969775Y-96484590D01*
X118965313Y-96428560D01*
X118965365Y-96420554D01*
X119077651Y-96420554D01*
X119079081Y-96463513D01*
X119082015Y-96502367D01*
X119086454Y-96534283D01*
X119086976Y-96536963D01*
X119105937Y-96610900D01*
X119131862Y-96680365D01*
X119164188Y-96744682D01*
X119202355Y-96803180D01*
X119245799Y-96855183D01*
X119293959Y-96900018D01*
X119346273Y-96937011D01*
X119402180Y-96965489D01*
X119460285Y-96984577D01*
X119490854Y-96989593D01*
X119527528Y-96991925D01*
X119566626Y-96991621D01*
X119604467Y-96988730D01*
X119637370Y-96983302D01*
X119642077Y-96982163D01*
X119700900Y-96962567D01*
X119755434Y-96934718D01*
X119806771Y-96897966D01*
X119847905Y-96860065D01*
X119895789Y-96804202D01*
X119936341Y-96742080D01*
X119969371Y-96674669D01*
X119994690Y-96602937D01*
X120012109Y-96527850D01*
X120021438Y-96450376D01*
X120022488Y-96371485D01*
X120015069Y-96292144D01*
X119998992Y-96213319D01*
X119984180Y-96163912D01*
X119970262Y-96128765D01*
X119951420Y-96089506D01*
X119929539Y-96049565D01*
X119906501Y-96012372D01*
X119884190Y-95981358D01*
X119883380Y-95980346D01*
X119863980Y-95957890D01*
X119841215Y-95934071D01*
X119819024Y-95912941D01*
X119811800Y-95906659D01*
X119780075Y-95883158D01*
X119742708Y-95860500D01*
X119703041Y-95840414D01*
X119664411Y-95824623D01*
X119637067Y-95816378D01*
X119605011Y-95811049D01*
X119567217Y-95808459D01*
X119527735Y-95808619D01*
X119490612Y-95811541D01*
X119465273Y-95815889D01*
X119405316Y-95834936D01*
X119348599Y-95863146D01*
X119295655Y-95899886D01*
X119247015Y-95944529D01*
X119203211Y-95996442D01*
X119164775Y-96054996D01*
X119132239Y-96119561D01*
X119106133Y-96189506D01*
X119086991Y-96264201D01*
X119086976Y-96264276D01*
X119082388Y-96295350D01*
X119079305Y-96333642D01*
X119077726Y-96376320D01*
X119077651Y-96420554D01*
X118965365Y-96420554D01*
X118965831Y-96349392D01*
X118974080Y-96271329D01*
X118989587Y-96195128D01*
X119011879Y-96121549D01*
X119040482Y-96051350D01*
X119074923Y-95985288D01*
X119114729Y-95924122D01*
X119159426Y-95868610D01*
X119208541Y-95819510D01*
X119261600Y-95777580D01*
X119318131Y-95743580D01*
X119377660Y-95718266D01*
X119415560Y-95707339D01*
X119458818Y-95700134D01*
X119507870Y-95697098D01*
X119559240Y-95698241D01*
D12*
G04 #@! TO.C,U4*
X107954000Y-109210000D02*
X107954000Y-81210000D01*
X135454000Y-109210000D02*
X107954000Y-109210000D01*
X135454000Y-81210000D02*
X135454000Y-109210000D01*
X107954000Y-81210000D02*
X135454000Y-81210000D01*
G04 #@! TO.C,U2*
X140199000Y-80928500D02*
X140199000Y-79618500D01*
X140199000Y-79618500D02*
X142919000Y-79618500D01*
X144059000Y-84108500D02*
X142919000Y-84108500D01*
X140199000Y-84338500D02*
X140199000Y-83028500D01*
X142919000Y-84338500D02*
X140199000Y-84338500D01*
X142919000Y-84338500D02*
X142919000Y-84108500D01*
X142919000Y-79618500D02*
X142919000Y-79848500D01*
D14*
G04 #@! TO.C,SW4*
X99359720Y-100995480D02*
X104856280Y-100995480D01*
X104856280Y-104490520D02*
X99359720Y-104490520D01*
X99108260Y-104241600D02*
X99108260Y-103842820D01*
X99108260Y-101643180D02*
X99108260Y-101244400D01*
X105107740Y-101643180D02*
X105107740Y-101244400D01*
X105107740Y-104241600D02*
X105107740Y-103842820D01*
X100609400Y-101993700D02*
X103606600Y-101993700D01*
X103606600Y-103492300D02*
X100609400Y-103492300D01*
X100609400Y-103492300D02*
X100609400Y-101993700D01*
X103606600Y-103492300D02*
X103606600Y-101993700D01*
X99110800Y-104241600D02*
G75*
G03*
X99359720Y-104490520I248920J0D01*
G01*
X104856280Y-104493060D02*
G75*
G03*
X105107740Y-104241600I0J251460D01*
G01*
X105105200Y-101244400D02*
G75*
G03*
X104856280Y-100995480I-248920J0D01*
G01*
X99359720Y-100992940D02*
G75*
G03*
X99108260Y-101244400I0J-251460D01*
G01*
G04 #@! TO.C,SW3*
X99359720Y-93756480D02*
X104856280Y-93756480D01*
X104856280Y-97251520D02*
X99359720Y-97251520D01*
X99108260Y-97002600D02*
X99108260Y-96603820D01*
X99108260Y-94404180D02*
X99108260Y-94005400D01*
X105107740Y-94404180D02*
X105107740Y-94005400D01*
X105107740Y-97002600D02*
X105107740Y-96603820D01*
X100609400Y-94754700D02*
X103606600Y-94754700D01*
X103606600Y-96253300D02*
X100609400Y-96253300D01*
X100609400Y-96253300D02*
X100609400Y-94754700D01*
X103606600Y-96253300D02*
X103606600Y-94754700D01*
X99110800Y-97002600D02*
G75*
G03*
X99359720Y-97251520I248920J0D01*
G01*
X104856280Y-97254060D02*
G75*
G03*
X105107740Y-97002600I0J251460D01*
G01*
X105105200Y-94005400D02*
G75*
G03*
X104856280Y-93756480I-248920J0D01*
G01*
X99359720Y-93753940D02*
G75*
G03*
X99108260Y-94005400I0J-251460D01*
G01*
G04 #@! TO.C,SW2*
X99359720Y-87025480D02*
X104856280Y-87025480D01*
X104856280Y-90520520D02*
X99359720Y-90520520D01*
X99108260Y-90271600D02*
X99108260Y-89872820D01*
X99108260Y-87673180D02*
X99108260Y-87274400D01*
X105107740Y-87673180D02*
X105107740Y-87274400D01*
X105107740Y-90271600D02*
X105107740Y-89872820D01*
X100609400Y-88023700D02*
X103606600Y-88023700D01*
X103606600Y-89522300D02*
X100609400Y-89522300D01*
X100609400Y-89522300D02*
X100609400Y-88023700D01*
X103606600Y-89522300D02*
X103606600Y-88023700D01*
X99110800Y-90271600D02*
G75*
G03*
X99359720Y-90520520I248920J0D01*
G01*
X104856280Y-90523060D02*
G75*
G03*
X105107740Y-90271600I0J251460D01*
G01*
X105105200Y-87274400D02*
G75*
G03*
X104856280Y-87025480I-248920J0D01*
G01*
X99359720Y-87022940D02*
G75*
G03*
X99108260Y-87274400I0J-251460D01*
G01*
G04 #@! TO.C,SW1*
X148054060Y-90566240D02*
X148054060Y-86217760D01*
X148054060Y-86217760D02*
X136425940Y-86217760D01*
X136425940Y-86217760D02*
X136425940Y-90566240D01*
X136425940Y-90566240D02*
X148054060Y-90566240D01*
D12*
G04 #@! TO.C,R8*
X151010252Y-89610000D02*
X150487748Y-89610000D01*
X151010252Y-88190000D02*
X150487748Y-88190000D01*
G04 #@! TO.C,Q2*
X144206500Y-96195000D02*
X144206500Y-95265000D01*
X144206500Y-93035000D02*
X144206500Y-93965000D01*
X144206500Y-93035000D02*
X142046500Y-93035000D01*
X144206500Y-96195000D02*
X142746500Y-96195000D01*
G04 #@! TO.C,J3*
X159191000Y-89341000D02*
X156591000Y-89341000D01*
X159191000Y-89341000D02*
X159191000Y-81601000D01*
X159191000Y-81601000D02*
X153991000Y-81601000D01*
X153991000Y-86741000D02*
X153991000Y-81601000D01*
X156591000Y-86741000D02*
X153991000Y-86741000D01*
X156591000Y-89341000D02*
X156591000Y-86741000D01*
X153991000Y-89341000D02*
X153991000Y-88011000D01*
X155321000Y-89341000D02*
X153991000Y-89341000D01*
G04 #@! TO.C,J1*
X172306000Y-103855000D02*
X172306000Y-94665000D01*
X162896000Y-103735000D02*
X162896000Y-94785000D01*
X169576000Y-94665000D02*
X172306000Y-94665000D01*
X169576000Y-103855000D02*
X172306000Y-103855000D01*
X165976000Y-94665000D02*
X166876000Y-94665000D01*
X165976000Y-103855000D02*
X166876000Y-103855000D01*
G04 #@! TO.C,D2*
X149749000Y-86558000D02*
X152609000Y-86558000D01*
X152609000Y-86558000D02*
X152609000Y-84638000D01*
X152609000Y-84638000D02*
X149749000Y-84638000D01*
G04 #@! TO.C,C3*
X147708252Y-81609000D02*
X147185748Y-81609000D01*
X147708252Y-80189000D02*
X147185748Y-80189000D01*
G04 #@! TO.C,C1*
X147708252Y-83641000D02*
X147185748Y-83641000D01*
X147708252Y-82221000D02*
X147185748Y-82221000D01*
G04 #@! TD*
G04 #@! TO.C,Q1*
D10*
X150407619Y-94646738D02*
X150360000Y-94741976D01*
X150264761Y-94837214D01*
X150121904Y-94980071D01*
X150074285Y-95075309D01*
X150074285Y-95170547D01*
X150312380Y-95122928D02*
X150264761Y-95218166D01*
X150169523Y-95313404D01*
X149979047Y-95361023D01*
X149645714Y-95361023D01*
X149455238Y-95313404D01*
X149360000Y-95218166D01*
X149312380Y-95122928D01*
X149312380Y-94932452D01*
X149360000Y-94837214D01*
X149455238Y-94741976D01*
X149645714Y-94694357D01*
X149979047Y-94694357D01*
X150169523Y-94741976D01*
X150264761Y-94837214D01*
X150312380Y-94932452D01*
X150312380Y-95122928D01*
X150312380Y-93741976D02*
X150312380Y-94313404D01*
X150312380Y-94027690D02*
X149312380Y-94027690D01*
X149455238Y-94122928D01*
X149550476Y-94218166D01*
X149598095Y-94313404D01*
G04 #@! TO.C,U1*
X143192595Y-108271880D02*
X143192595Y-109081404D01*
X143240214Y-109176642D01*
X143287833Y-109224261D01*
X143383071Y-109271880D01*
X143573547Y-109271880D01*
X143668785Y-109224261D01*
X143716404Y-109176642D01*
X143764023Y-109081404D01*
X143764023Y-108271880D01*
X144764023Y-109271880D02*
X144192595Y-109271880D01*
X144478309Y-109271880D02*
X144478309Y-108271880D01*
X144383071Y-108414738D01*
X144287833Y-108509976D01*
X144192595Y-108557595D01*
G04 #@! TO.C,D1*
X164212380Y-87098095D02*
X163212380Y-87098095D01*
X163212380Y-86860000D01*
X163260000Y-86717142D01*
X163355238Y-86621904D01*
X163450476Y-86574285D01*
X163640952Y-86526666D01*
X163783809Y-86526666D01*
X163974285Y-86574285D01*
X164069523Y-86621904D01*
X164164761Y-86717142D01*
X164212380Y-86860000D01*
X164212380Y-87098095D01*
X164212380Y-85574285D02*
X164212380Y-86145714D01*
X164212380Y-85860000D02*
X163212380Y-85860000D01*
X163355238Y-85955238D01*
X163450476Y-86050476D01*
X163498095Y-86145714D01*
X163842380Y-81541904D02*
X162842380Y-81541904D01*
X163842380Y-80970476D02*
X163270952Y-81399047D01*
X162842380Y-80970476D02*
X163413809Y-81541904D01*
G04 #@! TO.C,U4*
X120777095Y-84669380D02*
X120777095Y-85478904D01*
X120824714Y-85574142D01*
X120872333Y-85621761D01*
X120967571Y-85669380D01*
X121158047Y-85669380D01*
X121253285Y-85621761D01*
X121300904Y-85574142D01*
X121348523Y-85478904D01*
X121348523Y-84669380D01*
X122253285Y-85002714D02*
X122253285Y-85669380D01*
X122015190Y-84621761D02*
X121777095Y-85336047D01*
X122396142Y-85336047D01*
G04 #@! TO.C,SW4*
D15*
X101798500Y-99000571D02*
X102727071Y-99000571D01*
X102227071Y-99572000D01*
X102441357Y-99572000D01*
X102584214Y-99643428D01*
X102655642Y-99714857D01*
X102727071Y-99857714D01*
X102727071Y-100214857D01*
X102655642Y-100357714D01*
X102584214Y-100429142D01*
X102441357Y-100500571D01*
X102012785Y-100500571D01*
X101869928Y-100429142D01*
X101798500Y-100357714D01*
G04 #@! TO.C,SW3*
X101869928Y-91967928D02*
X101941357Y-91896500D01*
X102084214Y-91825071D01*
X102441357Y-91825071D01*
X102584214Y-91896500D01*
X102655642Y-91967928D01*
X102727071Y-92110785D01*
X102727071Y-92253642D01*
X102655642Y-92467928D01*
X101798500Y-93325071D01*
X102727071Y-93325071D01*
G04 #@! TO.C,SW2*
X102790571Y-85959071D02*
X101933428Y-85959071D01*
X102362000Y-85959071D02*
X102362000Y-84459071D01*
X102219142Y-84673357D01*
X102076285Y-84816214D01*
X101933428Y-84887642D01*
G04 #@! TO.C,SW1*
D10*
X143732404Y-91019380D02*
X144351452Y-91019380D01*
X144018119Y-91400333D01*
X144160976Y-91400333D01*
X144256214Y-91447952D01*
X144303833Y-91495571D01*
X144351452Y-91590809D01*
X144351452Y-91828904D01*
X144303833Y-91924142D01*
X144256214Y-91971761D01*
X144160976Y-92019380D01*
X143875261Y-92019380D01*
X143780023Y-91971761D01*
X143732404Y-91924142D01*
X144637166Y-91019380D02*
X144970500Y-92019380D01*
X145303833Y-91019380D01*
X145541928Y-91019380D02*
X146160976Y-91019380D01*
X145827642Y-91400333D01*
X145970500Y-91400333D01*
X146065738Y-91447952D01*
X146113357Y-91495571D01*
X146160976Y-91590809D01*
X146160976Y-91828904D01*
X146113357Y-91924142D01*
X146065738Y-91971761D01*
X145970500Y-92019380D01*
X145684785Y-92019380D01*
X145589547Y-91971761D01*
X145541928Y-91924142D01*
X139509523Y-91019380D02*
X139033333Y-91019380D01*
X138985714Y-91495571D01*
X139033333Y-91447952D01*
X139128571Y-91400333D01*
X139366666Y-91400333D01*
X139461904Y-91447952D01*
X139509523Y-91495571D01*
X139557142Y-91590809D01*
X139557142Y-91828904D01*
X139509523Y-91924142D01*
X139461904Y-91971761D01*
X139366666Y-92019380D01*
X139128571Y-92019380D01*
X139033333Y-91971761D01*
X138985714Y-91924142D01*
X139842857Y-91019380D02*
X140176190Y-92019380D01*
X140509523Y-91019380D01*
X137605047Y-85859880D02*
X137605047Y-84859880D01*
X137986000Y-84859880D01*
X138081238Y-84907500D01*
X138128857Y-84955119D01*
X138176476Y-85050357D01*
X138176476Y-85193214D01*
X138128857Y-85288452D01*
X138081238Y-85336071D01*
X137986000Y-85383690D01*
X137605047Y-85383690D01*
X138509809Y-84859880D02*
X138747904Y-85859880D01*
X138938380Y-85145595D01*
X139128857Y-85859880D01*
X139366952Y-84859880D01*
X140319333Y-85859880D02*
X139986000Y-85383690D01*
X139747904Y-85859880D02*
X139747904Y-84859880D01*
X140128857Y-84859880D01*
X140224095Y-84907500D01*
X140271714Y-84955119D01*
X140319333Y-85050357D01*
X140319333Y-85193214D01*
X140271714Y-85288452D01*
X140224095Y-85336071D01*
X140128857Y-85383690D01*
X139747904Y-85383690D01*
X141462190Y-85812261D02*
X141605047Y-85859880D01*
X141843142Y-85859880D01*
X141938380Y-85812261D01*
X141986000Y-85764642D01*
X142033619Y-85669404D01*
X142033619Y-85574166D01*
X141986000Y-85478928D01*
X141938380Y-85431309D01*
X141843142Y-85383690D01*
X141652666Y-85336071D01*
X141557428Y-85288452D01*
X141509809Y-85240833D01*
X141462190Y-85145595D01*
X141462190Y-85050357D01*
X141509809Y-84955119D01*
X141557428Y-84907500D01*
X141652666Y-84859880D01*
X141890761Y-84859880D01*
X142033619Y-84907500D01*
X142462190Y-85336071D02*
X142795523Y-85336071D01*
X142938380Y-85859880D02*
X142462190Y-85859880D01*
X142462190Y-84859880D01*
X142938380Y-84859880D01*
X143843142Y-85859880D02*
X143366952Y-85859880D01*
X143366952Y-84859880D01*
X144176476Y-85336071D02*
X144509809Y-85336071D01*
X144652666Y-85859880D02*
X144176476Y-85859880D01*
X144176476Y-84859880D01*
X144652666Y-84859880D01*
X145652666Y-85764642D02*
X145605047Y-85812261D01*
X145462190Y-85859880D01*
X145366952Y-85859880D01*
X145224095Y-85812261D01*
X145128857Y-85717023D01*
X145081238Y-85621785D01*
X145033619Y-85431309D01*
X145033619Y-85288452D01*
X145081238Y-85097976D01*
X145128857Y-85002738D01*
X145224095Y-84907500D01*
X145366952Y-84859880D01*
X145462190Y-84859880D01*
X145605047Y-84907500D01*
X145652666Y-84955119D01*
X145938380Y-84859880D02*
X146509809Y-84859880D01*
X146224095Y-85859880D02*
X146224095Y-84859880D01*
G04 #@! TO.C,R8*
X150582333Y-91002380D02*
X150249000Y-90526190D01*
X150010904Y-91002380D02*
X150010904Y-90002380D01*
X150391857Y-90002380D01*
X150487095Y-90050000D01*
X150534714Y-90097619D01*
X150582333Y-90192857D01*
X150582333Y-90335714D01*
X150534714Y-90430952D01*
X150487095Y-90478571D01*
X150391857Y-90526190D01*
X150010904Y-90526190D01*
X151153761Y-90430952D02*
X151058523Y-90383333D01*
X151010904Y-90335714D01*
X150963285Y-90240476D01*
X150963285Y-90192857D01*
X151010904Y-90097619D01*
X151058523Y-90050000D01*
X151153761Y-90002380D01*
X151344238Y-90002380D01*
X151439476Y-90050000D01*
X151487095Y-90097619D01*
X151534714Y-90192857D01*
X151534714Y-90240476D01*
X151487095Y-90335714D01*
X151439476Y-90383333D01*
X151344238Y-90430952D01*
X151153761Y-90430952D01*
X151058523Y-90478571D01*
X151010904Y-90526190D01*
X150963285Y-90621428D01*
X150963285Y-90811904D01*
X151010904Y-90907142D01*
X151058523Y-90954761D01*
X151153761Y-91002380D01*
X151344238Y-91002380D01*
X151439476Y-90954761D01*
X151487095Y-90907142D01*
X151534714Y-90811904D01*
X151534714Y-90621428D01*
X151487095Y-90526190D01*
X151439476Y-90478571D01*
X151344238Y-90430952D01*
G04 #@! TO.C,Q2*
X141644619Y-94773738D02*
X141597000Y-94868976D01*
X141501761Y-94964214D01*
X141358904Y-95107071D01*
X141311285Y-95202309D01*
X141311285Y-95297547D01*
X141549380Y-95249928D02*
X141501761Y-95345166D01*
X141406523Y-95440404D01*
X141216047Y-95488023D01*
X140882714Y-95488023D01*
X140692238Y-95440404D01*
X140597000Y-95345166D01*
X140549380Y-95249928D01*
X140549380Y-95059452D01*
X140597000Y-94964214D01*
X140692238Y-94868976D01*
X140882714Y-94821357D01*
X141216047Y-94821357D01*
X141406523Y-94868976D01*
X141501761Y-94964214D01*
X141549380Y-95059452D01*
X141549380Y-95249928D01*
X140644619Y-94440404D02*
X140597000Y-94392785D01*
X140549380Y-94297547D01*
X140549380Y-94059452D01*
X140597000Y-93964214D01*
X140644619Y-93916595D01*
X140739857Y-93868976D01*
X140835095Y-93868976D01*
X140977952Y-93916595D01*
X141549380Y-94488023D01*
X141549380Y-93868976D01*
G04 #@! TO.C,J3*
X152741380Y-84343833D02*
X153455666Y-84343833D01*
X153598523Y-84391452D01*
X153693761Y-84486690D01*
X153741380Y-84629547D01*
X153741380Y-84724785D01*
X152741380Y-83962880D02*
X152741380Y-83343833D01*
X153122333Y-83677166D01*
X153122333Y-83534309D01*
X153169952Y-83439071D01*
X153217571Y-83391452D01*
X153312809Y-83343833D01*
X153550904Y-83343833D01*
X153646142Y-83391452D01*
X153693761Y-83439071D01*
X153741380Y-83534309D01*
X153741380Y-83820023D01*
X153693761Y-83915261D01*
X153646142Y-83962880D01*
D15*
X154940000Y-90110571D02*
X154940000Y-90467714D01*
X154582857Y-90324857D02*
X154940000Y-90467714D01*
X155297142Y-90324857D01*
X154725714Y-90753428D02*
X154940000Y-90467714D01*
X155154285Y-90753428D01*
G04 #@! TO.C,J1*
D10*
X167028880Y-100663333D02*
X167743166Y-100663333D01*
X167886023Y-100710952D01*
X167981261Y-100806190D01*
X168028880Y-100949047D01*
X168028880Y-101044285D01*
X168028880Y-99663333D02*
X168028880Y-100234761D01*
X168028880Y-99949047D02*
X167028880Y-99949047D01*
X167171738Y-100044285D01*
X167266976Y-100139523D01*
X167314595Y-100234761D01*
G04 #@! TO.C,D2*
X150010904Y-87700380D02*
X150010904Y-86700380D01*
X150249000Y-86700380D01*
X150391857Y-86748000D01*
X150487095Y-86843238D01*
X150534714Y-86938476D01*
X150582333Y-87128952D01*
X150582333Y-87271809D01*
X150534714Y-87462285D01*
X150487095Y-87557523D01*
X150391857Y-87652761D01*
X150249000Y-87700380D01*
X150010904Y-87700380D01*
X150963285Y-86795619D02*
X151010904Y-86748000D01*
X151106142Y-86700380D01*
X151344238Y-86700380D01*
X151439476Y-86748000D01*
X151487095Y-86795619D01*
X151534714Y-86890857D01*
X151534714Y-86986095D01*
X151487095Y-87128952D01*
X150915666Y-87700380D01*
X151534714Y-87700380D01*
G04 #@! TO.C,C3*
X150201333Y-81129142D02*
X150153714Y-81176761D01*
X150010857Y-81224380D01*
X149915619Y-81224380D01*
X149772761Y-81176761D01*
X149677523Y-81081523D01*
X149629904Y-80986285D01*
X149582285Y-80795809D01*
X149582285Y-80652952D01*
X149629904Y-80462476D01*
X149677523Y-80367238D01*
X149772761Y-80272000D01*
X149915619Y-80224380D01*
X150010857Y-80224380D01*
X150153714Y-80272000D01*
X150201333Y-80319619D01*
X150534666Y-80224380D02*
X151153714Y-80224380D01*
X150820380Y-80605333D01*
X150963238Y-80605333D01*
X151058476Y-80652952D01*
X151106095Y-80700571D01*
X151153714Y-80795809D01*
X151153714Y-81033904D01*
X151106095Y-81129142D01*
X151058476Y-81176761D01*
X150963238Y-81224380D01*
X150677523Y-81224380D01*
X150582285Y-81176761D01*
X150534666Y-81129142D01*
G04 #@! TO.C,C1*
X150201333Y-83288142D02*
X150153714Y-83335761D01*
X150010857Y-83383380D01*
X149915619Y-83383380D01*
X149772761Y-83335761D01*
X149677523Y-83240523D01*
X149629904Y-83145285D01*
X149582285Y-82954809D01*
X149582285Y-82811952D01*
X149629904Y-82621476D01*
X149677523Y-82526238D01*
X149772761Y-82431000D01*
X149915619Y-82383380D01*
X150010857Y-82383380D01*
X150153714Y-82431000D01*
X150201333Y-82478619D01*
X151153714Y-83383380D02*
X150582285Y-83383380D01*
X150868000Y-83383380D02*
X150868000Y-82383380D01*
X150772761Y-82526238D01*
X150677523Y-82621476D01*
X150582285Y-82669095D01*
G04 #@! TD*
M02*
