M48
; DRILL file {KiCad 5.1.10} date Tue Sep 21 16:03:23 2021
; FORMAT={-:-/ absolute / metric / decimal}
; #@! TF.CreationDate,2021-09-21T16:03:23-04:00
; #@! TF.GenerationSoftware,Kicad,Pcbnew,5.1.10
FMAT,2
METRIC
T1C0.400
T2C0.600
T3C0.762
T4C0.800
T5C1.000
T6C1.016
T7C1.100
T8C2.000
T9C3.200
%
G90
G05
T1
X98.806Y-88.773
X98.806Y-95.377
X98.933Y-102.743
X99.06Y-99.251
X99.251Y-92.202
X100.076Y-85.471
X100.52Y-105.474
X102.933Y-106.362
X103.188Y-83.883
X103.695Y-81.343
X105.346Y-109.093
X106.363Y-86.741
X106.426Y-106.236
X107.442Y-92.71
X107.759Y-103.632
X107.95Y-99.631
X110.553Y-98.489
X110.871Y-102.044
X112.141Y-90.678
X112.459Y-94.297
X112.84Y-108.966
X113.792Y-100.457
X113.792Y-104.203
X113.983Y-81.724
X115.506Y-106.87
X119.507Y-96.329
X121.73Y-98.996
X121.983Y-109.347
X123.888Y-96.456
X125.349Y-99.314
X125.984Y-90.361
X126.365Y-99.568
X126.63Y-97.409
X128.397Y-84.455
X130.048Y-95.504
X130.302Y-104.521
X130.683Y-108.077
X131.064Y-94.678
X133.921Y-89.599
X134.175Y-81.153
X134.366Y-80.2
X135.064Y-81.534
X135.128Y-79.756
X135.292Y-94.72
X135.319Y-84.772
X135.509Y-107.188
X135.636Y-82.867
X135.763Y-80.391
X135.826Y-83.82
X135.826Y-90.741
X136.271Y-81.28
X136.398Y-79.756
X136.398Y-84.899
X136.525Y-82.233
X136.525Y-86.233
X136.616Y-93.762
X136.843Y-109.22
X136.969Y-83.629
X137.16Y-80.328
X137.16Y-90.773
X137.477Y-81.407
X137.605Y-82.296
X137.668Y-84.264
X137.668Y-86.487
X137.795Y-83.185
X138.303Y-79.756
X138.324Y-90.641
X138.493Y-93.572
X138.557Y-83.757
X138.748Y-80.518
X139.319Y-79.819
X139.679Y-92.126
X139.891Y-80.518
X140.272Y-84.074
X140.716Y-80.01
X140.97Y-85.09
X140.97Y-86.995
X141.16Y-83.566
X141.796Y-80.391
X141.922Y-84.074
X142.43Y-93.662
X143.701Y-84.645
X144.97Y-84.582
X146.113Y-84.328
X146.494Y-93.662
X146.494Y-95.631
X148.447Y-94.678
X151.701Y-81.09
X155.702Y-93.789
X159.702Y-96.266
X160.655Y-95.504
X161.29Y-85.026
X161.607Y-93.281
X161.988Y-108.521
X162.115Y-87.249
X162.179Y-95.059
X162.941Y-106.934
X163.195Y-82.486
X163.576Y-96.285
X163.576Y-97.135
X163.576Y-97.985
X163.576Y-98.835
X163.576Y-99.685
X163.576Y-100.535
X163.576Y-101.385
X163.576Y-102.235
X164.719Y-82.867
X164.926Y-96.285
X164.926Y-97.135
X164.926Y-97.985
X164.926Y-98.835
X164.926Y-99.685
X164.926Y-100.535
X164.926Y-101.385
X164.926Y-102.235
X166.497Y-98.933
X168.148Y-85.852
X168.212Y-87.249
X168.212Y-97.472
X168.275Y-84.074
X168.338Y-92.202
X168.402Y-101.409
X168.465Y-88.709
X168.529Y-90.361
T3
X117.919Y-83.229
X120.459Y-83.229
X122.999Y-83.229
X125.539Y-83.229
T4
X140.144Y-98.87
X140.144Y-101.409
X140.144Y-103.95
X140.144Y-106.489
X147.764Y-98.87
X147.764Y-101.409
X147.764Y-103.95
X147.764Y-106.489
T5
X152.718Y-98.889
X152.718Y-101.429
X152.718Y-103.969
X152.718Y-106.509
X155.321Y-82.931
X155.321Y-85.471
X155.321Y-88.011
X157.861Y-82.931
X157.861Y-85.471
X157.861Y-88.011
X160.338Y-98.87
X160.338Y-101.409
X160.338Y-103.95
X160.338Y-106.489
T6
X139.7Y-88.392
X142.24Y-88.392
X144.78Y-88.392
T7
X161.29Y-81.28
X161.29Y-91.44
T8
X109.954Y-83.305
X109.954Y-107.305
X133.454Y-83.21
X133.454Y-107.21
T9
X99.965Y-81.994
X99.965Y-107.994
X166.964Y-81.994
X166.964Y-107.994
T2
X163.806Y-94.935G85X165.306Y-94.935
G05
X163.806Y-103.585G85X165.306Y-103.585
G05
X167.536Y-94.935G85X168.336Y-94.935
G05
X167.536Y-103.585G85X168.336Y-103.585
G05
T0
M30
